<svg
  width="677"
  height="225"
  viewBox="0 0 677 225"
  fill="none"
  xmlns="http://www.w3.org/2000/svg"
>
  <g clip-path="url(#clip0_863_150)">
    <path
      fill-rule="evenodd"
      clip-rule="evenodd"
      d="M387.536 64.9241C395.554 62.5649 399.515 69.1078 400.331 76.2345C400.787 80.1748 400.283 84.3099 398.963 87.2043C398.026 89.2474 396.706 91.1689 394.858 92.3609C393.729 93.0904 392.361 93.5283 390.993 93.504C389.48 93.4554 388.712 92.9445 388.712 92.9445C388.462 93.9065 388.226 94.8595 387.992 95.8046C386.947 100.021 385.942 104.08 383.863 108.074C381.583 112.476 378.534 116.489 374.933 119.87C360.938 132.981 338.037 135.437 320.177 130.524C305.053 126.365 293.627 115.03 289.522 99.6821C288.802 99.7794 288.13 99.8524 287.746 99.8524C281.696 99.8524 277.495 94.1365 277.495 85.9639C277.495 77.7911 281.696 72.0752 287.746 72.0995C287.962 72.0995 288.394 72.0995 289.714 72.3183C289.823 71.8865 289.924 71.438 290.025 70.9883C290.169 70.3491 290.313 69.7075 290.482 69.1078L313.695 79.2019C316.144 91.7284 333.98 97.5902 340.918 85.3314C341.001 85.179 341.216 84.5846 341.472 83.8744C341.952 82.5441 342.578 80.8073 342.766 80.8073H344.758C346.151 86.4502 352.68 91.7527 358.538 91.7527C369.1 91.7527 373.829 84.8692 374.549 75.213L385.952 61.8838C386.252 62.5162 386.498 62.9601 386.744 63.404C386.99 63.8479 387.236 64.2918 387.536 64.9241ZM354.313 107.66L360.266 106.663C363.075 106.176 364.947 103.501 364.515 100.679C364.059 97.8579 361.418 95.9607 358.633 96.4228L327.907 101.604C325.122 102.09 323.25 104.766 323.706 107.587C324.114 110.117 326.274 111.917 328.747 111.917C329.035 111.917 329.299 111.892 329.587 111.844L333.86 111.114L351.846 108.074L354.313 107.66Z"
      fill="white"
    />
    <path
      d="M349.896 30.2148C353.28 34.1552 355.561 38.4361 356.737 44.9547C357.169 47.3384 355.897 49.7463 353.688 50.6706C353.568 50.7192 353.424 50.7679 353.304 50.8167C350.352 51.8383 347.231 49.8679 346.655 46.779C346.487 45.879 346.295 44.979 346.055 44.1521V44.1277C346.055 44.1277 346.007 43.9818 345.935 43.7142C345.215 41.136 341.23 28.7554 338.781 28.9743C338.781 28.9743 338.421 28.8527 336.212 29.1446C336.164 29.1446 336.116 29.1689 336.068 29.1689C336.045 29.1689 336.045 29.1689 336.021 29.1689C335.324 29.2662 334.484 29.3878 333.596 29.5581C333.884 29.8013 334.148 30.0446 334.436 30.3121C336.021 31.9418 339.477 35.9794 341.278 45.8547C341.83 48.968 339.501 51.8869 336.404 51.8383C336.381 51.8383 336.333 51.8383 336.309 51.8383C333.836 51.7896 331.819 49.8436 331.507 47.3627C330.571 39.6523 326.514 32.7688 324.474 32.0391L325.17 31.7229C315.208 35.1525 302.173 42.7899 294.227 59.4027L314.848 68.3537C315.736 66.3349 316.984 64.462 318.568 62.9296C321.569 60.0352 325.482 58.5757 329.491 58.7946C336.021 59.1595 341.35 63.9512 343.27 70.3968H344.782C345.647 66.8699 347.303 63.708 349.751 61.3485C352.68 58.5514 356.401 57.311 360.146 57.311C365.115 57.311 369.676 60.5702 371.428 64.8754L381.559 53.3705C372.653 40.2117 358.778 32.258 349.896 30.2148Z"
      fill="white"
    />
    <path
      d="M359.594 68.791C359.546 68.791 359.474 68.791 359.426 68.791C358.274 68.791 357.361 69.3505 356.761 69.8128C355.201 71.1018 354.265 73.2665 354.265 75.6016C354.265 77.9367 355.201 80.1014 356.761 81.3907C357.361 81.877 358.37 82.4365 359.594 82.4122C360.818 82.3636 362.09 81.5852 363.051 80.3446C362.619 80.5393 362.162 80.6853 361.658 80.6853C360.026 80.6853 358.73 79.5419 358.73 78.1313C358.73 76.7204 360.026 75.6016 361.658 75.6016C362.859 75.6016 363.891 76.2341 364.347 77.134C364.443 76.6232 364.587 76.1611 364.587 75.6016C364.587 71.6613 361.994 68.9128 359.594 68.791Z"
      fill="white"
    />
    <path
      d="M328.939 69.1562C328.867 69.1562 328.795 69.1562 328.699 69.1562C327.306 69.1562 326.25 69.8617 325.602 70.4939C324.33 71.7102 323.586 73.5831 323.586 75.6019C323.586 77.6207 324.33 79.4935 325.602 80.7098C326.274 81.3664 327.331 82.1448 328.915 82.0232C329.635 81.9746 330.307 81.7314 330.907 81.3421C329.635 81.026 328.699 79.9071 328.699 78.5206C328.699 76.9155 330.019 75.6019 331.627 75.6019C332.444 75.6019 333.164 75.9423 333.692 76.4775C333.716 76.1857 333.836 75.918 333.836 75.6019C333.836 72.1966 331.627 69.3022 328.939 69.1562Z"
      fill="white"
    />
  </g>
  <path
    d="M486.03 224.448C486.465 222.272 486.9 220.116 487.335 217.979C487.81 215.804 488.245 213.667 488.641 211.57C490.144 204.054 491.37 196.853 492.32 189.97C491.885 189.89 491.43 189.851 490.955 189.851C490.48 189.811 490.025 189.811 489.59 189.851C488.641 189.93 487.711 189.811 486.801 189.495C486.841 189.178 486.86 188.842 486.86 188.486C486.86 188.09 486.86 187.695 486.86 187.299C486.86 186.864 486.86 186.449 486.86 186.053C486.86 185.618 486.88 185.202 486.92 184.807C486.959 184.372 486.979 183.917 486.979 183.442C486.979 182.928 486.999 182.413 487.038 181.899C488.067 181.978 489.096 182.037 490.124 182.077C491.153 182.116 492.181 182.136 493.21 182.136C496.138 182.136 498.927 182.037 501.577 181.84C504.268 181.642 506.74 181.404 508.995 181.127L508.343 184.332L507.808 187.121C507.611 188.15 507.433 188.961 507.274 189.554C506.839 189.673 506.404 189.772 505.969 189.851C505.534 189.93 505.098 189.989 504.663 190.029C504.228 190.068 503.773 190.128 503.298 190.207C502.863 190.286 502.428 190.365 501.993 190.444C501.399 193.372 500.905 195.904 500.509 198.04C500.153 200.177 499.817 202.234 499.5 204.212C499.223 206.15 498.887 208.287 498.492 210.621C497.819 214.617 497.226 218.672 496.711 222.786L486.03 224.448Z"
    fill="white"
  />
  <path
    d="M469.621 224.27C469.7 223.597 469.779 222.945 469.858 222.312C469.937 221.679 470.017 221.046 470.096 220.413L470.452 217.089C470.491 216.536 470.531 216.021 470.57 215.547C470.61 215.072 470.65 214.637 470.689 214.241H465.526L463.153 222.786C462.282 222.905 461.254 223.044 460.067 223.202C458.88 223.321 457.772 223.439 456.743 223.558C456.11 223.637 455.478 223.716 454.845 223.795C454.251 223.874 453.638 223.953 453.005 224.033L457.693 208.485C458.247 206.625 458.88 204.509 459.592 202.135C460.304 199.761 461.016 197.328 461.728 194.836C462.48 192.343 463.172 190.009 463.805 187.833C464.478 185.618 465.012 183.759 465.408 182.255C468.098 182.057 470.828 181.82 473.597 181.543C476.406 181.266 479.136 180.89 481.786 180.416C481.588 182.631 481.391 185.143 481.193 187.952C481.035 190.721 480.876 193.59 480.718 196.557C480.599 199.524 480.461 202.452 480.303 205.34C480.224 208.069 480.125 210.898 480.006 213.826C479.887 216.714 479.769 219.681 479.65 222.727C479.056 222.806 478.463 222.885 477.87 222.964C477.276 223.044 476.683 223.123 476.089 223.202C475.1 223.36 474.012 223.538 472.825 223.736C471.639 223.934 470.57 224.112 469.621 224.27ZM466.951 208.307C467.188 208.307 467.623 208.287 468.256 208.247C468.929 208.208 469.562 208.168 470.155 208.129C470.748 208.089 471.104 208.069 471.223 208.069C471.223 207.555 471.302 206.507 471.461 204.924C471.619 203.342 471.777 201.68 471.935 199.939C472.014 198.911 472.094 197.862 472.173 196.794C472.291 195.686 472.41 194.559 472.529 193.412L472.885 188.249L471.995 188.308L470.63 193.412L466.951 208.307Z"
    fill="white"
  />
  <path
    d="M425.566 224.507C426.08 221.777 426.575 219.087 427.049 216.436C427.564 213.746 428.078 211.076 428.592 208.425C429.146 205.142 429.66 202.056 430.135 199.168C430.649 196.28 431.144 193.411 431.619 190.563C432.133 187.714 432.627 184.728 433.102 181.602L442.716 180.949C442.043 183.719 441.371 186.607 440.698 189.613C440.065 192.62 439.472 195.548 438.918 198.396L444.793 197.743C445.07 196.359 445.327 194.994 445.564 193.649C445.841 192.264 446.079 190.899 446.276 189.554C446.474 188.249 446.712 186.923 446.989 185.578C447.305 184.193 447.641 182.809 447.997 181.424C449.422 181.187 450.866 181.009 452.329 180.89C453.793 180.732 455.02 180.633 456.009 180.593C456.998 180.514 457.492 180.475 457.492 180.475C456.978 182.057 456.464 183.917 455.949 186.053C455.435 188.189 454.94 190.444 454.466 192.818C453.991 195.192 453.536 197.565 453.101 199.939C452.666 202.273 452.27 204.449 451.914 206.467C451.479 208.999 451.063 211.551 450.668 214.122C450.272 216.654 449.877 219.245 449.481 221.896L440.223 222.964C440.5 221.777 440.738 220.61 440.936 219.463C441.173 218.276 441.39 217.129 441.588 216.021C441.984 214.122 442.38 212.144 442.775 210.087C443.21 208.03 443.547 206.269 443.784 204.805L438.028 205.339C437.869 206.091 437.711 206.902 437.553 207.772C437.434 208.643 437.276 209.572 437.078 210.562C436.88 211.551 436.683 212.52 436.485 213.469C436.327 214.379 436.168 215.289 436.01 216.199C435.812 217.267 435.595 218.335 435.357 219.404C435.12 220.472 434.902 221.54 434.705 222.608L425.566 224.507Z"
    fill="white"
  />
  <path
    d="M408.293 224.507C405.801 224.507 403.763 223.34 402.181 221.006C400.598 218.672 399.807 215.467 399.807 211.392C399.807 207.674 400.321 204.014 401.35 200.414C402.379 196.774 403.823 193.51 405.682 190.622C407.542 187.734 409.737 185.42 412.269 183.679C414.841 181.899 417.669 181.009 420.755 181.009C422.694 181.009 424.355 181.76 425.74 183.264C427.125 184.767 427.817 186.785 427.817 189.317V190.029C427.817 190.187 427.817 190.326 427.817 190.444C427.817 190.563 427.797 190.701 427.758 190.86L419.984 192.937C419.509 191.948 418.955 191.453 418.322 191.453C417.373 191.453 416.364 192.225 415.296 193.768C414.267 195.31 413.278 197.15 412.329 199.286C411.696 200.711 411.122 202.174 410.608 203.678C410.133 205.181 409.757 206.586 409.48 207.891C409.203 209.197 409.065 210.265 409.065 211.096C409.065 212.322 409.243 213.212 409.599 213.766C409.876 214.28 410.311 214.538 410.904 214.538C411.498 214.538 412.15 214.261 412.863 213.707C413.575 213.113 414.228 212.381 414.821 211.511C415.454 210.641 415.869 209.77 416.067 208.9L422.832 211.63C420.894 216.061 418.579 219.325 415.889 221.421C413.238 223.479 410.706 224.507 408.293 224.507Z"
    fill="white"
  />
  <path
    d="M358.62 224.626C357.157 224.626 355.792 224.507 354.526 224.27C356.425 217.346 357.928 210.383 359.036 203.381C360.183 196.339 361.271 189.257 362.3 182.136C364.357 181.701 366.493 181.325 368.709 181.009C370.924 180.653 373.219 180.475 375.592 180.475C376.898 180.475 378.283 180.712 379.746 181.187C381.21 181.622 382.437 182.433 383.426 183.62C384.454 184.767 384.969 186.409 384.969 188.545C384.969 190.523 384.553 192.343 383.722 194.005C382.892 195.666 381.843 197.091 380.577 198.278C379.311 199.464 378.006 200.315 376.661 200.829C377.214 201.106 377.867 201.601 378.619 202.313C379.371 203.025 380.023 203.974 380.577 205.161C381.131 206.348 381.408 207.792 381.408 209.493C381.408 211.867 380.696 214.023 379.272 215.962C377.887 217.861 376.028 219.443 373.693 220.709C371.438 221.975 369.005 222.944 366.394 223.617C363.783 224.29 361.192 224.626 358.62 224.626ZM369.183 195.963C370.41 195.726 371.577 195.409 372.685 195.014C373.792 194.618 374.682 194.163 375.355 193.649C376.067 193.134 376.423 192.581 376.423 191.987C376.423 191.235 376.126 190.642 375.533 190.207C374.94 189.772 374.228 189.455 373.397 189.257C372.566 189.06 371.794 188.961 371.082 188.961H370.489C370.212 190.543 369.955 191.928 369.717 193.115C369.48 194.262 369.302 195.211 369.183 195.963ZM366.157 212.639C366.948 212.559 367.818 212.421 368.768 212.223C369.717 212.025 370.627 211.729 371.498 211.333C372.368 210.898 373.08 210.344 373.634 209.671C374.228 208.959 374.524 208.109 374.524 207.12C374.524 206.17 374.208 205.418 373.575 204.865C372.942 204.311 372.17 203.915 371.26 203.678C370.39 203.401 369.559 203.262 368.768 203.262H368.293C368.095 203.262 367.937 203.282 367.818 203.322C367.581 204.785 367.304 206.328 366.988 207.95C366.671 209.572 366.394 211.135 366.157 212.639Z"
    fill="white"
  />
  <path
    d="M331.867 224.448L339.641 182.255L358.394 180.653C358.117 181.523 357.879 182.413 357.681 183.323C357.484 184.075 357.286 184.866 357.088 185.697C356.93 186.488 356.791 187.2 356.673 187.833C356.158 187.873 355.426 187.912 354.477 187.952C353.527 187.952 352.558 187.972 351.569 188.011C350.58 188.011 349.729 188.011 349.017 188.011C348.305 188.011 347.929 188.011 347.89 188.011L345.813 198.634L349.255 198.456C349.69 198.416 350.125 198.396 350.56 198.396C351.035 198.396 351.49 198.396 351.925 198.396C352.36 198.396 352.756 198.396 353.112 198.396C353.468 198.396 353.745 198.377 353.943 198.337C353.864 198.891 353.785 199.445 353.705 199.999C353.666 200.513 353.607 201.047 353.527 201.601L352.993 204.865C352.795 204.904 352.538 204.924 352.222 204.924C351.905 204.924 351.529 204.924 351.094 204.924C350.659 204.964 350.204 204.983 349.729 204.983C349.255 204.983 348.8 205.003 348.365 205.043C347.85 205.082 347.316 205.102 346.762 205.102C346.208 205.102 345.615 205.122 344.982 205.161L342.964 216.081L351.628 214.716L351.035 221.481L331.867 224.448Z"
    fill="white"
  />
  <path
    d="M295.218 224.626L299.728 182.492C300.638 182.453 301.528 182.393 302.398 182.314C303.308 182.196 304.179 182.057 305.009 181.899C305.801 181.741 306.612 181.622 307.442 181.543C308.273 181.424 309.084 181.345 309.875 181.305L309.697 182.492C309.658 182.888 309.579 183.343 309.46 183.857C309.381 184.332 309.302 184.886 309.223 185.519C309.025 186.903 308.788 188.486 308.511 190.266C308.234 192.046 307.917 194.025 307.561 196.201C307.324 197.546 307.047 199.168 306.73 201.067C306.453 202.966 306.117 205.122 305.721 207.535H306.612C307.126 205.715 307.601 204.054 308.036 202.55C308.471 201.047 308.847 199.722 309.163 198.574C309.48 197.427 309.777 196.398 310.054 195.488C310.37 194.539 310.627 193.688 310.825 192.937C311.656 190.009 312.328 187.616 312.843 185.756C313.357 183.897 313.693 182.69 313.851 182.136H314.386C315.414 182.136 316.482 182.057 317.59 181.899C318.737 181.741 319.766 181.563 320.676 181.365C320.636 181.523 320.557 182.176 320.439 183.323C320.32 184.47 320.181 185.875 320.023 187.536C319.865 189.198 319.707 190.919 319.548 192.699C319.271 196.062 319.014 198.99 318.777 201.482C318.579 203.974 318.401 205.992 318.243 207.535H319.311L324.949 182.018L328.925 181.483C329.478 181.404 330.052 181.325 330.646 181.246C331.239 181.167 331.852 181.088 332.485 181.009C333.632 180.85 334.72 180.672 335.749 180.475C334.562 183.798 333.375 187.714 332.188 192.225C331.002 196.735 329.815 201.304 328.628 205.933C327.995 208.465 327.362 211.036 326.729 213.647C326.135 216.219 325.542 218.85 324.949 221.54L311.537 223.795L314.148 200.889H313.436L307.561 222.43L295.218 224.626Z"
    fill="white"
  />
  <path
    d="M255.51 224.448L263.283 182.255L282.036 180.653C281.759 181.523 281.522 182.413 281.324 183.323C281.126 184.075 280.928 184.866 280.73 185.697C280.572 186.488 280.434 187.2 280.315 187.833C279.801 187.873 279.069 187.912 278.119 187.952C277.17 187.952 276.2 187.972 275.211 188.011C274.222 188.011 273.372 188.011 272.66 188.011C271.948 188.011 271.572 188.011 271.532 188.011L269.455 198.634L272.897 198.456C273.332 198.416 273.767 198.396 274.203 198.396C274.677 198.396 275.132 198.396 275.567 198.396C276.003 198.396 276.398 198.396 276.754 198.396C277.11 198.396 277.387 198.377 277.585 198.337C277.506 198.891 277.427 199.445 277.348 199.999C277.308 200.513 277.249 201.047 277.17 201.601L276.636 204.865C276.438 204.904 276.181 204.924 275.864 204.924C275.548 204.924 275.172 204.924 274.737 204.924C274.301 204.964 273.847 204.983 273.372 204.983C272.897 204.983 272.442 205.003 272.007 205.043C271.493 205.082 270.958 205.102 270.405 205.102C269.851 205.102 269.257 205.122 268.624 205.161L266.607 216.081L275.271 214.716L274.677 221.481L255.51 224.448Z"
    fill="white"
  />
  <path
    d="M229.434 224.685C228.88 224.685 228.326 224.645 227.772 224.566C227.218 224.527 226.664 224.467 226.111 224.388L229.256 208.425C229.651 206.249 230.067 203.954 230.502 201.541C230.977 199.088 231.432 196.675 231.867 194.301C232.302 191.888 232.678 189.653 232.994 187.596C233.35 185.538 233.627 183.798 233.825 182.373C235.526 182.057 237.247 181.76 238.988 181.483C240.729 181.206 242.509 181.068 244.329 181.068C247.256 181.068 249.571 181.681 251.272 182.908C252.973 184.094 254.2 185.677 254.951 187.655C255.703 189.593 256.079 191.73 256.079 194.064C256.079 196.161 255.782 198.376 255.189 200.71C254.595 203.005 253.745 205.3 252.637 207.594C251.569 209.849 250.283 211.986 248.78 214.003C246.445 217.129 243.597 219.7 240.234 221.718C236.911 223.696 233.311 224.685 229.434 224.685ZM236.496 217.208C237.88 216.298 239.186 214.913 240.412 213.054C241.678 211.194 242.865 208.959 243.973 206.348C244.962 203.935 245.733 201.66 246.287 199.524C246.841 197.348 247.118 195.548 247.118 194.123C247.118 192.66 246.703 191.512 245.872 190.681C245.081 189.851 243.815 189.435 242.074 189.435C241.441 192.838 240.788 195.983 240.116 198.871C239.483 201.759 238.85 204.667 238.217 207.594C237.623 210.522 237.049 213.726 236.496 217.208Z"
    fill="white"
  />
  <path
    d="M204.381 224.626C201.77 224.626 199.634 223.617 197.972 221.599C196.311 219.582 195.48 216.535 195.48 212.461C195.48 210.206 195.757 207.832 196.311 205.339C196.865 202.847 197.636 200.394 198.625 197.981C199.614 195.568 200.762 193.332 202.067 191.275C204.164 187.952 206.577 185.242 209.307 183.145C212.037 181.048 214.905 180 217.912 180C220.285 180 222.105 180.613 223.371 181.84C224.677 183.026 225.587 184.569 226.101 186.468C226.615 188.328 226.872 190.266 226.872 192.284C226.872 196.992 226.141 201.383 224.677 205.458C223.253 209.493 221.393 212.916 219.098 215.724C216.804 218.613 214.351 220.828 211.74 222.371C209.168 223.874 206.716 224.626 204.381 224.626ZM207.586 214.834C209.366 214.834 210.929 214.241 212.274 213.054C213.659 211.867 214.826 210.364 215.775 208.544C216.725 206.685 217.437 204.746 217.912 202.728C218.386 200.711 218.624 198.891 218.624 197.269C218.624 196.636 218.564 195.963 218.446 195.251C218.327 194.499 218.07 193.847 217.674 193.293C217.279 192.739 216.665 192.462 215.835 192.462C214.015 192.462 212.373 193.135 210.909 194.48C209.445 195.785 208.219 197.447 207.23 199.464C206.241 201.522 205.509 203.539 205.034 205.517C204.559 207.496 204.322 209.296 204.322 210.918C204.322 211.748 204.619 212.619 205.212 213.529C205.806 214.399 206.597 214.834 207.586 214.834Z"
    fill="white"
  />
  <path
    d="M177.481 224.507C174.989 224.507 172.952 223.34 171.369 221.006C169.787 218.672 168.995 215.467 168.995 211.392C168.995 207.674 169.51 204.014 170.538 200.414C171.567 196.774 173.011 193.51 174.87 190.622C176.73 187.734 178.925 185.42 181.457 183.679C184.029 181.899 186.858 181.009 189.943 181.009C191.882 181.009 193.544 181.76 194.928 183.264C196.313 184.767 197.005 186.785 197.005 189.317V190.029C197.005 190.187 197.005 190.326 197.005 190.444C197.005 190.563 196.985 190.701 196.946 190.86L189.172 192.937C188.697 191.948 188.143 191.453 187.51 191.453C186.561 191.453 185.552 192.225 184.484 193.768C183.455 195.31 182.466 197.15 181.517 199.286C180.884 200.711 180.31 202.174 179.796 203.678C179.321 205.181 178.945 206.586 178.668 207.891C178.391 209.197 178.253 210.265 178.253 211.096C178.253 212.322 178.431 213.212 178.787 213.766C179.064 214.28 179.499 214.538 180.093 214.538C180.686 214.538 181.339 214.261 182.051 213.707C182.763 213.113 183.416 212.381 184.009 211.511C184.642 210.641 185.058 209.77 185.255 208.9L192.02 211.63C190.082 216.061 187.768 219.325 185.077 221.421C182.427 223.479 179.895 224.507 177.481 224.507Z"
    fill="white"
  />
  <g filter="url(#filter0_d_863_150)">
    <rect
      x="8.99536"
      y="49.5918"
      width="60"
      height="60"
      rx="15"
      transform="rotate(-13.0929 8.99536 49.5918)"
      fill="white"
    />
    <path
      d="M59.792 66.3995C56.5585 65.8313 53.4637 64.6494 50.6747 62.9176C46.7873 60.4919 43.6204 57.0694 41.5031 53.0058C41.4097 52.8251 41.2587 52.6808 41.0741 52.5956C40.8894 52.5104 40.6817 52.4891 40.4836 52.5352C40.2855 52.5812 40.1084 52.692 39.9804 52.8499C39.8523 53.0079 39.7805 53.204 39.7763 53.4074C39.6671 57.9882 38.335 62.4566 35.9183 66.3496C34.1794 69.1342 31.9238 71.5605 29.2732 73.4975C28.2373 74.2611 27.147 74.9348 26.0068 75.5229C25.8247 75.6153 25.6788 75.7661 25.5925 75.9511C25.5062 76.1362 25.4844 76.3448 25.5307 76.5437C25.5769 76.7426 25.6886 76.9203 25.8477 77.0482C26.0068 77.1762 26.2042 77.2471 26.4084 77.2497C27.6907 77.2726 28.9629 77.3967 30.2329 77.624C33.4664 78.1923 36.5612 79.3742 39.3502 81.106C43.2385 83.5319 46.4062 86.9549 48.524 91.0192C48.6163 91.2013 48.7671 91.3472 48.9522 91.4335C49.1372 91.5198 49.3459 91.5416 49.5448 91.4953C49.7437 91.4491 49.9213 91.3375 50.0493 91.1783C50.1773 91.0192 50.2482 90.8218 50.2507 90.6176C50.2732 89.3336 50.3974 88.0614 50.6247 86.7913C51.1928 83.5578 52.3748 80.463 54.1066 77.674C56.533 73.7864 59.956 70.6194 64.0203 68.5021C64.2009 68.4086 64.3452 68.2576 64.4304 68.073C64.5157 67.8884 64.5369 67.6806 64.4909 67.4825C64.4448 67.2844 64.334 67.1074 64.1761 66.9793C64.0181 66.8512 63.822 66.7794 63.6187 66.7753C62.3351 66.7522 61.0555 66.6266 59.792 66.3995Z"
      fill="#3186FF"
    />
    <path
      d="M59.792 66.3995C56.5585 65.8313 53.4637 64.6494 50.6747 62.9176C46.7873 60.4919 43.6204 57.0694 41.5031 53.0058C41.4097 52.8251 41.2587 52.6808 41.0741 52.5956C40.8894 52.5104 40.6817 52.4891 40.4836 52.5352C40.2855 52.5812 40.1084 52.692 39.9804 52.8499C39.8523 53.0079 39.7805 53.204 39.7763 53.4074C39.6671 57.9882 38.335 62.4566 35.9183 66.3496C34.1794 69.1342 31.9238 71.5605 29.2732 73.4975C28.2373 74.2611 27.147 74.9348 26.0068 75.5229C25.8247 75.6153 25.6788 75.7661 25.5925 75.9511C25.5062 76.1362 25.4844 76.3448 25.5307 76.5437C25.5769 76.7426 25.6886 76.9203 25.8477 77.0482C26.0068 77.1762 26.2042 77.2471 26.4084 77.2497C27.6907 77.2726 28.9629 77.3967 30.2329 77.624C33.4664 78.1923 36.5612 79.3742 39.3502 81.106C43.2385 83.5319 46.4062 86.9549 48.524 91.0192C48.6163 91.2013 48.7671 91.3472 48.9522 91.4335C49.1372 91.5198 49.3459 91.5416 49.5448 91.4953C49.7437 91.4491 49.9213 91.3375 50.0493 91.1783C50.1773 91.0192 50.2482 90.8218 50.2507 90.6176C50.2732 89.3336 50.3974 88.0614 50.6247 86.7913C51.1928 83.5578 52.3748 80.463 54.1066 77.674C56.533 73.7864 59.956 70.6194 64.0203 68.5021C64.2009 68.4086 64.3452 68.2576 64.4304 68.073C64.5157 67.8884 64.5369 67.6806 64.4909 67.4825C64.4448 67.2844 64.334 67.1074 64.1761 66.9793C64.0181 66.8512 63.822 66.7794 63.6187 66.7753C62.3351 66.7522 61.0555 66.6266 59.792 66.3995Z"
      fill="url(#paint0_linear_863_150)"
    />
    <path
      d="M59.792 66.3995C56.5585 65.8313 53.4637 64.6494 50.6747 62.9176C46.7873 60.4919 43.6204 57.0694 41.5031 53.0058C41.4097 52.8251 41.2587 52.6808 41.0741 52.5956C40.8894 52.5104 40.6817 52.4891 40.4836 52.5352C40.2855 52.5812 40.1084 52.692 39.9804 52.8499C39.8523 53.0079 39.7805 53.204 39.7763 53.4074C39.6671 57.9882 38.335 62.4566 35.9183 66.3496C34.1794 69.1342 31.9238 71.5605 29.2732 73.4975C28.2373 74.2611 27.147 74.9348 26.0068 75.5229C25.8247 75.6153 25.6788 75.7661 25.5925 75.9511C25.5062 76.1362 25.4844 76.3448 25.5307 76.5437C25.5769 76.7426 25.6886 76.9203 25.8477 77.0482C26.0068 77.1762 26.2042 77.2471 26.4084 77.2497C27.6907 77.2726 28.9629 77.3967 30.2329 77.624C33.4664 78.1923 36.5612 79.3742 39.3502 81.106C43.2385 83.5319 46.4062 86.9549 48.524 91.0192C48.6163 91.2013 48.7671 91.3472 48.9522 91.4335C49.1372 91.5198 49.3459 91.5416 49.5448 91.4953C49.7437 91.4491 49.9213 91.3375 50.0493 91.1783C50.1773 91.0192 50.2482 90.8218 50.2507 90.6176C50.2732 89.3336 50.3974 88.0614 50.6247 86.7913C51.1928 83.5578 52.3748 80.463 54.1066 77.674C56.533 73.7864 59.956 70.6194 64.0203 68.5021C64.2009 68.4086 64.3452 68.2576 64.4304 68.073C64.5157 67.8884 64.5369 67.6806 64.4909 67.4825C64.4448 67.2844 64.334 67.1074 64.1761 66.9793C64.0181 66.8512 63.822 66.7794 63.6187 66.7753C62.3351 66.7522 61.0555 66.6266 59.792 66.3995Z"
      fill="url(#paint1_linear_863_150)"
    />
    <path
      d="M59.792 66.3995C56.5585 65.8313 53.4637 64.6494 50.6747 62.9176C46.7873 60.4919 43.6204 57.0694 41.5031 53.0058C41.4097 52.8251 41.2587 52.6808 41.0741 52.5956C40.8894 52.5104 40.6817 52.4891 40.4836 52.5352C40.2855 52.5812 40.1084 52.692 39.9804 52.8499C39.8523 53.0079 39.7805 53.204 39.7763 53.4074C39.6671 57.9882 38.335 62.4566 35.9183 66.3496C34.1794 69.1342 31.9238 71.5605 29.2732 73.4975C28.2373 74.2611 27.147 74.9348 26.0068 75.5229C25.8247 75.6153 25.6788 75.7661 25.5925 75.9511C25.5062 76.1362 25.4844 76.3448 25.5307 76.5437C25.5769 76.7426 25.6886 76.9203 25.8477 77.0482C26.0068 77.1762 26.2042 77.2471 26.4084 77.2497C27.6907 77.2726 28.9629 77.3967 30.2329 77.624C33.4664 78.1923 36.5612 79.3742 39.3502 81.106C43.2385 83.5319 46.4062 86.9549 48.524 91.0192C48.6163 91.2013 48.7671 91.3472 48.9522 91.4335C49.1372 91.5198 49.3459 91.5416 49.5448 91.4953C49.7437 91.4491 49.9213 91.3375 50.0493 91.1783C50.1773 91.0192 50.2482 90.8218 50.2507 90.6176C50.2732 89.3336 50.3974 88.0614 50.6247 86.7913C51.1928 83.5578 52.3748 80.463 54.1066 77.674C56.533 73.7864 59.956 70.6194 64.0203 68.5021C64.2009 68.4086 64.3452 68.2576 64.4304 68.073C64.5157 67.8884 64.5369 67.6806 64.4909 67.4825C64.4448 67.2844 64.334 67.1074 64.1761 66.9793C64.0181 66.8512 63.822 66.7794 63.6187 66.7753C62.3351 66.7522 61.0555 66.6266 59.792 66.3995Z"
      fill="url(#paint2_linear_863_150)"
    />
  </g>
  <g filter="url(#filter1_d_863_150)">
    <g clip-path="url(#clip1_863_150)">
      <rect
        x="505.995"
        y="31.5918"
        width="60"
        height="60"
        rx="15"
        transform="rotate(-22.1185 505.995 31.5918)"
        fill="white"
      />
      <g clip-path="url(#clip2_863_150)">
        <path
          d="M536.308 58.7704L541.934 51.7214L541.914 51.3161L541.71 51.1687L541.356 51.3124L540.106 51.734L535.895 53.3144L532.222 54.6325L528.647 55.8661L527.69 56.0376L526.42 55.2854L526.284 54.7074L526.823 53.9106L527.92 53.5727L530.332 52.7779L533.948 51.5923L536.56 50.7054L540.501 49.5623L541.102 49.3182L541.088 49.0412L540.82 48.974L540.6 48.8889L535.957 47.9044L530.958 46.8996L528.285 46.2372L526.859 45.9334L526.007 45.4485L525.131 43.9913L525.69 42.4649L527.088 42.0046L527.474 41.9576L529.283 42.4564L533.155 43.538L538.152 44.805L538.906 45.0453L539.065 44.7953L539.049 44.6707L538.624 44.3505L534.997 41.4242L531.201 38.487L529.56 37.2977L528.909 36.4487C528.659 36.1223 528.452 35.7661 528.291 35.3884L528.81 33.3549L529.363 32.8888L530.985 32.4707L531.862 32.7691L533.707 34.5633L536.653 37.3761L540.955 41.0786L542.223 42.179L543.12 43.3111L543.421 43.6477L543.664 43.5486L543.573 43.3232L542.7 40.6087L541.751 37.2253L540.415 32.9199L540.062 31.6962L540.071 30.0552L540.916 28.8268L541.993 28.8926L543.164 29.6491L543.339 30.3766L544.059 33.4141L545.018 38.2471L545.675 41.474L546.002 41.341L546.225 40.8149L546.927 38.1802L548.182 33.9567L548.795 32.2325L549.54 30.3033L550.114 29.2946L551.709 28.6463L553.591 29.9126L553.797 31.9263L553 34.6738L552.356 36.9899L551.471 40.4079L551.105 43.0035L551.287 43.1276L551.565 42.9787L555.594 40.2508L557.801 38.8502L560.446 37.2085L561.975 37.2848L562.364 37.8376L562.364 39.2895L559.628 41.2755L556.353 43.4378L551.554 46.8512L551.508 46.9239L551.621 46.9873L554.105 46.2407L555.15 45.8808L557.654 44.863L562.458 43.3152L564.005 43.6254L565.138 44.313L565.32 45.1114L563.833 46.8312L561.057 47.2597L554.574 48.2575L552.341 48.5729L552.06 48.6871L552.13 48.857L554.487 49.8201L558.72 51.3559L564.057 53.3789L564.615 54.1917L564.404 55.0963L563.848 55.234L559.404 54.0593L557.621 53.4399L553.631 52.1473L553.433 52.2276L553.54 52.4901L554.632 53.2135L560.463 57.1784L561.329 58.7694L561.288 59.4211L560.483 60.1315L559.375 60.3623L556.045 58.2523L552.501 55.7944L549.517 53.5117L549.351 53.7231L552.862 65.3463L552.606 66.1159L551.656 67.0057L550.43 66.6748L549.464 65.7235L549.035 63.2425L548.428 60.0277L547.954 57.4677L547.204 54.3546L547.07 53.2721L547.025 53.2148L546.82 53.3304L545.84 57.2674L544.322 63.1825L542.815 67.1144L542.279 67.6274L540.94 67.506L540.628 66.4419L540.877 65.2808L542.659 59.0946L543.701 55.2851L544.456 53.0247L544.347 52.7845L544.262 52.819L537.052 63.1547L535.399 64.0892L534.36 63.6908L533.986 62.5007L534.191 61.9805L536.313 58.7574L536.308 58.7704Z"
          fill="#D97757"
        />
      </g>
    </g>
  </g>
  <g filter="url(#filter2_d_863_150)">
    <rect
      x="609.614"
      y="50"
      width="60"
      height="60"
      rx="15"
      transform="rotate(14.1013 609.614 50)"
      fill="white"
    />
    <path
      d="M632.407 68.6387C633.062 69.7887 633.714 70.9421 634.364 72.0971C634.39 72.1432 634.428 72.1816 634.474 72.2083C634.52 72.2349 634.572 72.2489 634.625 72.2487H643.879C644.169 72.2487 644.415 72.4321 644.622 72.7937L647.045 77.0771C647.362 77.6387 647.445 77.8737 647.085 78.4721C646.652 79.1887 646.23 79.9121 645.819 80.6387L645.207 81.7354C645.03 82.0621 644.835 82.2021 645.14 82.5887L649.56 90.3171C649.847 90.8187 649.745 91.1404 649.489 91.6004C648.76 92.9087 648.019 94.2071 647.264 95.5004C646.999 95.9537 646.677 96.1254 646.13 96.1171C644.835 96.0904 643.544 96.1004 642.252 96.1437C642.224 96.1452 642.197 96.1535 642.174 96.1681C642.15 96.1827 642.131 96.2029 642.117 96.2271C640.627 98.8675 639.124 101.501 637.609 104.127C637.327 104.615 636.975 104.732 636.4 104.734C634.739 104.739 633.064 104.74 631.372 104.737C631.214 104.737 631.06 104.695 630.924 104.615C630.788 104.536 630.675 104.422 630.597 104.285L628.372 100.414C628.359 100.388 628.339 100.367 628.315 100.353C628.29 100.338 628.262 100.331 628.234 100.332H619.704C619.229 100.382 618.782 100.33 618.362 100.179L615.69 95.5621C615.611 95.4254 615.569 95.2704 615.569 95.1125C615.568 94.9546 615.609 94.7993 615.687 94.6621L617.699 91.1287C617.727 91.0788 617.742 91.0222 617.742 90.9646C617.742 90.907 617.727 90.8504 617.699 90.8004C616.651 88.9862 615.609 87.1684 614.574 85.3471L613.257 83.0221C612.99 82.5054 612.969 82.1954 613.415 81.4137C614.19 80.0587 614.96 78.7054 615.727 77.3537C615.947 76.9637 616.234 76.7971 616.7 76.7954C618.139 76.7893 619.577 76.7888 621.015 76.7937C621.052 76.7934 621.087 76.7836 621.119 76.7652C621.15 76.7467 621.176 76.7204 621.194 76.6887L625.87 68.5304C625.941 68.4063 626.044 68.303 626.167 68.2311C626.29 68.1591 626.431 68.1209 626.574 68.1204C627.447 68.1187 628.329 68.1204 629.212 68.1104L630.907 68.0721C631.475 68.0671 632.114 68.1254 632.407 68.6387ZM626.687 69.3104C626.669 69.3104 626.652 69.315 626.637 69.3238C626.622 69.3325 626.609 69.3452 626.6 69.3604L621.824 77.7187C621.801 77.7581 621.768 77.7908 621.728 77.8136C621.689 77.8364 621.644 77.8485 621.599 77.8487H616.822C616.729 77.8487 616.705 77.8904 616.754 77.9721L626.437 94.8987C626.479 94.9687 626.459 95.0021 626.38 95.0037L621.722 95.0287C621.654 95.0264 621.587 95.0434 621.528 95.0776C621.469 95.1117 621.42 95.1618 621.389 95.2221L619.189 99.0721C619.115 99.2021 619.154 99.2687 619.302 99.2687L628.829 99.2821C628.905 99.2821 628.962 99.3154 629.002 99.3837L631.34 103.474C631.417 103.609 631.494 103.61 631.572 103.474L639.915 88.8737L641.22 86.5704C641.228 86.5562 641.24 86.5443 641.254 86.5361C641.268 86.5278 641.284 86.5235 641.3 86.5235C641.317 86.5235 641.333 86.5278 641.347 86.5361C641.361 86.5443 641.372 86.5562 641.38 86.5704L643.754 90.7871C643.771 90.8186 643.797 90.8448 643.829 90.863C643.86 90.8812 643.896 90.8906 643.932 90.8904L648.537 90.8571C648.549 90.8572 648.56 90.8541 648.571 90.8483C648.581 90.8424 648.589 90.8339 648.595 90.8237C648.601 90.8135 648.604 90.8021 648.604 90.7904C648.604 90.7787 648.601 90.7672 648.595 90.7571L643.762 82.2804C643.745 82.2521 643.735 82.2195 643.735 82.1862C643.735 82.153 643.745 82.1204 643.762 82.0921L644.25 81.2471L646.117 77.9521C646.157 77.8837 646.137 77.8487 646.059 77.8487H626.734C626.635 77.8487 626.612 77.8054 626.662 77.7204L629.052 73.5454C629.07 73.5169 629.079 73.484 629.079 73.4504C629.079 73.4168 629.07 73.3838 629.052 73.3554L626.775 69.3621C626.767 69.3463 626.754 69.3332 626.738 69.3241C626.723 69.315 626.705 69.3102 626.687 69.3104ZM637.17 82.6771C637.247 82.6771 637.267 82.7104 637.227 82.7771L635.84 85.2187L631.485 92.8604C631.477 92.8753 631.465 92.8876 631.45 92.8961C631.436 92.9047 631.419 92.909 631.402 92.9087C631.385 92.9087 631.368 92.9042 631.354 92.8957C631.339 92.8872 631.327 92.875 631.319 92.8604L625.564 82.8071C625.53 82.7504 625.547 82.7204 625.61 82.7171L625.97 82.6971L637.174 82.6771H637.17Z"
      fill="url(#paint3_linear_863_150)"
    />
  </g>
  <g filter="url(#filter3_d_863_150)">
    <rect
      x="109.731"
      y="62"
      width="60"
      height="60"
      rx="15"
      transform="rotate(9.33844 109.731 62)"
      fill="white"
    />
    <path
      fill-rule="evenodd"
      clip-rule="evenodd"
      d="M151.753 99.734C152.666 98.6465 153.337 97.3681 153.72 95.9864C154.102 94.6047 154.187 93.1524 153.97 91.7293C153.337 87.3178 149.974 83.7774 145.646 82.9729C145.155 81.6057 144.388 80.3583 143.394 79.3127C142.4 78.2671 141.203 77.4471 139.881 76.9066C135.807 75.1943 131.151 76.3258 128.361 79.7078C126.969 79.4323 125.537 79.4627 124.161 79.7969C122.784 80.1311 121.496 80.7614 120.38 81.6461C118.703 82.9579 117.487 84.7898 116.911 86.8714C116.335 88.9531 116.429 91.174 117.18 93.2064C116.267 94.2938 115.596 95.5723 115.213 96.9542C114.83 98.3361 114.744 99.7886 114.962 101.212C115.595 105.624 118.958 109.162 123.285 109.968C123.776 111.335 124.544 112.582 125.537 113.628C126.531 114.673 127.728 115.492 129.05 116.032C133.126 117.748 137.785 116.615 140.575 113.23C141.969 113.506 143.402 113.475 144.779 113.141C146.156 112.806 147.445 112.175 148.562 111.289C150.237 109.977 151.451 108.145 152.026 106.065C152.601 103.984 152.506 101.764 151.756 99.733L151.753 99.734ZM130.014 113.582C128.384 112.905 127.03 111.67 126.186 110.089C126.254 110.082 126.374 110.069 126.456 110.055L135.566 108.843C135.792 108.814 136.007 108.725 136.187 108.583C136.367 108.441 136.507 108.251 136.591 108.035L140.727 97.5091L143.146 100.641C143.173 100.672 143.182 100.714 143.173 100.751L139.747 109.469C138.219 113.342 133.866 115.182 130.014 113.582ZM117.554 100.871C117.294 99.1104 117.655 97.3175 118.573 95.8141C118.613 95.8705 118.686 95.9707 118.739 96.0385L124.461 103.449C124.749 103.828 125.215 104.023 125.68 103.959L136.8 102.479L135.369 106.123C135.362 106.142 135.351 106.159 135.336 106.173C135.322 106.186 135.304 106.196 135.285 106.201L126.077 107.425C121.978 107.966 118.167 105.032 117.557 100.868L117.554 100.871ZM122.007 83.7548C123.389 82.6695 125.102 82.1176 126.849 82.195L126.745 82.451L123.356 91.0747C123.27 91.2908 123.242 91.527 123.275 91.7587C123.309 91.9904 123.402 92.2092 123.546 92.3923L130.531 101.437L126.681 101.951C126.661 101.954 126.641 101.953 126.622 101.947C126.603 101.941 126.586 101.93 126.572 101.915L120.789 94.4207C118.22 91.0853 118.764 86.3164 122.004 83.7575L122.007 83.7548ZM145.386 100.549L138.401 91.5031L142.25 90.9923C142.269 90.9883 142.29 90.9893 142.309 90.9952C142.328 91.0011 142.345 91.0117 142.359 91.0261L148.144 98.5173C150.718 101.855 150.173 106.631 146.925 109.185C145.543 110.269 143.83 110.822 142.084 110.747L145.574 101.866C145.66 101.65 145.688 101.415 145.655 101.183C145.621 100.952 145.528 100.734 145.385 100.551L145.386 100.549ZM150.361 97.1263C150.306 97.0505 150.25 96.9755 150.193 96.9012L144.472 89.4902C144.329 89.3041 144.142 89.1591 143.928 89.0698C143.714 88.9805 143.482 88.95 143.254 88.9813L132.133 90.4611L133.565 86.8173C133.572 86.7983 133.583 86.7812 133.597 86.7676C133.612 86.7539 133.63 86.7441 133.649 86.739L142.854 85.5164C146.956 84.9746 150.77 87.9118 151.373 92.0785C151.628 93.8381 151.272 95.6257 150.361 97.1263ZM128.199 95.4244L125.78 92.2941C125.767 92.2791 125.757 92.2609 125.753 92.2413C125.748 92.2218 125.749 92.2014 125.754 92.182L129.18 83.4645C130.706 79.5846 135.069 77.7468 138.922 79.3612C140.552 80.0424 141.903 81.2774 142.744 82.8514C142.675 82.8584 142.557 82.8724 142.477 82.8844L133.366 84.0972C133.14 84.1249 132.925 84.2143 132.744 84.3563C132.564 84.4982 132.424 84.6874 132.34 84.9042L128.199 95.4244ZM131.355 92.4414L136.308 91.783L139.419 95.8114L137.577 100.498L132.624 101.157L129.512 97.1276L131.353 92.4407L131.355 92.4414Z"
      fill="black"
    />
  </g>
  <defs>
    <filter
      id="filter0_d_863_150"
      x="-3.00464"
      y="26"
      width="96.032"
      height="96.0322"
      filterUnits="userSpaceOnUse"
      color-interpolation-filters="sRGB"
    >
      <feFlood flood-opacity="0" result="BackgroundImageFix" />
      <feColorMatrix
        in="SourceAlpha"
        type="matrix"
        values="0 0 0 0 0 0 0 0 0 0 0 0 0 0 0 0 0 0 127 0"
        result="hardAlpha"
      />
      <feOffset dy="2" />
      <feGaussianBlur stdDeviation="6" />
      <feComposite in2="hardAlpha" operator="out" />
      <feColorMatrix
        type="matrix"
        values="0 0 0 0 0 0 0 0 0 0 0 0 0 0 0 0 0 0 0.14 0"
      />
      <feBlend
        mode="normal"
        in2="BackgroundImageFix"
        result="effect1_dropShadow_863_150"
      />
      <feBlend
        mode="normal"
        in="SourceGraphic"
        in2="effect1_dropShadow_863_150"
        result="shape"
      />
    </filter>
    <filter
      id="filter1_d_863_150"
      x="493.995"
      y="-0.999512"
      width="102.176"
      height="102.176"
      filterUnits="userSpaceOnUse"
      color-interpolation-filters="sRGB"
    >
      <feFlood flood-opacity="0" result="BackgroundImageFix" />
      <feColorMatrix
        in="SourceAlpha"
        type="matrix"
        values="0 0 0 0 0 0 0 0 0 0 0 0 0 0 0 0 0 0 127 0"
        result="hardAlpha"
      />
      <feOffset dy="2" />
      <feGaussianBlur stdDeviation="6" />
      <feComposite in2="hardAlpha" operator="out" />
      <feColorMatrix
        type="matrix"
        values="0 0 0 0 0 0 0 0 0 0 0 0 0 0 0 0 0 0 0.14 0"
      />
      <feBlend
        mode="normal"
        in2="BackgroundImageFix"
        result="effect1_dropShadow_863_150"
      />
      <feBlend
        mode="normal"
        in="SourceGraphic"
        in2="effect1_dropShadow_863_150"
        result="shape"
      />
    </filter>
    <filter
      id="filter2_d_863_150"
      x="582.995"
      y="40"
      width="96.8101"
      height="96.8101"
      filterUnits="userSpaceOnUse"
      color-interpolation-filters="sRGB"
    >
      <feFlood flood-opacity="0" result="BackgroundImageFix" />
      <feColorMatrix
        in="SourceAlpha"
        type="matrix"
        values="0 0 0 0 0 0 0 0 0 0 0 0 0 0 0 0 0 0 127 0"
        result="hardAlpha"
      />
      <feOffset dy="2" />
      <feGaussianBlur stdDeviation="6" />
      <feComposite in2="hardAlpha" operator="out" />
      <feColorMatrix
        type="matrix"
        values="0 0 0 0 0 0 0 0 0 0 0 0 0 0 0 0 0 0 0.14 0"
      />
      <feBlend
        mode="normal"
        in2="BackgroundImageFix"
        result="effect1_dropShadow_863_150"
      />
      <feBlend
        mode="normal"
        in="SourceGraphic"
        in2="effect1_dropShadow_863_150"
        result="shape"
      />
    </filter>
    <filter
      id="filter3_d_863_150"
      x="87.9954"
      y="52"
      width="92.9407"
      height="92.9409"
      filterUnits="userSpaceOnUse"
      color-interpolation-filters="sRGB"
    >
      <feFlood flood-opacity="0" result="BackgroundImageFix" />
      <feColorMatrix
        in="SourceAlpha"
        type="matrix"
        values="0 0 0 0 0 0 0 0 0 0 0 0 0 0 0 0 0 0 127 0"
        result="hardAlpha"
      />
      <feOffset dy="2" />
      <feGaussianBlur stdDeviation="6" />
      <feComposite in2="hardAlpha" operator="out" />
      <feColorMatrix
        type="matrix"
        values="0 0 0 0 0 0 0 0 0 0 0 0 0 0 0 0 0 0 0.14 0"
      />
      <feBlend
        mode="normal"
        in2="BackgroundImageFix"
        result="effect1_dropShadow_863_150"
      />
      <feBlend
        mode="normal"
        in="SourceGraphic"
        in2="effect1_dropShadow_863_150"
        result="shape"
      />
    </filter>
    <linearGradient
      id="paint0_linear_863_150"
      x1="37.5989"
      y1="80.27"
      x2="43.2414"
      y2="72.4237"
      gradientUnits="userSpaceOnUse"
    >
      <stop stop-color="#08B962" />
      <stop offset="1" stop-color="#08B962" stop-opacity="0" />
    </linearGradient>
    <linearGradient
      id="paint1_linear_863_150"
      x1="35.2509"
      y1="62.1476"
      x2="43.715"
      y2="70.4467"
      gradientUnits="userSpaceOnUse"
    >
      <stop stop-color="#F94543" />
      <stop offset="1" stop-color="#F94543" stop-opacity="0" />
    </linearGradient>
    <linearGradient
      id="paint2_linear_863_150"
      x1="30.576"
      y1="78.1695"
      x2="54.7529"
      y2="69.7462"
      gradientUnits="userSpaceOnUse"
    >
      <stop stop-color="#FABC12" />
      <stop offset="0.46" stop-color="#FABC12" stop-opacity="0" />
    </linearGradient>
    <linearGradient
      id="paint3_linear_863_150"
      x1="613.066"
      y1="68.0718"
      x2="4279.78"
      y2="68.0718"
      gradientUnits="userSpaceOnUse"
    >
      <stop stop-color="#6336E7" stop-opacity="0.84" />
      <stop offset="1" stop-color="#6F69F7" stop-opacity="0.84" />
    </linearGradient>
    <clipPath id="clip0_863_150">
      <rect
        width="123"
        height="106"
        fill="white"
        transform="translate(277.495 27)"
      />
    </clipPath>
    <clipPath id="clip1_863_150">
      <rect
        x="505.995"
        y="31.5918"
        width="60"
        height="60"
        rx="15"
        transform="rotate(-22.1185 505.995 31.5918)"
        fill="white"
      />
    </clipPath>
    <clipPath id="clip2_863_150">
      <rect
        width="40"
        height="40"
        fill="white"
        transform="translate(519.025 37.0908) rotate(-22.1185)"
      />
    </clipPath>
  </defs>
</svg>
