<svg viewBox="0 0 11 12" xmlns="http://www.w3.org/2000/svg">
  <path
    fill-rule="evenodd"
    clip-rule="evenodd"
    d="M3.9605 2.09801H2.164C1.80538 2.09801 1.46144 2.24044 1.20781 2.49397C0.954186 2.74751 0.811633 3.09139 0.8115 3.45001V9.13101C0.8115 9.48972 0.953995 9.83373 1.20764 10.0874C1.46128 10.341 1.80529 10.4835 2.164 10.4835H7.8455C8.20421 10.4835 8.54822 10.341 8.80186 10.0874C9.0555 9.83373 9.198 9.48972 9.198 9.13101V6.75301L10.0095 6.19651V9.13151C10.0094 9.7054 9.78133 10.2557 9.37553 10.6615C8.96973 11.0673 8.41939 11.2954 7.8455 11.2955H2.164C1.59011 11.2954 1.03977 11.0673 0.633967 10.6615C0.228167 10.2557 0.000132611 9.7054 5.77687e-08 9.13151V3.45051C-6.56129e-05 3.16629 0.0558595 2.88484 0.164581 2.62223C0.273303 2.35962 0.432692 2.12101 0.633644 1.92001C0.834597 1.71901 1.07318 1.55957 1.33576 1.45078C1.59834 1.342 1.87978 1.28601 2.164 1.28601H4.4365L3.9605 2.09801Z"
  />
  <path
    fill-rule="evenodd"
    clip-rule="evenodd"
    d="M7.91008 0C7.98258 0 8.04408 0.052 8.05958 0.123C8.20158 0.78315 8.53151 1.38813 9.00958 1.865C9.48653 2.34334 10.0917 2.67345 10.7521 2.8155C10.8231 2.831 10.8751 2.8925 10.8751 2.9655C10.8747 3.00064 10.8622 3.03458 10.8399 3.06169C10.8175 3.08879 10.7865 3.10743 10.7521 3.1145C10.0919 3.25664 9.48689 3.58674 9.01008 4.065C8.5255 4.54806 8.19313 5.16255 8.05408 5.8325C8.04733 5.86582 8.02935 5.89582 8.00314 5.91748C7.97693 5.93914 7.94408 5.95115 7.91008 5.9515C7.87609 5.95115 7.84324 5.93914 7.81703 5.91748C7.79082 5.89582 7.77284 5.86582 7.76608 5.8325C7.62703 5.16255 7.29467 4.54806 6.81008 4.065C6.32703 3.58042 5.71253 3.24805 5.04258 3.109C5.00926 3.10225 4.97926 3.08426 4.9576 3.05806C4.93595 3.03185 4.92394 2.999 4.92358 2.965C4.92358 2.895 4.97358 2.835 5.04258 2.821C5.71253 2.68195 6.32703 2.34958 6.81008 1.865C7.28832 1.38818 7.61842 0.783197 7.76058 0.123C7.76767 0.0884901 7.78638 0.0574547 7.81359 0.0350709C7.8408 0.0126872 7.87485 0.000308572 7.91008 0Z"
  />
</svg>
