<svg viewBox="0 0 23 23" xmlns="http://www.w3.org/2000/svg">
  <path
    d="M7.03408 0.00136584C7.18178 0.00114722 7.32947 0.000829698 7.47717 0.000421856C7.83371 -0.000373913 8.19024 4.84744e-05 8.54678 0.000922056C8.96305 0.00190256 9.37932 0.00170802 9.79558 0.00149319C10.5386 0.00115569 11.2816 0.00196594 12.0246 0.00339281C12.7438 0.00477386 13.4631 0.00517932 14.1823 0.00457521C14.9683 0.00391624 15.7542 0.00380738 16.5402 0.00463852C16.6241 0.00472649 16.708 0.00481414 16.7919 0.00490149C16.8331 0.00494519 16.8744 0.00498888 16.9169 0.00503389C17.2064 0.00530627 17.4959 0.00520139 17.7854 0.00495538C18.1753 0.00464042 18.5652 0.00526623 18.9551 0.00650948C19.0978 0.00682928 19.2406 0.00685845 19.3833 0.00656985C19.5787 0.00622437 19.7741 0.00695195 19.9695 0.0079403C20.0254 0.00759378 20.0813 0.00724727 20.1389 0.00689025C20.8937 0.0137918 21.5701 0.228524 22.14 0.73703C22.7642 1.39063 22.9942 2.13095 22.9902 3.01533C22.9724 3.83627 22.6215 4.43313 22.0511 5.00187C21.8723 5.16157 21.6761 5.27041 21.465 5.3815C21.4204 5.40569 21.3758 5.42988 21.3298 5.4548C21.1884 5.53102 21.0464 5.60599 20.9041 5.68059C20.8584 5.70462 20.8127 5.72865 20.7656 5.75342C20.4412 5.92348 20.1153 6.09059 19.7891 6.25715C19.6015 6.35314 19.4139 6.44925 19.2264 6.54543C19.1802 6.56908 19.1341 6.59273 19.0866 6.6171C18.665 6.8337 18.2461 7.05525 17.8275 7.27745C17.4915 7.45571 17.1542 7.63129 16.8167 7.80665C16.3288 8.06061 15.841 8.31501 15.3539 8.5706C15.2733 8.61285 15.2733 8.61285 15.1912 8.65595C15.0303 8.7404 14.8694 8.82486 14.7085 8.90933C14.0063 9.27798 13.3037 9.64583 12.6003 10.012C12.1669 10.2376 11.7339 10.4639 11.3023 10.6931C10.8712 10.9216 10.4393 11.1486 10.0068 11.3743C9.93494 11.4119 9.86312 11.4495 9.79133 11.4871C8.63304 12.0944 7.56076 12.5666 6.2361 12.5597C6.17059 12.5594 6.10508 12.559 6.03758 12.5587C4.6294 12.5385 3.26487 12.0404 2.20247 11.1003C2.15618 11.062 2.10989 11.0237 2.06219 10.9843C0.991901 10.0721 0.197416 8.67216 0.0337004 7.26162C-0.103438 5.54826 0.153694 3.82995 1.25592 2.45905C1.34144 2.36009 1.42746 2.26157 1.51407 2.16357C1.56776 2.09723 1.56776 2.09723 1.62253 2.02956C2.97796 0.389694 5.02461 -0.00720298 7.03408 0.00136584Z"
  />
  <path
    d="M16.7558 10.448C16.8213 10.4483 16.8868 10.4487 16.9543 10.449C18.3625 10.4692 19.727 10.9673 20.7894 11.9074C20.8357 11.9457 20.882 11.984 20.9297 12.0234C22.0217 12.9541 22.7995 14.3636 22.9582 15.8005C23.0251 16.6559 23.0373 17.536 22.7973 18.3649C22.7777 18.4354 22.7582 18.5058 22.7381 18.5784C22.4869 19.4076 22.0815 20.1165 21.5352 20.7865C21.4952 20.8362 21.4552 20.8859 21.4139 20.9371C20.429 22.1008 18.9087 22.8398 17.4048 22.9774C17.1977 22.9855 16.9908 22.9857 16.7836 22.9855C16.7223 22.9857 16.661 22.9858 16.5979 22.986C16.3932 22.9865 16.1885 22.9866 15.9839 22.9867C15.8368 22.987 15.6898 22.9873 15.5428 22.9876C15.1438 22.9883 14.7448 22.9887 14.3459 22.9889C14.0965 22.9891 13.8471 22.9894 13.5977 22.9896C12.9063 22.9903 12.215 22.9909 11.5237 22.9911C11.4795 22.9911 11.4353 22.9911 11.3898 22.9911C11.3233 22.9912 11.3233 22.9912 11.2556 22.9912C11.1658 22.9912 11.0761 22.9912 10.9864 22.9913C10.9419 22.9913 10.8973 22.9913 10.8515 22.9913C10.1304 22.9915 9.40942 22.9925 8.68838 22.9939C7.94702 22.9952 7.20566 22.996 6.46429 22.996C6.04848 22.9961 5.63267 22.9964 5.21686 22.9975C4.82566 22.9984 4.43447 22.9985 4.04328 22.998C3.89999 22.998 3.75671 22.9982 3.61343 22.9988C3.41723 22.9995 3.22107 22.9992 3.02487 22.9986C2.96871 22.9991 2.91255 22.9995 2.85468 23C2.09914 22.9946 1.42224 22.7796 0.851882 22.2707C0.227698 21.6171 -0.00233198 20.8768 0.00166974 19.9924C0.0194767 19.1714 0.370401 18.5746 0.94077 18.0058C1.11955 17.8461 1.31582 17.7373 1.52684 17.6262C1.57147 17.602 1.6161 17.5778 1.66208 17.5529C1.80349 17.4767 1.94548 17.4017 2.08774 17.3271C2.13344 17.3031 2.17915 17.279 2.22624 17.2543C2.55068 17.0842 2.87658 16.9171 3.20281 16.7505C3.39043 16.6546 3.57798 16.5584 3.7655 16.4623C3.81165 16.4386 3.85779 16.415 3.90533 16.3906C4.32655 16.1742 4.74508 15.9528 5.16339 15.7308C5.50442 15.5498 5.8469 15.3718 6.18949 15.1938C6.62769 14.9659 7.06551 14.7373 7.50176 14.5056C7.99809 14.242 8.49679 13.9831 8.99557 13.7243C9.41875 13.5046 9.8415 13.2843 10.2626 13.0606C10.7563 12.7982 11.2523 12.5405 11.7486 12.2832C12.1403 12.0801 12.5314 11.8762 12.9203 11.6679C14.1587 11.0058 15.3228 10.4405 16.7558 10.448Z"
  />
</svg>
