<svg viewBox="0 0 122 92" xmlns="http://www.w3.org/2000/svg">
  <path
    d="M42.034 39.5754C38.0997 39.5754 34.9131 42.8134 34.9131 46.811V91.9553H39.4479V46.811C39.4479 45.3539 40.6123 44.1708 42.0463 44.1708C43.4803 44.1708 44.6446 45.3539 44.6446 46.811V91.9553H49.1794V46.811C49.1794 42.8134 45.9928 39.5754 42.0585 39.5754H42.034Z"
  />
  <path
    d="M79.7107 39.5754C75.7764 39.5754 72.5898 42.8134 72.5898 46.811V91.9553H77.1246V46.811C77.1246 45.3539 78.289 44.1708 79.723 44.1708C81.1569 44.1708 82.3213 45.3539 82.3213 46.811V91.9553H86.8561V46.811C86.8561 42.8134 83.6695 39.5754 79.7352 39.5754H79.7107Z"
  />
  <path
    d="M60.8787 39.5754C56.9445 39.5754 53.7578 42.8134 53.7578 46.811V91.9553H58.2927V46.811C58.2927 45.3539 59.457 44.1708 60.891 44.1708C62.325 44.1708 63.4893 45.3539 63.4893 46.811V91.9553H68.0241V46.811C68.0241 42.8134 64.8375 39.5754 60.9032 39.5754H60.8787Z"
  />
  <path
    d="M105.036 20.81L108.174 15.2681H115.466L121.754 0H0L6.28747 15.2681H13.58L16.7053 20.81C10.6139 22.9271 5.60112 28.3071 5.60112 36.4144C5.60112 44.5217 11.3616 51.3836 19.99 51.3836C21.8775 51.3836 23.6301 50.9851 25.1867 50.2877V91.9699H29.7092V46.6139C31.131 44.6586 31.9644 42.2177 32.0257 39.453C32.0257 39.4157 32.0379 39.3659 32.0379 39.316C32.0379 39.2787 32.0257 39.2538 32.0257 39.2164C32.0257 39.1915 32.0379 39.1666 32.0379 39.1417C32.0379 39.1043 32.0257 39.067 32.0257 39.0172C31.9766 37.1491 31.4864 35.4056 30.6284 33.9236H91.1255C90.2675 35.4056 89.7773 37.1491 89.7282 39.0172C89.7282 39.067 89.716 39.1043 89.716 39.1417V39.316C89.716 39.316 89.7282 39.4157 89.7282 39.453C89.7895 42.2177 90.6229 44.6586 92.0447 46.6139V91.9699H96.5672V50.2877C98.1238 50.9851 99.8642 51.3836 101.764 51.3836C110.38 51.3836 116.153 44.2228 116.153 36.4144C116.153 28.6059 111.128 22.9271 105.036 20.81ZM9.30252 10.6603L6.80224 4.60784H114.952L112.451 10.6603H9.30252ZM102.953 15.2681L100.44 19.7141H21.3137L18.8011 15.2681H102.953ZM101.764 46.7758C97.3394 46.7758 94.2998 43.7371 94.2508 39.2662C94.2753 36.103 96.2853 33.9859 99.2023 33.9485H99.2881C101.114 33.9485 102.61 35.4803 102.61 37.0868V37.1616C102.573 38.0956 101.837 38.8179 100.918 38.8179C99.6681 38.8179 98.6508 39.8515 98.6508 41.1218C98.6508 42.3921 99.6681 43.4257 100.918 43.4257C104.35 43.4257 107.157 40.5988 107.157 37.0868C107.157 36.9748 107.132 36.8627 107.12 36.7631C106.936 32.6409 103.615 29.3532 99.2269 29.3532H60.8647L60.5705 29.3407H60.2641L22.527 29.3532C18.1393 29.3532 14.8178 32.6409 14.634 36.7631C14.6217 36.8627 14.5972 36.9748 14.5972 37.0868C14.5972 40.5988 17.4039 43.4257 20.8357 43.4257C22.0858 43.4257 23.1031 42.3921 23.1031 41.1218C23.1031 39.8515 22.0858 38.8179 20.8357 38.8179C19.9165 38.8179 19.1811 38.0956 19.1321 37.1616C19.1321 37.1367 19.1443 37.1118 19.1443 37.0868C19.1443 35.4803 20.6273 33.9485 22.4658 33.9485H22.5393C25.4686 33.9859 27.4786 36.103 27.5031 39.2662C27.4541 43.7371 24.4023 46.7758 19.99 46.7758C14.1805 46.7758 10.1359 42.006 10.1359 36.4144C10.1359 28.8675 15.9577 24.3094 23.1521 24.3094H98.6018C105.796 24.3094 111.618 28.8675 111.618 36.4144C111.618 42.006 107.573 46.7758 101.764 46.7758Z"
  />
</svg>
