<svg viewBox="0 0 30 30" xmlns="http://www.w3.org/2000/svg">
  <path
    d="M15 7.77734C17.0547 7.77734 18.9075 8.6373 20.2227 10.0146V8.77734C20.2229 8.22526 20.6705 7.77734 21.2227 7.77734C21.7746 7.77758 22.2224 8.2254 22.2227 8.77734V17.333C22.2227 18.9285 23.5159 20.2227 25.1113 20.2227C26.7067 20.2225 28 18.9284 28 17.333V15C28 7.8203 22.1798 2 15 2C7.8203 2 2 7.8203 2 15C2 22.1798 7.8203 28 15 28C17.9283 28 20.6278 27.0329 22.8008 25.4004C23.2423 25.0687 23.8695 25.1581 24.2012 25.5996C24.5326 26.0412 24.4434 26.6683 24.002 27C21.4946 28.8836 18.3762 30 15 30C6.71574 30 0 23.2843 0 15C1.2886e-07 6.71573 6.71573 1.28852e-07 15 0C23.2843 0 30 6.71574 30 15V17.333C30 20.033 27.8113 22.2225 25.1113 22.2227C23.1642 22.2227 21.4825 21.084 20.6963 19.4365C19.3746 21.1311 17.3155 22.2227 15 22.2227C11.0113 22.2227 7.77734 18.9887 7.77734 15C7.77734 11.0113 11.0113 7.77734 15 7.77734ZM9.77734 15C9.77734 17.8841 12.1159 20.2227 15 20.2227C17.794 20.2227 20.076 18.0279 20.2158 15.2686L20.2227 15L20.2158 14.7314C20.076 11.9721 17.794 9.77734 15 9.77734C12.1158 9.77734 9.77734 12.1158 9.77734 15Z"
  />
</svg>
