<svg viewBox="0 0 20 20" xmlns="http://www.w3.org/2000/svg">
  <path
    fill-rule="evenodd"
    clip-rule="evenodd"
    d="M1.84992 10.0788C2.24649 5.52096 6.26384 1.81818 10.7749 1.81818C13.3815 1.81818 15.297 2.67227 16.5138 3.99655C17.7293 5.31944 18.3407 7.21223 18.1465 9.47555C17.7313 12.6865 16.4233 13.6697 15.6808 13.8309C15.2894 13.9159 14.9789 13.8123 14.7909 13.6506C14.614 13.4985 14.482 13.2425 14.5367 12.8541L15.4466 6.02924C15.513 5.53156 15.1633 5.07433 14.6657 5.00797C14.168 4.94162 13.7108 5.29127 13.6444 5.78895L13.5971 6.14413C13.1042 5.55335 12.462 5.08536 11.6816 4.80532C9.02249 3.85112 6.17015 5.58965 5.15675 8.33473C4.14232 11.0825 5.19558 14.2371 7.86386 15.1945C9.65267 15.8365 11.5289 15.2598 12.8739 13.978C13.0255 14.3865 13.2754 14.7455 13.6053 15.0292C14.2608 15.5928 15.1649 15.8035 16.0665 15.6077C17.9085 15.2079 19.4963 13.2535 19.9524 9.68818C19.9539 9.67618 19.9552 9.66418 19.9563 9.65218C20.1916 6.96474 19.4752 4.53218 17.8526 2.76635C16.2282 0.998437 13.7886 0 10.7749 0C5.30692 0 0.515681 4.43771 0.0385788 9.92118C-0.443559 15.4625 3.64935 20 9.18258 20C10.911 20 11.9992 19.8586 13.6061 19.1793C14.0686 18.9837 14.285 18.4504 14.0895 17.9879C13.894 17.5255 13.3606 17.3091 12.8981 17.5046C11.573 18.0649 10.7394 18.1818 9.18258 18.1818C4.73677 18.1818 1.45838 14.5788 1.84992 10.0788ZM6.86242 8.96436C7.61834 6.9168 9.56995 5.97927 11.0675 6.51665C12.5559 7.05075 13.438 8.99064 12.683 11.0355C11.9271 13.0831 9.97549 14.0206 8.47794 13.4833C6.98959 12.9492 6.10753 11.0093 6.86242 8.96436Z"
  />
</svg>
