<svg viewBox="0 0 16 22" xmlns="http://www.w3.org/2000/svg">
  <path
    d="M8.09301 10.1629C7.30601 10.5012 6.413 10.8848 5.256 10.8848C4.772 10.8838 4.29101 10.8171 3.82401 10.6865L4.62501 18.9395C4.65301 19.2844 4.80901 19.6061 5.06301 19.8405C5.31601 20.075 5.648 20.2051 5.993 20.205C5.993 20.205 7.127 20.2643 7.506 20.2643C7.913 20.2643 9.13501 20.205 9.13501 20.205C9.48001 20.205 9.81201 20.0749 10.065 19.8404C10.318 19.606 10.475 19.2844 10.503 18.9395L11.36 9.81956C10.977 9.68813 10.591 9.60083 10.155 9.60083C9.40101 9.60052 8.79401 9.86129 8.09301 10.1629Z"
    fill="white"
  />
  <path
    d="M15.06 5.88012L14.94 5.26954C14.832 4.72171 14.586 4.20407 14.027 4.00605C13.847 3.94272 13.644 3.91549 13.506 3.78439C13.368 3.65328 13.328 3.44964 13.296 3.26082C13.237 2.91424 13.182 2.56737 13.121 2.22138C13.069 1.92393 13.028 1.58979 12.892 1.3169C12.715 0.950496 12.348 0.736217 11.984 0.594448C11.797 0.524359 11.606 0.46507 11.412 0.416867C10.501 0.175358 9.54301 0.0865684 8.60601 0.035958C7.48001 -0.0264167 6.35201 -0.00762402 5.23001 0.0921915C4.39401 0.168551 3.514 0.260894 2.72 0.551236C2.43 0.657489 2.13101 0.785051 1.91001 1.01028C1.63901 1.28701 1.551 1.71498 1.749 2.06007C1.889 2.30514 2.127 2.47826 2.38 2.59282C2.709 2.74041 3.052 2.8527 3.404 2.92786C4.385 3.14569 5.402 3.23123 6.404 3.26761C7.515 3.31265 8.62701 3.27617 9.73301 3.15841C10.007 3.12822 10.279 3.09202 10.552 3.04978C10.873 3.00036 11.079 2.57892 10.984 2.28531C10.871 1.93429 10.567 1.79814 10.223 1.85112C10.172 1.85911 10.122 1.86651 10.071 1.87391L10.035 1.87924C9.91801 1.89404 9.802 1.90785 9.685 1.92067C9.445 1.94672 9.204 1.96803 8.962 1.9846C8.42 2.02249 7.877 2.03995 7.335 2.04084C6.801 2.04084 6.268 2.02574 5.736 1.99052C5.493 1.97454 5.25101 1.95422 5.00901 1.92955C4.89901 1.91801 4.79 1.90588 4.68 1.89226L4.576 1.87894L4.55301 1.87569L4.445 1.86C4.224 1.82656 4.003 1.78808 3.784 1.74162C3.762 1.7367 3.743 1.72437 3.729 1.70666C3.714 1.68896 3.707 1.66694 3.707 1.64424C3.707 1.62154 3.714 1.59952 3.729 1.58182C3.743 1.56411 3.762 1.55179 3.784 1.54687H3.78901C3.97801 1.50632 4.169 1.47169 4.36 1.44151C4.424 1.43144 4.48801 1.42158 4.55301 1.41191C4.67301 1.40392 4.79501 1.38231 4.91401 1.3681C5.95201 1.25963 6.996 1.22264 8.04 1.25741C8.546 1.27221 9.052 1.3021 9.556 1.3536C9.665 1.36485 9.773 1.37669 9.88 1.39001C9.922 1.39504 9.963 1.40096 10.005 1.40599L10.088 1.41812C10.332 1.45463 10.575 1.49892 10.816 1.55101C11.174 1.62915 11.633 1.6546 11.793 2.04824C11.843 2.17313 11.866 2.31194 11.894 2.44306L11.93 2.61029C11.931 2.61328 11.931 2.61634 11.932 2.61945C12.016 3.01407 12.101 3.4087 12.185 3.80333C12.191 3.83248 12.191 3.8626 12.185 3.89181C12.179 3.92101 12.168 3.9487 12.151 3.97311C12.134 3.99752 12.112 4.01814 12.086 4.03369C12.061 4.04923 12.033 4.05937 12.003 4.06347H12.001L11.95 4.07058L11.899 4.0774C11.737 4.09851 11.575 4.11824 11.414 4.13658C11.095 4.17308 10.776 4.20465 10.456 4.2313C9.82001 4.28436 9.184 4.31918 8.546 4.33576C8.221 4.34446 7.896 4.34848 7.571 4.3479C6.278 4.34687 4.986 4.27137 3.701 4.12178C3.562 4.1052 3.423 4.08745 3.284 4.0694C3.392 4.0833 3.206 4.05875 3.168 4.05342C3.08 4.04099 2.991 4.02805 2.903 4.01465C2.606 3.96995 2.311 3.91489 2.015 3.86665C1.657 3.80747 1.315 3.83706 0.991001 4.01465C0.725001 4.16075 0.510004 4.3848 0.375004 4.65689C0.235004 4.94694 0.193 5.26272 0.131 5.57439C0.0680004 5.88605 -0.0289931 6.22137 0.00800689 6.5413C0.0870069 7.23181 0.568006 7.79296 1.25901 7.91846C1.90901 8.03684 2.56301 8.13272 3.21801 8.21441C5.79401 8.53123 8.395 8.56913 10.978 8.32747C11.189 8.30773 11.399 8.28624 11.608 8.26296C11.674 8.25571 11.74 8.2633 11.802 8.28516C11.865 8.30699 11.921 8.34253 11.968 8.38918C12.015 8.43583 12.051 8.49241 12.073 8.55475C12.095 8.61711 12.103 8.68366 12.096 8.74952L12.031 9.38822C11.899 10.6788 11.767 11.9693 11.636 13.2598C11.498 14.6149 11.36 15.9699 11.22 17.3249C11.181 17.7065 11.142 18.088 11.103 18.4694C11.065 18.845 11.06 19.2324 10.989 19.6035C10.877 20.1872 10.483 20.5456 9.909 20.6767C9.384 20.7969 8.846 20.86 8.307 20.8649C7.709 20.8682 7.112 20.8415 6.514 20.8448C5.876 20.8484 5.094 20.7892 4.602 20.3121C4.169 19.893 4.10901 19.2368 4.05001 18.6694C3.97201 17.9183 3.894 17.1672 3.817 16.4162L3.38301 12.2405L3.103 9.53858C3.099 9.49388 3.094 9.44978 3.089 9.4048C3.056 9.08248 2.829 8.76699 2.471 8.78325C2.164 8.79687 1.816 9.05851 1.852 9.4048L2.06 11.4079L2.489 15.5514C2.612 16.7284 2.73401 17.9056 2.85601 19.0829C2.87901 19.3084 2.90101 19.5346 2.92601 19.7601C3.06101 20.9925 3.997 21.6566 5.158 21.8437C5.835 21.9532 6.52901 21.9757 7.21701 21.9869C8.09901 22.0012 8.98901 22.0352 9.85601 21.8748C11.141 21.638 12.105 20.7761 12.242 19.4393C12.282 19.0533 12.321 18.6673 12.36 18.2811C12.491 17.0041 12.621 15.727 12.751 14.4499L13.178 10.2767L13.373 8.36417C13.383 8.26935 13.422 8.18017 13.487 8.10985C13.551 8.03957 13.636 7.99185 13.729 7.97378C14.096 7.90188 14.447 7.77904 14.709 7.49817C15.125 7.05096 15.207 6.4679 15.06 5.88012ZM1.24 6.2927C1.246 6.29002 1.23501 6.33829 1.23101 6.36077C1.23001 6.32675 1.232 6.29655 1.24 6.2927ZM1.276 6.56973C1.279 6.56766 1.288 6.57949 1.297 6.59369C1.283 6.58067 1.274 6.57092 1.276 6.56973ZM1.311 6.61619C1.33 6.65142 1.324 6.63781 1.311 6.61619ZM1.381 6.67361H1.38301C1.38301 6.67569 1.386 6.67776 1.387 6.67983C1.385 6.67754 1.384 6.67547 1.381 6.67361ZM13.712 6.58778C13.58 6.71386 13.381 6.77246 13.184 6.80176C10.981 7.13029 8.745 7.29663 6.517 7.22323C4.922 7.16846 3.345 6.99058 1.766 6.76655C1.611 6.74465 1.444 6.71622 1.337 6.60169C1.137 6.38564 1.23501 5.95055 1.28801 5.68952C1.33501 5.45039 1.427 5.13161 1.71 5.09759C2.152 5.04549 2.665 5.23284 3.102 5.29945C3.629 5.38014 4.157 5.44475 4.687 5.4933C6.95 5.70046 9.252 5.66822 11.505 5.36513C11.916 5.30969 12.325 5.24528 12.733 5.17188C13.096 5.10646 13.499 4.98364 13.718 5.36159C13.869 5.61908 13.889 5.96359 13.865 6.25453C13.858 6.38128 13.804 6.50051 13.712 6.58778Z"
    fill="black"
  />
</svg>
