<svg viewBox="0 0 175 37" xmlns="http://www.w3.org/2000/svg">
  <path
    fill-rule="evenodd"
    clip-rule="evenodd"
    d="M11.7864 19.9579C11.4882 20.5095 11.0779 20.9899 10.5556 21.3976C10.0333 21.8055 9.4244 22.1377 8.7279 22.3934C8.0319 22.6498 7.3312 22.8218 6.6268 22.9094C5.922 22.9974 5.2379 22.9898 4.5756 22.8854C3.9122 22.7816 3.3479 22.5697 2.8842 22.2494L3.407 16.9941C3.8873 16.8343 4.492 16.6702 5.2218 16.5022C5.951 16.3344 6.701 16.2141 7.4722 16.1423C8.2435 16.0702 8.9722 16.0787 9.6604 16.1664C10.3482 16.2543 10.8912 16.4662 11.289 16.8023C11.5048 16.9941 11.6873 17.2021 11.8362 17.4261C11.9855 17.6502 12.0763 17.8822 12.11 18.1221C12.1925 18.794 12.0851 19.4059 11.7864 19.9579ZM4.2021 8.7632C4.5501 8.5553 4.9692 8.3711 5.4578 8.2109C5.9469 8.0515 6.4484 7.9391 6.9624 7.8752C7.4759 7.8115 7.9774 7.803 8.467 7.8511C8.9556 7.8992 9.3871 8.0311 9.76 8.2469C10.1329 8.4631 10.4104 8.7751 10.593 9.1828C10.775 9.591 10.8248 10.107 10.7418 10.7308C10.676 11.2268 10.4721 11.6469 10.1329 11.9906C9.7932 12.3349 9.3783 12.6226 8.8897 12.8546C8.4006 13.0869 7.8825 13.2708 7.3358 13.4063C6.7881 13.5427 6.2617 13.6428 5.7565 13.7065C5.2508 13.7707 4.8115 13.8109 4.4386 13.8264C4.0657 13.8425 3.8209 13.8504 3.7047 13.8504L4.2021 8.7632ZM14.472 16.5621C14.2069 16.0025 13.8506 15.5106 13.403 15.0862C12.9554 14.6624 12.4243 14.3546 11.8113 14.1625C12.0763 13.9546 12.3377 13.6267 12.595 13.1786C12.8517 12.731 13.0711 12.2427 13.2537 11.7148C13.4357 11.1866 13.5607 10.655 13.6266 10.1189C13.6924 9.5831 13.6675 9.1231 13.5524 8.7388C13.2697 7.7793 12.8268 7.0273 12.2215 6.4833C11.6163 5.93952 10.9119 5.56353 10.108 5.35531C9.3036 5.14799 8.4172 5.10354 7.4473 5.2235C6.4775 5.3434 5.4868 5.57935 4.476 5.93129C4.476 5.85152 4.4843 5.76753 4.5009 5.67952C4.5169 5.59186 4.5252 5.49958 4.5252 5.40338C4.5252 5.16352 4.4013 4.95585 4.1523 4.77958C3.9039 4.60361 3.6181 4.49983 3.295 4.46753C2.9714 4.43588 2.6565 4.50344 2.3495 4.67153C2.043 4.83956 1.8314 5.14799 1.7157 5.59517C1.5829 7.0352 1.4502 8.5312 1.3179 10.0827C1.1851 11.6347 1.044 13.2026 0.895199 14.7866C0.745799 16.3703 0.596401 17.9422 0.447601 19.5018C0.298201 21.0618 0.1489 22.5615 0 24.0012C0.0498 24.4332 0.173698 24.7693 0.372898 25.0092C0.571598 25.2494 0.803901 25.3934 1.0689 25.4412C1.334 25.4893 1.612 25.4448 1.9019 25.309C2.1918 25.1736 2.4449 24.937 2.6607 24.6013C3.3235 24.9532 4.0699 25.1812 4.8987 25.2853C5.7275 25.3891 6.5682 25.3891 7.423 25.2853C8.2761 25.1812 9.1174 24.9854 9.9462 24.6971C10.775 24.4094 11.5297 24.0493 12.2091 23.6176C12.889 23.1856 13.4606 22.6933 13.9253 22.1417C14.389 21.5894 14.696 20.9936 14.8449 20.3539C14.9943 19.6979 15.0357 19.0421 14.9694 18.386C14.903 17.7303 14.737 17.1226 14.472 16.5621Z"
  />
  <path
    fill-rule="evenodd"
    clip-rule="evenodd"
    d="M37.4666 28.8504C37.3793 29.3823 37.2551 29.9425 37.096 30.5311C36.9364 31.1186 36.7493 31.6551 36.5344 32.1389C36.3189 32.6222 36.08 33.0124 35.8171 33.3109C35.5538 33.609 35.2705 33.734 34.9677 33.6859C34.7288 33.6531 34.5772 33.5002 34.5138 33.2264C34.4495 32.9521 34.4495 32.6136 34.5138 32.2113C34.5772 31.8079 34.7004 31.3524 34.8839 30.8449C35.0675 30.3373 35.2909 29.8332 35.5538 29.3342C35.8171 28.8342 36.1159 28.355 36.4506 27.8955C36.7852 27.4366 37.1359 27.0535 37.5025 26.7474C37.5823 26.844 37.6182 27.0857 37.6102 27.4728C37.6017 27.8595 37.5543 28.3191 37.4666 28.8504ZM45.5735 18.3584C45.3581 18.1167 45.0952 17.9799 44.784 17.9474C44.4733 17.9152 44.158 18.0925 43.8398 18.4793C43.6323 18.866 43.369 19.2368 43.0503 19.5913C42.7316 19.9462 42.4009 20.2683 42.0582 20.5584C41.7151 20.8482 41.3884 21.0985 41.0776 21.3077C40.7669 21.5175 40.5235 21.6705 40.3484 21.7671C40.2846 21.2516 40.2482 20.6955 40.2407 20.0989C40.2322 19.5027 40.2447 18.8985 40.2766 18.286C40.324 17.4156 40.4238 16.5375 40.5754 15.6508C40.727 14.7644 40.946 13.894 41.2333 13.0395C41.2333 12.5886 41.129 12.2218 40.922 11.9396C40.7145 11.6578 40.4637 11.4802 40.1689 11.4078C39.8736 11.3354 39.5714 11.3756 39.2601 11.5287C38.9494 11.682 38.6826 11.9602 38.4591 12.3626C38.2681 12.8948 38.0486 13.491 37.8017 14.1516C37.5543 14.8126 37.2755 15.4855 36.9648 16.1704C36.6536 16.8558 36.3069 17.5205 35.9244 18.1649C35.5418 18.8099 35.1233 19.3822 34.669 19.8815C34.2146 20.3811 33.7203 20.7722 33.1866 21.054C32.6519 21.3362 32.0749 21.461 31.4529 21.4288C31.1656 21.3482 30.9581 21.1307 30.8309 20.7759C30.7032 20.4216 30.6274 19.9781 30.604 19.4463C30.58 18.9144 30.604 18.3302 30.6753 17.6934C30.7471 17.057 30.8429 16.4243 30.9626 15.7959C31.0818 15.1671 31.2135 14.5709 31.3566 14.0068C31.5003 13.4428 31.6354 12.9671 31.7631 12.5804C31.9547 12.1132 31.9547 11.7219 31.7631 11.4078C31.5721 11.0934 31.3093 10.8843 30.9746 10.7791C30.6399 10.6745 30.2888 10.6788 29.9222 10.7914C29.5556 10.9042 29.2922 11.1539 29.1331 11.5406C28.8618 12.2019 28.6144 12.9429 28.3915 13.7648C28.1685 14.5869 27.9889 15.4373 27.8538 16.3154C27.7181 17.1941 27.6418 18.0646 27.6263 18.9267C27.6253 18.9828 27.6278 19.0362 27.6278 19.092C27.2802 20.029 26.949 20.7372 26.6343 21.2111C26.2278 21.8238 25.7689 22.0898 25.2592 22.0088C25.0352 21.9122 24.8886 21.6867 24.8168 21.3319C24.7444 20.9776 24.721 20.5425 24.7444 20.0263C24.7689 19.511 24.8287 18.9267 24.924 18.2737C25.0203 17.6211 25.139 16.9442 25.2826 16.243C25.4263 15.5416 25.5779 14.8371 25.737 14.1277C25.8966 13.4186 26.0398 12.7497 26.1679 12.1209C26.152 11.5569 25.9884 11.126 25.6772 10.8276C25.3669 10.5297 24.932 10.4129 24.3744 10.477C23.9918 10.6383 23.7085 10.8481 23.5255 11.1057C23.3419 11.3633 23.1943 11.694 23.0831 12.0967C23.0187 12.3065 22.9234 12.7254 22.7958 13.3542C22.6681 13.9823 22.505 14.704 22.3055 15.5177C22.1065 16.332 21.871 17.1819 21.6002 18.0682C21.3294 18.9546 21.0261 19.757 20.6919 20.4737C20.3568 21.1908 19.9902 21.7671 19.5917 22.2023C19.1931 22.6372 18.7627 22.8148 18.3004 22.7342C18.045 22.6857 17.8819 22.4198 17.8101 21.9364C17.7382 21.4527 17.7268 20.8568 17.7742 20.1474C17.822 19.4383 17.9178 18.6605 18.0609 17.8146C18.2046 16.9684 18.3517 16.1667 18.5033 15.4088C18.655 14.6515 18.7946 13.9823 18.9223 13.4023C19.0495 12.822 19.1373 12.4353 19.1852 12.2421C19.1852 11.7747 19.0809 11.4002 18.8744 11.1177C18.6669 10.8361 18.4161 10.6585 18.1208 10.5859C17.8255 10.5135 17.5228 10.5537 17.2125 10.7067C16.9013 10.86 16.6345 11.1382 16.411 11.5406C16.3312 11.9758 16.2275 12.4798 16.1003 13.0518C15.9726 13.6238 15.8494 14.2121 15.7297 14.8166C15.61 15.4211 15.4983 16.0133 15.395 16.5936C15.2913 17.1739 15.2155 17.6815 15.1676 18.1167C15.1357 18.455 15.0997 18.8703 15.0603 19.3616C15.0199 19.8536 15 20.3731 15 20.9209C15 21.4693 15.0399 22.0131 15.1202 22.5529C15.1995 23.093 15.3432 23.5887 15.5501 24.0395C15.7571 24.491 16.0484 24.8615 16.4235 25.1516C16.7976 25.4417 17.2719 25.6028 17.846 25.6353C18.4355 25.6672 18.9498 25.6233 19.3887 25.5022C19.8266 25.3813 20.2251 25.1918 20.5842 24.9338C20.9428 24.6765 21.2695 24.3701 21.5648 24.0153C21.8591 23.661 22.1504 23.2743 22.4371 22.855C22.7085 23.4678 23.0591 23.9429 23.4895 24.2815C23.92 24.6198 24.3744 24.8216 24.8527 24.8857C25.3305 24.9498 25.8173 24.882 26.3116 24.6802C26.8054 24.479 27.2518 24.1364 27.6503 23.6527C27.9131 23.3562 28.1605 23.0191 28.3929 22.6464C28.4917 22.8209 28.5964 22.9893 28.7147 23.1448C29.1052 23.661 29.6354 24.0153 30.3052 24.2088C31.0225 24.4023 31.7232 24.4349 32.409 24.3057C33.0943 24.1769 33.7482 23.9429 34.3697 23.6046C34.9917 23.266 35.5692 22.8593 36.1039 22.3836C36.6376 21.9082 37.104 21.4128 37.5025 20.8967C37.4865 21.2675 37.4785 21.6184 37.4785 21.9484C37.4785 22.279 37.4705 22.6372 37.4551 23.0243C36.6576 23.5887 35.9044 24.2655 35.1952 25.055C34.4854 25.8445 33.8635 26.6867 33.3298 27.5812C32.7956 28.4754 32.3771 29.3823 32.0749 30.3008C31.7716 31.2199 31.624 32.0782 31.632 32.8762C31.6399 33.6738 31.827 34.3707 32.1941 34.9668C32.5602 35.5635 33.1582 35.9901 33.9871 36.2482C34.8485 36.5225 35.6051 36.5301 36.2595 36.2725C36.9129 36.0144 37.4825 35.5873 37.9688 34.9911C38.4551 34.3949 38.8536 33.6738 39.1649 32.8276C39.4756 31.9815 39.7225 31.0989 39.906 30.1804C40.0891 29.2619 40.2048 28.3585 40.2527 27.4728C40.3006 26.5861 40.3006 25.796 40.2527 25.1032C41.6238 24.5232 42.7475 23.7898 43.6244 22.9031C44.5012 22.0174 45.2264 21.0822 45.8005 20.0989C45.9756 19.8572 46.0354 19.5671 45.98 19.2288C45.9237 18.8902 45.7885 18.6001 45.5735 18.3584Z"
  />
  <path
    fill-rule="evenodd"
    clip-rule="evenodd"
    d="M75.737 17.2971C75.785 16.934 75.858 16.5508 75.954 16.1481C76.051 15.7453 76.172 15.3543 76.318 14.9753C76.462 14.5963 76.632 14.2687 76.826 13.9922C77.019 13.716 77.225 13.5185 77.442 13.3998C77.66 13.2817 77.881 13.2934 78.107 13.4353C78.349 13.5778 78.498 13.8777 78.555 14.3354C78.611 14.7941 78.555 15.2834 78.385 15.8045C78.216 16.326 77.914 16.8153 77.478 17.2734C77.043 17.7317 76.454 18.0313 75.713 18.1735C75.68 17.9529 75.689 17.6605 75.737 17.2971ZM84.116 18.2682C83.851 18.1897 83.597 18.1816 83.355 18.2447C83.113 18.3079 82.96 18.4737 82.896 18.7425C82.766 19.2477 82.56 19.7649 82.278 20.2939C81.996 20.8232 81.65 21.3245 81.239 21.7985C80.828 22.2722 80.364 22.6909 79.849 23.0539C79.332 23.4173 78.792 23.6778 78.228 23.8357C77.663 24.0097 77.196 24.0292 76.826 23.8949C76.454 23.7611 76.16 23.5318 75.943 23.2081C75.725 22.8844 75.568 22.4934 75.471 22.0354C75.374 21.5773 75.318 21.1036 75.302 20.6137C76.221 20.6771 77.039 20.5155 77.757 20.128C78.473 19.7415 79.082 19.2278 79.582 18.5882C80.082 17.9487 80.461 17.2301 80.719 16.4324C80.976 15.635 81.122 14.8413 81.154 14.0514C81.17 13.309 81.058 12.6815 80.816 12.1681C80.574 11.6551 80.247 11.2556 79.836 10.9716C79.425 10.6873 78.953 10.5214 78.422 10.4742C77.89 10.4267 77.349 10.4979 76.801 10.6873C76.14 10.9085 75.58 11.2676 75.12 11.7654C74.661 12.2628 74.278 12.8396 73.972 13.4948C73.665 14.1503 73.423 14.8569 73.246 15.6149C73.069 16.3732 72.939 17.1195 72.859 17.854C72.787 18.5131 72.748 19.1434 72.734 19.7517C72.699 19.8289 72.666 19.9032 72.629 19.9859C72.379 20.547 72.088 21.0958 71.759 21.6326C71.428 22.1697 71.061 22.6199 70.658 22.983C70.255 23.3464 69.836 23.4726 69.401 23.362C69.143 23.2992 69.002 23.0064 68.978 22.4856C68.954 21.9641 68.981 21.3167 69.062 20.5428C69.143 19.7691 69.235 18.9315 69.34 18.0313C69.445 17.1312 69.497 16.2707 69.497 15.4493C69.497 14.7385 69.36 14.0556 69.086 13.3998C68.812 12.7449 68.437 12.1997 67.962 11.7654C67.486 11.3308 66.934 11.0426 66.305 10.9007C65.676 10.7582 64.999 10.8532 64.274 11.1847C63.548 11.5166 62.972 11.9824 62.545 12.5826C62.117 13.1831 61.726 13.8146 61.372 14.4779C61.242 13.9724 61.053 13.5029 60.803 13.0683C60.553 12.634 60.247 12.255 59.884 11.931C59.521 11.6076 59.114 11.3548 58.663 11.173C58.212 10.9918 57.736 10.9007 57.236 10.9007C56.753 10.9007 56.305 10.9918 55.894 11.173C55.483 11.3548 55.108 11.5875 54.7691 11.8718C54.4307 12.1564 54.1245 12.4759 53.8501 12.8314C53.5762 13.1867 53.334 13.5384 53.1247 13.8855C53.0919 13.4749 53.0561 13.1158 53.0163 12.8074C52.9754 12.4997 52.9028 12.2391 52.7983 12.026C52.6934 11.8126 52.5446 11.6509 52.3509 11.5403C52.1572 11.43 51.8833 11.3744 51.5287 11.3744C51.3511 11.3744 51.1736 11.4098 50.9965 11.4807C50.819 11.552 50.6616 11.6509 50.5249 11.7771C50.3877 11.904 50.2833 12.0575 50.2106 12.2391C50.138 12.4206 50.1183 12.6301 50.1501 12.8669C50.1663 13.0409 50.2106 13.2498 50.2833 13.4948C50.3554 13.7397 50.424 14.0598 50.4886 14.4541C50.5532 14.8491 50.6056 15.327 50.646 15.8875C50.6863 16.4483 50.6979 17.1354 50.6823 17.9487C50.6656 18.7623 50.6056 19.7135 50.5007 20.8033C50.3958 21.8932 50.2303 23.1567 50.0048 24.5937C49.9726 24.9254 50.1017 25.1942 50.3922 25.3994C50.6823 25.6044 51.0127 25.7228 51.3834 25.7547C51.7542 25.7863 52.1053 25.7228 52.4357 25.5653C52.7661 25.4069 52.9557 25.1308 53.0036 24.7361C53.0521 23.9938 53.1449 23.2042 53.2821 22.3668C53.4188 21.5301 53.5883 20.7009 53.79 19.8794C53.9913 19.0583 54.2208 18.2766 54.4791 17.5339C54.7368 16.7916 55.023 16.1364 55.338 15.5677C55.652 14.9991 55.979 14.5452 56.317 14.2056C56.656 13.866 57.01 13.6961 57.382 13.6961C57.832 13.6961 58.183 13.8972 58.433 14.3C58.683 14.703 58.86 15.2205 58.965 15.8517C59.07 16.4838 59.118 17.1751 59.111 17.925C59.102 18.6751 59.07 19.3976 59.014 20.0925C58.957 20.7877 58.893 21.4075 58.82 21.9524C58.748 22.4973 58.695 22.8727 58.663 23.0776C58.663 23.441 58.804 23.729 59.086 23.9424C59.368 24.1554 59.682 24.282 60.029 24.3214C60.376 24.361 60.702 24.2976 61.009 24.1317C61.315 23.9658 61.493 23.686 61.541 23.2907C61.702 22.1537 61.924 21.0129 62.206 19.8677C62.488 18.7226 62.811 17.6962 63.173 16.788C63.536 15.8797 63.939 15.1373 64.382 14.5609C64.826 13.9847 65.297 13.6961 65.797 13.6961C66.055 13.6961 66.253 13.8701 66.39 14.2173C66.527 14.5647 66.595 15.0384 66.595 15.6387C66.595 16.0811 66.559 16.5352 66.487 17.0011C66.414 17.4669 66.329 17.9487 66.233 18.4461C66.136 18.9438 66.051 19.453 65.978 19.9742C65.906 20.4956 65.87 21.0402 65.87 21.6089C65.87 22.0038 65.91 22.4618 65.991 22.983C66.071 23.5038 66.224 23.998 66.45 24.4635C66.676 24.9297 66.986 25.3243 67.382 25.648C67.777 25.9717 68.28 26.1337 68.892 26.1337C69.812 26.1337 70.626 25.9401 71.335 25.5533C72.045 25.1665 72.653 24.6613 73.161 24.0373C73.188 24.0046 73.212 23.9697 73.238 23.9373C73.276 24.0295 73.311 24.1272 73.355 24.2149C73.701 24.9098 74.173 25.4466 74.77 25.8259C75.366 26.2049 76.067 26.4141 76.874 26.4538C77.68 26.4929 78.558 26.3468 79.51 26.0153C80.219 25.7625 80.836 25.4466 81.36 25.0676C81.883 24.6886 82.355 24.2267 82.774 23.6818C83.194 23.1368 83.576 22.509 83.923 21.7985C84.27 21.0874 84.62 20.2744 84.975 19.358C85.04 19.1058 84.979 18.8807 84.794 18.683C84.608 18.4858 84.383 18.3475 84.116 18.2682Z"
  />
  <path
    fill-rule="evenodd"
    clip-rule="evenodd"
    d="M97.733 15.088C97.652 15.5599 97.545 16.0798 97.409 16.6469C97.272 17.2146 97.101 17.8021 96.892 18.4097C96.684 19.0172 96.428 19.5648 96.124 20.0522C95.82 20.5402 95.471 20.9275 95.08 21.2153C94.687 21.5031 94.235 21.623 93.723 21.5749C93.467 21.5433 93.27 21.3674 93.135 21.0473C92.999 20.7279 92.927 20.32 92.918 19.8243C92.91 19.329 92.954 18.7854 93.051 18.1937C93.147 17.6025 93.294 17.0227 93.495 16.455C93.695 15.8879 93.939 15.364 94.227 14.8842C94.515 14.4047 94.847 14.033 95.224 13.7692C95.6 13.5054 96.012 13.3819 96.46 13.3974C96.908 13.4136 97.389 13.6371 97.901 14.0689C97.868 14.277 97.813 14.6168 97.733 15.088ZM106.268 16.9226C106.02 16.7948 105.764 16.7671 105.5 16.8389C105.236 16.9107 105.048 17.1547 104.936 17.5703C104.872 18.0181 104.728 18.5454 104.504 19.1529C104.28 19.7604 104.003 20.3364 103.676 20.8794C103.347 21.4231 102.971 21.8749 102.547 22.2345C102.123 22.5944 101.67 22.7584 101.191 22.7258C100.79 22.6942 100.51 22.4903 100.35 22.1146C100.189 21.7389 100.106 21.2676 100.098 20.6996C100.089 20.1325 100.146 19.493 100.266 18.7815C100.386 18.0701 100.53 17.3628 100.698 16.6588C100.866 15.9557 101.038 15.28 101.215 14.6326C101.39 13.9852 101.534 13.4376 101.647 12.9901C101.775 12.5903 101.734 12.2508 101.527 11.9706C101.318 11.6913 101.058 11.4911 100.746 11.3712C100.434 11.2514 100.117 11.2194 99.797 11.2754C99.477 11.3314 99.27 11.5033 99.173 11.7908C98.229 10.9754 97.32 10.5358 96.449 10.4719C95.576 10.408 94.771 10.6 94.035 11.0475C93.299 11.495 92.646 12.1425 92.079 12.9901C91.51 13.8376 91.05 14.7607 90.697 15.7598C90.345 16.7589 90.125 17.7784 90.037 18.8173C89.949 19.8566 90.017 20.804 90.242 21.6592C90.466 22.5144 90.862 23.2141 91.43 23.7572C91.998 24.3008 92.771 24.5728 93.747 24.5728C94.179 24.5728 94.596 24.4849 94.996 24.309C95.395 24.1329 95.764 23.9251 96.1 23.6854C96.436 23.4456 96.732 23.1937 96.989 22.93C97.244 22.6662 97.445 22.4466 97.589 22.2704C97.701 22.846 97.885 23.334 98.141 23.7335C98.397 24.1329 98.689 24.4611 99.017 24.7164C99.345 24.972 99.69 25.16 100.05 25.2801C100.41 25.4 100.758 25.46 101.094 25.46C101.847 25.46 102.55 25.2041 103.207 24.6924C103.863 24.1813 104.452 23.5533 104.972 22.8101C105.492 22.0665 105.921 21.2834 106.256 20.4599C106.593 19.6367 106.817 18.9053 106.929 18.2655C107.041 18.0257 107.02 17.7741 106.869 17.5104C106.716 17.2466 106.517 17.0509 106.268 16.9226Z"
  />
  <path
    fill-rule="evenodd"
    clip-rule="evenodd"
    d="M149.229 30.3731C149.093 30.9127 148.88 31.3699 148.591 31.743C148.302 32.116 147.941 32.3104 147.508 32.3269C147.235 32.3424 147.026 32.1992 146.881 31.898C146.737 31.5958 146.637 31.2069 146.581 30.7306C146.524 30.2539 146.5 29.7218 146.508 29.1344C146.516 28.5469 146.54 27.967 146.581 27.3953C146.62 26.8238 146.669 26.2913 146.725 25.7993C146.781 25.3066 146.825 24.9261 146.857 24.656C147.403 24.7194 147.857 24.9533 148.218 25.3586C148.579 25.7636 148.856 26.2439 149.048 26.7999C149.241 27.3557 149.353 27.9555 149.385 28.5983C149.417 29.2416 149.365 29.833 149.229 30.3731ZM140.514 30.3731C140.378 30.9127 140.165 31.3699 139.876 31.743C139.588 32.116 139.226 32.3104 138.793 32.3269C138.52 32.3424 138.312 32.1992 138.167 31.898C138.023 31.5958 137.922 31.2069 137.867 30.7306C137.81 30.2539 137.786 29.7218 137.794 29.1344C137.802 28.5469 137.826 27.967 137.867 27.3953C137.906 26.8238 137.954 26.2913 138.011 25.7993C138.067 25.3066 138.111 24.9261 138.143 24.656C138.688 24.7194 139.142 24.9533 139.503 25.3586C139.864 25.7636 140.141 26.2439 140.334 26.7999C140.527 27.3557 140.639 27.9555 140.671 28.5983C140.702 29.2416 140.65 29.833 140.514 30.3731ZM131.572 16.8423C131.555 17.223 131.519 17.5606 131.463 17.8544C131.406 18.1488 131.331 18.3349 131.234 18.4144C131.057 18.3189 130.841 18.0732 130.584 17.6758C130.327 17.279 130.127 16.8299 129.982 16.3297C129.838 15.8295 129.793 15.3375 129.85 14.8527C129.906 14.3686 130.159 13.9917 130.608 13.7212C130.784 13.626 130.937 13.6616 131.065 13.8285C131.194 13.9953 131.298 14.2374 131.379 14.555C131.459 14.873 131.514 15.2381 131.547 15.6509C131.579 16.064 131.587 16.4609 131.572 16.8423ZM129.441 21.5947C129.192 21.8564 128.914 22.0828 128.61 22.2735C128.305 22.4642 127.992 22.6072 127.671 22.7024C127.35 22.7979 127.061 22.8214 126.805 22.7737C126.083 22.631 125.529 22.321 125.144 21.8447C124.758 21.3683 124.513 20.8086 124.41 20.1655C124.305 19.5221 124.317 18.8351 124.446 18.1047C124.574 17.3742 124.79 16.6954 125.095 16.068C125.4 15.4405 125.77 14.9005 126.203 14.4481C126.636 13.9953 127.109 13.7137 127.623 13.6021C127.43 14.4121 127.366 15.2501 127.43 16.1154C127.494 16.981 127.703 17.7949 128.056 18.5571C128.281 19.0183 128.55 19.4387 128.863 19.8198C129.176 20.2012 129.557 20.5267 130.007 20.7966C129.878 21.0667 129.689 21.3327 129.441 21.5947ZM156.078 17.0804C156.126 16.7153 156.198 16.3297 156.294 15.9247C156.39 15.52 156.511 15.1269 156.655 14.7457C156.8 14.3643 156.968 14.0349 157.161 13.7571C157.354 13.4794 157.558 13.2806 157.775 13.1615C157.992 13.0424 158.212 13.0542 158.436 13.1971C158.677 13.3404 158.826 13.642 158.882 14.1023C158.938 14.5632 158.882 15.0552 158.714 15.5796C158.545 16.1036 158.244 16.596 157.811 17.0562C157.378 17.5174 156.792 17.8188 156.053 17.9617C156.021 17.7396 156.029 17.4458 156.078 17.0804ZM165.779 17.0804C165.827 16.7153 165.899 16.3297 165.996 15.9247C166.092 15.52 166.213 15.1269 166.357 14.7457C166.501 14.3643 166.67 14.0349 166.862 13.7571C167.055 13.4794 167.26 13.2806 167.476 13.1615C167.693 13.0424 167.914 13.0542 168.138 13.1971C168.379 13.3404 168.527 13.642 168.584 14.1023C168.64 14.5632 168.584 15.0552 168.415 15.5796C168.247 16.1036 167.946 16.596 167.513 17.0562C167.079 17.5174 166.493 17.8188 165.755 17.9617C165.723 17.7396 165.731 17.4458 165.779 17.0804ZM174.795 18.474C174.61 18.2757 174.385 18.1367 174.121 18.0569C173.856 17.9777 173.603 17.9699 173.362 18.0333C173.122 18.0968 172.968 18.2636 172.905 18.5335C172.776 19.0419 172.572 19.562 172.291 20.0936C172.01 20.6261 171.665 21.1302 171.256 21.6065C170.847 22.0828 170.385 22.5041 169.872 22.8692C169.358 23.2346 168.821 23.4966 168.259 23.655C167.697 23.8303 167.231 23.8499 166.862 23.7148C166.493 23.58 166.201 23.3497 165.984 23.0242C165.767 22.6985 165.611 22.3056 165.514 21.8447C165.418 21.3844 165.362 20.9081 165.346 20.4155C166.261 20.4792 167.075 20.3166 167.789 19.9271C168.503 19.5381 169.109 19.0216 169.607 18.3785C170.104 17.7356 170.482 17.013 170.738 16.2109C170.995 15.4088 171.139 14.6109 171.172 13.8167C171.187 13.0702 171.075 12.4388 170.835 11.9227C170.594 11.4068 170.269 11.0054 169.86 10.7198C169.45 10.4336 168.981 10.2671 168.451 10.2193C167.922 10.1716 167.384 10.2435 166.838 10.4336C166.18 10.6563 165.623 11.0175 165.166 11.5177C164.708 12.0182 164.327 12.5981 164.022 13.2567C163.717 13.9161 163.476 14.6263 163.299 15.3889C163.123 16.1511 162.995 16.9018 162.915 17.6401C162.836 18.3567 162.794 19.0425 162.785 19.6989C162.724 19.8297 162.659 19.9612 162.589 20.0936C162.308 20.6261 161.963 21.1302 161.554 21.6065C161.145 22.0828 160.683 22.5041 160.17 22.8692C159.657 23.2346 159.119 23.4966 158.557 23.655C157.995 23.8303 157.53 23.8499 157.161 23.7148C156.792 23.58 156.499 23.3497 156.282 23.0242C156.066 22.6985 155.909 22.3056 155.813 21.8447C155.717 21.3844 155.66 20.9081 155.644 20.4155C156.559 20.4792 157.373 20.3166 158.088 19.9271C158.801 19.5381 159.408 19.0216 159.905 18.3785C160.403 17.7356 160.78 17.013 161.036 16.2109C161.293 15.4088 161.438 14.6109 161.47 13.8167C161.486 13.0702 161.374 12.4388 161.133 11.9227C160.892 11.4068 160.567 11.0054 160.158 10.7198C159.748 10.4336 159.279 10.2671 158.75 10.2193C158.22 10.1716 157.682 10.2435 157.137 10.4336C156.478 10.6563 155.921 11.0175 155.464 11.5177C155.007 12.0182 154.625 12.5981 154.32 13.2567C154.015 13.9161 153.775 14.6263 153.598 15.3889C153.421 16.1511 153.293 16.9018 153.213 17.6401C153.167 18.0566 153.137 18.4604 153.115 18.8569C152.959 18.9875 152.808 19.1189 152.647 19.248C152.094 19.6928 151.511 20.0936 150.902 20.4511C150.292 20.8086 149.658 21.1024 149 21.3327C148.342 21.563 147.668 21.702 146.978 21.7495L148.471 5.93136C148.567 5.5977 148.519 5.30428 148.326 5.0501C148.134 4.79593 147.885 4.62124 147.58 4.52604C147.275 4.43055 146.95 4.43867 146.605 4.54963C146.259 4.66113 145.975 4.91531 145.75 5.31181C145.638 5.91566 145.521 6.7413 145.401 7.7894C145.281 8.8375 145.16 9.9812 145.04 11.22C144.92 12.4588 144.799 13.7372 144.679 15.0552C144.559 16.3738 144.454 17.6045 144.366 18.7478C144.362 18.7986 144.359 18.8445 144.355 18.8947C144.214 19.0125 144.078 19.1313 143.933 19.248C143.379 19.6928 142.797 20.0936 142.187 20.4511C141.577 20.8086 140.943 21.1024 140.286 21.3327C139.627 21.563 138.953 21.702 138.263 21.7495L139.756 5.93136C139.852 5.5977 139.804 5.30428 139.612 5.0501C139.419 4.79593 139.17 4.62124 138.865 4.52604C138.56 4.43055 138.235 4.43867 137.89 4.54963C137.545 4.66113 137.26 4.91531 137.036 5.31181C136.923 5.91566 136.807 6.7413 136.687 7.7894C136.566 8.8375 136.446 9.9812 136.326 11.22C136.205 12.4588 136.085 13.7372 135.965 15.0552C135.845 16.3738 135.74 17.6045 135.652 18.7478C135.65 18.7707 135.648 18.7916 135.646 18.8146C135.394 18.9303 135.119 19.0319 134.821 19.1171C134.516 19.2047 134.171 19.2564 133.786 19.2722C133.85 18.9859 133.902 18.6683 133.942 18.3189C133.982 17.9699 134.015 17.6045 134.039 17.223C134.063 16.8423 134.071 16.4609 134.063 16.0797C134.055 15.6983 134.034 15.3493 134.003 15.0313C133.922 14.3489 133.774 13.7015 133.557 13.0899C133.341 12.4787 133.048 11.9668 132.679 11.5533C132.309 11.1405 131.848 10.8625 131.294 10.7198C130.741 10.5768 130.094 10.6243 129.357 10.8625C128.265 10.7198 127.282 10.8192 126.407 11.1604C125.533 11.5023 124.774 11.9982 124.132 12.6492C123.491 13.3008 122.965 14.0666 122.556 14.9482C122.147 15.8295 121.873 16.735 121.737 17.6637C121.68 18.0575 121.651 18.4495 121.643 18.8406C121.394 19.3441 121.122 19.7841 120.822 20.1534C120.397 20.6775 119.956 21.1063 119.498 21.4397C119.041 21.7733 118.588 22.0275 118.139 22.2022C117.689 22.3772 117.288 22.4962 116.935 22.5594C116.517 22.6389 116.116 22.647 115.731 22.5833C115.346 22.5201 114.992 22.3373 114.672 22.0354C114.415 21.8132 114.218 21.4557 114.082 20.9634C113.946 20.4711 113.866 19.9117 113.842 19.2839C113.818 18.6565 113.842 18.0013 113.913 17.3185C113.986 16.6359 114.11 15.9885 114.286 15.3771C114.463 14.7657 114.687 14.2178 114.961 13.733C115.233 13.2491 115.554 12.9034 115.924 12.697C116.132 12.729 116.261 12.8517 116.309 13.066C116.357 13.2806 116.369 13.5347 116.345 13.8285C116.321 14.1225 116.285 14.4242 116.237 14.7337C116.188 15.0434 116.164 15.3018 116.164 15.5079C116.245 15.9368 116.401 16.2705 116.634 16.5086C116.866 16.7468 117.127 16.8861 117.416 16.9254C117.705 16.9653 117.99 16.8979 118.271 16.7229C118.551 16.5485 118.78 16.2705 118.957 15.889C118.973 15.905 118.997 15.9129 119.029 15.9129L119.366 12.8877C119.462 12.4745 119.398 12.1094 119.174 11.7918C118.949 11.4742 118.652 11.2913 118.283 11.2439C117.817 10.5768 117.187 10.2236 116.393 10.1837C115.599 10.1441 114.784 10.4021 113.95 10.958C113.436 11.3237 112.983 11.8275 112.589 12.4706C112.196 13.114 111.875 13.8285 111.627 14.6146C111.377 15.4006 111.201 16.2309 111.097 17.1043C110.993 17.9777 110.973 18.8276 111.036 19.6529C111.101 20.4792 111.249 21.2574 111.482 21.9876C111.715 22.7184 112.04 23.3298 112.457 23.8218C112.81 24.2507 113.211 24.5647 113.66 24.7632C114.11 24.9618 114.579 25.0845 115.069 25.1323C115.558 25.1797 116.044 25.1598 116.525 25.0727C117.007 24.9857 117.464 24.8627 117.898 24.7034C118.459 24.4973 119.037 24.2349 119.631 23.9173C120.224 23.6 120.794 23.2186 121.34 22.7737C121.627 22.5398 121.903 22.2847 122.171 22.0112C122.292 22.3098 122.428 22.5987 122.592 22.8692C123.025 23.5837 123.611 24.1636 124.349 24.6082C125.087 25.0528 125.994 25.2667 127.069 25.2513C128.225 25.2353 129.292 24.9458 130.271 24.3818C131.25 23.8185 132.053 22.988 132.679 21.8924C133.616 21.8924 134.539 21.7395 135.445 21.4358C135.438 21.5319 135.43 21.6331 135.423 21.7259C135.359 22.5676 135.326 23.1391 135.326 23.441C135.311 23.965 135.275 24.6121 135.218 25.3822C135.162 26.1525 135.126 26.9625 135.11 27.8119C135.094 28.6616 135.126 29.5194 135.206 30.3851C135.287 31.2503 135.455 32.0367 135.712 32.7438C135.968 33.4499 136.333 34.0498 136.807 34.5425C137.28 35.0342 137.902 35.3284 138.673 35.4237C139.491 35.5344 140.197 35.3918 140.791 34.9948C141.385 34.5974 141.866 34.0538 142.236 33.3632C142.605 32.672 142.865 31.8741 143.018 30.969C143.17 30.0634 143.214 29.1543 143.151 28.2408C143.086 27.3276 142.917 26.4663 142.645 25.6566C142.372 24.8464 141.994 24.1793 141.513 23.655C141.803 23.5761 142.147 23.4253 142.549 23.2026C142.949 22.9804 143.363 22.7302 143.788 22.4521C143.893 22.3838 143.996 22.3119 144.1 22.2418C144.061 22.8045 144.041 23.2059 144.041 23.441C144.025 23.965 143.989 24.6121 143.933 25.3822C143.877 26.1525 143.841 26.9625 143.825 27.8119C143.808 28.6616 143.841 29.5194 143.921 30.3851C144.001 31.2503 144.17 32.0367 144.426 32.7438C144.683 33.4499 145.048 34.0498 145.521 34.5425C145.995 35.0342 146.617 35.3284 147.388 35.4237C148.205 35.5344 148.911 35.3918 149.505 34.9948C150.099 34.5974 150.581 34.0538 150.95 33.3632C151.319 32.672 151.58 31.8741 151.732 30.969C151.885 30.0634 151.929 29.1543 151.865 28.2408C151.801 27.3276 151.632 26.4663 151.36 25.6566C151.086 24.8464 150.709 24.1793 150.227 23.655C150.517 23.5761 150.862 23.4253 151.263 23.2026C151.664 22.9804 152.077 22.7302 152.503 22.4521C152.724 22.3077 152.943 22.1587 153.163 22.0054C153.245 22.7821 153.423 23.4634 153.706 24.0364C154.052 24.7355 154.52 25.2752 155.114 25.6566C155.708 26.0374 156.406 26.248 157.209 26.2876C158.012 26.3269 158.886 26.1804 159.833 25.8467C160.539 25.5928 161.153 25.2752 161.675 24.8941C162.196 24.5127 162.665 24.0482 163.083 23.5005C163.107 23.4688 163.13 23.4344 163.153 23.4023C163.228 23.6248 163.31 23.8384 163.408 24.0364C163.753 24.7355 164.223 25.2752 164.816 25.6566C165.41 26.0374 166.108 26.248 166.911 26.2876C167.713 26.3269 168.588 26.1804 169.535 25.8467C170.241 25.5928 170.855 25.2752 171.376 24.8941C171.897 24.5127 172.367 24.0482 172.785 23.5005C173.202 22.9523 173.583 22.321 173.928 21.6065C174.273 20.8918 174.622 20.0742 174.975 19.1528C175.039 18.8989 174.979 18.6725 174.795 18.474Z"
  />
</svg>
