<svg viewBox="0 0 83 18" xmlns="http://www.w3.org/2000/svg">
  <path
    d="M11.2427 4.18708L11.2302 4.17982L11.2013 4.17109C11.213 4.1808 11.2275 4.18642 11.2427 4.18708Z"
  />
  <path
    d="M11.2477 4.18495C11.246 4.18475 11.2445 4.18438 11.2431 4.18387C11.2429 4.18488 11.2429 4.18589 11.2431 4.1869C11.2447 4.18668 11.2462 4.186 11.2477 4.18495Z"
  />
  <path d="M11.2429 4.18758H11.2453V4.18614L11.2429 4.18758Z" />
  <path
    d="M11.4144 5.47068L11.4354 5.45883L11.4432 5.45445L11.4502 5.44695C11.437 5.45265 11.4248 5.46068 11.4144 5.47068Z"
  />
  <path
    d="M11.2785 4.2153L11.2579 4.19592L11.244 4.18842C11.2516 4.20151 11.2638 4.21116 11.2785 4.2153Z"
  />
  <path
    d="M6.11126 16.6935C6.09483 16.7005 6.08046 16.7116 6.06944 16.7255L6.08239 16.7173C6.09119 16.7094 6.10367 16.6998 6.11126 16.6935Z"
  />
  <path
    d="M9.11221 16.109C9.11221 16.0906 9.10315 16.0939 9.10536 16.1594C9.10536 16.154 9.10757 16.1487 9.10854 16.1435C9.10976 16.132 9.11074 16.1206 9.11221 16.109Z"
  />
  <path
    d="M8.80229 16.6935C8.78588 16.7005 8.77151 16.7116 8.76048 16.7255L8.77344 16.7173C8.78224 16.7094 8.79471 16.6998 8.80229 16.6935Z"
  />
  <path
    d="M3.99655 16.8327C3.9841 16.822 3.96884 16.8149 3.95254 16.8123C3.96574 16.8187 3.97894 16.825 3.98775 16.8298L3.99655 16.8327Z"
  />
  <path
    d="M3.52165 16.3818C3.51972 16.3627 3.5138 16.3443 3.50429 16.3276C3.51103 16.3448 3.51666 16.3627 3.52117 16.3809L3.52165 16.3818Z"
  />
  <path
    d="M6.71583 8.315C6.06288 8.59179 5.32191 8.90561 4.36158 8.90561C3.95983 8.90482 3.56006 8.85024 3.17308 8.74337L3.83727 15.4959C3.86078 15.7781 3.99063 16.0413 4.20101 16.2331C4.4114 16.425 4.68694 16.5314 4.97294 16.5312C4.97294 16.5312 5.91469 16.5798 6.22894 16.5798C6.56713 16.5798 7.58128 16.5312 7.58128 16.5312C7.86722 16.5312 8.14271 16.4248 8.35306 16.2331C8.56339 16.0412 8.6932 15.7781 8.71671 15.4959L9.42809 8.0341C9.11019 7.92658 8.78935 7.85515 8.42765 7.85515C7.8021 7.85491 7.29809 8.06824 6.71583 8.315Z"
    fill="white"
  />
  <path
    d="M1.11837 5.4342L1.12962 5.4446L1.13695 5.44896C1.1313 5.4434 1.12507 5.43844 1.11837 5.4342Z"
  />
  <path
    d="M12.5008 4.811L12.4009 4.31144C12.311 3.8632 12.1074 3.43967 11.6427 3.27767C11.4938 3.22585 11.3247 3.20357 11.2106 3.09631C11.0964 2.98903 11.0626 2.82243 11.0362 2.66793C10.9874 2.38436 10.9414 2.10056 10.8913 1.81749C10.848 1.57412 10.8137 1.30072 10.701 1.07747C10.5543 0.777673 10.2499 0.60236 9.9471 0.486367C9.79191 0.429015 9.63356 0.380504 9.47287 0.341073C8.71648 0.143463 7.92122 0.0708162 7.14306 0.0294192C6.20907 -0.0216102 5.27258 -0.00624265 4.3408 0.0754301C3.64727 0.137893 2.91682 0.213463 2.25776 0.451C2.01688 0.537948 1.76868 0.642305 1.58551 0.826588C1.36077 1.053 1.28741 1.40317 1.4515 1.6855C1.56815 1.88602 1.76575 2.02767 1.97531 2.12138C2.2483 2.24214 2.53338 2.33401 2.82584 2.3955C3.64018 2.57374 4.48363 2.64372 5.31557 2.6735C6.23766 2.71036 7.16125 2.68048 8.07894 2.58414C8.30589 2.55945 8.53242 2.52982 8.75855 2.49528C9.02485 2.45484 9.19578 2.11001 9.1173 1.86979C9.02338 1.5826 8.77102 1.4712 8.48562 1.51455C8.44358 1.52109 8.40175 1.52714 8.35968 1.5332L8.32937 1.53756C8.23269 1.54966 8.13601 1.56096 8.03933 1.57146C7.83962 1.59276 7.63942 1.61021 7.43873 1.62376C6.98926 1.65475 6.53855 1.66905 6.08809 1.66977C5.64547 1.66977 5.20259 1.65741 4.76094 1.62861C4.55943 1.61552 4.35842 1.5989 4.15789 1.57872C4.06667 1.56927 3.97571 1.55934 3.88472 1.54821L3.79816 1.5373L3.77934 1.53466L3.68958 1.52181C3.50617 1.49445 3.32276 1.46297 3.14131 1.42495C3.12301 1.42093 3.10662 1.41085 3.09488 1.39637C3.08315 1.38188 3.07675 1.36385 3.07675 1.34528C3.07675 1.32672 3.08315 1.3087 3.09488 1.29422C3.10662 1.27973 3.12301 1.26964 3.14131 1.26561H3.14473C3.30198 1.23243 3.46045 1.20411 3.61939 1.1794C3.67239 1.17118 3.72554 1.16309 3.77884 1.15519H3.7803C3.87984 1.14865 3.97986 1.13098 4.0789 1.11934C4.9406 1.03059 5.80743 1.00034 6.6733 1.02879C7.09366 1.04089 7.5138 1.06536 7.93221 1.10749C8.02221 1.1167 8.11173 1.12639 8.20122 1.13727C8.23545 1.14139 8.26995 1.14624 8.30442 1.15036L8.37387 1.16028C8.57636 1.19014 8.77778 1.22639 8.97814 1.26901C9.27503 1.33293 9.65621 1.35376 9.78838 1.67583C9.83034 1.77802 9.84946 1.89159 9.87266 1.99887L9.90237 2.13567C9.90311 2.13813 9.90366 2.14065 9.90403 2.14319C9.97402 2.46605 10.044 2.78892 10.114 3.11181C10.1192 3.13565 10.1194 3.1603 10.1144 3.1842C10.1095 3.20809 10.0997 3.23074 10.0856 3.2507C10.0715 3.27069 10.0533 3.28756 10.0323 3.30028C10.0113 3.313 9.98776 3.32129 9.96344 3.32466H9.9614L9.9187 3.33046L9.87638 3.33603C9.74234 3.35331 9.60813 3.36945 9.47384 3.38447C9.20924 3.41433 8.94424 3.44017 8.67882 3.46195C8.15142 3.50539 7.62296 3.53388 7.09342 3.54743C6.82361 3.55455 6.55388 3.55785 6.28422 3.55736C5.21091 3.55653 4.13853 3.49477 3.07235 3.37236C2.95692 3.35879 2.84151 3.34427 2.72607 3.32949C2.81557 3.34089 2.66103 3.32078 2.62973 3.31642C2.55636 3.30626 2.483 3.29569 2.40963 3.28469C2.16337 3.24813 1.91858 3.20309 1.67281 3.16363C1.37568 3.11519 1.09152 3.13942 0.822773 3.28469C0.602159 3.40423 0.423611 3.58756 0.310928 3.81017C0.195015 4.04749 0.160542 4.30587 0.108693 4.56085C0.0568444 4.81585 -0.0238531 5.09021 0.00672167 5.35197C0.0724936 5.91692 0.471358 6.37605 1.04506 6.47872C1.58477 6.57557 2.12743 6.65405 2.67153 6.72087C4.80895 6.9801 6.9683 7.01111 9.1124 6.81339C9.28701 6.79723 9.46138 6.77964 9.63542 6.76059C9.68981 6.75467 9.74494 6.76087 9.79655 6.77875C9.84816 6.79662 9.89512 6.8257 9.93392 6.86386C9.97272 6.90204 10.0026 6.94833 10.021 6.99934C10.0394 7.05035 10.046 7.1048 10.0405 7.1587L9.98609 7.68125C9.87675 8.73721 9.76741 9.79309 9.65806 10.8489C9.5439 11.9576 9.429 13.0663 9.31342 14.1748C9.28081 14.4871 9.24821 14.7992 9.21559 15.1114C9.18429 15.4185 9.17989 15.7356 9.12095 16.0393C9.02804 16.5167 8.70156 16.8101 8.22519 16.9173C7.78875 17.0156 7.34292 17.0673 6.89534 17.0713C6.39917 17.0739 5.90322 17.0522 5.40704 17.0548C4.87735 17.0577 4.22856 17.0094 3.81967 16.6189C3.46044 16.2761 3.41081 15.7391 3.36189 15.275C3.29667 14.6605 3.23203 14.0459 3.16797 13.4314L2.57591 7.80427C2.57201 7.76771 2.5681 7.73162 2.56442 7.69482C2.53656 7.43113 2.348 7.17298 2.05089 7.18629C1.79654 7.19743 1.5075 7.41149 1.53733 7.69482L2.06628 12.7239C2.16786 13.6869 2.26918 14.65 2.37026 15.6132C2.38983 15.7978 2.40817 15.9829 2.4287 16.1673C2.54045 17.1757 3.31812 17.7191 4.28114 17.872C4.84361 17.9617 5.41975 17.9801 5.99052 17.9893C6.7222 18.0009 7.46123 18.0288 8.18093 17.8976C9.24739 17.7038 10.0475 16.9987 10.1617 15.9048C10.1944 15.5891 10.227 15.2731 10.2595 14.9573C10.3679 13.9125 10.4762 12.8676 10.5844 11.8226L11.1001 6.84341C11.1081 6.76581 11.1413 6.69285 11.1944 6.63533C11.2477 6.57782 11.3182 6.53877 11.3955 6.52401C11.7005 6.46515 11.9919 6.36467 12.2089 6.13486C12.5542 5.76896 12.6229 5.29192 12.5008 4.811ZM1.02941 5.14857C1.03405 5.14638 1.02549 5.18585 1.02183 5.20427C1.02109 5.17642 1.02256 5.15171 1.02941 5.14857ZM1.059 5.37522C1.06145 5.37353 1.06878 5.38322 1.07636 5.39484C1.06486 5.38418 1.05753 5.3762 1.05876 5.37522H1.059ZM1.08811 5.41324C1.10424 5.44206 1.09861 5.43092 1.08811 5.41324ZM1.14801 5.46022C1.14801 5.46192 1.1507 5.46361 1.15169 5.4653C1.15005 5.46344 1.14825 5.46173 1.1463 5.46022H1.14801ZM11.3814 5.38999C11.2718 5.49315 11.1066 5.54111 10.9436 5.56508C9.11436 5.83386 7.25849 5.96995 5.40923 5.90989C4.08575 5.8651 2.7762 5.71956 1.46592 5.53625C1.33753 5.51833 1.19839 5.4951 1.1101 5.40138C0.943809 5.2246 1.02549 4.86863 1.06878 4.65506C1.1084 4.4594 1.18421 4.19859 1.41921 4.17074C1.78604 4.12813 2.21204 4.2814 2.57495 4.33589C3.01187 4.40192 3.45042 4.45478 3.89061 4.49451C5.7692 4.66401 7.67935 4.63761 9.54965 4.38966C9.89048 4.34429 10.2302 4.29159 10.5686 4.23153C10.8703 4.178 11.2044 4.07752 11.3867 4.38675C11.5117 4.59741 11.5282 4.87929 11.5089 5.11732C11.5029 5.22103 11.4573 5.31859 11.381 5.38999H11.3814Z"
  />
  <path
    fill-rule="evenodd"
    clip-rule="evenodd"
    d="M22.4764 10.4227C22.3697 10.6246 22.2229 10.8004 22.0359 10.9496C21.849 11.0988 21.631 11.2204 21.3817 11.314C21.1326 11.4078 20.8818 11.4707 20.6297 11.5028C20.3774 11.535 20.1326 11.5322 19.8955 11.494C19.6581 11.456 19.4561 11.3785 19.2901 11.2613L19.4773 9.33816C19.6492 9.27969 19.8656 9.21963 20.1268 9.15815C20.3878 9.09675 20.6563 9.05274 20.9323 9.02645C21.2083 9.00006 21.4692 9.00316 21.7155 9.03526C21.9617 9.06745 22.156 9.14498 22.2984 9.26798C22.3756 9.33816 22.441 9.41427 22.4943 9.49625C22.5477 9.57826 22.5802 9.66314 22.5923 9.75094C22.6218 9.9968 22.5834 10.2207 22.4764 10.4227ZM19.7618 6.32618C19.8864 6.2501 20.0364 6.18269 20.2113 6.12408C20.3863 6.06572 20.5658 6.0246 20.7498 6.00122C20.9336 5.97793 21.1131 5.9748 21.2884 5.99241C21.4632 6.01 21.6177 6.05826 21.7512 6.13725C21.8846 6.21635 21.9839 6.33054 22.0493 6.47971C22.1145 6.6291 22.1323 6.81793 22.1026 7.0462C22.079 7.22769 22.006 7.38142 21.8846 7.50721C21.763 7.6332 21.6145 7.73848 21.4397 7.82338C21.2646 7.90838 21.0791 7.97567 20.8835 8.02524C20.6874 8.07515 20.499 8.1118 20.3182 8.13509C20.1372 8.15861 19.98 8.17331 19.8465 8.17899C19.713 8.18489 19.6254 8.18778 19.5838 8.18778L19.7618 6.32618ZM23.4377 9.18009C23.3428 8.97531 23.2153 8.79528 23.0551 8.63998C22.8949 8.48491 22.7048 8.37228 22.4854 8.30199C22.5802 8.22589 22.6738 8.1059 22.7659 7.94192C22.8577 7.77815 22.9363 7.59945 23.0016 7.40627C23.0668 7.21298 23.1115 7.01846 23.1351 6.82228C23.1587 6.6262 23.1498 6.45787 23.1085 6.31726C23.0074 5.96613 22.8488 5.69094 22.6322 5.49186C22.4156 5.29289 22.1635 5.1553 21.8757 5.0791C21.5878 5.00324 21.2705 4.98697 20.9234 5.03087C20.5762 5.07475 20.2217 5.16109 19.8599 5.28988C19.8599 5.26069 19.8628 5.22995 19.8688 5.19774C19.8745 5.16567 19.8775 5.1319 19.8775 5.0967C19.8775 5.00892 19.8331 4.93293 19.744 4.86842C19.6551 4.80403 19.5528 4.76605 19.4372 4.75423C19.3213 4.74265 19.2086 4.76738 19.0987 4.82888C18.989 4.89037 18.9133 5.00324 18.8719 5.16688C18.8244 5.69385 18.7768 6.24129 18.7295 6.80903C18.682 7.37697 18.6315 7.95072 18.5782 8.53037C18.5247 9.10989 18.4713 9.68509 18.418 10.2558C18.3645 10.8267 18.3111 11.3755 18.2578 11.9023C18.2756 12.0604 18.32 12.1834 18.3913 12.2712C18.4624 12.3591 18.5455 12.4118 18.6404 12.4293C18.7353 12.4469 18.8348 12.4306 18.9385 12.3809C19.0423 12.3313 19.1329 12.2448 19.2101 12.1219C19.4474 12.2507 19.7145 12.3341 20.0112 12.3722C20.3078 12.4102 20.6087 12.4102 20.9147 12.3722C21.22 12.3341 21.5211 12.2625 21.8178 12.157C22.1145 12.0517 22.3846 11.9199 22.6277 11.7619C22.8711 11.6038 23.0757 11.4237 23.242 11.2218C23.408 11.0197 23.5179 10.8017 23.5712 10.5676C23.6246 10.3276 23.6395 10.0876 23.6157 9.84752C23.592 9.60756 23.5325 9.38519 23.4377 9.18009Z"
  />
  <path
    fill-rule="evenodd"
    clip-rule="evenodd"
    d="M32.121 13.8165C32.0885 14.0097 32.0422 14.2132 31.983 14.427C31.9236 14.6404 31.854 14.8353 31.774 15.011C31.6938 15.1866 31.6049 15.3283 31.507 15.4367C31.409 15.545 31.3036 15.5904 31.1909 15.573C31.102 15.561 31.0455 15.5055 31.022 15.406C30.998 15.3064 30.998 15.1834 31.022 15.0373C31.0455 14.8908 31.0914 14.7253 31.1597 14.541C31.228 14.3566 31.3112 14.1735 31.409 13.9923C31.507 13.8106 31.6182 13.6366 31.7428 13.4697C31.8674 13.303 31.9979 13.1638 32.1343 13.0526C32.164 13.0877 32.1774 13.1755 32.1744 13.3161C32.1713 13.4566 32.1536 13.6235 32.121 13.8165ZM35.1383 10.0054C35.0581 9.91765 34.9603 9.86796 34.8445 9.85616C34.7288 9.84445 34.6115 9.90884 34.4931 10.0493C34.4158 10.1898 34.3178 10.3245 34.1992 10.4533C34.0806 10.5822 33.9575 10.6992 33.83 10.8046C33.7022 10.9098 33.5806 11.0007 33.465 11.0767C33.3493 11.1529 33.2587 11.2085 33.1936 11.2436C33.1698 11.0563 33.1563 10.8544 33.1535 10.6377C33.1503 10.4211 33.155 10.2016 33.1668 9.97914C33.1845 9.66298 33.2216 9.34401 33.278 9.02193C33.3345 8.69998 33.416 8.38381 33.5229 8.07342C33.5229 7.90965 33.4841 7.77642 33.4071 7.67392C33.3298 7.57155 33.2365 7.50704 33.1267 7.48074C33.0169 7.45445 32.9044 7.46905 32.7885 7.52463C32.6729 7.58033 32.5735 7.68138 32.4904 7.82756C32.4193 8.02085 32.3376 8.23741 32.2457 8.47739C32.1536 8.71747 32.0499 8.9619 31.9342 9.21066C31.8184 9.45965 31.6893 9.70107 31.547 9.93515C31.4046 10.1694 31.2488 10.3773 31.0797 10.5587C30.9106 10.7402 30.7266 10.8822 30.528 10.9846C30.329 11.0871 30.1142 11.1324 29.8827 11.1207C29.7758 11.0914 29.6986 11.0124 29.6512 10.8835C29.6037 10.7549 29.5755 10.5938 29.5667 10.4006C29.5578 10.2074 29.5667 9.99519 29.5933 9.7639C29.62 9.53274 29.6557 9.30291 29.7002 9.07463C29.7446 8.84625 29.7936 8.62967 29.8469 8.4248C29.9003 8.21993 29.9506 8.04714 29.9982 7.90666C30.0695 7.73697 30.0695 7.59482 29.9982 7.48074C29.9271 7.36655 29.8292 7.29057 29.7047 7.25236C29.5801 7.21438 29.4494 7.21592 29.313 7.25682C29.1765 7.29781 29.0785 7.3885 29.0193 7.52897C28.9183 7.76918 28.8262 8.03833 28.7433 8.3369C28.6603 8.63548 28.5934 8.9444 28.5431 9.26337C28.4926 9.58254 28.4642 9.89871 28.4585 10.2119C28.4581 10.2323 28.459 10.2516 28.459 10.2719C28.3296 10.6123 28.2064 10.8695 28.0892 11.0416C27.9379 11.2642 27.7672 11.3608 27.5774 11.3314C27.4941 11.2963 27.4395 11.2144 27.4128 11.0855C27.3859 10.9568 27.3771 10.7988 27.3859 10.6113C27.395 10.4241 27.4172 10.2119 27.4527 9.97469C27.4885 9.73761 27.5327 9.49175 27.5862 9.23706C27.6396 8.98228 27.6961 8.72638 27.7553 8.4687C27.8147 8.21112 27.868 7.96815 27.9157 7.73976C27.9097 7.53489 27.8488 7.37837 27.733 7.26997C27.6175 7.16179 27.4557 7.11934 27.2481 7.14263C27.1057 7.20122 27.0003 7.27743 26.9322 7.37101C26.8638 7.46458 26.8089 7.58469 26.7675 7.73096C26.7435 7.80717 26.7081 7.95934 26.6606 8.18772C26.613 8.41588 26.5523 8.67804 26.4781 8.97359C26.404 9.26938 26.3164 9.57809 26.2156 9.90004C26.1148 10.222 26.0019 10.5135 25.8775 10.7738C25.7528 11.0343 25.6163 11.2436 25.468 11.4017C25.3197 11.5597 25.1595 11.6242 24.9874 11.5949C24.8924 11.5773 24.8316 11.4807 24.8049 11.3051C24.7782 11.1294 24.7739 10.913 24.7916 10.6553C24.8094 10.3977 24.845 10.1152 24.8983 9.80791C24.9518 9.50054 25.0065 9.20932 25.063 8.93405C25.1194 8.65897 25.1714 8.41588 25.2189 8.20522C25.2662 7.99443 25.2989 7.85395 25.3167 7.78377C25.3167 7.61399 25.2779 7.47796 25.2011 7.37535C25.1238 7.27307 25.0305 7.20857 24.9206 7.18217C24.8107 7.15589 24.698 7.17048 24.5825 7.22607C24.4667 7.28177 24.3674 7.38282 24.2842 7.52897C24.2545 7.68706 24.2159 7.87011 24.1685 8.07789C24.121 8.28565 24.0752 8.49934 24.0306 8.71892C23.9861 8.9385 23.9445 9.15362 23.9061 9.3644C23.8674 9.57519 23.8392 9.75956 23.8214 9.91765C23.8095 10.0405 23.7962 10.1914 23.7815 10.3699C23.7665 10.5485 23.759 10.7373 23.759 10.9362C23.759 11.1354 23.7739 11.333 23.8038 11.529C23.8333 11.7252 23.8867 11.9053 23.9638 12.069C24.0408 12.233 24.1492 12.3676 24.2888 12.473C24.4281 12.5784 24.6046 12.6369 24.8183 12.6487C25.0377 12.6603 25.2291 12.6443 25.3925 12.6003C25.5555 12.5564 25.7038 12.4876 25.8374 12.3939C25.9709 12.3004 26.0925 12.1891 26.2024 12.0602C26.3119 11.9315 26.4204 11.7911 26.5271 11.6388C26.6281 11.8614 26.7586 12.0339 26.9188 12.1569C27.079 12.2798 27.2481 12.3531 27.4261 12.3764C27.604 12.3997 27.7852 12.3751 27.9691 12.3017C28.1529 12.2287 28.3191 12.1042 28.4674 11.9285C28.5652 11.8208 28.6573 11.6984 28.7438 11.563C28.7806 11.6264 28.8196 11.6876 28.8635 11.744C29.0089 11.9315 29.2062 12.0602 29.4555 12.1305C29.7225 12.2008 29.9833 12.2126 30.2386 12.1657C30.4936 12.1189 30.737 12.0339 30.9683 11.911C31.1998 11.7881 31.4148 11.6403 31.6138 11.4675C31.8124 11.2949 31.986 11.1149 32.1343 10.9274C32.1284 11.0621 32.1254 11.1896 32.1254 11.3094C32.1254 11.4295 32.1224 11.5597 32.1167 11.7003C31.8199 11.9053 31.5395 12.1511 31.2756 12.4379C31.0114 12.7247 30.7799 13.0306 30.5813 13.3555C30.3824 13.6803 30.2267 14.0097 30.1142 14.3434C30.0013 14.6772 29.9464 14.9889 29.9494 15.2788C29.9523 15.5685 30.0219 15.8217 30.1586 16.0382C30.2948 16.2549 30.5174 16.4099 30.8259 16.5037C31.1465 16.6033 31.4282 16.606 31.6717 16.5125C31.9149 16.4187 32.1269 16.2636 32.3079 16.047C32.4889 15.8305 32.6372 15.5685 32.7531 15.2612C32.8687 14.9538 32.9606 14.6333 33.0289 14.2996C33.097 13.966 33.1401 13.6378 33.1579 13.3161C33.1758 12.994 33.1758 12.707 33.1579 12.4554C33.6683 12.2447 34.0865 11.9783 34.4129 11.6563C34.7392 11.3345 35.0091 10.9948 35.2228 10.6377C35.288 10.5499 35.3102 10.4445 35.2896 10.3216C35.2687 10.1986 35.2183 10.0932 35.1383 10.0054Z"
  />
  <path
    fill-rule="evenodd"
    clip-rule="evenodd"
    d="M46.366 9.44364C46.3838 9.30906 46.4105 9.16702 46.446 9.01774C46.4816 8.86846 46.5262 8.72351 46.5796 8.58303C46.6329 8.44256 46.6953 8.32112 46.7666 8.21862C46.8377 8.11623 46.9134 8.04305 46.9934 7.99905C47.0736 7.95526 47.1549 7.9596 47.2383 8.01219C47.3272 8.065 47.382 8.17618 47.403 8.34585C47.4236 8.51585 47.403 8.69723 47.3406 8.89041C47.2782 9.0837 47.167 9.26506 47.0068 9.43485C46.8466 9.60474 46.63 9.71581 46.3571 9.76851C46.3452 9.68675 46.3482 9.57835 46.366 9.44364ZM49.4498 9.8036C49.352 9.77452 49.2586 9.77153 49.1695 9.79491C49.0806 9.81831 49.0241 9.8798 49.0006 9.97941C48.9529 10.1667 48.8771 10.3584 48.7733 10.5545C48.6696 10.7507 48.542 10.9365 48.3909 11.1122C48.2396 11.2878 48.0688 11.443 47.8791 11.5775C47.689 11.7122 47.4904 11.8088 47.2827 11.8673C47.0749 11.9318 46.9028 11.939 46.7666 11.8892C46.63 11.8397 46.5217 11.7547 46.4417 11.6347C46.3615 11.5147 46.3036 11.3698 46.2681 11.2C46.2325 11.0302 46.2117 10.8546 46.2058 10.673C46.544 10.6965 46.8451 10.6366 47.1093 10.493C47.3731 10.3497 47.5971 10.1593 47.7811 9.92224C47.9649 9.68518 48.1045 9.41881 48.1993 9.12313C48.2942 8.82758 48.3477 8.53335 48.3596 8.24057C48.3655 7.96539 48.3241 7.73278 48.235 7.5425C48.1461 7.35232 48.0258 7.20427 47.8745 7.09899C47.7234 6.99361 47.5496 6.9321 47.3539 6.91462C47.1583 6.89701 46.9593 6.9234 46.7575 6.99361C46.5141 7.07559 46.3081 7.20872 46.1389 7.39322C45.9698 7.57759 45.8289 7.79138 45.7162 8.03425C45.6036 8.27723 45.5145 8.53914 45.4493 8.82011C45.3839 9.10118 45.3364 9.37781 45.3069 9.65009C45.2802 9.89439 45.2659 10.128 45.2609 10.3535C45.2481 10.3821 45.2358 10.4097 45.2223 10.4403C45.1302 10.6483 45.0232 10.8517 44.9018 11.0507C44.7802 11.2498 44.6451 11.4167 44.497 11.5512C44.3486 11.6859 44.1944 11.7327 44.0342 11.6917C43.9391 11.6684 43.8873 11.5599 43.8784 11.3669C43.8695 11.1736 43.8797 10.9336 43.9094 10.6467C43.9391 10.36 43.9733 10.0495 44.0119 9.71581C44.0503 9.38215 44.0696 9.0632 44.0696 8.75872C44.0696 8.49524 44.0191 8.24213 43.9183 7.99905C43.8173 7.75629 43.6794 7.55419 43.5045 7.39322C43.3295 7.23212 43.1262 7.12528 42.8949 7.07271C42.6634 7.01989 42.4143 7.0551 42.1473 7.17798C41.8802 7.30098 41.668 7.47364 41.511 7.69612C41.3535 7.91872 41.2097 8.15278 41.0792 8.39866C41.0316 8.21127 40.962 8.03726 40.8699 7.87616C40.7781 7.71519 40.6654 7.57469 40.5319 7.4546C40.3982 7.33473 40.2482 7.24103 40.0825 7.17362C39.9163 7.10645 39.7411 7.07271 39.5571 7.07271C39.3793 7.07271 39.2146 7.10645 39.0633 7.17362C38.912 7.24103 38.7741 7.32726 38.6493 7.43265C38.5248 7.53815 38.4121 7.65658 38.3111 7.78837C38.2103 7.92006 38.1212 8.05041 38.0441 8.17908C38.0321 8.0269 38.0189 7.89377 38.0042 7.77945C37.9892 7.66539 37.9625 7.56879 37.924 7.4898C37.8854 7.4107 37.8307 7.35077 37.7594 7.30976C37.6881 7.26888 37.5873 7.24828 37.4568 7.24828C37.3914 7.24828 37.3261 7.26142 37.2609 7.28771C37.1956 7.31412 37.1377 7.35077 37.0874 7.39756C37.0369 7.44458 36.9984 7.50149 36.9717 7.56879C36.945 7.63609 36.9377 7.71373 36.9494 7.80151C36.9554 7.86601 36.9717 7.94346 36.9984 8.03425C37.025 8.12504 37.0502 8.2437 37.074 8.38986C37.0978 8.53625 37.1171 8.71338 37.1319 8.92116C37.1468 9.12905 37.151 9.38371 37.1453 9.68519C37.1392 9.98677 37.1171 10.3394 37.0785 10.7433C37.0398 11.1473 36.9789 11.6156 36.896 12.1483C36.8841 12.2713 36.9316 12.3709 37.0385 12.4469C37.1453 12.5229 37.2669 12.5668 37.4033 12.5786C37.5398 12.5903 37.669 12.5668 37.7906 12.5084C37.9122 12.4497 37.982 12.3474 37.9996 12.2011C38.0174 11.9259 38.0516 11.6332 38.1021 11.3228C38.1524 11.0127 38.2147 10.7053 38.289 10.4008C38.3631 10.0965 38.4475 9.80673 38.5426 9.53143C38.6374 9.25627 38.7429 9.0134 38.8585 8.80261C38.9744 8.59184 39.0945 8.42361 39.2191 8.29772C39.3436 8.17184 39.4741 8.10888 39.6108 8.10888C39.7767 8.10888 39.9057 8.18342 39.9978 8.3327C40.0897 8.4821 40.1549 8.67394 40.1937 8.90789C40.2321 9.14219 40.2499 9.39842 40.2471 9.67638C40.244 9.95445 40.2321 10.2223 40.2115 10.4798C40.1907 10.7375 40.1669 10.9672 40.1402 11.1692C40.1135 11.3712 40.0942 11.5103 40.0825 11.5863C40.0825 11.721 40.1343 11.8278 40.238 11.9069C40.3418 11.9858 40.4575 12.0327 40.5852 12.0473C40.7129 12.062 40.8328 12.0385 40.9457 11.977C41.0584 11.9155 41.1237 11.8118 41.1415 11.6653C41.2008 11.2439 41.2824 10.821 41.3862 10.3965C41.49 9.97206 41.6088 9.5916 41.7423 9.25493C41.8757 8.91826 42.0241 8.64309 42.1872 8.42941C42.3504 8.21585 42.524 8.10888 42.708 8.10888C42.8028 8.10888 42.8756 8.17338 42.9259 8.30206C42.9764 8.43085 43.0016 8.60644 43.0016 8.82892C43.0016 8.99291 42.9883 9.16123 42.9617 9.33392C42.9348 9.5066 42.9038 9.68518 42.8682 9.86956C42.8325 10.054 42.8013 10.2428 42.7746 10.436C42.7481 10.6292 42.7347 10.8311 42.7347 11.0419C42.7347 11.1883 42.7495 11.3581 42.7792 11.5512C42.8088 11.7443 42.865 11.9275 42.9482 12.1C43.0313 12.2728 43.1455 12.4191 43.2911 12.5391C43.4364 12.6591 43.6217 12.7191 43.847 12.7191C44.1855 12.7191 44.4849 12.6474 44.7461 12.504C45.0071 12.3606 45.2312 12.1733 45.4181 11.9421C45.4278 11.9299 45.4367 11.917 45.4461 11.905C45.4604 11.9392 45.4731 11.9754 45.4892 12.0079C45.6167 12.2655 45.7903 12.4644 46.0099 12.605C46.2293 12.7455 46.4876 12.8231 46.7844 12.8378C47.0809 12.8522 47.4043 12.7981 47.7546 12.6752C48.0154 12.5815 48.2424 12.4644 48.4353 12.324C48.628 12.1835 48.8016 12.0122 48.9558 11.8103C49.1103 11.6083 49.251 11.3756 49.3787 11.1122C49.5064 10.8486 49.6353 10.5472 49.7658 10.2076C49.7895 10.1141 49.7673 10.0306 49.6991 9.95735C49.6308 9.88427 49.5478 9.83302 49.4498 9.8036Z"
  />
  <path
    fill-rule="evenodd"
    clip-rule="evenodd"
    d="M54.287 8.8241C54.2573 8.99689 54.2174 9.18728 54.1669 9.39495C54.1164 9.60283 54.0527 9.81796 53.9755 10.0404C53.8985 10.2629 53.8034 10.4634 53.6907 10.6419C53.5781 10.8206 53.4489 10.9624 53.3037 11.0678C53.1581 11.1732 52.9907 11.2171 52.8008 11.1995C52.7057 11.1879 52.633 11.1235 52.5827 11.0063C52.5322 10.8894 52.5056 10.74 52.5025 10.5585C52.4995 10.3771 52.5158 10.178 52.5515 9.96134C52.5871 9.74487 52.6419 9.53254 52.7163 9.32465C52.7904 9.11699 52.8808 8.92515 52.9875 8.74945C53.0945 8.57388 53.2175 8.43774 53.357 8.34116C53.4964 8.24456 53.6493 8.19934 53.8153 8.20502C53.9814 8.21092 54.1595 8.2928 54.3494 8.45088C54.3373 8.5271 54.3167 8.65153 54.287 8.8241ZM57.451 9.49588C57.359 9.44908 57.2641 9.43895 57.1663 9.46524C57.0684 9.49153 56.9986 9.58088 56.9572 9.73307C56.9335 9.89706 56.88 10.0901 56.797 10.3126C56.7139 10.5351 56.6114 10.746 56.49 10.9448C56.3682 11.1439 56.2288 11.3094 56.0716 11.441C55.9143 11.5728 55.7467 11.6329 55.5689 11.621C55.4203 11.6094 55.3164 11.5347 55.2573 11.3972C55.1978 11.2596 55.1668 11.087 55.1638 10.879C55.1606 10.6713 55.1816 10.4372 55.226 10.1766C55.2705 9.9161 55.324 9.65708 55.3862 9.39929C55.4486 9.14182 55.5124 8.8944 55.5778 8.65732C55.6429 8.42026 55.6962 8.21973 55.738 8.05585C55.7853 7.90945 55.7705 7.78513 55.6934 7.68252C55.6162 7.58024 55.5198 7.50693 55.4042 7.46305C55.2884 7.41916 55.171 7.40745 55.0524 7.42794C54.9338 7.44846 54.8567 7.5114 54.8211 7.61668C54.471 7.31811 54.1342 7.15712 53.811 7.13373C53.4875 7.11033 53.1893 7.18063 52.9164 7.34451C52.6434 7.50839 52.4017 7.74546 52.1911 8.05585C51.9804 8.36622 51.8098 8.70423 51.6792 9.07009C51.5487 9.43594 51.4672 9.80927 51.4345 10.1897C51.4018 10.5703 51.4271 10.9172 51.5102 11.2304C51.5934 11.5435 51.74 11.7998 51.9507 11.9986C52.1613 12.1977 52.4477 12.2973 52.8097 12.2973C52.9699 12.2973 53.1242 12.2651 53.2725 12.2007C53.4206 12.1362 53.5573 12.0601 53.6818 11.9723C53.8064 11.8845 53.9161 11.7923 54.0113 11.6957C54.106 11.5991 54.1803 11.5187 54.2337 11.4542C54.2751 11.665 54.3435 11.8437 54.4385 11.9899C54.5332 12.1362 54.6416 12.2564 54.7632 12.3499C54.8848 12.4435 55.0125 12.5123 55.146 12.5563C55.2794 12.6002 55.4086 12.6222 55.533 12.6222C55.812 12.6222 56.0729 12.5285 56.3164 12.3411C56.5596 12.1539 56.7777 11.924 56.9706 11.6518C57.1633 11.3795 57.3222 11.0928 57.4466 10.7912C57.5713 10.4897 57.6543 10.2219 57.6959 9.98763C57.7375 9.89984 57.7299 9.8077 57.6736 9.71112C57.6172 9.61452 57.5431 9.54289 57.451 9.49588Z"
  />
  <path
    fill-rule="evenodd"
    clip-rule="evenodd"
    d="M73.4719 14.3439C73.4216 14.5428 73.3429 14.7114 73.2359 14.8489C73.1292 14.9864 72.9957 15.0581 72.8355 15.0641C72.7347 15.0698 72.6575 15.0171 72.604 14.906C72.5507 14.7946 72.5136 14.6513 72.4928 14.4757C72.472 14.3 72.4631 14.1038 72.4661 13.8873C72.4691 13.6708 72.478 13.457 72.4928 13.2462C72.5075 13.0356 72.5255 12.8393 72.5463 12.6579C72.5669 12.4763 72.5832 12.336 72.5951 12.2365C72.7969 12.2598 72.9647 12.3461 73.098 12.4955C73.2315 12.6447 73.334 12.8218 73.4051 13.0268C73.4763 13.2316 73.5177 13.4527 73.5298 13.6897C73.5415 13.9268 73.5222 14.1448 73.4719 14.3439ZM70.2499 14.3439C70.1996 14.5428 70.1209 14.7114 70.0142 14.8489C69.9074 14.9864 69.7738 15.0581 69.6136 15.0641C69.5128 15.0698 69.4357 15.0171 69.3823 14.906C69.3288 14.7946 69.2917 14.6513 69.2711 14.4757C69.2501 14.3 69.2412 14.1038 69.2443 13.8873C69.2471 13.6708 69.256 13.457 69.2711 13.2462C69.2857 13.0356 69.3035 12.8393 69.3243 12.6579C69.3451 12.4763 69.3613 12.336 69.3734 12.2365C69.575 12.2598 69.7428 12.3461 69.8761 12.4955C70.0097 12.6447 70.112 12.8218 70.1833 13.0268C70.2546 13.2316 70.296 13.4527 70.3079 13.6897C70.3196 13.9268 70.3002 14.1448 70.2499 14.3439ZM66.9437 9.35614C66.9376 9.49651 66.9242 9.62096 66.9034 9.72925C66.8826 9.83776 66.8546 9.90638 66.819 9.93568C66.7536 9.90048 66.6734 9.80991 66.5786 9.6634C66.4837 9.51713 66.4096 9.35158 66.356 9.16719C66.3027 8.98281 66.2862 8.80145 66.3071 8.62276C66.3278 8.44429 66.4213 8.30535 66.5875 8.20565C66.6526 8.17055 66.7091 8.1837 66.7566 8.2452C66.8041 8.30669 66.8425 8.39592 66.8724 8.51302C66.9019 8.63022 66.9225 8.7648 66.9346 8.91699C66.9465 9.06927 66.9495 9.21555 66.9437 9.35614ZM66.1559 11.108C66.0638 11.2045 65.9613 11.2879 65.8488 11.3582C65.7359 11.4285 65.6203 11.4812 65.5017 11.5163C65.3828 11.5515 65.2761 11.5602 65.1812 11.5426C64.9143 11.49 64.7095 11.3757 64.5671 11.2001C64.4248 11.0246 64.3342 10.8182 64.2958 10.5812C64.2571 10.344 64.2614 10.0908 64.3091 9.82149C64.3565 9.55223 64.4365 9.30201 64.5493 9.07072C64.662 8.83943 64.7986 8.64035 64.9587 8.47359C65.1189 8.30669 65.2939 8.20287 65.4838 8.16175C65.4126 8.46032 65.389 8.76925 65.4126 9.08822C65.4363 9.40728 65.5135 9.7073 65.644 9.98826C65.727 10.1583 65.8265 10.3132 65.9422 10.4537C66.058 10.5943 66.1989 10.7143 66.3651 10.8138C66.3175 10.9134 66.2477 11.0114 66.1559 11.108ZM76.004 9.44394C76.0218 9.30936 76.0484 9.16719 76.0842 9.01791C76.1197 8.86873 76.1642 8.72381 76.2175 8.58331C76.271 8.44272 76.3333 8.32129 76.4046 8.2189C76.4759 8.11653 76.5513 8.04322 76.6315 7.99932C76.7117 7.95543 76.7932 7.95978 76.8761 8.01247C76.9652 8.06528 77.02 8.17646 77.0408 8.34612C77.0616 8.51603 77.0408 8.69739 76.9786 8.89068C76.9162 9.08386 76.805 9.26535 76.6448 9.43502C76.4848 9.60502 76.268 9.7161 75.9951 9.76879C75.9832 9.68691 75.9862 9.57862 76.004 9.44394ZM79.5909 9.44394C79.6088 9.30936 79.6353 9.16719 79.6709 9.01791C79.7066 8.86873 79.7511 8.72381 79.8046 8.58331C79.8579 8.44272 79.9201 8.32129 79.9914 8.2189C80.0626 8.11653 80.1384 8.04322 80.2184 7.99932C80.2986 7.95543 80.3801 7.95978 80.4631 8.01247C80.5522 8.06528 80.6069 8.17646 80.6277 8.34612C80.6485 8.51603 80.6277 8.69739 80.5655 8.89068C80.5032 9.08386 80.392 9.26535 80.2318 9.43502C80.0715 9.60502 79.8549 9.7161 79.582 9.76879C79.5701 9.68691 79.5731 9.57862 79.5909 9.44394ZM82.9241 9.95763C82.8558 9.88454 82.7728 9.83329 82.6749 9.80388C82.5769 9.77469 82.4836 9.7718 82.3945 9.7952C82.3055 9.81859 82.2489 9.88009 82.2253 9.97958C82.1778 10.167 82.1023 10.3587 81.9985 10.5547C81.8945 10.751 81.767 10.9368 81.6157 11.1124C81.4644 11.2879 81.2938 11.4432 81.1041 11.5778C80.914 11.7125 80.7153 11.8091 80.5078 11.8675C80.2999 11.9321 80.1278 11.9393 79.9914 11.8895C79.8549 11.8398 79.7467 11.7549 79.6665 11.635C79.5865 11.5149 79.5287 11.37 79.4929 11.2001C79.4575 11.0305 79.4365 10.8549 79.4307 10.6733C79.769 10.6968 80.0701 10.6369 80.334 10.4933C80.598 10.3499 80.8221 10.1595 81.0062 9.92243C81.19 9.68546 81.3294 9.41908 81.4243 9.12342C81.5192 8.82774 81.5726 8.53362 81.5847 8.24085C81.5904 7.96568 81.5489 7.73294 81.4599 7.54267C81.371 7.3525 81.2509 7.20454 81.0996 7.09927C80.9481 6.99377 80.7747 6.93238 80.5787 6.91478C80.383 6.89717 80.1842 6.9237 79.9824 6.99377C79.7391 7.07587 79.533 7.20901 79.3641 7.39339C79.195 7.57787 79.0539 7.79166 78.9412 8.03441C78.8283 8.2775 78.7394 8.5393 78.6741 8.82039C78.6087 9.10136 78.5614 9.37809 78.5319 9.65026C78.5029 9.91439 78.4873 10.1672 78.4838 10.4092C78.4613 10.4574 78.4374 10.5059 78.4116 10.5547C78.3076 10.751 78.1801 10.9368 78.0288 11.1124C77.8777 11.2879 77.7069 11.4432 77.5172 11.5778C77.3272 11.7125 77.1284 11.8091 76.9209 11.8675C76.713 11.9321 76.5411 11.9393 76.4046 11.8895C76.268 11.8398 76.1598 11.7549 76.0798 11.635C75.9997 11.5149 75.9418 11.37 75.9062 11.2001C75.8705 11.0305 75.8497 10.8549 75.8438 10.6733C76.182 10.6968 76.4831 10.6369 76.7473 10.4933C77.0111 10.3499 77.2352 10.1595 77.4191 9.92243C77.6031 9.68546 77.7425 9.41908 77.8374 9.12342C77.9322 8.82774 77.9859 8.53362 77.9976 8.24085C78.0035 7.96568 77.9621 7.73294 77.8732 7.54267C77.7841 7.3525 77.6638 7.20454 77.5125 7.09927C77.3612 6.99377 77.1878 6.93238 76.992 6.91478C76.7961 6.89717 76.5973 6.9237 76.3957 6.99377C76.1521 7.07587 75.9461 7.20901 75.7772 7.39339C75.608 7.57787 75.467 7.79166 75.3543 8.03441C75.2416 8.2775 75.1527 8.5393 75.0873 8.82039C75.022 9.10136 74.9745 9.37809 74.9449 9.65026C74.928 9.80377 74.9169 9.95261 74.9085 10.0988C74.8512 10.1469 74.7953 10.1954 74.7357 10.2429C74.5311 10.4069 74.3158 10.5547 74.0904 10.6865C73.8649 10.8182 73.6304 10.9265 73.3874 11.0114C73.1439 11.0963 72.8947 11.1476 72.6397 11.1651L73.1916 5.33414C73.2272 5.21114 73.2094 5.10298 73.1381 5.00929C73.067 4.91559 72.9749 4.8512 72.8623 4.81611C72.7496 4.78091 72.6293 4.7839 72.5017 4.8248C72.374 4.86591 72.2689 4.9596 72.1858 5.10576C72.1442 5.32835 72.1011 5.63271 72.0568 6.01907C72.0122 6.40543 71.9677 6.82699 71.9233 7.28364C71.8787 7.7403 71.8342 8.21155 71.7898 8.69739C71.7453 9.18346 71.7066 9.63712 71.674 10.0586C71.6725 10.0773 71.6714 10.0942 71.6699 10.1127C71.6179 10.1562 71.5676 10.1999 71.5138 10.2429C71.3092 10.4069 71.0939 10.5547 70.8685 10.6865C70.6429 10.8182 70.4087 10.9265 70.1655 11.0114C69.9221 11.0963 69.6728 11.1476 69.4177 11.1651L69.9696 5.33414C70.0053 5.21114 69.9874 5.10298 69.9163 5.00929C69.8451 4.91559 69.753 4.8512 69.6403 4.81611C69.5276 4.78091 69.4073 4.7839 69.2798 4.8248C69.1523 4.86591 69.047 4.9596 68.9638 5.10576C68.9222 5.32835 68.8794 5.63271 68.835 6.01907C68.7903 6.40543 68.7459 6.82699 68.7013 7.28364C68.6568 7.7403 68.6124 8.21155 68.5679 8.69739C68.5235 9.18346 68.4847 9.63712 68.4522 10.0586C68.4515 10.067 68.4509 10.0747 68.4502 10.0832C68.357 10.1258 68.2554 10.1633 68.145 10.1947C68.0323 10.227 67.9048 10.2461 67.7624 10.2519C67.7861 10.1463 67.8053 10.0293 67.8201 9.90048C67.835 9.7718 67.847 9.63712 67.8559 9.49651C67.8648 9.35614 67.8676 9.21555 67.8648 9.07506C67.8617 8.93447 67.8543 8.80579 67.8426 8.68859C67.8127 8.43704 67.7579 8.1984 67.6779 7.97293C67.5977 7.74765 67.4895 7.55894 67.353 7.40653C67.2164 7.25434 67.046 7.15186 66.841 7.09927C66.6365 7.04657 66.3976 7.06407 66.1249 7.15186C65.7211 7.09927 65.3578 7.13592 65.0344 7.26169C64.711 7.38771 64.4305 7.57052 64.1933 7.81048C63.956 8.05068 63.7617 8.33298 63.6104 8.65796C63.4591 8.98281 63.3581 9.3166 63.3078 9.65895C63.2864 9.8041 63.276 9.94861 63.2729 10.0928C63.181 10.2784 63.0804 10.4406 62.9695 10.5767C62.8123 10.7699 62.6491 10.928 62.48 11.0509C62.3109 11.1738 62.1433 11.2675 61.9773 11.3319C61.811 11.3964 61.6626 11.4403 61.5321 11.4636C61.3779 11.4929 61.2295 11.4959 61.0872 11.4724C60.9448 11.4491 60.8141 11.3817 60.6956 11.2704C60.6006 11.1885 60.5278 11.0568 60.4775 10.8753C60.427 10.6938 60.3975 10.4876 60.3886 10.2562C60.3797 10.0249 60.3886 9.78338 60.4151 9.53171C60.4419 9.28006 60.4877 9.04142 60.5531 8.81605C60.6184 8.59066 60.7012 8.3887 60.8024 8.20998C60.903 8.03164 61.0218 7.90418 61.1584 7.82809C61.2353 7.83989 61.283 7.88513 61.3008 7.96412C61.3187 8.04322 61.3229 8.13691 61.314 8.2452C61.3053 8.35359 61.2919 8.46478 61.2741 8.57886C61.2563 8.69305 61.2474 8.78831 61.2474 8.86429C61.2771 9.02237 61.3348 9.14537 61.4209 9.23315C61.5069 9.32094 61.6034 9.3723 61.7102 9.38679C61.8169 9.40149 61.9222 9.37664 62.0263 9.31213C62.1299 9.24785 62.2144 9.14537 62.2799 9.00476C62.2856 9.01066 62.2946 9.01357 62.3064 9.01357L62.4312 7.89839C62.4666 7.74609 62.4429 7.61151 62.3599 7.49443C62.2767 7.37734 62.167 7.30995 62.0306 7.29245C61.8585 7.04657 61.6255 6.91635 61.3318 6.90164C61.0382 6.88704 60.737 6.98217 60.4285 7.18706C60.2386 7.32186 60.071 7.50758 59.9256 7.74465C59.7801 7.98184 59.6616 8.2452 59.5697 8.53497C59.4775 8.82473 59.4123 9.13077 59.3739 9.45274C59.3353 9.77469 59.3279 10.088 59.3514 10.3922C59.3752 10.6968 59.4301 10.9837 59.5163 11.2528C59.6022 11.5222 59.7223 11.7476 59.8768 11.929C60.0073 12.0871 60.1554 12.2028 60.3216 12.276C60.4877 12.3492 60.6613 12.3944 60.8423 12.412C61.0233 12.4295 61.2028 12.4222 61.3808 12.3901C61.5589 12.358 61.728 12.3126 61.8882 12.2539C62.0957 12.178 62.3096 12.0812 62.529 11.9642C62.7484 11.8472 62.9591 11.7066 63.1609 11.5426C63.2671 11.4564 63.3692 11.3624 63.468 11.2615C63.5129 11.3716 63.5632 11.4781 63.6237 11.5778C63.7839 11.8412 64.0004 12.055 64.2735 12.2188C64.5462 12.3827 64.8816 12.4616 65.2791 12.4559C65.7064 12.45 66.1009 12.3433 66.4629 12.1354C66.8249 11.9277 67.1215 11.6216 67.353 11.2177C67.6996 11.2177 68.0406 11.1614 68.3759 11.0494C68.3731 11.0848 68.3702 11.1222 68.3676 11.1564C68.344 11.4666 68.3319 11.6773 68.3319 11.7886C68.3262 11.9818 68.3128 12.2203 68.292 12.5042C68.2712 12.7881 68.2578 13.0867 68.2519 13.3998C68.2461 13.713 68.2578 14.0292 68.2875 14.3483C68.3172 14.6673 68.3794 14.9571 68.4745 15.2178C68.5692 15.4781 68.7041 15.6992 68.8794 15.8809C69.0542 16.0621 69.2842 16.1706 69.5692 16.2057C69.8718 16.2465 70.1328 16.1939 70.3524 16.0476C70.5718 15.9011 70.7499 15.7007 70.8865 15.4461C71.0229 15.1913 71.1191 14.8972 71.1757 14.5636C71.232 14.2298 71.2483 13.8946 71.2247 13.5579C71.2008 13.2213 71.1384 12.9038 71.0376 12.6053C70.9368 12.3066 70.7972 12.0608 70.6194 11.8675C70.7263 11.8384 70.8536 11.7828 71.0021 11.7007C71.1503 11.6188 71.3031 11.5266 71.4605 11.4241C71.4991 11.3989 71.5372 11.3724 71.5758 11.3465C71.5613 11.554 71.5539 11.7019 71.5539 11.7886C71.5481 11.9818 71.5347 12.2203 71.5138 12.5042C71.4932 12.7881 71.4798 13.0867 71.4739 13.3998C71.4679 13.713 71.4798 14.0292 71.5095 14.3483C71.539 14.6673 71.6014 14.9571 71.6963 15.2178C71.7911 15.4781 71.9263 15.6992 72.1011 15.8809C72.2762 16.0621 72.5062 16.1706 72.7912 16.2057C73.0936 16.2465 73.3546 16.1939 73.5742 16.0476C73.7938 15.9011 73.9718 15.7007 74.1083 15.4461C74.2447 15.1913 74.3411 14.8972 74.3975 14.5636C74.4539 14.2298 74.4701 13.8946 74.4465 13.5579C74.4227 13.2213 74.3604 12.9038 74.2597 12.6053C74.1586 12.3066 74.0193 12.0608 73.8411 11.8675C73.9481 11.8384 74.0756 11.7828 74.2239 11.7007C74.3722 11.6188 74.525 11.5266 74.6824 11.4241C74.7641 11.3708 74.8452 11.3159 74.9264 11.2594C74.9568 11.5457 75.0225 11.7968 75.1272 12.0081C75.255 12.2658 75.4283 12.4647 75.648 12.6053C75.8674 12.7457 76.1256 12.8233 76.4224 12.8379C76.7191 12.8524 77.0423 12.7984 77.3926 12.6754C77.6536 12.5818 77.8804 12.4647 78.0733 12.3242C78.266 12.1836 78.4396 12.0124 78.594 11.8105C78.603 11.7988 78.6113 11.7861 78.62 11.7743C78.6475 11.8563 78.678 11.9351 78.7142 12.0081C78.8419 12.2658 79.0154 12.4647 79.2349 12.6053C79.4543 12.7457 79.7125 12.8233 80.0092 12.8379C80.3058 12.8524 80.6292 12.7984 80.9793 12.6754C81.2405 12.5818 81.4674 12.4647 81.6602 12.3242C81.8529 12.1836 82.0265 12.0124 82.181 11.8105C82.3352 11.6085 82.4759 11.3757 82.6037 11.1124C82.7312 10.8489 82.8602 10.5475 82.9909 10.2079C83.0145 10.1143 82.9922 10.0308 82.9241 9.95763Z"
  />
</svg>
