<svg viewBox="0 0 107 22" xmlns="http://www.w3.org/2000/svg">
  <path
    d="M99.0925 10.163C98.3058 10.5013 97.4131 10.8849 96.2562 10.8849C95.7722 10.8839 95.2905 10.8172 94.8243 10.6866L95.6245 18.9396C95.6528 19.2845 95.8093 19.6062 96.0627 19.8406C96.3162 20.0751 96.6482 20.2052 96.9927 20.2051C96.9927 20.2051 98.1273 20.2644 98.5059 20.2644C98.9134 20.2644 100.135 20.2051 100.135 20.2051C100.48 20.2051 100.812 20.075 101.065 19.8405C101.318 19.6061 101.475 19.2845 101.503 18.9396L102.36 9.81968C101.977 9.68825 101.591 9.60095 101.155 9.60095C100.401 9.60064 99.794 9.86141 99.0925 10.163Z"
    fill="#FFDD00"
  />
  <path
    d="M106.06 5.88012L105.94 5.26954C105.832 4.72171 105.586 4.20407 105.027 4.00605C104.847 3.94272 104.644 3.91549 104.506 3.78439C104.368 3.65328 104.328 3.44964 104.296 3.26082C104.237 2.91424 104.182 2.56737 104.121 2.22138C104.069 1.92393 104.028 1.58979 103.892 1.3169C103.715 0.950496 103.348 0.736217 102.984 0.594448C102.797 0.524359 102.606 0.46507 102.412 0.416867C101.501 0.175358 100.543 0.0865684 99.6056 0.035958C98.4804 -0.0264167 97.3522 -0.00762407 96.2296 0.0921915C95.3941 0.168551 94.5141 0.260894 93.7201 0.551236C93.4299 0.657489 93.1308 0.785051 92.9101 1.01028C92.6394 1.28701 92.551 1.71498 92.7487 2.06007C92.8892 2.30514 93.1273 2.47826 93.3798 2.59282C93.7086 2.74041 94.0521 2.8527 94.4045 2.92786C95.3855 3.14569 96.4017 3.23123 97.404 3.26761C98.5148 3.31265 99.6275 3.27617 100.733 3.15841C101.007 3.12822 101.279 3.09202 101.552 3.04978C101.873 3.00036 102.079 2.57892 101.984 2.28531C101.871 1.93429 101.567 1.79814 101.223 1.85112C101.172 1.85911 101.122 1.86651 101.071 1.87391L101.035 1.87924C100.918 1.89404 100.802 1.90785 100.685 1.92067C100.445 1.94672 100.204 1.96803 99.9618 1.9846C99.4203 2.02249 98.8773 2.03995 98.3347 2.04084C97.8014 2.04084 97.2679 2.02574 96.7358 1.99052C96.493 1.97454 96.2508 1.95422 96.0092 1.92955C95.8994 1.91801 95.7898 1.90588 95.6801 1.89226L95.5758 1.87894L95.5532 1.87569L95.445 1.86C95.2241 1.82656 95.0031 1.78808 94.7845 1.74162C94.7625 1.7367 94.7427 1.72437 94.7286 1.70666C94.7144 1.68896 94.7067 1.66694 94.7067 1.64424C94.7067 1.62154 94.7144 1.59952 94.7286 1.58182C94.7427 1.56411 94.7625 1.55179 94.7845 1.54687H94.7886C94.9781 1.50632 95.169 1.47169 95.3605 1.44151C95.4243 1.43144 95.4883 1.42158 95.5526 1.41191H95.5544C95.6743 1.40392 95.7947 1.38231 95.9141 1.3681C96.9522 1.25963 97.9965 1.22264 99.0397 1.25741C99.5461 1.27221 100.052 1.3021 100.556 1.3536C100.665 1.36485 100.773 1.37669 100.88 1.39001C100.922 1.39504 100.963 1.40096 101.005 1.40599L101.088 1.41812C101.332 1.45463 101.575 1.49892 101.816 1.55101C102.174 1.62915 102.633 1.6546 102.793 2.04824C102.843 2.17313 102.866 2.31194 102.894 2.44306L102.93 2.61029C102.931 2.61328 102.931 2.61634 102.932 2.61945C103.016 3.01407 103.101 3.4087 103.185 3.80333C103.191 3.83248 103.191 3.8626 103.185 3.89181C103.179 3.92101 103.168 3.9487 103.151 3.97311C103.134 3.99752 103.112 4.01814 103.086 4.03369C103.061 4.04923 103.033 4.05937 103.003 4.06347H103.001L102.95 4.07058L102.899 4.0774C102.737 4.09851 102.575 4.11824 102.414 4.13658C102.095 4.17308 101.776 4.20465 101.456 4.2313C100.82 4.28436 100.184 4.31918 99.5458 4.33576C99.2208 4.34446 98.8958 4.34848 98.571 4.3479C97.2779 4.34687 95.9859 4.27137 94.7014 4.12178C94.5624 4.1052 94.4233 4.08745 94.2842 4.0694C94.3921 4.0833 94.2059 4.05875 94.1682 4.05342C94.0798 4.04099 93.9914 4.02805 93.903 4.01465C93.6063 3.96995 93.3114 3.91489 93.0153 3.86665C92.6574 3.80747 92.315 3.83706 91.9912 4.01465C91.7255 4.16075 91.5103 4.3848 91.3746 4.65689C91.235 4.94694 91.1934 5.26272 91.131 5.57439C91.0685 5.88605 90.9713 6.22137 91.0081 6.5413C91.0873 7.23181 91.5679 7.79296 92.259 7.91846C92.9093 8.03684 93.563 8.13272 94.2185 8.21441C96.7936 8.53123 99.3951 8.56913 101.978 8.32747C102.189 8.30773 102.399 8.28624 102.608 8.26296C102.674 8.25571 102.74 8.2633 102.802 8.28516C102.865 8.30699 102.921 8.34253 102.968 8.38918C103.015 8.43583 103.051 8.49241 103.073 8.55475C103.095 8.61711 103.103 8.68366 103.096 8.74952L103.031 9.38822C102.899 10.6788 102.767 11.9693 102.636 13.2598C102.498 14.6149 102.36 15.9699 102.22 17.3249C102.181 17.7065 102.142 18.088 102.103 18.4694C102.065 18.845 102.06 19.2324 101.989 19.6035C101.877 20.1872 101.483 20.5456 100.909 20.6767C100.384 20.7969 99.8464 20.86 99.3072 20.8649C98.7094 20.8682 98.1119 20.8415 97.5142 20.8448C96.876 20.8484 96.0944 20.7892 95.6018 20.3121C95.169 19.893 95.1092 19.2368 95.0503 18.6694C94.9717 17.9183 94.8938 17.1672 94.8166 16.4162L94.3835 12.2405L94.1034 9.53858C94.0986 9.49388 94.0939 9.44978 94.0895 9.4048C94.0559 9.08248 93.8288 8.76699 93.4708 8.78325C93.1644 8.79687 92.8162 9.05851 92.8521 9.4048L93.0598 11.4079L93.4894 15.5514C93.6117 16.7284 93.7338 17.9056 93.8556 19.0829C93.8792 19.3084 93.9012 19.5346 93.926 19.7601C94.0606 20.9925 94.9975 21.6566 96.1577 21.8437C96.8354 21.9532 97.5295 21.9757 98.2171 21.9869C99.0986 22.0012 99.9889 22.0352 100.856 21.8748C102.141 21.638 103.105 20.7761 103.242 19.4393C103.282 19.0533 103.321 18.6673 103.36 18.2811C103.491 17.0041 103.621 15.727 103.751 14.4499L104.178 10.2767L104.373 8.36417C104.383 8.26935 104.422 8.18017 104.487 8.10985C104.551 8.03957 104.636 7.99185 104.729 7.97378C105.096 7.90188 105.447 7.77904 105.709 7.49817C106.125 7.05096 106.207 6.4679 106.06 5.88012ZM92.2402 6.2927C92.2458 6.29002 92.2355 6.33829 92.2311 6.36077C92.2302 6.32675 92.2319 6.29655 92.2402 6.2927ZM92.2758 6.56973C92.2788 6.56766 92.2876 6.57949 92.2968 6.59369C92.2829 6.58067 92.2741 6.57092 92.2755 6.56973H92.2758ZM92.3109 6.61619C92.3303 6.65142 92.3236 6.63781 92.3109 6.61619ZM92.3813 6.67361H92.3831C92.3831 6.67569 92.3863 6.67776 92.3875 6.67983C92.3855 6.67754 92.3834 6.67547 92.381 6.67361H92.3813ZM104.712 6.58778C104.58 6.71386 104.381 6.77246 104.184 6.80176C101.981 7.13029 99.7447 7.29663 97.5168 7.22323C95.9223 7.16846 94.3446 6.99058 92.7661 6.76655C92.6114 6.74465 92.4438 6.71622 92.3374 6.60169C92.1371 6.38564 92.2355 5.95055 92.2876 5.68952C92.3353 5.45039 92.4267 5.13161 92.7098 5.09759C93.1517 5.04549 93.665 5.23284 94.1022 5.29945C94.6286 5.38014 95.1569 5.44475 95.6872 5.4933C97.9505 5.70046 100.252 5.66822 102.505 5.36513C102.916 5.30969 103.325 5.24528 103.733 5.17188C104.096 5.10646 104.499 4.98364 104.718 5.36159C104.869 5.61908 104.889 5.96359 104.865 6.25453C104.858 6.38128 104.803 6.50051 104.711 6.58778H104.712Z"
  />
  <path
    fill-rule="evenodd"
    clip-rule="evenodd"
    d="M5.50037 12.8377C5.36123 13.1004 5.16966 13.3292 4.92617 13.5233C4.68242 13.7176 4.39817 13.8757 4.07317 13.9975C3.74842 14.1196 3.42135 14.2015 3.09271 14.2432C2.76381 14.2851 2.44452 14.2815 2.13525 14.2318C1.8258 14.1823 1.56255 14.0814 1.34616 13.9289L1.58994 11.4264C1.81417 11.3503 2.09637 11.2721 2.43699 11.1921C2.77731 11.1123 3.12723 11.055 3.48702 11.0208C3.84681 10.9864 4.18713 10.9905 4.50849 11.0322C4.82908 11.0741 5.0827 11.175 5.2683 11.3351C5.36876 11.4264 5.45417 11.5254 5.52373 11.6321C5.5933 11.7388 5.63587 11.8493 5.65145 11.9635C5.68987 12.2835 5.63977 12.5749 5.50037 12.8377ZM1.96107 7.50692C2.12362 7.40792 2.31888 7.3202 2.54706 7.24395C2.77524 7.16799 3.00938 7.11447 3.24924 7.08405C3.48884 7.05375 3.72298 7.04969 3.95142 7.07258C4.17934 7.09549 4.38077 7.15827 4.5547 7.26104C4.72888 7.36397 4.85842 7.51259 4.9433 7.7067C5.02844 7.90111 5.05181 8.14684 5.01313 8.44388C4.98224 8.68004 4.88723 8.8801 4.72888 9.04378C4.57027 9.20774 4.37662 9.34474 4.1487 9.45521C3.92027 9.56584 3.6786 9.6534 3.42342 9.71789C3.16799 9.78285 2.92216 9.83055 2.68646 9.86085C2.45049 9.89143 2.24542 9.91057 2.0715 9.91795C1.89734 9.92565 1.7831 9.92942 1.72908 9.92942L1.96107 7.50692ZM6.75365 11.2207C6.62983 10.9542 6.46369 10.72 6.25473 10.5179C6.04602 10.3161 5.79812 10.1695 5.51205 10.078C5.63587 9.97899 5.75762 9.82288 5.87755 9.60948C5.99748 9.39636 6.10002 9.16382 6.18516 8.91245C6.27004 8.6609 6.32819 8.40778 6.35908 8.15249C6.38997 7.89734 6.37829 7.67827 6.32456 7.49532C6.19269 7.03838 5.9858 6.68028 5.70337 6.42121C5.42094 6.1623 5.0923 5.98325 4.7172 5.8841C4.34184 5.78537 3.92806 5.76421 3.4756 5.82132C3.02288 5.87845 2.56056 5.9908 2.08886 6.1584C2.08886 6.12041 2.09271 6.08038 2.10049 6.03849C2.108 5.99675 2.11197 5.95283 2.11197 5.907C2.11197 5.79276 2.05398 5.69389 1.93797 5.60997C1.82196 5.52615 1.68843 5.47674 1.53769 5.46137C1.38679 5.44629 1.23971 5.47846 1.09662 5.5585C0.953382 5.63852 0.85474 5.78537 0.80072 5.99834C0.73873 6.68405 0.676896 7.39645 0.615063 8.13525C0.553099 8.8743 0.487424 9.62092 0.417803 10.3752C0.348156 11.1293 0.278536 11.8778 0.208889 12.6205C0.139268 13.3634 0.069621 14.0775 0 14.7631C0.0232589 14.9688 0.081276 15.1289 0.174156 15.2431C0.266906 15.3575 0.375257 15.4261 0.499054 15.4488C0.622721 15.4717 0.752436 15.4505 0.887733 15.3859C1.023 15.3214 1.14109 15.2087 1.24178 15.0488C1.55108 15.2164 1.89926 15.325 2.28618 15.3746C2.67296 15.424 3.06545 15.424 3.46392 15.3746C3.86212 15.325 4.25488 15.2318 4.64166 15.0945C5.02844 14.9575 5.38044 14.786 5.69766 14.5804C6.01487 14.3747 6.28172 14.1403 6.49848 13.8776C6.71497 13.6146 6.85801 13.3309 6.92784 13.0263C6.9974 12.7139 7.01661 12.4016 6.98572 12.0892C6.95483 11.777 6.87748 11.4876 6.75365 11.2207Z"
  />
  <path
    fill-rule="evenodd"
    clip-rule="evenodd"
    d="M18.5958 16.9457C18.5505 17.1912 18.4865 17.4496 18.4045 17.7213C18.3219 17.9926 18.2253 18.2401 18.1143 18.4633C18.0033 18.6864 17.8799 18.8666 17.7443 19.0044C17.6082 19.1419 17.4622 19.1997 17.3059 19.1775C17.1825 19.1623 17.1043 19.0917 17.0715 18.9654C17.0386 18.8387 17.0386 18.6826 17.0715 18.4967C17.1043 18.3107 17.1681 18.1005 17.2628 17.8662C17.3572 17.632 17.4727 17.3994 17.6082 17.1689C17.7443 16.9382 17.8984 16.7171 18.0712 16.505C18.2441 16.2931 18.4249 16.1163 18.6143 15.9751C18.6555 16.0196 18.6739 16.1312 18.6698 16.3098C18.6654 16.4883 18.6408 16.7004 18.5958 16.9457ZM22.7798 12.1032C22.6688 11.9916 22.533 11.9285 22.3726 11.9135C22.2121 11.8987 22.0495 11.9805 21.885 12.159C21.7778 12.3375 21.6423 12.5086 21.4777 12.6722C21.3129 12.836 21.1423 12.9847 20.9653 13.1186C20.7886 13.2523 20.6199 13.3679 20.4595 13.4644C20.2991 13.5612 20.1734 13.6319 20.0829 13.6765C20.05 13.4385 20.0315 13.1819 20.0274 12.9065C20.023 12.6313 20.0293 12.3525 20.0459 12.0698C20.0705 11.6681 20.1218 11.2628 20.2002 10.8535C20.2784 10.4444 20.3916 10.0427 20.5395 9.64832C20.5395 9.44025 20.486 9.27093 20.3791 9.14072C20.272 9.0106 20.1425 8.92866 19.9904 8.89524C19.838 8.86183 19.682 8.88039 19.5213 8.95101C19.3609 9.0218 19.2231 9.15018 19.108 9.33591C19.0091 9.58151 18.8959 9.85669 18.7687 10.1616C18.6408 10.4667 18.497 10.7772 18.3366 11.0933C18.1761 11.4097 17.997 11.7165 17.7996 12.0139C17.6021 12.3116 17.3862 12.5757 17.1515 12.8062C16.9171 13.0368 16.662 13.2172 16.3865 13.3473C16.1107 13.4776 15.8128 13.5352 15.4917 13.5203C15.3434 13.4831 15.2365 13.3827 15.1705 13.219C15.1048 13.0554 15.0656 12.8508 15.0535 12.6053C15.0411 12.3598 15.0535 12.0902 15.0905 11.7963C15.1275 11.5026 15.1769 11.2105 15.2385 10.9205C15.3003 10.6303 15.3682 10.3551 15.4422 10.0948C15.5162 9.83447 15.5861 9.61493 15.6521 9.43641C15.7509 9.22083 15.7509 9.04019 15.6521 8.89524C15.5532 8.75015 15.4177 8.6536 15.2448 8.60506C15.072 8.55678 14.8909 8.55876 14.7017 8.61072C14.5123 8.6628 14.3765 8.77803 14.2945 8.95654C14.1545 9.26174 14.027 9.60373 13.9118 9.9831C13.7964 10.3625 13.7039 10.755 13.6341 11.1603C13.5639 11.5659 13.5247 11.9676 13.5167 12.3655C13.5162 12.3914 13.5176 12.416 13.5176 12.4418C13.3381 12.8743 13.1669 13.2011 13.0046 13.4198C12.7947 13.7027 12.5581 13.8254 12.295 13.788C12.1796 13.7434 12.1037 13.6394 12.0667 13.4756C12.0294 13.3121 12.017 13.1112 12.0294 12.873C12.0421 12.6352 12.0727 12.3655 12.1219 12.0641C12.1716 11.7629 12.2331 11.4505 12.3071 11.1269C12.3814 10.8031 12.4595 10.478 12.5416 10.1506C12.6238 9.8233 12.6978 9.51455 12.7641 9.22436C12.7558 8.96403 12.6713 8.76515 12.5109 8.62743C12.3505 8.48997 12.126 8.43604 11.8383 8.46562C11.6409 8.54007 11.4946 8.6369 11.3999 8.75581C11.3052 8.87473 11.2293 9.02731 11.1718 9.21319C11.1387 9.31001 11.0893 9.50337 11.0236 9.79356C10.9576 10.0835 10.8734 10.4165 10.7707 10.7921C10.6677 11.1679 10.5465 11.5602 10.4065 11.9693C10.2665 12.3784 10.1102 12.7487 9.93768 13.0795C9.76456 13.4105 9.57544 13.6765 9.36974 13.8773C9.16405 14.078 8.94179 14.16 8.70324 14.1228C8.57154 14.1004 8.48734 13.9777 8.45034 13.7546C8.41334 13.5314 8.40699 13.2563 8.43184 12.9289C8.45641 12.6016 8.50583 12.2426 8.57983 11.8522C8.65382 11.4617 8.72975 11.0916 8.80816 10.7419C8.8863 10.3924 8.95836 10.0835 9.02434 9.81578C9.09006 9.54797 9.13534 9.36945 9.15991 9.28027C9.15991 9.06454 9.10635 8.89171 8.9995 8.76132C8.89237 8.63138 8.76288 8.54942 8.61075 8.51587C8.45835 8.48246 8.30207 8.50102 8.14166 8.57164C7.98125 8.64243 7.84348 8.77082 7.72807 8.95654C7.68693 9.1574 7.63337 9.39 7.56765 9.65398C7.50167 9.91799 7.43817 10.1895 7.3766 10.4685C7.31475 10.7475 7.25705 11.0208 7.20376 11.2887C7.1502 11.5565 7.11099 11.7908 7.08642 11.9916C7.06985 12.1478 7.05135 12.3394 7.03092 12.5662C7.01022 12.7933 7 13.0331 7 13.2859C7 13.539 7.02043 13.79 7.06185 14.0391C7.10271 14.2884 7.17698 14.5172 7.28383 14.7253C7.39068 14.9336 7.54087 15.1046 7.73442 15.2385C7.92769 15.3724 8.17258 15.4468 8.46884 15.4618C8.7731 15.4765 9.03843 15.4562 9.26483 15.4003C9.49123 15.3446 9.69664 15.2571 9.88191 15.138C10.0672 15.0192 10.2356 14.8778 10.388 14.7141C10.5401 14.5506 10.6903 14.3721 10.8386 14.1785C10.9783 14.4614 11.1594 14.6807 11.3817 14.8369C11.6036 14.9931 11.8383 15.0862 12.0852 15.1158C12.3317 15.1454 12.583 15.1141 12.8381 15.021C13.0929 14.9281 13.3232 14.77 13.5292 14.5467C13.6647 14.4099 13.7925 14.2543 13.9124 14.0823C13.9632 14.1628 14.0173 14.2406 14.0783 14.3123C14.2801 14.5506 14.5537 14.7141 14.8994 14.8034C15.2694 14.8927 15.6314 14.9077 15.9853 14.8481C16.339 14.7887 16.6764 14.6807 16.9972 14.5245C17.3183 14.3683 17.6165 14.1805 17.8923 13.961C18.1679 13.7416 18.4083 13.5129 18.6143 13.2747C18.6058 13.4459 18.6019 13.6078 18.6019 13.7601C18.6019 13.9127 18.5977 14.078 18.5895 14.2567C18.1781 14.5172 17.7893 14.8296 17.4232 15.194C17.0568 15.5583 16.736 15.947 16.4605 16.3599C16.1849 16.7727 15.9687 17.1912 15.8128 17.6151C15.6562 18.0394 15.58 18.4353 15.5841 18.8036C15.5883 19.1718 15.6849 19.4934 15.874 19.7686C16.0634 20.0439 16.3718 20.241 16.7998 20.36C17.2443 20.4866 17.635 20.4901 17.9724 20.3712C18.3098 20.2522 18.6038 20.055 18.8548 19.7798C19.1058 19.5046 19.3115 19.1718 19.4721 18.7813C19.6326 18.3907 19.7601 17.9835 19.8545 17.5595C19.9492 17.1355 20.0089 16.7186 20.0335 16.3098C20.0583 15.9006 20.0583 15.5359 20.0335 15.2162C20.7411 14.9485 21.3212 14.61 21.7737 14.2008C22.2262 13.792 22.6006 13.3604 22.8969 12.9065C22.9874 12.795 23.0183 12.6611 22.9896 12.5049C22.9606 12.3487 22.8908 12.2147 22.7798 12.1032Z"
  />
  <path
    fill-rule="evenodd"
    clip-rule="evenodd"
    d="M37.5008 11.8763C37.5242 11.6948 37.5594 11.5032 37.6065 11.3018C37.6532 11.1004 37.7121 10.9049 37.7828 10.7154C37.8529 10.5259 37.9352 10.3621 38.0293 10.2239C38.1233 10.0858 38.2232 9.98705 38.3288 9.9277C38.4347 9.86863 38.5422 9.87448 38.652 9.94541C38.7695 10.0167 38.8418 10.1666 38.8693 10.3955C38.8964 10.6248 38.8693 10.8695 38.7871 11.13C38.7046 11.3908 38.558 11.6354 38.3464 11.8645C38.1352 12.0936 37.8493 12.2435 37.489 12.3145C37.4732 12.2042 37.4772 12.058 37.5008 11.8763ZM41.5709 12.3619C41.4416 12.3226 41.3184 12.3186 41.2009 12.3501C41.0835 12.3817 41.0088 12.4647 40.9778 12.599C40.9148 12.8516 40.8152 13.1103 40.678 13.3747C40.5411 13.6394 40.3727 13.89 40.1732 14.127C39.9735 14.3639 39.7481 14.5732 39.4976 14.7547C39.2469 14.9364 38.9847 15.0667 38.7106 15.1456C38.4363 15.2326 38.2093 15.2424 38.0293 15.1752C37.8493 15.1083 37.7063 14.9937 37.6007 14.8318C37.4951 14.67 37.4186 14.4745 37.3716 14.2455C37.3245 14.0164 37.2969 13.7796 37.2893 13.5346C37.7355 13.5663 38.1331 13.4855 38.4818 13.2918C38.8299 13.0985 39.1255 12.8417 39.3683 12.5219C39.6111 12.2021 39.7951 11.8428 39.9204 11.444C40.0455 11.0453 40.1162 10.6484 40.132 10.2535C40.1396 9.8823 40.0849 9.56852 39.9675 9.31186C39.85 9.05533 39.6913 8.85561 39.4916 8.7136C39.2921 8.57143 39.063 8.48848 38.8044 8.46489C38.5464 8.44114 38.2836 8.47675 38.0174 8.57143C37.6963 8.68203 37.4244 8.86162 37.2013 9.11049C36.9779 9.3592 36.7919 9.64756 36.6431 9.97517C36.4944 10.3029 36.377 10.6562 36.2908 11.0352C36.2046 11.4144 36.142 11.7875 36.1029 12.1548C36.0677 12.4843 36.0488 12.7995 36.0422 13.1036C36.0254 13.1423 36.0091 13.1794 35.9912 13.2207C35.8698 13.5013 35.7287 13.7757 35.5684 14.0441C35.4079 14.3126 35.2297 14.5377 35.0339 14.7193C34.8382 14.901 34.6345 14.9641 34.423 14.9088C34.2979 14.8774 34.2293 14.731 34.2175 14.4706C34.2059 14.2098 34.2193 13.8861 34.2585 13.4992C34.2979 13.1124 34.3428 12.6935 34.3938 12.2435C34.4445 11.7934 34.47 11.3631 34.47 10.9524C34.47 10.597 34.4035 10.2556 34.2703 9.9277C34.1371 9.60022 33.955 9.32763 33.7243 9.11049C33.493 8.89316 33.225 8.74905 32.9197 8.67812C32.6141 8.6069 32.2854 8.65437 31.933 8.82014C31.5803 8.98606 31.3005 9.21897 31.0932 9.51908C30.8853 9.81933 30.6953 10.1351 30.5232 10.4667C30.4604 10.214 30.3687 9.97924 30.2473 9.76194C30.1256 9.54477 29.9772 9.35529 29.8008 9.19328C29.6245 9.03158 29.4267 8.90521 29.2078 8.81428C28.9884 8.72365 28.7571 8.67812 28.5146 8.67812C28.2797 8.67812 28.0624 8.72365 27.8626 8.81428C27.6629 8.90521 27.4808 9.02151 27.3163 9.16368C27.1519 9.30598 27.0031 9.46573 26.8699 9.64351C26.7369 9.82113 26.6192 9.99697 26.5178 10.1705C26.5018 9.96525 26.4841 9.78568 26.4647 9.63149C26.4453 9.47759 26.4098 9.34731 26.3591 9.24077C26.3081 9.13408 26.2358 9.05323 26.1418 8.99792C26.0477 8.94276 25.9147 8.91497 25.7426 8.91497C25.6562 8.91497 25.57 8.93271 25.484 8.96816C25.3976 9.00377 25.3211 9.05323 25.2549 9.11634C25.1882 9.17977 25.1374 9.25654 25.1022 9.34731C25.0668 9.43807 25.0573 9.54283 25.0728 9.66125C25.0804 9.74824 25.1022 9.8527 25.1374 9.97517C25.1727 10.0977 25.2058 10.2577 25.2373 10.4548C25.2686 10.6523 25.2941 10.8913 25.3135 11.1715C25.3332 11.4519 25.339 11.7955 25.3311 12.2021C25.3232 12.6089 25.2941 13.0846 25.2431 13.6295C25.1921 14.1744 25.1117 14.8061 25.0024 15.5246C24.9866 15.6905 25.0492 15.8249 25.1903 15.9275C25.3311 16.03 25.4917 16.0892 25.6719 16.1051C25.8519 16.1209 26.0225 16.0892 26.1828 16.0104C26.3433 15.9313 26.4355 15.7931 26.4589 15.5958C26.4823 15.2247 26.5275 14.8299 26.594 14.4112C26.6605 13.9928 26.7427 13.5782 26.8407 13.1675C26.9385 12.757 27.0499 12.3661 27.1755 11.9947C27.3006 11.6236 27.4398 11.296 27.5925 11.0116C27.7452 10.7273 27.9039 10.5004 28.0681 10.3306C28.2326 10.1608 28.4047 10.0759 28.585 10.0759C28.8044 10.0759 28.9744 10.1764 29.0961 10.3778C29.2172 10.5793 29.3034 10.8381 29.3544 11.1537C29.4054 11.4697 29.4288 11.8153 29.4251 12.1903C29.4209 12.5653 29.4054 12.9266 29.378 13.274C29.3505 13.6217 29.3192 13.9315 29.284 14.204C29.2488 14.4764 29.2233 14.6641 29.2078 14.7666C29.2078 14.9483 29.2761 15.0923 29.413 15.199C29.5502 15.3055 29.7028 15.3688 29.8713 15.3885C30.0397 15.4083 30.1982 15.3766 30.3471 15.2936C30.4959 15.2107 30.5818 15.0708 30.6055 14.8731C30.6838 14.3046 30.7915 13.7342 30.9284 13.1616C31.0653 12.5891 31.2222 12.0759 31.3985 11.6218C31.5746 11.1676 31.7703 10.7964 31.9858 10.5082C32.201 10.2201 32.4301 10.0759 32.6729 10.0759C32.798 10.0759 32.8942 10.1629 32.9607 10.3364C33.0272 10.5102 33.0605 10.747 33.0605 11.0471C33.0605 11.2683 33.0429 11.4954 33.0077 11.7283C32.9725 11.9612 32.9315 12.2021 32.8842 12.4508C32.8374 12.6997 32.7962 12.9543 32.761 13.2149C32.7258 13.4756 32.7082 13.7479 32.7082 14.0322C32.7082 14.2297 32.7276 14.4587 32.7667 14.7193C32.8059 14.9797 32.8803 15.2268 32.9898 15.4595C33.0997 15.6926 33.2502 15.8899 33.4423 16.0518C33.6342 16.2136 33.8788 16.2946 34.1762 16.2946C34.6227 16.2946 35.0182 16.1979 35.3629 16.0044C35.7074 15.811 36.003 15.5584 36.2498 15.2464C36.2624 15.2301 36.2742 15.2126 36.2866 15.1964C36.3055 15.2425 36.3223 15.2914 36.3436 15.3353C36.512 15.6827 36.7412 15.9511 37.031 16.1408C37.3203 16.3302 37.6611 16.4348 38.0529 16.4547C38.4444 16.4742 38.8709 16.4012 39.3334 16.2354C39.6776 16.109 39.9772 15.9511 40.2318 15.7616C40.4862 15.5721 40.7153 15.3411 40.919 15.0687C41.1226 14.7962 41.3084 14.4823 41.4771 14.127C41.6455 13.7715 41.8155 13.365 41.9879 12.9068C42.0192 12.7807 41.9897 12.6681 41.8999 12.5693C41.8098 12.4707 41.7002 12.4016 41.5709 12.3619Z"
  />
  <path
    fill-rule="evenodd"
    clip-rule="evenodd"
    d="M48.094 10.6176C48.0513 10.8377 47.9942 11.0804 47.9222 11.345C47.85 11.61 47.759 11.8841 47.649 12.1676C47.5386 12.4512 47.4033 12.7067 47.2424 12.9342C47.0811 13.1619 46.8969 13.3426 46.6893 13.4769C46.4814 13.6112 46.2423 13.6672 45.971 13.6448C45.8354 13.63 45.7316 13.5479 45.6596 13.3986C45.5874 13.2495 45.5493 13.0591 45.545 12.8278C45.5408 12.5967 45.5641 12.343 45.615 12.0668C45.6659 11.791 45.7444 11.5204 45.8504 11.2554C45.9562 10.9908 46.0856 10.7463 46.2377 10.5224C46.3904 10.2987 46.5662 10.1252 46.7655 10.0021C46.9645 9.87898 47.1829 9.82134 47.4201 9.82858C47.6572 9.83612 47.9114 9.94046 48.183 10.1419C48.1656 10.239 48.1364 10.3976 48.094 10.6176ZM52.6127 11.4737C52.4813 11.414 52.3457 11.4011 52.206 11.4346C52.0661 11.4681 51.9663 11.582 51.9072 11.7759C51.8733 11.9849 51.7971 12.2309 51.6786 12.5145C51.5597 12.798 51.4135 13.0668 51.2401 13.3202C51.0661 13.5739 50.867 13.7847 50.6424 13.9526C50.4177 14.1205 50.1786 14.197 49.9244 14.1818C49.7122 14.1671 49.5638 14.0719 49.4794 13.8966C49.3943 13.7213 49.35 13.5014 49.346 13.2363C49.3415 12.9716 49.3713 12.6732 49.4347 12.3411C49.4984 12.0092 49.5746 11.6791 49.6636 11.3506C49.7526 11.0225 49.8436 10.7071 49.9372 10.405C50.0302 10.1029 50.1064 9.84732 50.1658 9.63848C50.2338 9.45193 50.2124 9.29347 50.1021 9.16272C49.9921 9.0324 49.8544 8.93896 49.6892 8.88303C49.5237 8.8271 49.3565 8.81218 49.1868 8.83831C49.0173 8.86444 48.9075 8.94463 48.8563 9.0788C48.3564 8.69831 47.8756 8.49317 47.4138 8.46334C46.9517 8.43354 46.5258 8.52311 46.1362 8.73198C45.7464 8.94082 45.4012 9.24294 45.1003 9.63848C44.7995 10.034 44.5558 10.4648 44.3692 10.931C44.183 11.3973 44.0664 11.873 44.0198 12.3579C43.9731 12.8429 44.009 13.285 44.1278 13.6841C44.2467 14.0832 44.456 14.4097 44.7571 14.6631C45.0577 14.9169 45.4668 15.0438 45.9838 15.0438C46.2124 15.0438 46.4328 15.0028 46.6446 14.9207C46.8565 14.8385 47.0515 14.7415 47.2296 14.6296C47.4073 14.5178 47.5642 14.4002 47.6999 14.2771C47.8352 14.154 47.9413 14.0515 48.0175 13.9693C48.0766 14.2379 48.1745 14.4657 48.3098 14.6521C48.4454 14.8385 48.6001 14.9917 48.7739 15.1108C48.9473 15.2301 49.1299 15.3178 49.3204 15.3739C49.5112 15.4298 49.6955 15.4578 49.8735 15.4578C50.2719 15.4578 50.6444 15.3384 50.9921 15.0996C51.3393 14.861 51.651 14.568 51.9265 14.2212C52.2018 13.8742 52.4284 13.5087 52.6064 13.1244C52.7844 12.7402 52.903 12.3989 52.9621 12.1003C53.0216 11.9885 53.011 11.8711 52.9306 11.7479C52.8498 11.6249 52.744 11.5336 52.6127 11.4737Z"
  />
  <path
    fill-rule="evenodd"
    clip-rule="evenodd"
    d="M73.5169 17.9964C73.4509 18.2576 73.3479 18.4787 73.2081 18.6592C73.0682 18.8398 72.8932 18.9339 72.6832 18.9417C72.5513 18.9493 72.45 18.8801 72.3801 18.7342C72.3102 18.5881 72.2617 18.3999 72.2343 18.1694C72.2069 17.9388 72.1955 17.6813 72.1994 17.397C72.2033 17.1127 72.215 16.8322 72.2343 16.5555C72.2536 16.279 72.2771 16.0213 72.3045 15.7832C72.3314 15.5449 72.3528 15.3608 72.3684 15.23C72.6326 15.2607 72.8525 15.3739 73.0273 15.57C73.2023 15.766 73.3361 15.9984 73.4295 16.2674C73.5229 16.5364 73.5771 16.8265 73.5928 17.1377C73.6082 17.4489 73.5829 17.7351 73.5169 17.9964ZM69.2959 17.9964C69.2299 18.2576 69.1269 18.4787 68.9868 18.6592C68.847 18.8398 68.6723 18.9339 68.4623 18.9417C68.33 18.9493 68.2291 18.8801 68.1592 18.7342C68.089 18.5881 68.0405 18.3999 68.0134 18.1694C67.986 17.9388 67.9742 17.6813 67.9784 17.397C67.9821 17.1127 67.9938 16.8322 68.0134 16.5555C68.0327 16.279 68.0559 16.0213 68.0833 15.7832C68.1104 15.5449 68.1318 15.3608 68.1474 15.23C68.4117 15.2607 68.6316 15.3739 68.8061 15.57C68.9811 15.766 69.1152 15.9984 69.2086 16.2674C69.3019 16.5364 69.3562 16.8265 69.3718 17.1377C69.3872 17.4489 69.3619 17.7351 69.2959 17.9964ZM64.9644 11.4492C64.9563 11.6335 64.9388 11.7968 64.9117 11.939C64.8843 12.0814 64.8475 12.1715 64.8008 12.2099C64.7153 12.1637 64.6102 12.0448 64.486 11.8525C64.3616 11.6605 64.2645 11.4432 64.1944 11.2012C64.1247 10.9592 64.1031 10.7211 64.1305 10.4865C64.1573 10.2522 64.2802 10.0699 64.4977 9.939C64.583 9.89294 64.6568 9.9102 64.7192 9.99092C64.7815 10.0717 64.8319 10.1888 64.871 10.3425C64.9096 10.4963 64.9367 10.673 64.9524 10.8727C64.968 11.0726 64.9717 11.2647 64.9644 11.4492ZM63.9322 13.7488C63.8117 13.8754 63.6774 13.985 63.53 14.0772C63.3821 14.1695 63.2306 14.2387 63.0751 14.2848C62.9196 14.3309 62.7796 14.3424 62.6554 14.3192C62.3056 14.2502 62.0372 14.1002 61.851 13.8697C61.6642 13.6393 61.5455 13.3684 61.4952 13.0572C61.4446 12.7459 61.4503 12.4135 61.5126 12.06C61.5747 11.7066 61.6796 11.3781 61.8275 11.0746C61.9751 10.771 62.1541 10.5096 62.3638 10.2907C62.5738 10.0717 62.8028 9.93536 63.0519 9.8814C62.9585 10.2733 62.9275 10.6788 62.9585 11.0975C62.9895 11.5163 63.0907 11.9101 63.2619 12.279C63.3704 12.5021 63.5008 12.7055 63.6523 12.8899C63.8039 13.0745 63.9886 13.232 64.2064 13.3626C64.144 13.4933 64.0525 13.622 63.9322 13.7488ZM76.8346 11.5644C76.8578 11.3878 76.8927 11.2012 76.9394 11.0052C76.9858 10.8094 77.0443 10.6192 77.1142 10.4347C77.1841 10.2502 77.2657 10.0908 77.3591 9.95642C77.4525 9.82203 77.5516 9.72579 77.6565 9.66818C77.7613 9.61057 77.8683 9.61627 77.977 9.68544C78.0936 9.75474 78.1656 9.9007 78.1928 10.1234C78.2199 10.3464 78.1928 10.5845 78.1111 10.8382C78.0295 11.0918 77.8839 11.33 77.6739 11.5527C77.4642 11.7759 77.1804 11.9217 76.8228 11.9909C76.8072 11.8834 76.8111 11.7413 76.8346 11.5644ZM81.5336 11.5644C81.5568 11.3878 81.5918 11.2012 81.6385 11.0052C81.6852 10.8094 81.7436 10.6192 81.8135 10.4347C81.8834 10.2502 81.9651 10.0908 82.0582 9.95642C82.1516 9.82203 82.2507 9.72579 82.3556 9.66818C82.4607 9.61057 82.5676 9.61627 82.6764 9.68544C82.793 9.75474 82.8647 9.9007 82.8921 10.1234C82.9192 10.3464 82.8921 10.5845 82.8105 10.8382C82.7288 11.0918 82.583 11.33 82.373 11.5527C82.1633 11.7759 81.8795 11.9217 81.5219 11.9909C81.5065 11.8834 81.5102 11.7413 81.5336 11.5644ZM85.9004 12.2388C85.8109 12.1428 85.7022 12.0755 85.5741 12.0369C85.4458 11.9986 85.3234 11.9948 85.2066 12.0255C85.09 12.0562 85.0161 12.137 84.9851 12.2676C84.9228 12.5135 84.8236 12.7652 84.6877 13.0224C84.5516 13.2801 84.3847 13.524 84.1864 13.7545C83.9882 13.985 83.7646 14.1888 83.516 14.3655C83.2669 14.5423 83.0066 14.6691 82.7348 14.7457C82.4625 14.8305 82.2371 14.84 82.0582 14.7746C81.8795 14.7094 81.7376 14.598 81.6328 14.4405C81.5279 14.2828 81.452 14.0927 81.4053 13.8697C81.3589 13.647 81.3315 13.4165 81.3237 13.1782C81.7668 13.209 82.1615 13.1303 82.5074 12.9419C82.853 12.7536 83.1467 12.5037 83.3877 12.1925C83.6285 11.8815 83.8113 11.5318 83.9357 11.1437C84.0599 10.7556 84.1298 10.3695 84.1457 9.98522C84.153 9.62403 84.0988 9.31853 83.9822 9.06874C83.8658 8.81914 83.7083 8.62491 83.51 8.48672C83.3118 8.34824 83.0846 8.26765 82.8279 8.24457C82.5715 8.22146 82.3109 8.25627 82.0467 8.34824C81.728 8.45603 81.458 8.63076 81.2365 8.87278C81.0148 9.11496 80.8301 9.39559 80.6825 9.71424C80.5346 10.0333 80.418 10.377 80.3325 10.7459C80.2469 11.1148 80.1848 11.478 80.1462 11.8353C80.1084 12.182 80.0878 12.5138 80.0831 12.8314C80.0536 12.8948 80.0223 12.9584 79.9884 13.0224C79.8525 13.2801 79.6853 13.524 79.4871 13.7545C79.2891 13.985 79.0653 14.1888 78.8167 14.3655C78.5679 14.5423 78.3075 14.6691 78.0355 14.7457C77.7632 14.8305 77.5378 14.84 77.3591 14.7746C77.1804 14.7094 77.0385 14.598 76.9337 14.4405C76.8288 14.2828 76.7529 14.0927 76.7062 13.8697C76.6595 13.647 76.6321 13.4165 76.6246 13.1782C77.0675 13.209 77.4621 13.1303 77.808 12.9419C78.1539 12.7536 78.4473 12.5037 78.6884 12.1925C78.9294 11.8815 79.112 11.5318 79.2364 11.1437C79.3606 10.7556 79.4307 10.3695 79.4464 9.98522C79.4539 9.62403 79.3997 9.31853 79.2831 9.06874C79.1665 8.81914 79.0089 8.62491 78.8107 8.48672C78.6125 8.34824 78.3853 8.26765 78.1286 8.24457C77.8722 8.22146 77.6116 8.25627 77.3474 8.34824C77.0286 8.45603 76.7586 8.63076 76.5372 8.87278C76.3155 9.11496 76.1308 9.39559 75.9832 9.71424C75.8355 10.0333 75.7189 10.377 75.6334 10.7459C75.5478 11.1148 75.4857 11.478 75.4469 11.8353C75.425 12.0368 75.4101 12.2322 75.3991 12.424C75.324 12.4872 75.251 12.5508 75.1727 12.6132C74.9048 12.8285 74.6229 13.0224 74.3276 13.1954C74.0318 13.3684 73.7248 13.5106 73.4063 13.622C73.0873 13.7334 72.761 13.8007 72.4268 13.8237L73.1499 6.16974C73.1963 6.0083 73.1731 5.86631 73.08 5.74333C72.9866 5.62033 72.8658 5.5358 72.7182 5.48974C72.5706 5.44352 72.413 5.44748 72.2461 5.50115C72.0789 5.55511 71.9409 5.67809 71.8321 5.86995C71.7776 6.16213 71.7213 6.56165 71.6631 7.0688C71.6047 7.57596 71.5465 8.12933 71.4881 8.72874C71.4299 9.32818 71.3715 9.94677 71.3133 10.5845C71.2549 11.2225 71.2043 11.818 71.1617 12.3712C71.1597 12.3958 71.1581 12.418 71.1563 12.4423C71.0882 12.4993 71.0222 12.5568 70.9518 12.6132C70.6836 12.8285 70.4016 13.0224 70.1064 13.1954C69.8108 13.3684 69.5038 13.5106 69.1853 13.622C68.8663 13.7334 68.5398 13.8007 68.2056 13.8237L68.9287 6.16974C68.9754 6.0083 68.9521 5.86631 68.8588 5.74333C68.7654 5.62033 68.6449 5.5358 68.4972 5.48974C68.3496 5.44352 68.192 5.44748 68.0248 5.50115C67.8576 5.55511 67.7199 5.67809 67.6111 5.86995C67.5566 6.16213 67.5003 6.56165 67.4421 7.0688C67.3837 7.57596 67.3253 8.12933 67.2671 8.72874C67.2087 9.32818 67.1505 9.94677 67.0921 10.5845C67.0339 11.2225 66.9833 11.818 66.9405 12.3712C66.9397 12.3824 66.939 12.3924 66.9382 12.4035C66.8158 12.4596 66.6828 12.5087 66.5383 12.5499C66.3904 12.5923 66.2235 12.6174 66.037 12.6249C66.068 12.4865 66.093 12.3328 66.1126 12.1637C66.1319 11.9948 66.1478 11.818 66.1593 11.6335C66.171 11.4492 66.1747 11.2647 66.171 11.0802C66.1669 10.8957 66.1572 10.7268 66.1418 10.5729C66.103 10.2427 66.0312 9.92951 65.9264 9.63353C65.8212 9.33783 65.6794 9.09009 65.5007 8.89005C65.3217 8.69029 65.0982 8.55577 64.83 8.48672C64.5619 8.41757 64.2489 8.44053 63.8915 8.55577C63.3625 8.48672 62.8865 8.53483 62.4629 8.69994C62.0393 8.86533 61.672 9.10531 61.3611 9.42031C61.0502 9.73559 60.7956 10.1062 60.5974 10.5327C60.3991 10.9592 60.2669 11.3973 60.2009 11.8467C60.1727 12.0372 60.1591 12.2269 60.155 12.4161C60.0347 12.6598 59.903 12.8727 59.7577 13.0514C59.5519 13.305 59.338 13.5125 59.1165 13.6738C58.8948 13.8352 58.6752 13.9582 58.4577 14.0427C58.2399 14.1274 58.0455 14.185 57.8747 14.2156C57.6725 14.254 57.4782 14.258 57.2917 14.2271C57.1052 14.1966 56.9338 14.1081 56.7786 13.962C56.6542 13.8545 56.559 13.6815 56.493 13.4433C56.4267 13.2051 56.3881 12.9344 56.3764 12.6307C56.3647 12.3271 56.3764 12.01 56.4113 11.6797C56.4463 11.3493 56.5063 11.0361 56.5921 10.7402C56.6774 10.4444 56.7862 10.1793 56.9184 9.94472C57.0504 9.7106 57.2059 9.54329 57.3848 9.44342C57.4858 9.45892 57.5484 9.51829 57.5716 9.62196C57.5948 9.72579 57.6005 9.84879 57.589 9.99092C57.5773 10.1332 57.5598 10.2792 57.5366 10.4289C57.5131 10.5788 57.5014 10.7038 57.5014 10.8036C57.5405 11.0111 57.6162 11.1725 57.7289 11.2878C57.8415 11.403 57.9681 11.4704 58.1079 11.4894C58.2477 11.5087 58.3857 11.4761 58.5218 11.3914C58.6577 11.3071 58.7686 11.1725 58.8541 10.988C58.862 10.9957 58.8734 10.9995 58.8891 10.9995L59.0524 9.53568C59.0991 9.33579 59.0678 9.15914 58.959 9.00544C58.8502 8.85175 58.7065 8.76326 58.5276 8.74031C58.3022 8.41757 57.997 8.24661 57.6123 8.22731C57.2275 8.20816 56.8329 8.33302 56.4288 8.60196C56.18 8.77892 55.9603 9.02268 55.7699 9.33387C55.5793 9.64522 55.4241 9.99092 55.3035 10.3713C55.1828 10.7517 55.0975 11.1534 55.0471 11.576C54.9965 11.9986 54.9866 12.4098 55.0177 12.8092C55.0487 13.209 55.121 13.5856 55.2336 13.9389C55.3461 14.2925 55.5036 14.5883 55.706 14.8264C55.8769 15.0339 56.0709 15.1859 56.2887 15.282C56.5063 15.378 56.7337 15.4374 56.9709 15.4605C57.208 15.4834 57.4432 15.4738 57.6764 15.4317C57.9096 15.3896 58.1313 15.3301 58.3411 15.253C58.6131 15.1533 58.893 15.0263 59.1807 14.8726C59.4682 14.7191 59.7441 14.5345 60.0086 14.3192C60.1474 14.2061 60.2815 14.0826 60.4108 13.9503C60.4698 14.0948 60.5355 14.2346 60.6148 14.3655C60.8248 14.7112 61.1083 14.9918 61.466 15.2069C61.8233 15.422 62.2628 15.5256 62.7837 15.5181C63.3435 15.5104 63.8602 15.3703 64.3344 15.0974C64.8087 14.8248 65.1973 14.4229 65.5007 13.8928C65.9548 13.8928 66.4014 13.8188 66.8406 13.6719C66.837 13.7184 66.8333 13.7674 66.8299 13.8123C66.7989 14.2195 66.783 14.4961 66.783 14.6421C66.7754 14.8957 66.7582 15.2088 66.7308 15.5814C66.7034 15.9542 66.6859 16.3461 66.6784 16.7572C66.6706 17.1683 66.6859 17.5833 66.7248 18.0023C66.7639 18.4209 66.8453 18.8014 66.9697 19.1435C67.0939 19.4852 67.2707 19.7754 67.5003 20.0137C67.7296 20.2518 68.0308 20.3941 68.4041 20.4402C68.8003 20.4938 69.1423 20.4247 69.43 20.2327C69.7175 20.0405 69.9509 19.7774 70.1299 19.4431C70.3085 19.1087 70.4348 18.7226 70.5086 18.2846C70.5824 17.8467 70.6038 17.4066 70.5728 16.9647C70.5417 16.5228 70.4601 16.106 70.3278 15.7142C70.1956 15.3222 70.013 14.9994 69.7798 14.7457C69.9199 14.7075 70.0868 14.6346 70.2814 14.5268C70.4755 14.4193 70.6758 14.2982 70.8819 14.1637C70.9325 14.1306 70.9823 14.0958 71.0329 14.0619C71.0138 14.3342 71.0042 14.5284 71.0042 14.6421C70.9966 14.8957 70.9792 15.2088 70.9518 15.5814C70.9246 15.9542 70.9072 16.3461 70.8993 16.7572C70.8918 17.1683 70.9072 17.5833 70.946 18.0023C70.9849 18.4209 71.0665 18.8014 71.1907 19.1435C71.3151 19.4852 71.492 19.7754 71.7213 20.0137C71.9505 20.2518 72.2518 20.3941 72.6251 20.4402C73.0213 20.4938 73.3635 20.4247 73.6512 20.2327C73.9387 20.0405 74.1719 19.7774 74.3508 19.4431C74.5295 19.1087 74.6557 18.7226 74.7298 18.2846C74.8036 17.8467 74.8248 17.4066 74.794 16.9647C74.7627 16.5228 74.681 16.106 74.549 15.7142C74.4168 15.3222 74.2342 14.9994 74.0008 14.7457C74.1408 14.7075 74.308 14.6346 74.5024 14.5268C74.6967 14.4193 74.8967 14.2982 75.1028 14.1637C75.21 14.0938 75.3164 14.0217 75.4223 13.9475C75.4625 14.3234 75.5486 14.653 75.6858 14.9302C75.853 15.2685 76.0802 15.5297 76.3679 15.7142C76.6554 15.8985 76.9937 16.0004 77.3826 16.0196C77.7712 16.0386 78.1946 15.9676 78.6537 15.8062C78.9954 15.6834 79.2927 15.5297 79.5455 15.3453C79.798 15.1607 80.0254 14.9359 80.2276 14.671C80.2393 14.6556 80.2503 14.6389 80.2618 14.6234C80.2978 14.7311 80.3377 14.8345 80.3851 14.9302C80.5523 15.2685 80.7795 15.5297 81.0673 15.7142C81.3547 15.8985 81.693 16.0004 82.0817 16.0196C82.4703 16.0386 82.8939 15.9676 83.3528 15.8062C83.6947 15.6834 83.9921 15.5297 84.2448 15.3453C84.4973 15.1607 84.7245 14.9359 84.9269 14.671C85.1288 14.4057 85.3132 14.1002 85.4807 13.7545C85.6479 13.4086 85.8167 13.0131 85.988 12.5672C86.0191 12.4444 85.9896 12.3348 85.9004 12.2388Z"
  />
</svg>
