<svg viewBox="0 0 220 44" xmlns="http://www.w3.org/2000/svg">
  <path
    d="M16.4958 20.5668C14.93 21.233 13.1531 21.9884 10.8501 21.9884C9.88671 21.9865 8.92801 21.8551 8 21.5979L9.5928 37.8512C9.64916 38.5304 9.96056 39.164 10.4651 39.6255C10.9696 40.0874 11.6304 40.3436 12.3162 40.3432C12.3162 40.3432 14.5746 40.46 15.3282 40.46C16.1392 40.46 18.5712 40.3432 18.5712 40.3432C19.2569 40.3432 19.9176 40.087 20.422 39.6255C20.9264 39.1636 21.2377 38.5304 21.294 37.8512L23 19.8907C22.2376 19.6319 21.4682 19.46 20.6009 19.46C19.1007 19.4594 17.8921 19.9729 16.4958 20.5668Z"
    fill="white"
  />
  <path
    d="M29.866 11.9529L29.6274 10.7595C29.4127 9.68873 28.9262 8.67696 27.8161 8.28995C27.4604 8.16616 27.0563 8.11294 26.7835 7.8567C26.5108 7.60042 26.4301 7.20244 26.3671 6.83335C26.2504 6.15594 26.1404 5.47796 26.0207 4.80174C25.9174 4.22037 25.8353 3.56725 25.5661 3.03392C25.2157 2.31773 24.4883 1.89893 23.765 1.62184C23.3942 1.48483 23.0159 1.36894 22.632 1.27475C20.8249 0.802679 18.9249 0.629133 17.0657 0.53024C14.8343 0.408337 12.5969 0.445048 10.3708 0.640155C8.71382 0.789373 6.96867 0.969901 5.3941 1.53735C4.81859 1.74506 4.22561 1.99436 3.78799 2.43459C3.25107 2.97547 3.07579 3.81198 3.46782 4.48644C3.74652 4.96545 4.2186 5.30384 4.71929 5.52771C5.37148 5.81618 6.05259 6.03566 6.7513 6.18255C8.69688 6.60834 10.712 6.77551 12.6996 6.84665C14.9026 6.9347 17.1092 6.86334 19.3017 6.63319C19.8439 6.57421 20.3851 6.50342 20.9254 6.42091C21.5616 6.3243 21.97 5.50053 21.7824 4.92667C21.5581 4.24061 20.9552 3.9745 20.2733 4.07805C20.1728 4.09368 20.0729 4.10813 19.9724 4.12262L19.9 4.13303C19.669 4.16192 19.438 4.18893 19.207 4.214C18.7299 4.2649 18.2516 4.30657 17.7721 4.33893C16.6983 4.41297 15.6215 4.44714 14.5453 4.44885C13.4878 4.44885 12.4297 4.41934 11.3745 4.35053C10.8931 4.31926 10.4128 4.27956 9.93376 4.23135C9.71582 4.20878 9.49849 4.18506 9.28113 4.15845L9.07431 4.13241L9.02934 4.12609L8.8149 4.09539C8.37671 4.03005 7.93851 3.95483 7.50502 3.86401C7.46129 3.8544 7.42213 3.83033 7.3941 3.79573C7.36606 3.76112 7.35076 3.71804 7.35076 3.67369C7.35076 3.62934 7.36606 3.5863 7.3941 3.5517C7.42213 3.5171 7.46129 3.49299 7.50502 3.48337H7.51318C7.88888 3.40411 8.26747 3.33644 8.64721 3.27742C8.77383 3.25779 8.90081 3.23847 9.02815 3.21958H9.03165C9.26946 3.20395 9.50843 3.16175 9.74504 3.13395C11.8038 2.92194 13.8747 2.84966 15.9434 2.91763C16.9477 2.94653 17.9515 3.00498 18.9511 3.10563C19.1661 3.12763 19.38 3.15077 19.5938 3.17677C19.6756 3.1866 19.758 3.1982 19.8404 3.20803L20.0063 3.23175C20.4901 3.30306 20.9713 3.38966 21.45 3.49149C22.1593 3.64418 23.07 3.69394 23.3858 4.46334C23.486 4.70746 23.5317 4.97875 23.5871 5.23503L23.6581 5.56183C23.6599 5.56772 23.6612 5.57374 23.6621 5.5798C23.8293 6.35109 23.9965 7.12238 24.1637 7.89372C24.1761 7.95068 24.1766 8.00957 24.1646 8.06665C24.153 8.12374 24.1295 8.17784 24.0958 8.22553C24.0621 8.27327 24.0187 8.31358 23.9685 8.34397C23.9184 8.37435 23.8621 8.39416 23.804 8.4022H23.7991L23.6971 8.41607L23.596 8.42938C23.2758 8.47066 22.9551 8.50921 22.6343 8.54509C22.0021 8.6164 21.369 8.67815 20.7349 8.73018C19.4748 8.83395 18.2123 8.90202 16.9471 8.93438C16.3025 8.95138 15.6581 8.95928 15.0138 8.9581C12.4496 8.95612 9.8875 8.80857 7.34025 8.51615C7.06447 8.48374 6.78874 8.44905 6.51296 8.41374C6.72678 8.44097 6.35755 8.39293 6.28277 8.38252C6.1075 8.35824 5.93222 8.33299 5.75694 8.30673C5.16857 8.21938 4.58375 8.1118 3.99658 8.01751C3.28668 7.9018 2.60779 7.95968 1.96571 8.30673C1.43864 8.5923 1.01206 9.03024 0.742849 9.56203C0.465917 10.129 0.383558 10.7462 0.259683 11.3553C0.135809 11.9645 -0.0569883 12.6199 0.016059 13.2452C0.173197 14.5948 1.12614 15.6916 2.49678 15.9369C3.78622 16.1683 5.08271 16.3557 6.38266 16.5154C11.4892 17.1346 16.6482 17.2087 21.7707 16.7364C22.1879 16.6978 22.6045 16.6558 23.0203 16.6103C23.1503 16.5961 23.282 16.6109 23.4053 16.6536C23.5286 16.6963 23.6408 16.7658 23.7335 16.857C23.8262 16.9482 23.8976 17.0588 23.9415 17.1806C23.9854 17.3025 24.0014 17.4325 23.9881 17.5613L23.8581 18.8096C23.5969 21.3322 23.3356 23.8546 23.0744 26.3767C22.8016 29.0254 22.5272 31.6739 22.251 34.322C22.1731 35.0681 22.0952 35.8137 22.0173 36.5594C21.9425 37.2932 21.932 38.0507 21.7912 38.7761C21.5692 39.9165 20.7892 40.6174 19.6511 40.8734C18.6084 41.1083 17.5432 41.2317 16.4739 41.2414C15.2885 41.2476 14.1036 41.1957 12.9181 41.2019C11.6527 41.2089 10.1026 41.0934 9.12572 40.1607C8.26747 39.3417 8.14887 38.059 8.03201 36.9502C7.8762 35.4822 7.72177 34.0141 7.56871 32.5461L6.70984 24.3845L6.1542 19.1035C6.14488 19.0161 6.13553 18.9299 6.12674 18.842C6.06017 18.2121 5.60969 17.5954 4.89985 17.6272C4.29218 17.6538 3.60163 18.1652 3.6729 18.842L4.08479 22.7572L4.93661 30.8559C5.1793 33.1565 5.42138 35.4571 5.66287 37.7582C5.70962 38.1991 5.75344 38.6413 5.80249 39.0817C6.06949 41.4908 7.92742 42.7889 10.2282 43.1543C11.572 43.3686 12.9485 43.4125 14.3122 43.4344C16.0602 43.4621 17.8259 43.5289 19.5453 43.2153C22.0933 42.7525 24.0049 41.0679 24.2777 38.4547C24.3557 37.7007 24.4338 36.9458 24.5114 36.1914C24.7704 33.6953 25.029 31.1992 25.2876 28.7028L26.132 20.5462L26.5196 16.8081C26.5387 16.6227 26.6181 16.4484 26.745 16.311C26.8722 16.1736 27.0408 16.0804 27.2253 16.0451C27.954 15.9045 28.6503 15.6645 29.1688 15.1155C29.9937 14.2414 30.1578 13.1018 29.866 11.9529ZM2.45939 12.7593C2.47048 12.7541 2.45004 12.8484 2.4413 12.8924C2.43952 12.8259 2.44303 12.7668 2.45939 12.7593ZM2.53009 13.3008C2.53594 13.2967 2.55346 13.3199 2.57156 13.3476C2.5441 13.3222 2.52659 13.3031 2.52951 13.3008H2.53009ZM2.59963 13.3916C2.63817 13.4604 2.62474 13.4338 2.59963 13.3916ZM2.73925 13.5038H2.74276C2.74276 13.5079 2.74919 13.5119 2.75154 13.516C2.74763 13.5115 2.74333 13.5074 2.73868 13.5038H2.73925ZM27.1916 13.336C26.9299 13.5825 26.5352 13.697 26.1458 13.7543C21.7754 14.3964 17.3415 14.7215 12.9234 14.578C9.76141 14.471 6.63271 14.1234 3.50228 13.6855C3.19554 13.6426 2.86313 13.5871 2.65219 13.3633C2.25489 12.9409 2.45003 12.0906 2.55346 11.5804C2.64811 11.113 2.82924 10.4899 3.39069 10.4234C4.26708 10.3216 5.28486 10.6878 6.15189 10.8179C7.19575 10.9757 8.24352 11.1019 9.29519 11.1968C13.7834 11.6018 18.347 11.5387 22.8154 10.9464C23.6297 10.838 24.4413 10.7121 25.2499 10.5686C25.9706 10.4407 26.7689 10.2007 27.2044 10.9394C27.5029 11.4427 27.5424 12.116 27.4963 12.6847C27.4821 12.9324 27.373 13.1655 27.1907 13.336H27.1916Z"
  />
  <path
    fill-rule="evenodd"
    clip-rule="evenodd"
    d="M56.7864 23.9579C56.4882 24.5095 56.0779 24.9899 55.5556 25.3976C55.0333 25.8055 54.4244 26.1377 53.7279 26.3934C53.0319 26.6498 52.3312 26.8218 51.6268 26.9094C50.922 26.9974 50.2379 26.9898 49.5756 26.8854C48.9122 26.7816 48.3479 26.5697 47.8842 26.2494L48.407 20.9941C48.8873 20.8343 49.492 20.6702 50.2218 20.5022C50.951 20.3344 51.701 20.2141 52.4722 20.1423C53.2435 20.0702 53.9722 20.0787 54.6604 20.1664C55.3482 20.2543 55.8912 20.4662 56.289 20.8023C56.5048 20.9941 56.6873 21.2021 56.8362 21.4261C56.9855 21.6502 57.0763 21.8822 57.11 22.1221C57.1925 22.794 57.0851 23.4059 56.7864 23.9579ZM49.2021 12.7632C49.5501 12.5553 49.9692 12.3711 50.4578 12.2109C50.9469 12.0515 51.4484 11.9391 51.9624 11.8752C52.4759 11.8115 52.9774 11.803 53.467 11.8511C53.9556 11.8992 54.3871 12.0311 54.76 12.2469C55.1329 12.4631 55.4104 12.7751 55.593 13.1828C55.775 13.591 55.8248 14.107 55.7418 14.7308C55.676 15.2268 55.4721 15.6469 55.1329 15.9906C54.7932 16.3349 54.3783 16.6226 53.8897 16.8546C53.4006 17.0869 52.8825 17.2708 52.3358 17.4063C51.7881 17.5427 51.2617 17.6428 50.7565 17.7065C50.2508 17.7707 49.8115 17.8109 49.4386 17.8264C49.0657 17.8425 48.8209 17.8504 48.7047 17.8504L49.2021 12.7632ZM59.472 20.5621C59.2069 20.0025 58.8506 19.5106 58.403 19.0862C57.9554 18.6624 57.4243 18.3546 56.8113 18.1625C57.0763 17.9546 57.3377 17.6267 57.595 17.1786C57.8517 16.731 58.0711 16.2427 58.2537 15.7148C58.4357 15.1866 58.5607 14.655 58.6266 14.1189C58.6924 13.5831 58.6675 13.1231 58.5524 12.7388C58.2697 11.7793 57.8268 11.0273 57.2215 10.4833C56.6163 9.93952 55.9119 9.56353 55.108 9.35531C54.3036 9.14799 53.4172 9.10354 52.4473 9.2235C51.4775 9.3434 50.4868 9.57935 49.476 9.93129C49.476 9.85152 49.4843 9.76753 49.5009 9.67952C49.5169 9.59186 49.5252 9.49958 49.5252 9.40338C49.5252 9.16352 49.4013 8.95585 49.1523 8.77958C48.9039 8.60361 48.6181 8.49983 48.295 8.46753C47.9714 8.43588 47.6565 8.50344 47.3495 8.67153C47.043 8.83956 46.8314 9.14799 46.7157 9.59517C46.5829 11.0352 46.4502 12.5312 46.3179 14.0827C46.1851 15.6347 46.044 17.2026 45.8952 18.7866C45.7458 20.3703 45.5964 21.9422 45.4476 23.5018C45.2982 25.0618 45.1489 26.5615 45 28.0012C45.0498 28.4332 45.1737 28.7693 45.3729 29.0092C45.5716 29.2494 45.8039 29.3934 46.0689 29.4412C46.334 29.4893 46.612 29.4448 46.9019 29.309C47.1918 29.1736 47.4449 28.937 47.6607 28.6013C48.3235 28.9532 49.0699 29.1812 49.8987 29.2853C50.7275 29.3891 51.5682 29.3891 52.423 29.2853C53.2761 29.1812 54.1174 28.9854 54.9462 28.6971C55.775 28.4094 56.5297 28.0493 57.2091 27.6176C57.889 27.1856 58.4606 26.6933 58.9253 26.1417C59.389 25.5894 59.696 24.9936 59.8449 24.3539C59.9943 23.6979 60.0357 23.0421 59.9694 22.386C59.903 21.7303 59.737 21.1226 59.472 20.5621Z"
  />
  <path
    fill-rule="evenodd"
    clip-rule="evenodd"
    d="M82.4666 32.8504C82.3793 33.3823 82.2551 33.9425 82.096 34.5311C81.9364 35.1186 81.7493 35.6551 81.5344 36.1389C81.3189 36.6222 81.08 37.0124 80.8171 37.3109C80.5538 37.609 80.2705 37.734 79.9677 37.6859C79.7288 37.6531 79.5772 37.5002 79.5138 37.2264C79.4495 36.9521 79.4495 36.6136 79.5138 36.2113C79.5772 35.8079 79.7004 35.3524 79.8839 34.8449C80.0675 34.3373 80.2909 33.8332 80.5538 33.3342C80.8171 32.8342 81.1159 32.355 81.4506 31.8955C81.7852 31.4366 82.1359 31.0535 82.5025 30.7474C82.5823 30.844 82.6182 31.0857 82.6102 31.4728C82.6017 31.8595 82.5543 32.3191 82.4666 32.8504ZM90.5735 22.3584C90.3581 22.1167 90.0952 21.9799 89.784 21.9474C89.4733 21.9152 89.158 22.0925 88.8398 22.4793C88.6323 22.866 88.369 23.2368 88.0503 23.5913C87.7316 23.9462 87.4009 24.2683 87.0582 24.5584C86.7151 24.8482 86.3884 25.0985 86.0776 25.3077C85.7669 25.5175 85.5235 25.6705 85.3484 25.7671C85.2846 25.2516 85.2482 24.6955 85.2407 24.0989C85.2322 23.5027 85.2447 22.8985 85.2766 22.286C85.324 21.4156 85.4238 20.5375 85.5754 19.6508C85.727 18.7644 85.946 17.894 86.2333 17.0395C86.2333 16.5886 86.129 16.2218 85.922 15.9396C85.7145 15.6578 85.4637 15.4802 85.1689 15.4078C84.8736 15.3354 84.5714 15.3756 84.2601 15.5287C83.9494 15.682 83.6826 15.9602 83.4591 16.3626C83.2681 16.8948 83.0486 17.491 82.8017 18.1516C82.5543 18.8126 82.2755 19.4855 81.9648 20.1704C81.6536 20.8558 81.3069 21.5205 80.9244 22.1649C80.5418 22.8099 80.1233 23.3822 79.669 23.8815C79.2146 24.3811 78.7203 24.7722 78.1866 25.054C77.6519 25.3362 77.0749 25.461 76.4529 25.4288C76.1656 25.3482 75.9581 25.1307 75.8309 24.7759C75.7032 24.4216 75.6274 23.9781 75.604 23.4463C75.58 22.9144 75.604 22.3302 75.6753 21.6934C75.7471 21.057 75.8429 20.4243 75.9626 19.7959C76.0818 19.1671 76.2135 18.5709 76.3566 18.0068C76.5003 17.4428 76.6354 16.9671 76.7631 16.5804C76.9547 16.1132 76.9547 15.7219 76.7631 15.4078C76.5721 15.0934 76.3093 14.8843 75.9746 14.7791C75.6399 14.6745 75.2888 14.6788 74.9222 14.7914C74.5556 14.9042 74.2922 15.1539 74.1331 15.5406C73.8618 16.2019 73.6144 16.9429 73.3915 17.7648C73.1685 18.5869 72.9889 19.4373 72.8538 20.3154C72.7181 21.1941 72.6418 22.0646 72.6263 22.9267C72.6253 22.9828 72.6278 23.0362 72.6278 23.092C72.2802 24.029 71.949 24.7372 71.6343 25.2111C71.2278 25.8238 70.7689 26.0898 70.2592 26.0088C70.0352 25.9122 69.8886 25.6867 69.8168 25.3319C69.7444 24.9776 69.721 24.5425 69.7444 24.0263C69.7689 23.511 69.8287 22.9267 69.924 22.2737C70.0203 21.6211 70.139 20.9442 70.2826 20.243C70.4263 19.5416 70.5779 18.8371 70.737 18.1277C70.8966 17.4186 71.0398 16.7497 71.1679 16.1209C71.152 15.5569 70.9884 15.126 70.6772 14.8276C70.3669 14.5297 69.932 14.4129 69.3744 14.477C68.9918 14.6383 68.7085 14.8481 68.5255 15.1057C68.3419 15.3633 68.1943 15.694 68.0831 16.0967C68.0187 16.3065 67.9234 16.7254 67.7958 17.3542C67.6681 17.9823 67.505 18.704 67.3055 19.5177C67.1065 20.332 66.871 21.1819 66.6002 22.0682C66.3294 22.9546 66.0261 23.757 65.6919 24.4737C65.3568 25.1908 64.9902 25.7671 64.5917 26.2023C64.1931 26.6372 63.7627 26.8148 63.3004 26.7342C63.045 26.6857 62.8819 26.4198 62.8101 25.9364C62.7382 25.4527 62.7268 24.8568 62.7742 24.1474C62.822 23.4383 62.9178 22.6605 63.0609 21.8146C63.2046 20.9684 63.3517 20.1667 63.5033 19.4088C63.655 18.6515 63.7946 17.9823 63.9223 17.4023C64.0495 16.822 64.1373 16.4353 64.1852 16.2421C64.1852 15.7747 64.0809 15.4002 63.8744 15.1177C63.6669 14.8361 63.4161 14.6585 63.1208 14.5859C62.8255 14.5135 62.5228 14.5537 62.2125 14.7067C61.9013 14.86 61.6345 15.1382 61.411 15.5406C61.3312 15.9758 61.2275 16.4798 61.1003 17.0518C60.9726 17.6238 60.8494 18.2121 60.7297 18.8166C60.61 19.4211 60.4983 20.0133 60.395 20.5936C60.2913 21.1739 60.2155 21.6815 60.1676 22.1167C60.1357 22.455 60.0997 22.8703 60.0603 23.3616C60.0199 23.8536 60 24.3731 60 24.9209C60 25.4693 60.0399 26.0131 60.1202 26.5529C60.1995 27.093 60.3432 27.5887 60.5501 28.0395C60.7571 28.491 61.0484 28.8615 61.4235 29.1516C61.7976 29.4417 62.2719 29.6028 62.846 29.6353C63.4355 29.6672 63.9498 29.6233 64.3887 29.5022C64.8266 29.3813 65.2251 29.1918 65.5842 28.9338C65.9428 28.6765 66.2695 28.3701 66.5648 28.0153C66.8591 27.661 67.1504 27.2743 67.4371 26.855C67.7085 27.4678 68.0591 27.9429 68.4895 28.2815C68.92 28.6198 69.3744 28.8216 69.8527 28.8857C70.3305 28.9498 70.8173 28.882 71.3116 28.6802C71.8054 28.479 72.2518 28.1364 72.6503 27.6527C72.9131 27.3562 73.1605 27.0191 73.3929 26.6464C73.4917 26.8209 73.5964 26.9893 73.7147 27.1448C74.1052 27.661 74.6354 28.0153 75.3052 28.2088C76.0225 28.4023 76.7232 28.4349 77.409 28.3057C78.0943 28.1769 78.7482 27.9429 79.3697 27.6046C79.9917 27.266 80.5692 26.8593 81.1039 26.3836C81.6376 25.9082 82.104 25.4128 82.5025 24.8967C82.4865 25.2675 82.4785 25.6184 82.4785 25.9484C82.4785 26.279 82.4705 26.6372 82.4551 27.0243C81.6576 27.5887 80.9044 28.2655 80.1952 29.055C79.4854 29.8445 78.8635 30.6867 78.3298 31.5812C77.7956 32.4754 77.3771 33.3823 77.0749 34.3008C76.7716 35.2199 76.624 36.0782 76.632 36.8762C76.6399 37.6738 76.827 38.3707 77.1941 38.9668C77.5602 39.5635 78.1582 39.9901 78.9871 40.2482C79.8485 40.5225 80.6051 40.5301 81.2595 40.2725C81.9129 40.0144 82.4825 39.5873 82.9688 38.9911C83.4551 38.3949 83.8536 37.6738 84.1649 36.8276C84.4756 35.9815 84.7225 35.0989 84.906 34.1804C85.0891 33.2619 85.2048 32.3585 85.2527 31.4728C85.3006 30.5861 85.3006 29.796 85.2527 29.1032C86.6238 28.5232 87.7475 27.7898 88.6244 26.9031C89.5012 26.0174 90.2264 25.0822 90.8005 24.0989C90.9756 23.8572 91.0354 23.5671 90.98 23.2288C90.9237 22.8902 90.7885 22.6001 90.5735 22.3584Z"
  />
  <path
    fill-rule="evenodd"
    clip-rule="evenodd"
    d="M120.737 21.2971C120.785 20.934 120.858 20.5508 120.954 20.1481C121.051 19.7453 121.172 19.3543 121.318 18.9753C121.462 18.5963 121.632 18.2687 121.826 17.9922C122.019 17.716 122.225 17.5185 122.442 17.3998C122.66 17.2817 122.881 17.2934 123.107 17.4353C123.349 17.5778 123.498 17.8777 123.555 18.3354C123.611 18.7941 123.555 19.2834 123.385 19.8045C123.216 20.326 122.914 20.8153 122.478 21.2734C122.043 21.7317 121.454 22.0313 120.713 22.1735C120.68 21.9529 120.689 21.6605 120.737 21.2971ZM129.116 22.2682C128.851 22.1897 128.597 22.1816 128.355 22.2447C128.113 22.3079 127.96 22.4737 127.896 22.7425C127.766 23.2477 127.56 23.7649 127.278 24.2939C126.996 24.8232 126.65 25.3245 126.239 25.7985C125.828 26.2722 125.364 26.6909 124.849 27.0539C124.332 27.4173 123.792 27.6778 123.228 27.8357C122.663 28.0097 122.196 28.0292 121.826 27.8949C121.454 27.7611 121.16 27.5318 120.943 27.2081C120.725 26.8844 120.568 26.4934 120.471 26.0354C120.374 25.5773 120.318 25.1036 120.302 24.6137C121.221 24.6771 122.039 24.5155 122.757 24.128C123.473 23.7415 124.082 23.2278 124.582 22.5882C125.082 21.9487 125.461 21.2301 125.719 20.4324C125.976 19.635 126.122 18.8413 126.154 18.0514C126.17 17.309 126.058 16.6815 125.816 16.1681C125.574 15.6551 125.247 15.2556 124.836 14.9716C124.425 14.6873 123.953 14.5214 123.422 14.4742C122.89 14.4267 122.349 14.4979 121.801 14.6873C121.14 14.9085 120.58 15.2676 120.12 15.7654C119.661 16.2628 119.278 16.8396 118.972 17.4948C118.665 18.1503 118.423 18.8569 118.246 19.6149C118.069 20.3732 117.939 21.1195 117.859 21.854C117.787 22.5131 117.748 23.1434 117.734 23.7517C117.699 23.8289 117.666 23.9032 117.629 23.9859C117.379 24.547 117.088 25.0958 116.759 25.6326C116.428 26.1697 116.061 26.6199 115.658 26.983C115.255 27.3464 114.836 27.4726 114.401 27.362C114.143 27.2992 114.002 27.0064 113.978 26.4856C113.954 25.9641 113.981 25.3167 114.062 24.5428C114.143 23.7691 114.235 22.9315 114.34 22.0313C114.445 21.1312 114.497 20.2707 114.497 19.4493C114.497 18.7385 114.36 18.0556 114.086 17.3998C113.812 16.7449 113.437 16.1997 112.962 15.7654C112.486 15.3308 111.934 15.0426 111.305 14.9007C110.676 14.7582 109.999 14.8532 109.274 15.1847C108.548 15.5166 107.972 15.9824 107.545 16.5826C107.117 17.1831 106.726 17.8146 106.372 18.4779C106.242 17.9724 106.053 17.5029 105.803 17.0683C105.553 16.634 105.247 16.255 104.884 15.931C104.521 15.6076 104.114 15.3548 103.663 15.173C103.212 14.9918 102.736 14.9007 102.236 14.9007C101.753 14.9007 101.305 14.9918 100.894 15.173C100.483 15.3548 100.108 15.5875 99.7691 15.8718C99.4307 16.1564 99.1245 16.4759 98.8501 16.8314C98.5762 17.1867 98.334 17.5384 98.1247 17.8855C98.0919 17.4749 98.0561 17.1158 98.0163 16.8074C97.9754 16.4997 97.9028 16.2391 97.7983 16.026C97.6934 15.8126 97.5446 15.6509 97.3509 15.5403C97.1572 15.43 96.8833 15.3744 96.5287 15.3744C96.3511 15.3744 96.1736 15.4098 95.9965 15.4807C95.819 15.552 95.6616 15.6509 95.5249 15.7771C95.3877 15.904 95.2833 16.0575 95.2106 16.2391C95.138 16.4206 95.1183 16.6301 95.1501 16.8669C95.1663 17.0409 95.2106 17.2498 95.2833 17.4948C95.3554 17.7397 95.424 18.0598 95.4886 18.4541C95.5532 18.8491 95.6056 19.327 95.646 19.8875C95.6863 20.4483 95.6979 21.1354 95.6823 21.9487C95.6656 22.7623 95.6056 23.7135 95.5007 24.8033C95.3958 25.8932 95.2303 27.1567 95.0048 28.5937C94.9726 28.9254 95.1017 29.1942 95.3922 29.3994C95.6823 29.6044 96.0127 29.7228 96.3834 29.7547C96.7542 29.7863 97.1053 29.7228 97.4357 29.5653C97.7661 29.4069 97.9557 29.1308 98.0036 28.7361C98.0521 27.9938 98.1449 27.2042 98.2821 26.3668C98.4188 25.5301 98.5883 24.7009 98.79 23.8794C98.9913 23.0583 99.2208 22.2766 99.4791 21.5339C99.7368 20.7916 100.023 20.1364 100.338 19.5677C100.652 18.9991 100.979 18.5452 101.317 18.2056C101.656 17.866 102.01 17.6961 102.382 17.6961C102.832 17.6961 103.183 17.8972 103.433 18.3C103.683 18.703 103.86 19.2205 103.965 19.8517C104.07 20.4838 104.118 21.1751 104.111 21.925C104.102 22.6751 104.07 23.3976 104.014 24.0925C103.957 24.7877 103.893 25.4075 103.82 25.9524C103.748 26.4973 103.695 26.8727 103.663 27.0776C103.663 27.441 103.804 27.729 104.086 27.9424C104.368 28.1554 104.682 28.282 105.029 28.3214C105.376 28.361 105.702 28.2976 106.009 28.1317C106.315 27.9658 106.493 27.686 106.541 27.2907C106.702 26.1537 106.924 25.0129 107.206 23.8677C107.488 22.7226 107.811 21.6962 108.173 20.788C108.536 19.8797 108.939 19.1373 109.382 18.5609C109.826 17.9847 110.297 17.6961 110.797 17.6961C111.055 17.6961 111.253 17.8701 111.39 18.2173C111.527 18.5647 111.595 19.0384 111.595 19.6387C111.595 20.0811 111.559 20.5352 111.487 21.0011C111.414 21.4669 111.329 21.9487 111.233 22.4461C111.136 22.9438 111.051 23.453 110.978 23.9742C110.906 24.4956 110.87 25.0402 110.87 25.6089C110.87 26.0038 110.91 26.4618 110.991 26.983C111.071 27.5038 111.224 27.998 111.45 28.4635C111.676 28.9297 111.986 29.3243 112.382 29.648C112.777 29.9717 113.28 30.1337 113.892 30.1337C114.812 30.1337 115.626 29.9401 116.335 29.5533C117.045 29.1665 117.653 28.6613 118.161 28.0373C118.188 28.0046 118.212 27.9697 118.238 27.9373C118.276 28.0295 118.311 28.1272 118.355 28.2149C118.701 28.9098 119.173 29.4466 119.77 29.8259C120.366 30.2049 121.067 30.4141 121.874 30.4538C122.68 30.4929 123.558 30.3468 124.51 30.0153C125.219 29.7625 125.836 29.4466 126.36 29.0676C126.883 28.6886 127.355 28.2267 127.774 27.6818C128.194 27.1368 128.576 26.509 128.923 25.7985C129.27 25.0874 129.62 24.2744 129.975 23.358C130.04 23.1058 129.979 22.8807 129.794 22.683C129.608 22.4858 129.383 22.3475 129.116 22.2682Z"
  />
  <path
    fill-rule="evenodd"
    clip-rule="evenodd"
    d="M142.733 19.088C142.652 19.5599 142.545 20.0798 142.409 20.6469C142.272 21.2146 142.101 21.8021 141.892 22.4097C141.684 23.0172 141.428 23.5648 141.124 24.0522C140.82 24.5402 140.471 24.9275 140.08 25.2153C139.687 25.5031 139.235 25.623 138.723 25.5749C138.467 25.5433 138.27 25.3674 138.135 25.0473C137.999 24.7279 137.927 24.32 137.918 23.8243C137.91 23.329 137.954 22.7854 138.051 22.1937C138.147 21.6025 138.294 21.0227 138.495 20.455C138.695 19.8879 138.939 19.364 139.227 18.8842C139.515 18.4047 139.847 18.033 140.224 17.7692C140.6 17.5054 141.012 17.3819 141.46 17.3974C141.908 17.4136 142.389 17.6371 142.901 18.0689C142.868 18.277 142.813 18.6168 142.733 19.088ZM151.268 20.9226C151.02 20.7948 150.764 20.7671 150.5 20.8389C150.236 20.9107 150.048 21.1547 149.936 21.5703C149.872 22.0181 149.728 22.5454 149.504 23.1529C149.28 23.7604 149.003 24.3364 148.676 24.8794C148.347 25.4231 147.971 25.8749 147.547 26.2345C147.123 26.5944 146.67 26.7584 146.191 26.7258C145.79 26.6942 145.51 26.4903 145.35 26.1146C145.189 25.7389 145.106 25.2676 145.098 24.6996C145.089 24.1325 145.146 23.493 145.266 22.7815C145.386 22.0701 145.53 21.3628 145.698 20.6588C145.866 19.9557 146.038 19.28 146.215 18.6326C146.39 17.9852 146.534 17.4376 146.647 16.9901C146.775 16.5903 146.734 16.2508 146.527 15.9706C146.318 15.6913 146.058 15.4911 145.746 15.3712C145.434 15.2514 145.117 15.2194 144.797 15.2754C144.477 15.3314 144.27 15.5033 144.173 15.7908C143.229 14.9754 142.32 14.5358 141.449 14.4719C140.576 14.408 139.771 14.6 139.035 15.0475C138.299 15.495 137.646 16.1425 137.079 16.9901C136.51 17.8376 136.05 18.7607 135.697 19.7598C135.345 20.7589 135.125 21.7784 135.037 22.8173C134.949 23.8566 135.017 24.804 135.242 25.6592C135.466 26.5144 135.862 27.2141 136.43 27.7572C136.998 28.3008 137.771 28.5728 138.747 28.5728C139.179 28.5728 139.596 28.4849 139.996 28.309C140.395 28.1329 140.764 27.9251 141.1 27.6854C141.436 27.4456 141.732 27.1937 141.989 26.93C142.244 26.6662 142.445 26.4466 142.589 26.2704C142.701 26.846 142.885 27.334 143.141 27.7335C143.397 28.1329 143.689 28.4611 144.017 28.7164C144.345 28.972 144.69 29.16 145.05 29.2801C145.41 29.4 145.758 29.46 146.094 29.46C146.847 29.46 147.55 29.2041 148.207 28.6924C148.863 28.1813 149.452 27.5533 149.972 26.8101C150.492 26.0665 150.921 25.2834 151.256 24.4599C151.593 23.6367 151.817 22.9053 151.929 22.2655C152.041 22.0257 152.02 21.7741 151.869 21.5104C151.716 21.2466 151.517 21.0509 151.268 20.9226Z"
  />
  <path
    fill-rule="evenodd"
    clip-rule="evenodd"
    d="M194.229 34.3731C194.093 34.9127 193.88 35.3699 193.591 35.743C193.302 36.116 192.941 36.3104 192.508 36.3269C192.235 36.3424 192.026 36.1992 191.881 35.898C191.737 35.5958 191.637 35.2069 191.581 34.7306C191.524 34.2539 191.5 33.7218 191.508 33.1344C191.516 32.5469 191.54 31.967 191.581 31.3953C191.62 30.8238 191.669 30.2913 191.725 29.7993C191.781 29.3066 191.825 28.9261 191.857 28.656C192.403 28.7194 192.857 28.9533 193.218 29.3586C193.579 29.7636 193.856 30.2439 194.048 30.7999C194.241 31.3557 194.353 31.9555 194.385 32.5983C194.417 33.2416 194.365 33.833 194.229 34.3731ZM185.514 34.3731C185.378 34.9127 185.165 35.3699 184.876 35.743C184.588 36.116 184.226 36.3104 183.793 36.3269C183.52 36.3424 183.312 36.1992 183.167 35.898C183.023 35.5958 182.922 35.2069 182.867 34.7306C182.81 34.2539 182.786 33.7218 182.794 33.1344C182.802 32.5469 182.826 31.967 182.867 31.3953C182.906 30.8238 182.954 30.2913 183.011 29.7993C183.067 29.3066 183.111 28.9261 183.143 28.656C183.688 28.7194 184.142 28.9533 184.503 29.3586C184.864 29.7636 185.141 30.2439 185.334 30.7999C185.527 31.3557 185.639 31.9555 185.671 32.5983C185.702 33.2416 185.65 33.833 185.514 34.3731ZM176.572 20.8423C176.555 21.223 176.519 21.5606 176.463 21.8544C176.406 22.1488 176.331 22.3349 176.234 22.4144C176.057 22.3189 175.841 22.0732 175.584 21.6758C175.327 21.279 175.127 20.8299 174.982 20.3297C174.838 19.8295 174.793 19.3375 174.85 18.8527C174.906 18.3686 175.159 17.9917 175.608 17.7212C175.784 17.626 175.937 17.6616 176.065 17.8285C176.194 17.9953 176.298 18.2374 176.379 18.555C176.459 18.873 176.514 19.2381 176.547 19.6509C176.579 20.064 176.587 20.4609 176.572 20.8423ZM174.441 25.5947C174.192 25.8564 173.914 26.0828 173.61 26.2735C173.305 26.4642 172.992 26.6072 172.671 26.7024C172.35 26.7979 172.061 26.8214 171.805 26.7737C171.083 26.631 170.529 26.321 170.144 25.8447C169.758 25.3683 169.513 24.8086 169.41 24.1655C169.305 23.5221 169.317 22.8351 169.446 22.1047C169.574 21.3742 169.79 20.6954 170.095 20.068C170.4 19.4405 170.77 18.9005 171.203 18.4481C171.636 17.9953 172.109 17.7137 172.623 17.6021C172.43 18.4121 172.366 19.2501 172.43 20.1154C172.494 20.981 172.703 21.7949 173.056 22.5571C173.281 23.0183 173.55 23.4387 173.863 23.8198C174.176 24.2012 174.557 24.5267 175.007 24.7966C174.878 25.0667 174.689 25.3327 174.441 25.5947ZM201.078 21.0804C201.126 20.7153 201.198 20.3297 201.294 19.9247C201.39 19.52 201.511 19.1269 201.655 18.7457C201.8 18.3643 201.968 18.0349 202.161 17.7571C202.354 17.4794 202.558 17.2806 202.775 17.1615C202.992 17.0424 203.212 17.0542 203.436 17.1971C203.677 17.3404 203.826 17.642 203.882 18.1023C203.938 18.5632 203.882 19.0552 203.714 19.5796C203.545 20.1036 203.244 20.596 202.811 21.0562C202.378 21.5174 201.792 21.8188 201.053 21.9617C201.021 21.7396 201.029 21.4458 201.078 21.0804ZM210.779 21.0804C210.827 20.7153 210.899 20.3297 210.996 19.9247C211.092 19.52 211.213 19.1269 211.357 18.7457C211.501 18.3643 211.67 18.0349 211.862 17.7571C212.055 17.4794 212.26 17.2806 212.476 17.1615C212.693 17.0424 212.914 17.0542 213.138 17.1971C213.379 17.3404 213.527 17.642 213.584 18.1023C213.64 18.5632 213.584 19.0552 213.415 19.5796C213.247 20.1036 212.946 20.596 212.513 21.0562C212.079 21.5174 211.493 21.8188 210.755 21.9617C210.723 21.7396 210.731 21.4458 210.779 21.0804ZM219.795 22.474C219.61 22.2757 219.385 22.1367 219.121 22.0569C218.856 21.9777 218.603 21.9699 218.362 22.0333C218.122 22.0968 217.968 22.2636 217.905 22.5335C217.776 23.0419 217.572 23.562 217.291 24.0936C217.01 24.6261 216.665 25.1302 216.256 25.6065C215.847 26.0828 215.385 26.5041 214.872 26.8692C214.358 27.2346 213.821 27.4966 213.259 27.655C212.697 27.8303 212.231 27.8499 211.862 27.7148C211.493 27.58 211.201 27.3497 210.984 27.0242C210.767 26.6985 210.611 26.3056 210.514 25.8447C210.418 25.3844 210.362 24.9081 210.346 24.4155C211.261 24.4792 212.075 24.3166 212.789 23.9271C213.503 23.5381 214.109 23.0216 214.607 22.3785C215.104 21.7356 215.482 21.013 215.738 20.2109C215.995 19.4088 216.139 18.6109 216.172 17.8167C216.187 17.0702 216.075 16.4388 215.835 15.9227C215.594 15.4068 215.269 15.0054 214.86 14.7198C214.45 14.4336 213.981 14.2671 213.451 14.2193C212.922 14.1716 212.384 14.2435 211.838 14.4336C211.18 14.6563 210.623 15.0175 210.166 15.5177C209.708 16.0182 209.327 16.5981 209.022 17.2567C208.717 17.9161 208.476 18.6263 208.299 19.3889C208.123 20.1511 207.995 20.9018 207.915 21.6401C207.836 22.3567 207.794 23.0425 207.785 23.6989C207.724 23.8297 207.659 23.9612 207.589 24.0936C207.308 24.6261 206.963 25.1302 206.554 25.6065C206.145 26.0828 205.683 26.5041 205.17 26.8692C204.657 27.2346 204.119 27.4966 203.557 27.655C202.995 27.8303 202.53 27.8499 202.161 27.7148C201.792 27.58 201.499 27.3497 201.282 27.0242C201.066 26.6985 200.909 26.3056 200.813 25.8447C200.717 25.3844 200.66 24.9081 200.644 24.4155C201.559 24.4792 202.373 24.3166 203.088 23.9271C203.801 23.5381 204.408 23.0216 204.905 22.3785C205.403 21.7356 205.78 21.013 206.036 20.2109C206.293 19.4088 206.438 18.6109 206.47 17.8167C206.486 17.0702 206.374 16.4388 206.133 15.9227C205.892 15.4068 205.567 15.0054 205.158 14.7198C204.748 14.4336 204.279 14.2671 203.75 14.2193C203.22 14.1716 202.682 14.2435 202.137 14.4336C201.478 14.6563 200.921 15.0175 200.464 15.5177C200.007 16.0182 199.625 16.5981 199.32 17.2567C199.015 17.9161 198.775 18.6263 198.598 19.3889C198.421 20.1511 198.293 20.9018 198.213 21.6401C198.167 22.0566 198.137 22.4604 198.115 22.8569C197.959 22.9875 197.808 23.1189 197.647 23.248C197.094 23.6928 196.511 24.0936 195.902 24.4511C195.292 24.8086 194.658 25.1024 194 25.3327C193.342 25.563 192.668 25.702 191.978 25.7495L193.471 9.93136C193.567 9.5977 193.519 9.30428 193.326 9.0501C193.134 8.79593 192.885 8.62124 192.58 8.52604C192.275 8.43055 191.95 8.43867 191.605 8.54963C191.259 8.66113 190.975 8.91531 190.75 9.31181C190.638 9.91566 190.521 10.7413 190.401 11.7894C190.281 12.8375 190.16 13.9812 190.04 15.22C189.92 16.4588 189.799 17.7372 189.679 19.0552C189.559 20.3738 189.454 21.6045 189.366 22.7478C189.362 22.7986 189.359 22.8445 189.355 22.8947C189.214 23.0125 189.078 23.1313 188.933 23.248C188.379 23.6928 187.797 24.0936 187.187 24.4511C186.577 24.8086 185.943 25.1024 185.286 25.3327C184.627 25.563 183.953 25.702 183.263 25.7495L184.756 9.93136C184.852 9.5977 184.804 9.30428 184.612 9.0501C184.419 8.79593 184.17 8.62124 183.865 8.52604C183.56 8.43055 183.235 8.43867 182.89 8.54963C182.545 8.66113 182.26 8.91531 182.036 9.31181C181.923 9.91566 181.807 10.7413 181.687 11.7894C181.566 12.8375 181.446 13.9812 181.326 15.22C181.205 16.4588 181.085 17.7372 180.965 19.0552C180.845 20.3738 180.74 21.6045 180.652 22.7478C180.65 22.7707 180.648 22.7916 180.646 22.8146C180.394 22.9303 180.119 23.0319 179.821 23.1171C179.516 23.2047 179.171 23.2564 178.786 23.2722C178.85 22.9859 178.902 22.6683 178.942 22.3189C178.982 21.9699 179.015 21.6045 179.039 21.223C179.063 20.8423 179.071 20.4609 179.063 20.0797C179.055 19.6983 179.034 19.3493 179.003 19.0313C178.922 18.3489 178.774 17.7015 178.557 17.0899C178.341 16.4787 178.048 15.9668 177.679 15.5533C177.309 15.1405 176.848 14.8625 176.294 14.7198C175.741 14.5768 175.094 14.6243 174.357 14.8625C173.265 14.7198 172.282 14.8192 171.407 15.1604C170.533 15.5023 169.774 15.9982 169.132 16.6492C168.491 17.3008 167.965 18.0666 167.556 18.9482C167.147 19.8295 166.873 20.735 166.737 21.6637C166.68 22.0575 166.651 22.4495 166.643 22.8406C166.394 23.3441 166.122 23.7841 165.822 24.1534C165.397 24.6775 164.956 25.1063 164.498 25.4397C164.041 25.7733 163.588 26.0275 163.139 26.2022C162.689 26.3772 162.288 26.4962 161.935 26.5594C161.517 26.6389 161.116 26.647 160.731 26.5833C160.346 26.5201 159.992 26.3373 159.672 26.0354C159.415 25.8132 159.218 25.4557 159.082 24.9634C158.946 24.4711 158.866 23.9117 158.842 23.2839C158.818 22.6565 158.842 22.0013 158.913 21.3185C158.986 20.6359 159.11 19.9885 159.286 19.3771C159.463 18.7657 159.687 18.2178 159.961 17.733C160.233 17.2491 160.554 16.9034 160.924 16.697C161.132 16.729 161.261 16.8517 161.309 17.066C161.357 17.2806 161.369 17.5347 161.345 17.8285C161.321 18.1225 161.285 18.4242 161.237 18.7337C161.188 19.0434 161.164 19.3018 161.164 19.5079C161.245 19.9368 161.401 20.2705 161.634 20.5086C161.866 20.7468 162.127 20.8861 162.416 20.9254C162.705 20.9653 162.99 20.8979 163.271 20.7229C163.551 20.5485 163.78 20.2705 163.957 19.889C163.973 19.905 163.997 19.9129 164.029 19.9129L164.366 16.8877C164.462 16.4745 164.398 16.1094 164.174 15.7918C163.949 15.4742 163.652 15.2913 163.283 15.2439C162.817 14.5768 162.187 14.2236 161.393 14.1837C160.599 14.1441 159.784 14.4021 158.95 14.958C158.436 15.3237 157.983 15.8275 157.589 16.4706C157.196 17.114 156.875 17.8285 156.627 18.6146C156.377 19.4006 156.201 20.2309 156.097 21.1043C155.993 21.9777 155.973 22.8276 156.036 23.6529C156.101 24.4792 156.249 25.2574 156.482 25.9876C156.715 26.7184 157.04 27.3298 157.457 27.8218C157.81 28.2507 158.211 28.5647 158.66 28.7632C159.11 28.9618 159.579 29.0845 160.069 29.1323C160.558 29.1797 161.044 29.1598 161.525 29.0727C162.007 28.9857 162.464 28.8627 162.898 28.7034C163.459 28.4973 164.037 28.2349 164.631 27.9173C165.224 27.6 165.794 27.2186 166.34 26.7737C166.627 26.5398 166.903 26.2847 167.171 26.0112C167.292 26.3098 167.428 26.5987 167.592 26.8692C168.025 27.5837 168.611 28.1636 169.349 28.6082C170.087 29.0528 170.994 29.2667 172.069 29.2513C173.225 29.2353 174.292 28.9458 175.271 28.3818C176.25 27.8185 177.053 26.988 177.679 25.8924C178.616 25.8924 179.539 25.7395 180.445 25.4358C180.438 25.5319 180.43 25.6331 180.423 25.7259C180.359 26.5676 180.326 27.1391 180.326 27.441C180.311 27.965 180.275 28.6121 180.218 29.3822C180.162 30.1525 180.126 30.9625 180.11 31.8119C180.094 32.6616 180.126 33.5194 180.206 34.3851C180.287 35.2503 180.455 36.0367 180.712 36.7438C180.968 37.4499 181.333 38.0498 181.807 38.5425C182.28 39.0342 182.902 39.3284 183.673 39.4237C184.491 39.5344 185.197 39.3918 185.791 38.9948C186.385 38.5974 186.866 38.0538 187.236 37.3632C187.605 36.672 187.865 35.8741 188.018 34.969C188.17 34.0634 188.214 33.1543 188.151 32.2408C188.086 31.3276 187.917 30.4663 187.645 29.6566C187.372 28.8464 186.994 28.1793 186.513 27.655C186.803 27.5761 187.147 27.4253 187.549 27.2026C187.949 26.9804 188.363 26.7302 188.788 26.4521C188.893 26.3838 188.996 26.3119 189.1 26.2418C189.061 26.8045 189.041 27.2059 189.041 27.441C189.025 27.965 188.989 28.6121 188.933 29.3822C188.877 30.1525 188.841 30.9625 188.825 31.8119C188.808 32.6616 188.841 33.5194 188.921 34.3851C189.001 35.2503 189.17 36.0367 189.426 36.7438C189.683 37.4499 190.048 38.0498 190.521 38.5425C190.995 39.0342 191.617 39.3284 192.388 39.4237C193.205 39.5344 193.911 39.3918 194.505 38.9948C195.099 38.5974 195.581 38.0538 195.95 37.3632C196.319 36.672 196.58 35.8741 196.732 34.969C196.885 34.0634 196.929 33.1543 196.865 32.2408C196.801 31.3276 196.632 30.4663 196.36 29.6566C196.086 28.8464 195.709 28.1793 195.227 27.655C195.517 27.5761 195.862 27.4253 196.263 27.2026C196.664 26.9804 197.077 26.7302 197.503 26.4521C197.724 26.3077 197.943 26.1587 198.163 26.0054C198.245 26.7821 198.423 27.4634 198.706 28.0364C199.052 28.7355 199.52 29.2752 200.114 29.6566C200.708 30.0374 201.406 30.248 202.209 30.2876C203.012 30.3269 203.886 30.1804 204.833 29.8467C205.539 29.5928 206.153 29.2752 206.675 28.8941C207.196 28.5127 207.665 28.0482 208.083 27.5005C208.107 27.4688 208.13 27.4344 208.153 27.4023C208.228 27.6248 208.31 27.8384 208.408 28.0364C208.753 28.7355 209.223 29.2752 209.816 29.6566C210.41 30.0374 211.108 30.248 211.911 30.2876C212.713 30.3269 213.588 30.1804 214.535 29.8467C215.241 29.5928 215.855 29.2752 216.376 28.8941C216.897 28.5127 217.367 28.0482 217.785 27.5005C218.202 26.9523 218.583 26.321 218.928 25.6065C219.273 24.8918 219.622 24.0742 219.975 23.1528C220.039 22.8989 219.979 22.6725 219.795 22.474Z"
  />
</svg>
