<svg
  viewBox="0 0 208 39"
  xmlns="http://www.w3.org/2000/svg"
>
  <g clip-path="url(#clip0_453_52)">
    <path
      d="M5.72 34C4.04 34 2.66667 33.2133 1.6 31.64C0.53333 30.0667 0 27.9067 0 25.16C0 22.6533 0.346667 20.1867 1.04 17.76C1.73333 15.3067 2.70667 13.1067 3.96 11.16C5.21333 9.2133 6.69333 7.65333 8.4 6.48C10.1333 5.28 12.04 4.68 14.12 4.68C15.4267 4.68 16.5467 5.18667 17.48 6.2C18.4133 7.21333 18.88 8.5733 18.88 10.28V10.76C18.88 10.8667 18.88 10.96 18.88 11.04C18.88 11.12 18.8667 11.2133 18.84 11.32L13.6 12.72C13.28 12.0533 12.9067 11.72 12.48 11.72C11.84 11.72 11.16 12.24 10.44 13.28C9.7467 14.32 9.08 15.56 8.44 17C8.01333 17.96 7.62667 18.9467 7.28 19.96C6.96 20.9733 6.70667 21.92 6.52 22.8C6.33333 23.68 6.24 24.4 6.24 24.96C6.24 25.7867 6.36 26.3867 6.6 26.76C6.78667 27.1067 7.08 27.28 7.48 27.28C7.88 27.28 8.32 27.0933 8.8 26.72C9.28 26.32 9.72 25.8267 10.12 25.24C10.5467 24.6533 10.8267 24.0667 10.96 23.48L15.52 25.32C14.2133 28.3067 12.6533 30.5067 10.84 31.92C9.05333 33.3067 7.34667 34 5.72 34ZM22.2425 34.08C20.4825 34.08 19.0425 33.4 17.9225 32.04C16.8025 30.68 16.2425 28.6267 16.2425 25.88C16.2425 24.36 16.4292 22.76 16.8025 21.08C17.1758 19.4 17.6958 17.7467 18.3625 16.12C19.0292 14.4933 19.8025 12.9867 20.6825 11.6C22.0958 9.36 23.7225 7.53333 25.5625 6.12C27.4025 4.70667 29.3358 4 31.3625 4C32.9625 4 34.1892 4.41333 35.0425 5.24C35.9225 6.04 36.5358 7.08 36.8825 8.36C37.2292 9.6133 37.4025 10.92 37.4025 12.28C37.4025 15.4533 36.9092 18.4133 35.9225 21.16C34.9625 23.88 33.7092 26.1867 32.1625 28.08C30.6158 30.0267 28.9625 31.52 27.2025 32.56C25.4692 33.5733 23.8158 34.08 22.2425 34.08ZM24.4025 27.48C25.6025 27.48 26.6558 27.08 27.5625 26.28C28.4958 25.48 29.2825 24.4667 29.9225 23.24C30.5625 21.9867 31.0425 20.68 31.3625 19.32C31.6825 17.96 31.8425 16.7333 31.8425 15.64C31.8425 15.2133 31.8025 14.76 31.7225 14.28C31.6425 13.7733 31.4692 13.3333 31.2025 12.96C30.9358 12.5867 30.5225 12.4 29.9625 12.4C28.7358 12.4 27.6292 12.8533 26.6425 13.76C25.6558 14.64 24.8292 15.76 24.1625 17.12C23.4958 18.5067 23.0025 19.8667 22.6825 21.2C22.3625 22.5333 22.2025 23.7467 22.2025 24.84C22.2025 25.4 22.4025 25.9867 22.8025 26.6C23.2025 27.1867 23.7358 27.48 24.4025 27.48ZM37.1291 34.12C36.7557 34.12 36.3824 34.0933 36.0091 34.04C35.6357 34.0133 35.2624 33.9733 34.8891 33.92L37.0091 23.16C37.2757 21.6933 37.5557 20.1467 37.8491 18.52C38.1691 16.8667 38.4757 15.24 38.7691 13.64C39.0624 12.0133 39.3157 10.5067 39.5291 9.12C39.7691 7.73333 39.9557 6.56 40.0891 5.6C41.2357 5.38667 42.3957 5.18667 43.5691 5C44.7424 4.81333 45.9424 4.72 47.1691 4.72C49.1424 4.72 50.7024 5.13333 51.8491 5.96C52.9957 6.76 53.8224 7.82667 54.3291 9.16C54.8357 10.4667 55.0891 11.9067 55.0891 13.48C55.0891 14.8933 54.8891 16.3867 54.4891 17.96C54.0891 19.5067 53.5157 21.0533 52.7691 22.6C52.0491 24.12 51.1824 25.56 50.1691 26.92C48.5957 29.0267 46.6757 30.76 44.4091 32.12C42.1691 33.4533 39.7424 34.12 37.1291 34.12ZM41.8891 29.08C42.8224 28.4667 43.7024 27.5333 44.5291 26.28C45.3824 25.0267 46.1824 23.52 46.9291 21.76C47.5957 20.1333 48.1157 18.6 48.4891 17.16C48.8624 15.6933 49.0491 14.48 49.0491 13.52C49.0491 12.5333 48.7691 11.76 48.2091 11.2C47.6757 10.64 46.8224 10.36 45.6491 10.36C45.2224 12.6533 44.7824 14.7733 44.3291 16.72C43.9024 18.6667 43.4757 20.6267 43.0491 22.6C42.6491 24.5733 42.2624 26.7333 41.8891 29.08ZM52.7053 33.96L57.9453 5.52L70.5853 4.44C70.3986 5.02667 70.2386 5.62667 70.1053 6.24C69.972 6.74667 69.8386 7.28 69.7053 7.84C69.5986 8.3733 69.5053 8.8533 69.4253 9.28C69.0786 9.3067 68.5853 9.3333 67.9453 9.36C67.3053 9.36 66.652 9.3733 65.9853 9.4C65.3186 9.4 64.7453 9.4 64.2653 9.4C63.7853 9.4 63.532 9.4 63.5053 9.4L62.1053 16.56L64.4253 16.44C64.7186 16.4133 65.012 16.4 65.3053 16.4C65.6253 16.4 65.932 16.4 66.2253 16.4C66.5186 16.4 66.7853 16.4 67.0253 16.4C67.2653 16.4 67.452 16.3867 67.5853 16.36C67.532 16.7333 67.4786 17.1067 67.4253 17.48C67.3986 17.8267 67.3586 18.1867 67.3053 18.56L66.9453 20.76C66.812 20.7867 66.6386 20.8 66.4253 20.8C66.212 20.8 65.9586 20.8 65.6653 20.8C65.372 20.8267 65.0653 20.84 64.7453 20.84C64.4253 20.84 64.1186 20.8533 63.8253 20.88C63.4786 20.9067 63.1186 20.92 62.7453 20.92C62.372 20.92 61.972 20.9333 61.5453 20.96L60.1853 28.32L66.0253 27.4L65.6253 31.96L52.7053 33.96ZM75.4706 34.08L78.5106 5.68C79.124 5.65333 79.724 5.61333 80.3106 5.56C80.924 5.48 81.5106 5.38667 82.0706 5.28C82.604 5.17333 83.1506 5.09333 83.7106 5.04C84.2706 4.96 84.8173 4.90667 85.3506 4.88L85.2306 5.68C85.204 5.94667 85.1506 6.25333 85.0706 6.6C85.0173 6.92 84.964 7.29333 84.9106 7.72C84.7773 8.6533 84.6173 9.72 84.4306 10.92C84.244 12.12 84.0306 13.4533 83.7906 14.92C83.6306 15.8267 83.444 16.92 83.2306 18.2C83.044 19.48 82.8173 20.9333 82.5506 22.56H83.1506C83.4973 21.3333 83.8173 20.2133 84.1106 19.2C84.404 18.1867 84.6573 17.2933 84.8706 16.52C85.084 15.7467 85.284 15.0533 85.4706 14.44C85.684 13.8 85.8573 13.2267 85.9906 12.72C86.5506 10.7467 87.004 9.1333 87.3506 7.88C87.6973 6.62667 87.924 5.81333 88.0306 5.44H88.3906C89.084 5.44 89.804 5.38667 90.5506 5.28C91.324 5.17333 92.0173 5.05333 92.6306 4.92C92.604 5.02667 92.5506 5.46667 92.4706 6.24C92.3906 7.01333 92.2973 7.96 92.1906 9.08C92.084 10.2 91.9773 11.36 91.8706 12.56C91.684 14.8267 91.5106 16.8 91.3506 18.48C91.2173 20.16 91.0973 21.52 90.9906 22.56H91.7106L95.5106 5.36L98.1906 5C98.564 4.94667 98.9506 4.89333 99.3506 4.84C99.751 4.78667 100.164 4.73333 100.591 4.68C101.364 4.57333 102.097 4.45333 102.791 4.32C101.991 6.56 101.191 9.2 100.391 12.24C99.591 15.28 98.7906 18.36 97.9906 21.48C97.564 23.1867 97.1373 24.92 96.7106 26.68C96.3106 28.4133 95.9106 30.1867 95.5106 32L86.4706 33.52L88.2306 18.08H87.7506L83.7906 32.6L75.4706 34.08ZM98.1741 33.96L103.414 5.52L116.054 4.44C115.867 5.02667 115.707 5.62667 115.574 6.24C115.441 6.74667 115.307 7.28 115.174 7.84C115.067 8.3733 114.974 8.8533 114.894 9.28C114.547 9.3067 114.054 9.3333 113.414 9.36C112.774 9.36 112.121 9.3733 111.454 9.4C110.787 9.4 110.214 9.4 109.734 9.4C109.254 9.4 109.001 9.4 108.974 9.4L107.574 16.56L109.894 16.44C110.187 16.4133 110.481 16.4 110.774 16.4C111.094 16.4 111.401 16.4 111.694 16.4C111.987 16.4 112.254 16.4 112.494 16.4C112.734 16.4 112.921 16.3867 113.054 16.36C113.001 16.7333 112.947 17.1067 112.894 17.48C112.867 17.8267 112.827 18.1867 112.774 18.56L112.414 20.76C112.281 20.7867 112.107 20.8 111.894 20.8C111.681 20.8 111.427 20.8 111.134 20.8C110.841 20.8267 110.534 20.84 110.214 20.84C109.894 20.84 109.587 20.8533 109.294 20.88C108.947 20.9067 108.587 20.92 108.214 20.92C107.841 20.92 107.441 20.9333 107.014 20.96L105.654 28.32L111.494 27.4L111.094 31.96L98.1741 33.96ZM114.207 34.08C113.22 34.08 112.3 34 111.447 33.84C112.727 29.1733 113.74 24.48 114.487 19.76C115.26 15.0133 115.994 10.24 116.687 5.44C118.074 5.14667 119.514 4.89333 121.007 4.68C122.5 4.44 124.047 4.32 125.647 4.32C126.527 4.32 127.46 4.48 128.447 4.8C129.434 5.09333 130.26 5.64 130.927 6.44C131.62 7.21333 131.967 8.32 131.967 9.76C131.967 11.0933 131.687 12.32 131.127 13.44C130.567 14.56 129.86 15.52 129.007 16.32C128.154 17.12 127.274 17.6933 126.367 18.04C126.74 18.2267 127.18 18.56 127.687 19.04C128.194 19.52 128.634 20.16 129.007 20.96C129.38 21.76 129.567 22.7333 129.567 23.88C129.567 25.48 129.087 26.9333 128.127 28.24C127.194 29.52 125.94 30.5867 124.367 31.44C122.847 32.2933 121.207 32.9467 119.447 33.4C117.687 33.8533 115.94 34.08 114.207 34.08ZM121.327 14.76C122.154 14.6 122.94 14.3867 123.687 14.12C124.434 13.8533 125.034 13.5467 125.487 13.2C125.967 12.8533 126.207 12.48 126.207 12.08C126.207 11.5733 126.007 11.1733 125.607 10.88C125.207 10.5867 124.727 10.3733 124.167 10.24C123.607 10.1067 123.087 10.04 122.607 10.04H122.207C122.02 11.1067 121.847 12.04 121.687 12.84C121.527 13.6133 121.407 14.2533 121.327 14.76ZM119.287 26C119.82 25.9467 120.407 25.8533 121.047 25.72C121.687 25.5867 122.3 25.3867 122.887 25.12C123.474 24.8267 123.954 24.4533 124.327 24C124.727 23.52 124.927 22.9467 124.927 22.28C124.927 21.64 124.714 21.1333 124.287 20.76C123.86 20.3867 123.34 20.12 122.727 19.96C122.14 19.7733 121.58 19.68 121.047 19.68H120.727C120.594 19.68 120.487 19.6933 120.407 19.72C120.247 20.7067 120.06 21.7467 119.847 22.84C119.634 23.9333 119.447 24.9867 119.287 26ZM143.689 34C142.009 34 140.635 33.2133 139.569 31.64C138.502 30.0667 137.969 27.9067 137.969 25.16C137.969 22.6533 138.315 20.1867 139.009 17.76C139.702 15.3067 140.675 13.1067 141.929 11.16C143.182 9.2133 144.662 7.65333 146.369 6.48C148.102 5.28 150.009 4.68 152.089 4.68C153.395 4.68 154.515 5.18667 155.449 6.2C156.382 7.21333 156.849 8.5733 156.849 10.28V10.76C156.849 10.8667 156.849 10.96 156.849 11.04C156.849 11.12 156.835 11.2133 156.809 11.32L151.569 12.72C151.249 12.0533 150.875 11.72 150.449 11.72C149.809 11.72 149.129 12.24 148.409 13.28C147.715 14.32 147.049 15.56 146.409 17C145.982 17.96 145.595 18.9467 145.249 19.96C144.929 20.9733 144.675 21.92 144.489 22.8C144.302 23.68 144.209 24.4 144.209 24.96C144.209 25.7867 144.329 26.3867 144.569 26.76C144.755 27.1067 145.049 27.28 145.449 27.28C145.849 27.28 146.289 27.0933 146.769 26.72C147.249 26.32 147.689 25.8267 148.089 25.24C148.515 24.6533 148.795 24.0667 148.929 23.48L153.489 25.32C152.182 28.3067 150.622 30.5067 148.809 31.92C147.022 33.3067 145.315 34 143.689 34ZM153.291 34C154.065 30.2667 154.785 26.6267 155.451 23.08C155.825 20.92 156.198 18.7333 156.571 16.52C156.971 14.3067 157.331 12.1867 157.651 10.16C157.971 8.1333 158.211 6.32 158.371 4.72C159.091 4.74667 159.678 4.78667 160.131 4.84C160.611 4.86667 161.051 4.89333 161.451 4.92C161.878 4.94667 162.345 4.97333 162.851 5C163.385 5 164.051 5 164.851 5C164.398 6.89333 163.945 8.7867 163.491 10.68C163.065 12.5733 162.665 14.48 162.291 16.4L166.251 15.96C166.438 15.0267 166.611 14.1067 166.771 13.2C166.958 12.2667 167.118 11.3467 167.251 10.44C167.385 9.56 167.545 8.6667 167.731 7.76C167.945 6.82667 168.171 5.89333 168.411 4.96C169.371 4.8 170.345 4.68 171.331 4.6C172.318 4.49333 173.145 4.42666 173.811 4.4C174.478 4.34667 174.811 4.32 174.811 4.32C174.465 5.38667 174.118 6.64 173.771 8.08C173.425 9.52 173.091 11.04 172.771 12.64C172.451 14.24 172.145 15.84 171.851 17.44C171.558 19.0133 171.291 20.48 171.051 21.84C170.758 23.5467 170.478 25.2667 170.211 27C169.945 28.7067 169.678 30.4533 169.411 32.24L163.171 32.96C163.358 32.16 163.518 31.3733 163.651 30.6C163.811 29.8 163.958 29.0267 164.091 28.28C164.358 27 164.625 25.6667 164.891 24.28C165.185 22.8933 165.411 21.7067 165.571 20.72L161.691 21.08C161.585 21.5867 161.478 22.1333 161.371 22.72C161.291 23.3067 161.185 23.9333 161.051 24.6C160.918 25.2667 160.785 25.92 160.651 26.56C160.545 27.1733 160.438 27.7867 160.331 28.4C160.198 29.12 160.051 29.84 159.891 30.56C159.731 31.28 159.585 32 159.451 32.72L153.291 34ZM180.988 33.84C181.041 33.3867 181.094 32.9467 181.148 32.52C181.201 32.0933 181.254 31.6667 181.308 31.24L181.548 29C181.574 28.6267 181.601 28.28 181.628 27.96C181.654 27.64 181.681 27.3467 181.708 27.08H178.228L176.628 32.84C176.041 32.92 175.348 33.0133 174.548 33.12C173.748 33.2 173.001 33.28 172.308 33.36C171.881 33.4133 171.454 33.4667 171.028 33.52C170.628 33.5733 170.214 33.6267 169.787 33.68L172.948 23.2C173.321 21.9467 173.748 20.52 174.228 18.92C174.708 17.32 175.188 15.68 175.668 14C176.174 12.32 176.641 10.7467 177.068 9.28C177.521 7.78666 177.881 6.53333 178.148 5.52C179.961 5.38667 181.801 5.22666 183.668 5.04C185.561 4.85333 187.401 4.6 189.188 4.28C189.054 5.77333 188.921 7.46666 188.788 9.36C188.681 11.2267 188.574 13.16 188.468 15.16C188.388 17.16 188.294 19.1333 188.188 21.08C188.134 22.92 188.068 24.8267 187.988 26.8C187.908 28.7467 187.828 30.7467 187.748 32.8C187.348 32.8533 186.948 32.9067 186.548 32.96C186.148 33.0133 185.748 33.0667 185.348 33.12C184.681 33.2267 183.948 33.3467 183.148 33.48C182.348 33.6133 181.628 33.7333 180.988 33.84ZM179.188 23.08C179.348 23.08 179.641 23.0667 180.068 23.04C180.521 23.0133 180.948 22.9867 181.348 22.96C181.748 22.9333 181.988 22.92 182.068 22.92C182.068 22.5733 182.121 21.8667 182.228 20.8C182.334 19.7333 182.441 18.6133 182.548 17.44C182.601 16.7467 182.654 16.04 182.708 15.32C182.788 14.5733 182.868 13.8133 182.948 13.04L183.188 9.56L182.588 9.6L181.668 13.04L179.188 23.08ZM191.532 33.96C191.826 32.4933 192.119 31.04 192.412 29.6C192.732 28.1333 193.026 26.6933 193.292 25.28C194.306 20.2133 195.132 15.36 195.772 10.72C195.479 10.6667 195.172 10.64 194.852 10.64C194.532 10.6133 194.226 10.6133 193.932 10.64C193.292 10.6933 192.666 10.6133 192.052 10.4C192.079 10.1867 192.092 9.96 192.092 9.72C192.092 9.4533 192.092 9.1867 192.092 8.92C192.092 8.6267 192.092 8.3467 192.092 8.08C192.092 7.78667 192.106 7.50667 192.132 7.24C192.159 6.94667 192.172 6.64 192.172 6.32C192.172 5.97333 192.186 5.62667 192.212 5.28C192.906 5.33333 193.599 5.37333 194.292 5.4C194.986 5.42667 195.679 5.44 196.372 5.44C198.346 5.44 200.226 5.37333 202.012 5.24C203.826 5.10666 205.492 4.94666 207.012 4.76L206.572 6.92L206.212 8.8C206.079 9.4933 205.959 10.04 205.852 10.44C205.559 10.52 205.266 10.5867 204.972 10.64C204.679 10.6933 204.386 10.7333 204.092 10.76C203.799 10.7867 203.492 10.8267 203.172 10.88C202.879 10.9333 202.586 10.9867 202.292 11.04C201.892 13.0133 201.559 14.72 201.292 16.16C201.052 17.6 200.826 18.9867 200.612 20.32C200.426 21.6267 200.199 23.0667 199.932 24.64C199.479 27.3333 199.079 30.0667 198.732 32.84L191.532 33.96Z"
    />
  </g>
  <defs>
    <clipPath id="clip0_453_52">
      <rect width="207.012" height="38.12"  />
    </clipPath>
  </defs>
</svg>
