<svg
  viewBox="0 0 208 41"
  xmlns="http://www.w3.org/2000/svg"
>
  <path
    d="M5.72 35C4.04 35 2.66667 34.2133 1.6 32.64C0.53333 31.0667 0 28.9067 0 26.16C0 23.6533 0.346667 21.1867 1.04 18.76C1.73333 16.3067 2.70667 14.1067 3.96 12.16C5.21333 10.2133 6.69333 8.65333 8.4 7.48C10.1333 6.28 12.04 5.68 14.12 5.68C15.4267 5.68 16.5467 6.18667 17.48 7.2C18.4133 8.21333 18.88 9.5733 18.88 11.28V11.76C18.88 11.8667 18.88 11.96 18.88 12.04C18.88 12.12 18.8667 12.2133 18.84 12.32L13.6 13.72C13.28 13.0533 12.9067 12.72 12.48 12.72C11.84 12.72 11.16 13.24 10.44 14.28C9.7467 15.32 9.08 16.56 8.44 18C8.01333 18.96 7.62667 19.9467 7.28 20.96C6.96 21.9733 6.70667 22.92 6.52 23.8C6.33333 24.68 6.24 25.4 6.24 25.96C6.24 26.7867 6.36 27.3867 6.6 27.76C6.78667 28.1067 7.08 28.28 7.48 28.28C7.88 28.28 8.32 28.0933 8.8 27.72C9.28 27.32 9.72 26.8267 10.12 26.24C10.5467 25.6533 10.8267 25.0667 10.96 24.48L15.52 26.32C14.2133 29.3067 12.6533 31.5067 10.84 32.92C9.05333 34.3067 7.34667 35 5.72 35ZM22.2425 35.08C20.4825 35.08 19.0425 34.4 17.9225 33.04C16.8025 31.68 16.2425 29.6267 16.2425 26.88C16.2425 25.36 16.4292 23.76 16.8025 22.08C17.1758 20.4 17.6958 18.7467 18.3625 17.12C19.0292 15.4933 19.8025 13.9867 20.6825 12.6C22.0958 10.36 23.7225 8.53333 25.5625 7.12C27.4025 5.70667 29.3358 5 31.3625 5C32.9625 5 34.1892 5.41333 35.0425 6.24C35.9225 7.04 36.5358 8.08 36.8825 9.36C37.2292 10.6133 37.4025 11.92 37.4025 13.28C37.4025 16.4533 36.9092 19.4133 35.9225 22.16C34.9625 24.88 33.7092 27.1867 32.1625 29.08C30.6158 31.0267 28.9625 32.52 27.2025 33.56C25.4692 34.5733 23.8158 35.08 22.2425 35.08ZM24.4025 28.48C25.6025 28.48 26.6558 28.08 27.5625 27.28C28.4958 26.48 29.2825 25.4667 29.9225 24.24C30.5625 22.9867 31.0425 21.68 31.3625 20.32C31.6825 18.96 31.8425 17.7333 31.8425 16.64C31.8425 16.2133 31.8025 15.76 31.7225 15.28C31.6425 14.7733 31.4692 14.3333 31.2025 13.96C30.9358 13.5867 30.5225 13.4 29.9625 13.4C28.7358 13.4 27.6292 13.8533 26.6425 14.76C25.6558 15.64 24.8292 16.76 24.1625 18.12C23.4958 19.5067 23.0025 20.8667 22.6825 22.2C22.3625 23.5333 22.2025 24.7467 22.2025 25.84C22.2025 26.4 22.4025 26.9867 22.8025 27.6C23.2025 28.1867 23.7358 28.48 24.4025 28.48ZM37.1291 35.12C36.7557 35.12 36.3824 35.0933 36.0091 35.04C35.6357 35.0133 35.2624 34.9733 34.8891 34.92L37.0091 24.16C37.2757 22.6933 37.5557 21.1467 37.8491 19.52C38.1691 17.8667 38.4757 16.24 38.7691 14.64C39.0624 13.0133 39.3157 11.5067 39.5291 10.12C39.7691 8.73333 39.9557 7.56 40.0891 6.6C41.2357 6.38667 42.3957 6.18667 43.5691 6C44.7424 5.81333 45.9424 5.72 47.1691 5.72C49.1424 5.72 50.7024 6.13333 51.8491 6.96C52.9957 7.76 53.8224 8.82667 54.3291 10.16C54.8357 11.4667 55.0891 12.9067 55.0891 14.48C55.0891 15.8933 54.8891 17.3867 54.4891 18.96C54.0891 20.5067 53.5157 22.0533 52.7691 23.6C52.0491 25.12 51.1824 26.56 50.1691 27.92C48.5957 30.0267 46.6757 31.76 44.4091 33.12C42.1691 34.4533 39.7424 35.12 37.1291 35.12ZM41.8891 30.08C42.8224 29.4667 43.7024 28.5333 44.5291 27.28C45.3824 26.0267 46.1824 24.52 46.9291 22.76C47.5957 21.1333 48.1157 19.6 48.4891 18.16C48.8624 16.6933 49.0491 15.48 49.0491 14.52C49.0491 13.5333 48.7691 12.76 48.2091 12.2C47.6757 11.64 46.8224 11.36 45.6491 11.36C45.2224 13.6533 44.7824 15.7733 44.3291 17.72C43.9024 19.6667 43.4757 21.6267 43.0491 23.6C42.6491 25.5733 42.2624 27.7333 41.8891 30.08ZM52.7053 34.96L57.9453 6.52L70.5853 5.44C70.3986 6.02667 70.2386 6.62667 70.1053 7.24C69.972 7.74667 69.8386 8.28 69.7053 8.84C69.5986 9.3733 69.5053 9.8533 69.4253 10.28C69.0786 10.3067 68.5853 10.3333 67.9453 10.36C67.3053 10.36 66.652 10.3733 65.9853 10.4C65.3186 10.4 64.7453 10.4 64.2653 10.4C63.7853 10.4 63.532 10.4 63.5053 10.4L62.1053 17.56L64.4253 17.44C64.7186 17.4133 65.012 17.4 65.3053 17.4C65.6253 17.4 65.932 17.4 66.2253 17.4C66.5186 17.4 66.7853 17.4 67.0253 17.4C67.2653 17.4 67.452 17.3867 67.5853 17.36C67.532 17.7333 67.4786 18.1067 67.4253 18.48C67.3986 18.8267 67.3586 19.1867 67.3053 19.56L66.9453 21.76C66.812 21.7867 66.6386 21.8 66.4253 21.8C66.212 21.8 65.9586 21.8 65.6653 21.8C65.372 21.8267 65.0653 21.84 64.7453 21.84C64.4253 21.84 64.1186 21.8533 63.8253 21.88C63.4786 21.9067 63.1186 21.92 62.7453 21.92C62.372 21.92 61.972 21.9333 61.5453 21.96L60.1853 29.32L66.0253 28.4L65.6253 32.96L52.7053 34.96ZM75.4706 35.08L78.5106 6.68C79.124 6.65333 79.724 6.61333 80.3106 6.56C80.924 6.48 81.5106 6.38667 82.0706 6.28C82.604 6.17333 83.1506 6.09333 83.7106 6.04C84.2706 5.96 84.8173 5.90667 85.3506 5.88L85.2306 6.68C85.204 6.94667 85.1506 7.25333 85.0706 7.6C85.0173 7.92 84.964 8.29333 84.9106 8.72C84.7773 9.6533 84.6173 10.72 84.4306 11.92C84.244 13.12 84.0306 14.4533 83.7906 15.92C83.6306 16.8267 83.444 17.92 83.2306 19.2C83.044 20.48 82.8173 21.9333 82.5506 23.56H83.1506C83.4973 22.3333 83.8173 21.2133 84.1106 20.2C84.404 19.1867 84.6573 18.2933 84.8706 17.52C85.084 16.7467 85.284 16.0533 85.4706 15.44C85.684 14.8 85.8573 14.2267 85.9906 13.72C86.5506 11.7467 87.004 10.1333 87.3506 8.88C87.6973 7.62667 87.924 6.81333 88.0306 6.44H88.3906C89.084 6.44 89.804 6.38667 90.5506 6.28C91.324 6.17333 92.0173 6.05333 92.6306 5.92C92.604 6.02667 92.5506 6.46667 92.4706 7.24C92.3906 8.01333 92.2973 8.96 92.1906 10.08C92.084 11.2 91.9773 12.36 91.8706 13.56C91.684 15.8267 91.5106 17.8 91.3506 19.48C91.2173 21.16 91.0973 22.52 90.9906 23.56H91.7106L95.5106 6.36L98.1906 6C98.564 5.94667 98.9506 5.89333 99.3506 5.84C99.751 5.78667 100.164 5.73333 100.591 5.68C101.364 5.57333 102.097 5.45333 102.791 5.32C101.991 7.56 101.191 10.2 100.391 13.24C99.591 16.28 98.7906 19.36 97.9906 22.48C97.564 24.1867 97.1373 25.92 96.7106 27.68C96.3106 29.4133 95.9106 31.1867 95.5106 33L86.4706 34.52L88.2306 19.08H87.7506L83.7906 33.6L75.4706 35.08ZM98.1741 34.96L103.414 6.52L116.054 5.44C115.867 6.02667 115.707 6.62667 115.574 7.24C115.441 7.74667 115.307 8.28 115.174 8.84C115.067 9.3733 114.974 9.8533 114.894 10.28C114.547 10.3067 114.054 10.3333 113.414 10.36C112.774 10.36 112.121 10.3733 111.454 10.4C110.787 10.4 110.214 10.4 109.734 10.4C109.254 10.4 109.001 10.4 108.974 10.4L107.574 17.56L109.894 17.44C110.187 17.4133 110.481 17.4 110.774 17.4C111.094 17.4 111.401 17.4 111.694 17.4C111.987 17.4 112.254 17.4 112.494 17.4C112.734 17.4 112.921 17.3867 113.054 17.36C113.001 17.7333 112.947 18.1067 112.894 18.48C112.867 18.8267 112.827 19.1867 112.774 19.56L112.414 21.76C112.281 21.7867 112.107 21.8 111.894 21.8C111.681 21.8 111.427 21.8 111.134 21.8C110.841 21.8267 110.534 21.84 110.214 21.84C109.894 21.84 109.587 21.8533 109.294 21.88C108.947 21.9067 108.587 21.92 108.214 21.92C107.841 21.92 107.441 21.9333 107.014 21.96L105.654 29.32L111.494 28.4L111.094 32.96L98.1741 34.96ZM114.207 35.08C113.22 35.08 112.3 35 111.447 34.84C112.727 30.1733 113.74 25.48 114.487 20.76C115.26 16.0133 115.994 11.24 116.687 6.44C118.074 6.14667 119.514 5.89333 121.007 5.68C122.5 5.44 124.047 5.32 125.647 5.32C126.527 5.32 127.46 5.48 128.447 5.8C129.434 6.09333 130.26 6.64 130.927 7.44C131.62 8.21333 131.967 9.32 131.967 10.76C131.967 12.0933 131.687 13.32 131.127 14.44C130.567 15.56 129.86 16.52 129.007 17.32C128.154 18.12 127.274 18.6933 126.367 19.04C126.74 19.2267 127.18 19.56 127.687 20.04C128.194 20.52 128.634 21.16 129.007 21.96C129.38 22.76 129.567 23.7333 129.567 24.88C129.567 26.48 129.087 27.9333 128.127 29.24C127.194 30.52 125.94 31.5867 124.367 32.44C122.847 33.2933 121.207 33.9467 119.447 34.4C117.687 34.8533 115.94 35.08 114.207 35.08ZM121.327 15.76C122.154 15.6 122.94 15.3867 123.687 15.12C124.434 14.8533 125.034 14.5467 125.487 14.2C125.967 13.8533 126.207 13.48 126.207 13.08C126.207 12.5733 126.007 12.1733 125.607 11.88C125.207 11.5867 124.727 11.3733 124.167 11.24C123.607 11.1067 123.087 11.04 122.607 11.04H122.207C122.02 12.1067 121.847 13.04 121.687 13.84C121.527 14.6133 121.407 15.2533 121.327 15.76ZM119.287 27C119.82 26.9467 120.407 26.8533 121.047 26.72C121.687 26.5867 122.3 26.3867 122.887 26.12C123.474 25.8267 123.954 25.4533 124.327 25C124.727 24.52 124.927 23.9467 124.927 23.28C124.927 22.64 124.714 22.1333 124.287 21.76C123.86 21.3867 123.34 21.12 122.727 20.96C122.14 20.7733 121.58 20.68 121.047 20.68H120.727C120.594 20.68 120.487 20.6933 120.407 20.72C120.247 21.7067 120.06 22.7467 119.847 23.84C119.634 24.9333 119.447 25.9867 119.287 27ZM143.689 35C142.009 35 140.635 34.2133 139.569 32.64C138.502 31.0667 137.969 28.9067 137.969 26.16C137.969 23.6533 138.315 21.1867 139.009 18.76C139.702 16.3067 140.675 14.1067 141.929 12.16C143.182 10.2133 144.662 8.65333 146.369 7.48C148.102 6.28 150.009 5.68 152.089 5.68C153.395 5.68 154.515 6.18667 155.449 7.2C156.382 8.21333 156.849 9.5733 156.849 11.28V11.76C156.849 11.8667 156.849 11.96 156.849 12.04C156.849 12.12 156.835 12.2133 156.809 12.32L151.569 13.72C151.249 13.0533 150.875 12.72 150.449 12.72C149.809 12.72 149.129 13.24 148.409 14.28C147.715 15.32 147.049 16.56 146.409 18C145.982 18.96 145.595 19.9467 145.249 20.96C144.929 21.9733 144.675 22.92 144.489 23.8C144.302 24.68 144.209 25.4 144.209 25.96C144.209 26.7867 144.329 27.3867 144.569 27.76C144.755 28.1067 145.049 28.28 145.449 28.28C145.849 28.28 146.289 28.0933 146.769 27.72C147.249 27.32 147.689 26.8267 148.089 26.24C148.515 25.6533 148.795 25.0667 148.929 24.48L153.489 26.32C152.182 29.3067 150.622 31.5067 148.809 32.92C147.022 34.3067 145.315 35 143.689 35ZM153.291 35C154.065 31.2667 154.785 27.6267 155.451 24.08C155.825 21.92 156.198 19.7333 156.571 17.52C156.971 15.3067 157.331 13.1867 157.651 11.16C157.971 9.1333 158.211 7.32 158.371 5.72C159.091 5.74667 159.678 5.78667 160.131 5.84C160.611 5.86667 161.051 5.89333 161.451 5.92C161.878 5.94667 162.345 5.97333 162.851 6C163.385 6 164.051 6 164.851 6C164.398 7.89333 163.945 9.7867 163.491 11.68C163.065 13.5733 162.665 15.48 162.291 17.4L166.251 16.96C166.438 16.0267 166.611 15.1067 166.771 14.2C166.958 13.2667 167.118 12.3467 167.251 11.44C167.385 10.56 167.545 9.6667 167.731 8.76C167.945 7.82667 168.171 6.89333 168.411 5.96C169.371 5.8 170.345 5.68 171.331 5.6C172.318 5.49333 173.145 5.42666 173.811 5.4C174.478 5.34667 174.811 5.32 174.811 5.32C174.465 6.38667 174.118 7.64 173.771 9.08C173.425 10.52 173.091 12.04 172.771 13.64C172.451 15.24 172.145 16.84 171.851 18.44C171.558 20.0133 171.291 21.48 171.051 22.84C170.758 24.5467 170.478 26.2667 170.211 28C169.945 29.7067 169.678 31.4533 169.411 33.24L163.171 33.96C163.358 33.16 163.518 32.3733 163.651 31.6C163.811 30.8 163.958 30.0267 164.091 29.28C164.358 28 164.625 26.6667 164.891 25.28C165.185 23.8933 165.411 22.7067 165.571 21.72L161.691 22.08C161.585 22.5867 161.478 23.1333 161.371 23.72C161.291 24.3067 161.185 24.9333 161.051 25.6C160.918 26.2667 160.785 26.92 160.651 27.56C160.545 28.1733 160.438 28.7867 160.331 29.4C160.198 30.12 160.051 30.84 159.891 31.56C159.731 32.28 159.585 33 159.451 33.72L153.291 35ZM180.988 34.84C181.041 34.3867 181.094 33.9467 181.148 33.52C181.201 33.0933 181.254 32.6667 181.308 32.24L181.548 30C181.574 29.6267 181.601 29.28 181.628 28.96C181.654 28.64 181.681 28.3467 181.708 28.08H178.228L176.628 33.84C176.041 33.92 175.348 34.0133 174.548 34.12C173.748 34.2 173.001 34.28 172.308 34.36C171.881 34.4133 171.454 34.4667 171.028 34.52C170.628 34.5733 170.214 34.6267 169.787 34.68L172.948 24.2C173.321 22.9467 173.748 21.52 174.228 19.92C174.708 18.32 175.188 16.68 175.668 15C176.174 13.32 176.641 11.7467 177.068 10.28C177.521 8.78666 177.881 7.53333 178.148 6.52C179.961 6.38667 181.801 6.22666 183.668 6.04C185.561 5.85333 187.401 5.6 189.188 5.28C189.054 6.77333 188.921 8.46666 188.788 10.36C188.681 12.2267 188.574 14.16 188.468 16.16C188.388 18.16 188.294 20.1333 188.188 22.08C188.134 23.92 188.068 25.8267 187.988 27.8C187.908 29.7467 187.828 31.7467 187.748 33.8C187.348 33.8533 186.948 33.9067 186.548 33.96C186.148 34.0133 185.748 34.0667 185.348 34.12C184.681 34.2267 183.948 34.3467 183.148 34.48C182.348 34.6133 181.628 34.7333 180.988 34.84ZM179.188 24.08C179.348 24.08 179.641 24.0667 180.068 24.04C180.521 24.0133 180.948 23.9867 181.348 23.96C181.748 23.9333 181.988 23.92 182.068 23.92C182.068 23.5733 182.121 22.8667 182.228 21.8C182.334 20.7333 182.441 19.6133 182.548 18.44C182.601 17.7467 182.654 17.04 182.708 16.32C182.788 15.5733 182.868 14.8133 182.948 14.04L183.188 10.56L182.588 10.6L181.668 14.04L179.188 24.08ZM191.532 34.96C191.826 33.4933 192.119 32.04 192.412 30.6C192.732 29.1333 193.026 27.6933 193.292 26.28C194.306 21.2133 195.132 16.36 195.772 11.72C195.479 11.6667 195.172 11.64 194.852 11.64C194.532 11.6133 194.226 11.6133 193.932 11.64C193.292 11.6933 192.666 11.6133 192.052 11.4C192.079 11.1867 192.092 10.96 192.092 10.72C192.092 10.4533 192.092 10.1867 192.092 9.92C192.092 9.6267 192.092 9.3467 192.092 9.08C192.092 8.78667 192.106 8.50667 192.132 8.24C192.159 7.94667 192.172 7.64 192.172 7.32C192.172 6.97333 192.186 6.62667 192.212 6.28C192.906 6.33333 193.599 6.37333 194.292 6.4C194.986 6.42667 195.679 6.44 196.372 6.44C198.346 6.44 200.226 6.37333 202.012 6.24C203.826 6.10666 205.492 5.94666 207.012 5.76L206.572 7.92L206.212 9.8C206.079 10.4933 205.959 11.04 205.852 11.44C205.559 11.52 205.266 11.5867 204.972 11.64C204.679 11.6933 204.386 11.7333 204.092 11.76C203.799 11.7867 203.492 11.8267 203.172 11.88C202.879 11.9333 202.586 11.9867 202.292 12.04C201.892 14.0133 201.559 15.72 201.292 17.16C201.052 18.6 200.826 19.9867 200.612 21.32C200.426 22.6267 200.199 24.0667 199.932 25.64C199.479 28.3333 199.079 31.0667 198.732 33.84L191.532 34.96Z"
  />
</svg>
