<svg viewBox="0 0 208 43" xmlns="http://www.w3.org/2000/svg">
  <path
    d="M5.72 36C4.04 36 2.66667 35.2133 1.6 33.64C0.53333 32.0667 0 29.9067 0 27.16C0 24.6533 0.346667 22.1867 1.04 19.76C1.73333 17.3067 2.70667 15.1067 3.96 13.16C5.21333 11.2133 6.69333 9.65333 8.4 8.48C10.1333 7.28 12.04 6.68 14.12 6.68C15.4267 6.68 16.5467 7.18667 17.48 8.2C18.4133 9.21333 18.88 10.5733 18.88 12.28V12.76C18.88 12.8667 18.88 12.96 18.88 13.04C18.88 13.12 18.8667 13.2133 18.84 13.32L13.6 14.72C13.28 14.0533 12.9067 13.72 12.48 13.72C11.84 13.72 11.16 14.24 10.44 15.28C9.7467 16.32 9.08 17.56 8.44 19C8.01333 19.96 7.62667 20.9467 7.28 21.96C6.96 22.9733 6.70667 23.92 6.52 24.8C6.33333 25.68 6.24 26.4 6.24 26.96C6.24 27.7867 6.36 28.3867 6.6 28.76C6.78667 29.1067 7.08 29.28 7.48 29.28C7.88 29.28 8.32 29.0933 8.8 28.72C9.28 28.32 9.72 27.8267 10.12 27.24C10.5467 26.6533 10.8267 26.0667 10.96 25.48L15.52 27.32C14.2133 30.3067 12.6533 32.5067 10.84 33.92C9.05333 35.3067 7.34667 36 5.72 36ZM22.2425 36.08C20.4825 36.08 19.0425 35.4 17.9225 34.04C16.8025 32.68 16.2425 30.6267 16.2425 27.88C16.2425 26.36 16.4292 24.76 16.8025 23.08C17.1758 21.4 17.6958 19.7467 18.3625 18.12C19.0292 16.4933 19.8025 14.9867 20.6825 13.6C22.0958 11.36 23.7225 9.53333 25.5625 8.12C27.4025 6.70667 29.3358 6 31.3625 6C32.9625 6 34.1892 6.41333 35.0425 7.24C35.9225 8.04 36.5358 9.08 36.8825 10.36C37.2292 11.6133 37.4025 12.92 37.4025 14.28C37.4025 17.4533 36.9092 20.4133 35.9225 23.16C34.9625 25.88 33.7092 28.1867 32.1625 30.08C30.6158 32.0267 28.9625 33.52 27.2025 34.56C25.4692 35.5733 23.8158 36.08 22.2425 36.08ZM24.4025 29.48C25.6025 29.48 26.6558 29.08 27.5625 28.28C28.4958 27.48 29.2825 26.4667 29.9225 25.24C30.5625 23.9867 31.0425 22.68 31.3625 21.32C31.6825 19.96 31.8425 18.7333 31.8425 17.64C31.8425 17.2133 31.8025 16.76 31.7225 16.28C31.6425 15.7733 31.4692 15.3333 31.2025 14.96C30.9358 14.5867 30.5225 14.4 29.9625 14.4C28.7358 14.4 27.6292 14.8533 26.6425 15.76C25.6558 16.64 24.8292 17.76 24.1625 19.12C23.4958 20.5067 23.0025 21.8667 22.6825 23.2C22.3625 24.5333 22.2025 25.7467 22.2025 26.84C22.2025 27.4 22.4025 27.9867 22.8025 28.6C23.2025 29.1867 23.7358 29.48 24.4025 29.48ZM37.1291 36.12C36.7557 36.12 36.3824 36.0933 36.0091 36.04C35.6357 36.0133 35.2624 35.9733 34.8891 35.92L37.0091 25.16C37.2757 23.6933 37.5557 22.1467 37.8491 20.52C38.1691 18.8667 38.4757 17.24 38.7691 15.64C39.0624 14.0133 39.3157 12.5067 39.5291 11.12C39.7691 9.73333 39.9557 8.56 40.0891 7.6C41.2357 7.38667 42.3957 7.18667 43.5691 7C44.7424 6.81333 45.9424 6.72 47.1691 6.72C49.1424 6.72 50.7024 7.13333 51.8491 7.96C52.9957 8.76 53.8224 9.82667 54.3291 11.16C54.8357 12.4667 55.0891 13.9067 55.0891 15.48C55.0891 16.8933 54.8891 18.3867 54.4891 19.96C54.0891 21.5067 53.5157 23.0533 52.7691 24.6C52.0491 26.12 51.1824 27.56 50.1691 28.92C48.5957 31.0267 46.6757 32.76 44.4091 34.12C42.1691 35.4533 39.7424 36.12 37.1291 36.12ZM41.8891 31.08C42.8224 30.4667 43.7024 29.5333 44.5291 28.28C45.3824 27.0267 46.1824 25.52 46.9291 23.76C47.5957 22.1333 48.1157 20.6 48.4891 19.16C48.8624 17.6933 49.0491 16.48 49.0491 15.52C49.0491 14.5333 48.7691 13.76 48.2091 13.2C47.6757 12.64 46.8224 12.36 45.6491 12.36C45.2224 14.6533 44.7824 16.7733 44.3291 18.72C43.9024 20.6667 43.4757 22.6267 43.0491 24.6C42.6491 26.5733 42.2624 28.7333 41.8891 31.08ZM52.7053 35.96L57.9453 7.52L70.5853 6.44C70.3986 7.02667 70.2386 7.62667 70.1053 8.24C69.972 8.74667 69.8386 9.28 69.7053 9.84C69.5986 10.3733 69.5053 10.8533 69.4253 11.28C69.0786 11.3067 68.5853 11.3333 67.9453 11.36C67.3053 11.36 66.652 11.3733 65.9853 11.4C65.3186 11.4 64.7453 11.4 64.2653 11.4C63.7853 11.4 63.532 11.4 63.5053 11.4L62.1053 18.56L64.4253 18.44C64.7186 18.4133 65.012 18.4 65.3053 18.4C65.6253 18.4 65.932 18.4 66.2253 18.4C66.5186 18.4 66.7853 18.4 67.0253 18.4C67.2653 18.4 67.452 18.3867 67.5853 18.36C67.532 18.7333 67.4786 19.1067 67.4253 19.48C67.3986 19.8267 67.3586 20.1867 67.3053 20.56L66.9453 22.76C66.812 22.7867 66.6386 22.8 66.4253 22.8C66.212 22.8 65.9586 22.8 65.6653 22.8C65.372 22.8267 65.0653 22.84 64.7453 22.84C64.4253 22.84 64.1186 22.8533 63.8253 22.88C63.4786 22.9067 63.1186 22.92 62.7453 22.92C62.372 22.92 61.972 22.9333 61.5453 22.96L60.1853 30.32L66.0253 29.4L65.6253 33.96L52.7053 35.96ZM75.4706 36.08L78.5106 7.68C79.124 7.65333 79.724 7.61333 80.3106 7.56C80.924 7.48 81.5106 7.38667 82.0706 7.28C82.604 7.17333 83.1506 7.09333 83.7106 7.04C84.2706 6.96 84.8173 6.90667 85.3506 6.88L85.2306 7.68C85.204 7.94667 85.1506 8.25333 85.0706 8.6C85.0173 8.92 84.964 9.29333 84.9106 9.72C84.7773 10.6533 84.6173 11.72 84.4306 12.92C84.244 14.12 84.0306 15.4533 83.7906 16.92C83.6306 17.8267 83.444 18.92 83.2306 20.2C83.044 21.48 82.8173 22.9333 82.5506 24.56H83.1506C83.4973 23.3333 83.8173 22.2133 84.1106 21.2C84.404 20.1867 84.6573 19.2933 84.8706 18.52C85.084 17.7467 85.284 17.0533 85.4706 16.44C85.684 15.8 85.8573 15.2267 85.9906 14.72C86.5506 12.7467 87.004 11.1333 87.3506 9.88C87.6973 8.62667 87.924 7.81333 88.0306 7.44H88.3906C89.084 7.44 89.804 7.38667 90.5506 7.28C91.324 7.17333 92.0173 7.05333 92.6306 6.92C92.604 7.02667 92.5506 7.46667 92.4706 8.24C92.3906 9.01333 92.2973 9.96 92.1906 11.08C92.084 12.2 91.9773 13.36 91.8706 14.56C91.684 16.8267 91.5106 18.8 91.3506 20.48C91.2173 22.16 91.0973 23.52 90.9906 24.56H91.7106L95.5106 7.36L98.1906 7C98.564 6.94667 98.9506 6.89333 99.3506 6.84C99.751 6.78667 100.164 6.73333 100.591 6.68C101.364 6.57333 102.097 6.45333 102.791 6.32C101.991 8.56 101.191 11.2 100.391 14.24C99.591 17.28 98.7906 20.36 97.9906 23.48C97.564 25.1867 97.1373 26.92 96.7106 28.68C96.3106 30.4133 95.9106 32.1867 95.5106 34L86.4706 35.52L88.2306 20.08H87.7506L83.7906 34.6L75.4706 36.08ZM98.1741 35.96L103.414 7.52L116.054 6.44C115.867 7.02667 115.707 7.62667 115.574 8.24C115.441 8.74667 115.307 9.28 115.174 9.84C115.067 10.3733 114.974 10.8533 114.894 11.28C114.547 11.3067 114.054 11.3333 113.414 11.36C112.774 11.36 112.121 11.3733 111.454 11.4C110.787 11.4 110.214 11.4 109.734 11.4C109.254 11.4 109.001 11.4 108.974 11.4L107.574 18.56L109.894 18.44C110.187 18.4133 110.481 18.4 110.774 18.4C111.094 18.4 111.401 18.4 111.694 18.4C111.987 18.4 112.254 18.4 112.494 18.4C112.734 18.4 112.921 18.3867 113.054 18.36C113.001 18.7333 112.947 19.1067 112.894 19.48C112.867 19.8267 112.827 20.1867 112.774 20.56L112.414 22.76C112.281 22.7867 112.107 22.8 111.894 22.8C111.681 22.8 111.427 22.8 111.134 22.8C110.841 22.8267 110.534 22.84 110.214 22.84C109.894 22.84 109.587 22.8533 109.294 22.88C108.947 22.9067 108.587 22.92 108.214 22.92C107.841 22.92 107.441 22.9333 107.014 22.96L105.654 30.32L111.494 29.4L111.094 33.96L98.1741 35.96ZM114.207 36.08C113.22 36.08 112.3 36 111.447 35.84C112.727 31.1733 113.74 26.48 114.487 21.76C115.26 17.0133 115.994 12.24 116.687 7.44C118.074 7.14667 119.514 6.89333 121.007 6.68C122.5 6.44 124.047 6.32 125.647 6.32C126.527 6.32 127.46 6.48 128.447 6.8C129.434 7.09333 130.26 7.64 130.927 8.44C131.62 9.21333 131.967 10.32 131.967 11.76C131.967 13.0933 131.687 14.32 131.127 15.44C130.567 16.56 129.86 17.52 129.007 18.32C128.154 19.12 127.274 19.6933 126.367 20.04C126.74 20.2267 127.18 20.56 127.687 21.04C128.194 21.52 128.634 22.16 129.007 22.96C129.38 23.76 129.567 24.7333 129.567 25.88C129.567 27.48 129.087 28.9333 128.127 30.24C127.194 31.52 125.94 32.5867 124.367 33.44C122.847 34.2933 121.207 34.9467 119.447 35.4C117.687 35.8533 115.94 36.08 114.207 36.08ZM121.327 16.76C122.154 16.6 122.94 16.3867 123.687 16.12C124.434 15.8533 125.034 15.5467 125.487 15.2C125.967 14.8533 126.207 14.48 126.207 14.08C126.207 13.5733 126.007 13.1733 125.607 12.88C125.207 12.5867 124.727 12.3733 124.167 12.24C123.607 12.1067 123.087 12.04 122.607 12.04H122.207C122.02 13.1067 121.847 14.04 121.687 14.84C121.527 15.6133 121.407 16.2533 121.327 16.76ZM119.287 28C119.82 27.9467 120.407 27.8533 121.047 27.72C121.687 27.5867 122.3 27.3867 122.887 27.12C123.474 26.8267 123.954 26.4533 124.327 26C124.727 25.52 124.927 24.9467 124.927 24.28C124.927 23.64 124.714 23.1333 124.287 22.76C123.86 22.3867 123.34 22.12 122.727 21.96C122.14 21.7733 121.58 21.68 121.047 21.68H120.727C120.594 21.68 120.487 21.6933 120.407 21.72C120.247 22.7067 120.06 23.7467 119.847 24.84C119.634 25.9333 119.447 26.9867 119.287 28ZM143.689 36C142.009 36 140.635 35.2133 139.569 33.64C138.502 32.0667 137.969 29.9067 137.969 27.16C137.969 24.6533 138.315 22.1867 139.009 19.76C139.702 17.3067 140.675 15.1067 141.929 13.16C143.182 11.2133 144.662 9.65333 146.369 8.48C148.102 7.28 150.009 6.68 152.089 6.68C153.395 6.68 154.515 7.18667 155.449 8.2C156.382 9.21333 156.849 10.5733 156.849 12.28V12.76C156.849 12.8667 156.849 12.96 156.849 13.04C156.849 13.12 156.835 13.2133 156.809 13.32L151.569 14.72C151.249 14.0533 150.875 13.72 150.449 13.72C149.809 13.72 149.129 14.24 148.409 15.28C147.715 16.32 147.049 17.56 146.409 19C145.982 19.96 145.595 20.9467 145.249 21.96C144.929 22.9733 144.675 23.92 144.489 24.8C144.302 25.68 144.209 26.4 144.209 26.96C144.209 27.7867 144.329 28.3867 144.569 28.76C144.755 29.1067 145.049 29.28 145.449 29.28C145.849 29.28 146.289 29.0933 146.769 28.72C147.249 28.32 147.689 27.8267 148.089 27.24C148.515 26.6533 148.795 26.0667 148.929 25.48L153.489 27.32C152.182 30.3067 150.622 32.5067 148.809 33.92C147.022 35.3067 145.315 36 143.689 36ZM153.291 36C154.065 32.2667 154.785 28.6267 155.451 25.08C155.825 22.92 156.198 20.7333 156.571 18.52C156.971 16.3067 157.331 14.1867 157.651 12.16C157.971 10.1333 158.211 8.32 158.371 6.72C159.091 6.74667 159.678 6.78667 160.131 6.84C160.611 6.86667 161.051 6.89333 161.451 6.92C161.878 6.94667 162.345 6.97333 162.851 7C163.385 7 164.051 7 164.851 7C164.398 8.89333 163.945 10.7867 163.491 12.68C163.065 14.5733 162.665 16.48 162.291 18.4L166.251 17.96C166.438 17.0267 166.611 16.1067 166.771 15.2C166.958 14.2667 167.118 13.3467 167.251 12.44C167.385 11.56 167.545 10.6667 167.731 9.76C167.945 8.82667 168.171 7.89333 168.411 6.96C169.371 6.8 170.345 6.68 171.331 6.6C172.318 6.49333 173.145 6.42666 173.811 6.4C174.478 6.34667 174.811 6.32 174.811 6.32C174.465 7.38667 174.118 8.64 173.771 10.08C173.425 11.52 173.091 13.04 172.771 14.64C172.451 16.24 172.145 17.84 171.851 19.44C171.558 21.0133 171.291 22.48 171.051 23.84C170.758 25.5467 170.478 27.2667 170.211 29C169.945 30.7067 169.678 32.4533 169.411 34.24L163.171 34.96C163.358 34.16 163.518 33.3733 163.651 32.6C163.811 31.8 163.958 31.0267 164.091 30.28C164.358 29 164.625 27.6667 164.891 26.28C165.185 24.8933 165.411 23.7067 165.571 22.72L161.691 23.08C161.585 23.5867 161.478 24.1333 161.371 24.72C161.291 25.3067 161.185 25.9333 161.051 26.6C160.918 27.2667 160.785 27.92 160.651 28.56C160.545 29.1733 160.438 29.7867 160.331 30.4C160.198 31.12 160.051 31.84 159.891 32.56C159.731 33.28 159.585 34 159.451 34.72L153.291 36ZM180.988 35.84C181.041 35.3867 181.094 34.9467 181.148 34.52C181.201 34.0933 181.254 33.6667 181.308 33.24L181.548 31C181.574 30.6267 181.601 30.28 181.628 29.96C181.654 29.64 181.681 29.3467 181.708 29.08H178.228L176.628 34.84C176.041 34.92 175.348 35.0133 174.548 35.12C173.748 35.2 173.001 35.28 172.308 35.36C171.881 35.4133 171.454 35.4667 171.028 35.52C170.628 35.5733 170.214 35.6267 169.787 35.68L172.948 25.2C173.321 23.9467 173.748 22.52 174.228 20.92C174.708 19.32 175.188 17.68 175.668 16C176.174 14.32 176.641 12.7467 177.068 11.28C177.521 9.78666 177.881 8.53333 178.148 7.52C179.961 7.38667 181.801 7.22666 183.668 7.04C185.561 6.85333 187.401 6.6 189.188 6.28C189.054 7.77333 188.921 9.46666 188.788 11.36C188.681 13.2267 188.574 15.16 188.468 17.16C188.388 19.16 188.294 21.1333 188.188 23.08C188.134 24.92 188.068 26.8267 187.988 28.8C187.908 30.7467 187.828 32.7467 187.748 34.8C187.348 34.8533 186.948 34.9067 186.548 34.96C186.148 35.0133 185.748 35.0667 185.348 35.12C184.681 35.2267 183.948 35.3467 183.148 35.48C182.348 35.6133 181.628 35.7333 180.988 35.84ZM179.188 25.08C179.348 25.08 179.641 25.0667 180.068 25.04C180.521 25.0133 180.948 24.9867 181.348 24.96C181.748 24.9333 181.988 24.92 182.068 24.92C182.068 24.5733 182.121 23.8667 182.228 22.8C182.334 21.7333 182.441 20.6133 182.548 19.44C182.601 18.7467 182.654 18.04 182.708 17.32C182.788 16.5733 182.868 15.8133 182.948 15.04L183.188 11.56L182.588 11.6L181.668 15.04L179.188 25.08ZM191.532 35.96C191.826 34.4933 192.119 33.04 192.412 31.6C192.732 30.1333 193.026 28.6933 193.292 27.28C194.306 22.2133 195.132 17.36 195.772 12.72C195.479 12.6667 195.172 12.64 194.852 12.64C194.532 12.6133 194.226 12.6133 193.932 12.64C193.292 12.6933 192.666 12.6133 192.052 12.4C192.079 12.1867 192.092 11.96 192.092 11.72C192.092 11.4533 192.092 11.1867 192.092 10.92C192.092 10.6267 192.092 10.3467 192.092 10.08C192.092 9.78667 192.106 9.50667 192.132 9.24C192.159 8.94667 192.172 8.64 192.172 8.32C192.172 7.97333 192.186 7.62667 192.212 7.28C192.906 7.33333 193.599 7.37333 194.292 7.4C194.986 7.42667 195.679 7.44 196.372 7.44C198.346 7.44 200.226 7.37333 202.012 7.24C203.826 7.10666 205.492 6.94666 207.012 6.76L206.572 8.92L206.212 10.8C206.079 11.4933 205.959 12.04 205.852 12.44C205.559 12.52 205.266 12.5867 204.972 12.64C204.679 12.6933 204.386 12.7333 204.092 12.76C203.799 12.7867 203.492 12.8267 203.172 12.88C202.879 12.9333 202.586 12.9867 202.292 13.04C201.892 15.0133 201.559 16.72 201.292 18.16C201.052 19.6 200.826 20.9867 200.612 22.32C200.426 23.6267 200.199 25.0667 199.932 26.64C199.479 29.3333 199.079 32.0667 198.732 34.84L191.532 35.96Z"
  />
</svg>
