<svg viewBox="0 0 208 31" xmlns="http://www.w3.org/2000/svg">
  <path
    d="M6.28 30.58C4.6 30.58 3.22667 29.7933 2.16 28.22C1.09333 26.6467 0.56 24.4867 0.56 21.74C0.56 19.2333 0.906667 16.7667 1.6 14.34C2.29333 11.8867 3.26667 9.68667 4.52 7.74C5.77333 5.79333 7.25333 4.23333 8.96 3.06C10.6933 1.86 12.6 1.26 14.68 1.26C15.9867 1.26 17.1067 1.76667 18.04 2.78C18.9733 3.79333 19.44 5.15333 19.44 6.86V7.34C19.44 7.44666 19.44 7.54 19.44 7.62C19.44 7.7 19.4267 7.79333 19.4 7.9L14.16 9.3C13.84 8.63333 13.4667 8.3 13.04 8.3C12.4 8.3 11.72 8.82 11 9.86C10.3067 10.9 9.64 12.14 9 13.58C8.57333 14.54 8.18667 15.5267 7.84 16.54C7.52 17.5533 7.26667 18.5 7.08 19.38C6.89333 20.26 6.8 20.98 6.8 21.54C6.8 22.3667 6.92 22.9667 7.16 23.34C7.34667 23.6867 7.64 23.86 8.04 23.86C8.44 23.86 8.88 23.6733 9.36 23.3C9.84 22.9 10.28 22.4067 10.68 21.82C11.1067 21.2333 11.3867 20.6467 11.52 20.06L16.08 21.9C14.7733 24.8867 13.2133 27.0867 11.4 28.5C9.61333 29.8867 7.90667 30.58 6.28 30.58ZM22.8025 30.66C21.0425 30.66 19.6025 29.98 18.4825 28.62C17.3625 27.26 16.8025 25.2067 16.8025 22.46C16.8025 20.94 16.9892 19.34 17.3625 17.66C17.7358 15.98 18.2558 14.3267 18.9225 12.7C19.5892 11.0733 20.3625 9.56667 21.2425 8.18C22.6558 5.94 24.2825 4.11333 26.1225 2.7C27.9625 1.28667 29.8958 0.579999 31.9225 0.579999C33.5225 0.579999 34.7492 0.993333 35.6025 1.82C36.4825 2.62 37.0958 3.66 37.4425 4.94C37.7892 6.19333 37.9625 7.5 37.9625 8.86C37.9625 12.0333 37.4692 14.9933 36.4825 17.74C35.5225 20.46 34.2692 22.7667 32.7225 24.66C31.1758 26.6067 29.5225 28.1 27.7625 29.14C26.0292 30.1533 24.3758 30.66 22.8025 30.66ZM24.9625 24.06C26.1625 24.06 27.2158 23.66 28.1225 22.86C29.0558 22.06 29.8425 21.0467 30.4825 19.82C31.1225 18.5667 31.6025 17.26 31.9225 15.9C32.2425 14.54 32.4025 13.3133 32.4025 12.22C32.4025 11.7933 32.3625 11.34 32.2825 10.86C32.2025 10.3533 32.0292 9.91333 31.7625 9.54C31.4958 9.16666 31.0825 8.98 30.5225 8.98C29.2958 8.98 28.1892 9.43333 27.2025 10.34C26.2158 11.22 25.3892 12.34 24.7225 13.7C24.0558 15.0867 23.5625 16.4467 23.2425 17.78C22.9225 19.1133 22.7625 20.3267 22.7625 21.42C22.7625 21.98 22.9625 22.5667 23.3625 23.18C23.7625 23.7667 24.2958 24.06 24.9625 24.06ZM37.6891 30.7C37.3157 30.7 36.9424 30.6733 36.5691 30.62C36.1957 30.5933 35.8224 30.5533 35.4491 30.5L37.5691 19.74C37.8357 18.2733 38.1157 16.7267 38.4091 15.1C38.7291 13.4467 39.0357 11.82 39.3291 10.22C39.6224 8.59333 39.8757 7.08667 40.0891 5.7C40.3291 4.31333 40.5157 3.14 40.6491 2.18C41.7957 1.96667 42.9557 1.76667 44.1291 1.58C45.3024 1.39333 46.5024 1.3 47.7291 1.3C49.7024 1.3 51.2624 1.71333 52.4091 2.54C53.5557 3.34 54.3824 4.40667 54.8891 5.74C55.3957 7.04667 55.6491 8.48666 55.6491 10.06C55.6491 11.4733 55.4491 12.9667 55.0491 14.54C54.6491 16.0867 54.0757 17.6333 53.3291 19.18C52.6091 20.7 51.7424 22.14 50.7291 23.5C49.1557 25.6067 47.2357 27.34 44.9691 28.7C42.7291 30.0333 40.3024 30.7 37.6891 30.7ZM42.4491 25.66C43.3824 25.0467 44.2624 24.1133 45.0891 22.86C45.9424 21.6067 46.7424 20.1 47.4891 18.34C48.1557 16.7133 48.6757 15.18 49.0491 13.74C49.4224 12.2733 49.6091 11.06 49.6091 10.1C49.6091 9.11333 49.3291 8.34 48.7691 7.78C48.2357 7.22 47.3824 6.94 46.2091 6.94C45.7824 9.23333 45.3424 11.3533 44.8891 13.3C44.4624 15.2467 44.0357 17.2067 43.6091 19.18C43.2091 21.1533 42.8224 23.3133 42.4491 25.66ZM53.2653 30.54L58.5053 2.1L71.1453 1.02C70.9586 1.60667 70.7986 2.20667 70.6653 2.82C70.532 3.32667 70.3986 3.86 70.2653 4.42C70.1586 4.95333 70.0653 5.43333 69.9853 5.86C69.6386 5.88667 69.1453 5.91333 68.5053 5.94C67.8653 5.94 67.212 5.95333 66.5453 5.98C65.8786 5.98 65.3053 5.98 64.8253 5.98C64.3453 5.98 64.092 5.98 64.0653 5.98L62.6653 13.14L64.9853 13.02C65.2786 12.9933 65.572 12.98 65.8653 12.98C66.1853 12.98 66.492 12.98 66.7853 12.98C67.0786 12.98 67.3453 12.98 67.5853 12.98C67.8253 12.98 68.012 12.9667 68.1453 12.94C68.092 13.3133 68.0386 13.6867 67.9853 14.06C67.9586 14.4067 67.9186 14.7667 67.8653 15.14L67.5053 17.34C67.372 17.3667 67.1986 17.38 66.9853 17.38C66.772 17.38 66.5186 17.38 66.2253 17.38C65.932 17.4067 65.6253 17.42 65.3053 17.42C64.9853 17.42 64.6786 17.4333 64.3853 17.46C64.0386 17.4867 63.6786 17.5 63.3053 17.5C62.932 17.5 62.532 17.5133 62.1053 17.54L60.7453 24.9L66.5853 23.98L66.1853 28.54L53.2653 30.54ZM76.0306 30.66L79.0706 2.26C79.684 2.23333 80.284 2.19333 80.8706 2.14C81.484 2.06 82.0706 1.96667 82.6306 1.86C83.164 1.75333 83.7106 1.67333 84.2706 1.62C84.8306 1.54 85.3773 1.48667 85.9106 1.46L85.7906 2.26C85.764 2.52667 85.7106 2.83333 85.6306 3.18C85.5773 3.5 85.524 3.87333 85.4706 4.3C85.3373 5.23333 85.1773 6.3 84.9906 7.5C84.804 8.7 84.5906 10.0333 84.3506 11.5C84.1906 12.4067 84.004 13.5 83.7906 14.78C83.604 16.06 83.3773 17.5133 83.1106 19.14H83.7106C84.0573 17.9133 84.3773 16.7933 84.6706 15.78C84.964 14.7667 85.2173 13.8733 85.4306 13.1C85.644 12.3267 85.844 11.6333 86.0306 11.02C86.244 10.38 86.4173 9.80667 86.5506 9.3C87.1106 7.32667 87.564 5.71333 87.9106 4.46C88.2573 3.20667 88.484 2.39333 88.5906 2.02H88.9506C89.644 2.02 90.364 1.96667 91.1106 1.86C91.884 1.75333 92.5773 1.63333 93.1906 1.5C93.164 1.60667 93.1106 2.04667 93.0306 2.82C92.9506 3.59333 92.8573 4.54 92.7506 5.66C92.644 6.78 92.5373 7.94 92.4306 9.14C92.244 11.4067 92.0706 13.38 91.9106 15.06C91.7773 16.74 91.6573 18.1 91.5506 19.14H92.2706L96.0706 1.94L98.7506 1.58C99.124 1.52667 99.5106 1.47333 99.9106 1.42C100.311 1.36667 100.724 1.31333 101.151 1.26C101.924 1.15333 102.657 1.03333 103.351 0.9C102.551 3.14 101.751 5.78 100.951 8.82C100.151 11.86 99.3506 14.94 98.5506 18.06C98.124 19.7667 97.6973 21.5 97.2706 23.26C96.8706 24.9933 96.4706 26.7667 96.0706 28.58L87.0306 30.1L88.7906 14.66H88.3106L84.3506 29.18L76.0306 30.66ZM98.7341 30.54L103.974 2.1L116.614 1.02C116.427 1.60667 116.267 2.20667 116.134 2.82C116.001 3.32667 115.867 3.86 115.734 4.42C115.627 4.95333 115.534 5.43333 115.454 5.86C115.107 5.88667 114.614 5.91333 113.974 5.94C113.334 5.94 112.681 5.95333 112.014 5.98C111.347 5.98 110.774 5.98 110.294 5.98C109.814 5.98 109.561 5.98 109.534 5.98L108.134 13.14L110.454 13.02C110.747 12.9933 111.041 12.98 111.334 12.98C111.654 12.98 111.961 12.98 112.254 12.98C112.547 12.98 112.814 12.98 113.054 12.98C113.294 12.98 113.481 12.9667 113.614 12.94C113.561 13.3133 113.507 13.6867 113.454 14.06C113.427 14.4067 113.387 14.7667 113.334 15.14L112.974 17.34C112.841 17.3667 112.667 17.38 112.454 17.38C112.241 17.38 111.987 17.38 111.694 17.38C111.401 17.4067 111.094 17.42 110.774 17.42C110.454 17.42 110.147 17.4333 109.854 17.46C109.507 17.4867 109.147 17.5 108.774 17.5C108.401 17.5 108.001 17.5133 107.574 17.54L106.214 24.9L112.054 23.98L111.654 28.54L98.7341 30.54ZM114.767 30.66C113.78 30.66 112.86 30.58 112.007 30.42C113.287 25.7533 114.3 21.06 115.047 16.34C115.82 11.5933 116.554 6.82 117.247 2.02C118.634 1.72667 120.074 1.47333 121.567 1.26C123.06 1.02 124.607 0.9 126.207 0.9C127.087 0.9 128.02 1.06 129.007 1.38C129.994 1.67333 130.82 2.22 131.487 3.02C132.18 3.79333 132.527 4.9 132.527 6.34C132.527 7.67333 132.247 8.9 131.687 10.02C131.127 11.14 130.42 12.1 129.567 12.9C128.714 13.7 127.834 14.2733 126.927 14.62C127.3 14.8067 127.74 15.14 128.247 15.62C128.754 16.1 129.194 16.74 129.567 17.54C129.94 18.34 130.127 19.3133 130.127 20.46C130.127 22.06 129.647 23.5133 128.687 24.82C127.754 26.1 126.5 27.1667 124.927 28.02C123.407 28.8733 121.767 29.5267 120.007 29.98C118.247 30.4333 116.5 30.66 114.767 30.66ZM121.887 11.34C122.714 11.18 123.5 10.9667 124.247 10.7C124.994 10.4333 125.594 10.1267 126.047 9.78C126.527 9.43333 126.767 9.06 126.767 8.66C126.767 8.15333 126.567 7.75333 126.167 7.46C125.767 7.16667 125.287 6.95333 124.727 6.82C124.167 6.68667 123.647 6.62 123.167 6.62H122.767C122.58 7.68667 122.407 8.62 122.247 9.42C122.087 10.1933 121.967 10.8333 121.887 11.34ZM119.847 22.58C120.38 22.5267 120.967 22.4333 121.607 22.3C122.247 22.1667 122.86 21.9667 123.447 21.7C124.034 21.4067 124.514 21.0333 124.887 20.58C125.287 20.1 125.487 19.5267 125.487 18.86C125.487 18.22 125.274 17.7133 124.847 17.34C124.42 16.9667 123.9 16.7 123.287 16.54C122.7 16.3533 122.14 16.26 121.607 16.26H121.287C121.154 16.26 121.047 16.2733 120.967 16.3C120.807 17.2867 120.62 18.3267 120.407 19.42C120.194 20.5133 120.007 21.5667 119.847 22.58ZM144.249 30.58C142.569 30.58 141.195 29.7933 140.129 28.22C139.062 26.6467 138.529 24.4867 138.529 21.74C138.529 19.2333 138.875 16.7667 139.569 14.34C140.262 11.8867 141.235 9.68667 142.489 7.74C143.742 5.79333 145.222 4.23333 146.929 3.06C148.662 1.86 150.569 1.26 152.649 1.26C153.955 1.26 155.075 1.76667 156.009 2.78C156.942 3.79333 157.409 5.15333 157.409 6.86V7.34C157.409 7.44666 157.409 7.54 157.409 7.62C157.409 7.7 157.395 7.79333 157.369 7.9L152.129 9.3C151.809 8.63333 151.435 8.3 151.009 8.3C150.369 8.3 149.689 8.82 148.969 9.86C148.275 10.9 147.609 12.14 146.969 13.58C146.542 14.54 146.155 15.5267 145.809 16.54C145.489 17.5533 145.235 18.5 145.049 19.38C144.862 20.26 144.769 20.98 144.769 21.54C144.769 22.3667 144.889 22.9667 145.129 23.34C145.315 23.6867 145.609 23.86 146.009 23.86C146.409 23.86 146.849 23.6733 147.329 23.3C147.809 22.9 148.249 22.4067 148.649 21.82C149.075 21.2333 149.355 20.6467 149.489 20.06L154.049 21.9C152.742 24.8867 151.182 27.0867 149.369 28.5C147.582 29.8867 145.875 30.58 144.249 30.58ZM153.851 30.58C154.625 26.8467 155.345 23.2067 156.011 19.66C156.385 17.5 156.758 15.3133 157.131 13.1C157.531 10.8867 157.891 8.76667 158.211 6.74C158.531 4.71333 158.771 2.9 158.931 1.3C159.651 1.32667 160.238 1.36667 160.691 1.42C161.171 1.44667 161.611 1.47333 162.011 1.5C162.438 1.52667 162.905 1.55333 163.411 1.58C163.945 1.58 164.611 1.58 165.411 1.58C164.958 3.47333 164.505 5.36667 164.051 7.26C163.625 9.15333 163.225 11.06 162.851 12.98L166.811 12.54C166.998 11.6067 167.171 10.6867 167.331 9.78C167.518 8.84667 167.678 7.92667 167.811 7.02C167.945 6.14 168.105 5.24667 168.291 4.34C168.505 3.40667 168.731 2.47333 168.971 1.54C169.931 1.38 170.905 1.26 171.891 1.18C172.878 1.07333 173.705 1.00666 174.371 0.979999C175.038 0.926666 175.371 0.9 175.371 0.9C175.025 1.96667 174.678 3.22 174.331 4.66C173.985 6.1 173.651 7.62 173.331 9.22C173.011 10.82 172.705 12.42 172.411 14.02C172.118 15.5933 171.851 17.06 171.611 18.42C171.318 20.1267 171.038 21.8467 170.771 23.58C170.505 25.2867 170.238 27.0333 169.971 28.82L163.731 29.54C163.918 28.74 164.078 27.9533 164.211 27.18C164.371 26.38 164.518 25.6067 164.651 24.86C164.918 23.58 165.185 22.2467 165.451 20.86C165.745 19.4733 165.971 18.2867 166.131 17.3L162.251 17.66C162.145 18.1667 162.038 18.7133 161.931 19.3C161.851 19.8867 161.745 20.5133 161.611 21.18C161.478 21.8467 161.345 22.5 161.211 23.14C161.105 23.7533 160.998 24.3667 160.891 24.98C160.758 25.7 160.611 26.42 160.451 27.14C160.291 27.86 160.145 28.58 160.011 29.3L153.851 30.58ZM181.548 30.42C181.601 29.9667 181.654 29.5267 181.708 29.1C181.761 28.6733 181.814 28.2467 181.868 27.82L182.108 25.58C182.134 25.2067 182.161 24.86 182.188 24.54C182.214 24.22 182.241 23.9267 182.268 23.66H178.788L177.188 29.42C176.601 29.5 175.908 29.5933 175.108 29.7C174.308 29.78 173.561 29.86 172.868 29.94C172.441 29.9933 172.014 30.0467 171.588 30.1C171.188 30.1533 170.774 30.2067 170.347 30.26L173.508 19.78C173.881 18.5267 174.308 17.1 174.788 15.5C175.268 13.9 175.748 12.26 176.228 10.58C176.734 8.9 177.201 7.32666 177.628 5.86C178.081 4.36666 178.441 3.11333 178.708 2.1C180.521 1.96667 182.361 1.80666 184.228 1.62C186.121 1.43333 187.961 1.18 189.748 0.859998C189.614 2.35333 189.481 4.04666 189.348 5.94C189.241 7.80667 189.134 9.74 189.028 11.74C188.948 13.74 188.854 15.7133 188.748 17.66C188.694 19.5 188.628 21.4067 188.548 23.38C188.468 25.3267 188.388 27.3267 188.308 29.38C187.908 29.4333 187.508 29.4867 187.108 29.54C186.708 29.5933 186.308 29.6467 185.908 29.7C185.241 29.8067 184.508 29.9267 183.708 30.06C182.908 30.1933 182.188 30.3133 181.548 30.42ZM179.748 19.66C179.908 19.66 180.201 19.6467 180.628 19.62C181.081 19.5933 181.508 19.5667 181.908 19.54C182.308 19.5133 182.548 19.5 182.628 19.5C182.628 19.1533 182.681 18.4467 182.788 17.38C182.894 16.3133 183.001 15.1933 183.108 14.02C183.161 13.3267 183.214 12.62 183.268 11.9C183.348 11.1533 183.428 10.3933 183.508 9.62L183.748 6.14L183.148 6.18L182.228 9.62L179.748 19.66ZM192.092 30.54C192.386 29.0733 192.679 27.62 192.972 26.18C193.292 24.7133 193.586 23.2733 193.852 21.86C194.866 16.7933 195.692 11.94 196.332 7.3C196.039 7.24667 195.732 7.22 195.412 7.22C195.092 7.19333 194.786 7.19333 194.492 7.22C193.852 7.27333 193.226 7.19333 192.612 6.98C192.639 6.76667 192.652 6.54 192.652 6.3C192.652 6.03333 192.652 5.76667 192.652 5.5C192.652 5.20667 192.652 4.92667 192.652 4.66C192.652 4.36667 192.666 4.08667 192.692 3.82C192.719 3.52667 192.732 3.22 192.732 2.9C192.732 2.55333 192.746 2.20667 192.772 1.86C193.466 1.91333 194.159 1.95333 194.852 1.98C195.546 2.00667 196.239 2.02 196.932 2.02C198.906 2.02 200.786 1.95333 202.572 1.82C204.386 1.68666 206.052 1.52666 207.572 1.34L207.132 3.5L206.772 5.38C206.639 6.07333 206.519 6.62 206.412 7.02C206.119 7.1 205.826 7.16667 205.532 7.22C205.239 7.27333 204.946 7.31333 204.652 7.34C204.359 7.36667 204.052 7.40667 203.732 7.46C203.439 7.51333 203.146 7.56667 202.852 7.62C202.452 9.59333 202.119 11.3 201.852 12.74C201.612 14.18 201.386 15.5667 201.172 16.9C200.986 18.2067 200.759 19.6467 200.492 21.22C200.039 23.9133 199.639 26.6467 199.292 29.42L192.092 30.54Z"
  />
</svg>
