<svg viewBox="0 0 22 19" xmlns="http://www.w3.org/2000/svg">
  <path
    d="M4 15.5713V13.1426C3.99992 11.9393 3.50203 11.254 2.91406 10.8428C2.2868 10.4041 1.50927 10.25 1 10.25C0.585786 10.25 0.25 9.91421 0.25 9.5C0.25 9.08579 0.585786 8.75 1 8.75C2.26452 8.75 2.97769 8.2538 3.39746 7.6875C3.84453 7.08431 3.99994 6.34007 4 5.85742V3.42871C4 1.65289 5.47572 0.25 7.25 0.25H7.875C8.28921 0.25 8.625 0.585786 8.625 1C8.625 1.41421 8.28921 1.75 7.875 1.75H7.25C6.26286 1.75 5.5 2.52201 5.5 3.42871V5.85742C5.49994 6.58898 5.28013 7.66571 4.60254 8.58008C4.34162 8.93211 4.01782 9.25206 3.62598 9.51562C3.67551 9.54733 3.72471 9.58017 3.77344 9.61426C4.74786 10.2958 5.49992 11.4319 5.5 13.1426V15.5713C5.5 16.4779 6.26275 17.25 7.25 17.25H7.875C8.28921 17.25 8.625 17.5858 8.625 18C8.625 18.4142 8.28921 18.75 7.875 18.75H7.25C5.47582 18.75 4 17.3473 4 15.5713ZM16.5 15.5713V13.1426C16.5001 11.4319 17.2521 10.2958 18.2266 9.61426C18.2751 9.58033 18.3237 9.54719 18.373 9.51562C17.9815 9.25215 17.6582 8.93191 17.3975 8.58008C16.7199 7.66571 16.5001 6.58898 16.5 5.85742V3.42871C16.5 2.522 15.7372 1.75 14.75 1.75H14.125C13.7108 1.75 13.375 1.41421 13.375 1C13.375 0.585786 13.7108 0.25 14.125 0.25H14.75C16.5243 0.25 18 1.6529 18 3.42871V5.85742C18.0001 6.34007 18.1555 7.08431 18.6025 7.6875C19.0223 8.2538 19.7355 8.75 21 8.75C21.4142 8.75 21.75 9.08579 21.75 9.5C21.75 9.91421 21.4142 10.25 21 10.25C20.4907 10.25 19.7132 10.4041 19.0859 10.8428C18.498 11.254 18.0001 11.9393 18 13.1426V15.5713C18 17.3472 16.5242 18.75 14.75 18.75H14.125C13.7108 18.75 13.375 18.4142 13.375 18C13.375 17.5858 13.7108 17.25 14.125 17.25H14.75C15.7373 17.25 16.5 16.4779 16.5 15.5713Z"
  />
</svg>
