<svg viewBox="0 0 22 20" xmlns="http://www.w3.org/2000/svg">
  <path
    d="M3.66667 16.25V13.75C3.66666 12.6574 3.2489 12.0952 2.79974 11.7644C2.28824 11.3878 1.63774 11.25 1.22221 11.25C0.547196 11.25 0 10.6903 0 9.99998C6.17657e-06 9.32042 0.530233 8.76751 1.19066 8.7504L1.22221 8.74999L1.27191 8.74966C2.30765 8.73662 2.84533 8.31556 3.16368 7.86336C3.53195 7.34024 3.66667 6.67495 3.66667 6.24998V3.75C3.66667 2.75544 4.05297 1.8016 4.7406 1.09834C5.42823 0.395079 6.36087 0 7.33333 0H7.94442C8.61943 0 9.16667 0.559632 9.16667 1.24999C9.16667 1.94034 8.61943 2.49998 7.94442 2.49998H7.33333C7.00918 2.49998 6.6983 2.63169 6.46909 2.86612C6.23988 3.10054 6.11109 3.41848 6.11109 3.75V6.24998C6.11109 7.07501 5.87913 8.28476 5.14741 9.32414C4.97662 9.56673 4.78128 9.7957 4.56067 10.0054C5.46788 10.8145 6.11108 12.0445 6.11109 13.75V16.25C6.11109 16.5815 6.23988 16.8995 6.46909 17.1339C6.6983 17.3683 7.00918 17.5 7.33333 17.5H7.94442C8.61943 17.5 9.16667 18.0597 9.16667 18.75C9.16666 19.4404 8.61943 20 7.94442 20H7.33333C6.36088 20 5.42823 19.6049 4.7406 18.9017C4.05297 18.1984 3.66667 17.2446 3.66667 16.25ZM15.8889 16.25V13.75C15.8889 12.0445 16.5321 10.8145 17.4393 10.0054C17.2187 9.79571 17.0233 9.56672 16.8526 9.32414C16.1208 8.28476 15.8889 7.07501 15.8889 6.24998V3.75C15.8889 3.41849 15.7601 3.10053 15.5309 2.86612C15.3017 2.6317 14.9908 2.49998 14.6667 2.49998H14.0555C13.3805 2.49998 12.8333 1.94034 12.8333 1.24999C12.8333 0.559632 13.3805 0 14.0555 0H14.6667C15.6391 3.37191e-06 16.5717 0.395085 17.2594 1.09834C17.947 1.8016 18.3333 2.75544 18.3333 3.75V6.24998C18.3333 6.67495 18.468 7.34024 18.8363 7.86336C19.1597 8.32274 19.7094 8.74999 20.7778 8.74999C21.4528 8.74999 22 9.30963 22 9.99998C22 10.6903 21.4528 11.25 20.7778 11.25C20.3622 11.25 19.7117 11.3878 19.2003 11.7644C18.7511 12.0952 18.3333 12.6574 18.3333 13.75V16.25C18.3333 17.2446 17.947 18.1984 17.2594 18.9017C16.5717 19.6049 15.6391 20 14.6667 20H14.0555C13.3805 20 12.8333 19.4404 12.8333 18.75C12.8333 18.0597 13.3805 17.5 14.0555 17.5H14.6667C14.9908 17.5 15.3017 17.3683 15.5309 17.1339C15.7601 16.8995 15.8889 16.5815 15.8889 16.25Z"
  />
</svg>
