<svg
  viewBox="0 0 40 32"
  xmlns="http://www.w3.org/2000/svg"
>
  <path
    d="M24.1784 0.761666C24.4879 0.21326 25.1028 -0.0835349 25.7202 0.0206514C28.196 0.438428 29.743 1.0328 31.6584 1.72774L32.0468 1.86805L32.0469 1.86811C33.2473 2.29959 34.3241 3.13991 34.9827 4.33316L35.0682 4.48876C38.6714 11.0736 40.1183 17.3582 39.9925 23.6279C39.9589 25.297 39.1207 26.8543 37.7273 27.7735L37.7272 27.7736C34.8021 29.7029 32.0484 30.8223 29.533 31.8834C28.8086 32.189 27.9742 31.8747 27.6232 31.164L25.8564 27.5861C24.1369 28.0695 22.0844 28.4722 19.9999 28.4722C17.9154 28.4722 15.8628 28.0695 14.1434 27.5861L12.3766 31.164C12.0256 31.8747 11.1912 32.189 10.4668 31.8834C7.95171 30.8223 5.19767 29.7029 2.27256 27.7736L2.27245 27.7735C0.879212 26.8543 0.0408491 25.2972 0.00754132 23.6279L0.00485833 23.4798C-0.0964324 17.2099 1.37992 10.9228 5.01708 4.33316C5.67565 3.13991 6.75247 2.29959 7.95291 1.86811L7.95303 1.86805C10.0546 1.11284 11.6388 0.466281 14.2796 0.0206514L14.309 0.0159861C14.9262 -0.0755133 15.5361 0.231593 15.8359 0.787945L16.7844 2.54871C16.7925 2.54721 16.8006 2.54566 16.8087 2.54416C17.5711 2.40383 18.6563 2.26779 19.9999 2.26779C21.3435 2.26779 22.4287 2.40383 23.191 2.54416C23.1992 2.54566 23.2073 2.54721 23.2153 2.54871L24.1639 0.787945L24.1784 0.761666ZM25.2924 5.00744C24.9465 5.64956 24.1962 5.94876 23.5108 5.71816L23.5139 5.71922C23.515 5.71959 23.5158 5.71985 23.5162 5.71999C23.5159 5.71988 23.5153 5.7197 23.5146 5.71946C23.5107 5.71821 23.5012 5.71521 23.4863 5.71072C23.4565 5.70172 23.4049 5.68673 23.3325 5.66761C23.1876 5.62935 22.9599 5.57476 22.6568 5.51897C22.0505 5.40734 21.1448 5.29137 19.9999 5.29137C18.8549 5.29137 17.9493 5.40734 17.343 5.51897C17.0399 5.57476 16.8121 5.62935 16.6673 5.66761C16.5949 5.68673 16.5433 5.70172 16.5134 5.71072C16.4986 5.71521 16.4891 5.71821 16.4852 5.71946C16.4845 5.7197 16.4839 5.71988 16.4836 5.71999C16.484 5.71985 16.4848 5.71959 16.4859 5.71922L16.4891 5.71816H16.4889C15.8035 5.94873 15.0533 5.64954 14.7074 5.00744L13.7342 3.20103C12.004 3.57309 10.781 4.06015 8.95192 4.71742C8.36063 4.92996 7.89263 5.32128 7.62395 5.8081L7.6239 5.80816C4.23147 11.9544 2.89831 17.7185 2.99079 23.4315L2.99324 23.5664V23.5667C3.00682 24.2496 3.34893 24.8748 3.90254 25.2401C6.11359 26.6985 8.21384 27.6496 10.3291 28.5491L11.2803 26.6228C10.9096 26.4774 10.5843 26.3417 10.3129 26.224C10.025 26.099 9.79668 25.994 9.63777 25.9189C9.55831 25.8814 9.49611 25.8513 9.45241 25.8299C9.43057 25.8192 9.41331 25.8107 9.40085 25.8044C9.39463 25.8013 9.38957 25.7988 9.38574 25.7969C9.38384 25.7959 9.38221 25.7951 9.3809 25.7945L9.37845 25.7932C9.37816 25.7931 9.3804 25.7879 10.0456 24.4408L9.37787 25.7929C8.6403 25.4195 8.34137 24.5114 8.71016 23.7646C9.07894 23.0179 9.97578 22.7152 10.7134 23.0885C10.7145 23.0891 10.7165 23.0901 10.7193 23.0915C10.726 23.0948 10.7373 23.1005 10.7531 23.1082C10.7847 23.1237 10.8343 23.1477 10.9006 23.1791C11.0334 23.2418 11.2328 23.3336 11.4893 23.4449C12.003 23.6678 12.7415 23.967 13.6285 24.2664C15.4204 24.8711 17.7372 25.4486 19.9999 25.4486C22.2626 25.4486 24.5794 24.8711 26.3713 24.2664C27.2583 23.967 27.9968 23.6678 28.5105 23.4449C28.767 23.3336 28.9664 23.2418 29.0992 23.1791C29.1655 23.1477 29.2151 23.1237 29.2467 23.1082C29.2625 23.1005 29.2738 23.0948 29.2805 23.0915C29.2833 23.0901 29.2852 23.0891 29.2864 23.0885C30.024 22.7151 30.9208 23.0179 31.2896 23.7646C31.6584 24.5114 31.3595 25.4195 30.6219 25.7929L29.9542 24.4408C30.6194 25.7878 30.6216 25.7931 30.6213 25.7932L30.6189 25.7945C30.6176 25.7951 30.616 25.7959 30.6141 25.7969C30.6102 25.7988 30.6052 25.8013 30.5989 25.8044C30.5865 25.8107 30.5692 25.8192 30.5474 25.8299C30.5037 25.8513 30.4415 25.8814 30.362 25.9189C30.2031 25.994 29.9748 26.099 29.6869 26.224C29.4155 26.3417 29.0902 26.4774 28.7194 26.6228L29.6706 28.5491C31.7462 27.6665 33.8072 26.7343 35.9727 25.3218L36.0972 25.2401C36.6508 24.8748 36.9931 24.2496 37.0068 23.5664C37.1224 17.8092 35.795 12.0027 32.3759 5.80816L32.3758 5.8081C32.1072 5.32128 31.6391 4.93002 31.0478 4.71748C29.2188 4.06021 27.9957 3.57309 26.2655 3.20103L25.2924 5.00744ZM29.2868 23.0883L29.287 23.0882L29.2873 23.0881C29.2872 23.0882 29.2869 23.0883 29.2868 23.0883Z"
  />
  <path
    d="M13.7785 20.9132C15.5652 20.9132 17.0136 19.2211 17.0136 17.1337C17.0136 15.0464 15.5652 13.3543 13.7785 13.3543C11.9918 13.3543 10.5433 15.0464 10.5433 17.1337C10.5433 19.2211 11.9918 20.9132 13.7785 20.9132Z"
  />
  <path
    d="M26.2213 20.9132C28.008 20.9132 29.4564 19.2211 29.4564 17.1337C29.4564 15.0464 28.008 13.3543 26.2213 13.3543C24.4346 13.3543 22.9862 15.0464 22.9862 17.1337C22.9862 19.2211 24.4346 20.9132 26.2213 20.9132Z"
  />
</svg>
