<svg
  viewBox="0 0 467 138"
  xmlns="http://www.w3.org/2000/svg"
>
  <path
    d="M0.000106812 36.0733H37.6961C46.7818 36.0733 54.4683 37.4909 60.7555 40.3262C66.5441 42.7598 71.4594 46.8904 74.8535 52.1735C78.0308 57.3925 79.659 63.4073 79.5482 69.5164C79.618 75.6536 77.9264 81.682 74.6739 86.8869C71.0458 92.3853 65.8576 96.6743 59.775 99.2037C53.1103 102.242 44.8485 103.756 34.9896 103.747H0L0.000106812 36.0733ZM34.603 86.5279C40.7246 86.5279 45.4285 84.9998 48.7148 81.9436C52.086 78.6744 53.6653 74.2214 53.6443 69.4197C53.6623 64.9743 52.2641 60.8278 49.2534 57.6829C46.3077 54.7556 41.8753 53.2873 35.9562 53.2781H24.1641V86.5279H34.603ZM135.995 103.636C131.022 102.39 126.265 100.402 121.884 97.7401V81.6952C125.709 84.4774 130.016 86.5279 134.587 87.7431C139.588 89.2689 144.783 90.0641 150.011 90.1043C151.815 90.2006 153.618 89.8891 155.285 89.193C156.473 88.5854 157.067 87.8122 157.067 87.0113C157.092 86.1068 156.742 85.2321 156.1 84.5949C154.997 83.7466 153.703 83.1824 152.33 82.9517L140.732 80.342C134.085 78.7955 129.368 76.6552 126.578 73.9213C123.747 71.0659 122.245 67.1536 122.436 63.1372C122.389 59.5371 123.701 56.0515 126.109 53.3749C128.964 50.3547 132.565 48.1401 136.548 46.9542C141.674 45.343 147.027 44.5736 152.399 44.6759C157.414 44.6288 162.416 45.2133 167.285 46.4157C171.217 47.3475 174.994 48.8452 178.497 50.8619V66.0507C175.212 64.145 171.681 62.7001 168.002 61.7564C164.017 60.6878 159.908 60.1493 155.782 60.1547C149.725 60.1547 146.697 61.1857 146.697 63.2477C146.676 64.1865 147.22 65.0462 148.077 65.4294C149.732 66.133 151.466 66.6338 153.242 66.9207L162.907 68.6605C169.185 69.7651 173.866 71.6983 176.95 74.4599C180.034 77.2215 181.58 81.2627 181.59 86.5834C181.689 92.2767 178.762 97.5957 173.898 100.557C168.808 103.972 161.54 105.675 152.096 105.666C146.664 105.675 141.255 104.992 135.995 103.636ZM204.428 101.606C199.261 99.2319 194.905 95.3904 191.904 90.5599C189.105 85.8228 187.671 80.4033 187.762 74.9016C187.678 69.4032 189.189 63.9983 192.111 59.3399C195.226 54.5852 199.66 50.8423 204.87 48.5696C211.204 45.8094 218.067 44.4709 224.974 44.6481C234.64 44.6481 242.662 46.6779 249.042 50.7374V68.4531C246.615 66.8216 243.964 65.5518 241.171 64.6835C238.045 63.6967 234.783 63.2074 231.506 63.2337C225.513 63.2337 220.823 64.3291 217.435 66.52C212.674 69.1773 210.968 75.1912 213.626 79.9524C214.491 81.5037 215.76 82.7927 217.297 83.6834C220.583 85.9019 225.352 87.0111 231.602 87.0111C234.828 87.0188 238.038 86.5536 241.13 85.6303C243.949 84.8218 246.658 83.6669 249.194 82.1921V99.3141C241.722 103.67 233.193 105.878 224.546 105.693C217.616 105.883 210.735 104.485 204.428 101.606ZM273.109 101.606C267.884 99.2202 263.451 95.3868 260.337 90.5599C257.402 85.834 255.878 80.3677 255.946 74.8049C255.852 69.308 257.379 63.9052 260.337 59.2708C263.468 54.5666 267.881 50.8578 273.054 48.5834C285.761 43.4281 299.977 43.4281 312.683 48.5834C317.836 50.8405 322.231 54.5311 325.345 59.2156C328.283 63.8671 329.795 69.2767 329.695 74.7773C329.763 80.3345 328.255 85.7973 325.345 90.5323C322.265 95.3625 317.853 99.1988 312.642 101.579C300.02 106.992 285.731 106.992 273.109 101.579L273.109 101.606ZM302.479 84.4567C304.893 81.965 306.172 78.5879 306.014 75.1225C306.183 71.688 304.9 68.3408 302.479 65.8987C299.855 63.4922 296.368 62.2518 292.813 62.4605C289.262 62.2737 285.783 63.5113 283.148 65.8987C280.736 68.3459 279.46 71.6909 279.627 75.1225C279.47 78.5852 280.743 81.9601 283.148 84.4567C285.759 86.8933 289.247 88.1642 292.813 87.9777C296.383 88.1854 299.88 86.9115 302.479 84.4567ZM387.785 48.2244V69.1298C384.9 67.4079 381.573 66.5679 378.216 66.7134C373.066 66.7134 369.089 68.2875 366.327 71.4081C363.566 74.5287 362.185 79.3753 362.185 85.948V103.733H338.504V47.1888H361.702V65.1393C362.99 58.5667 365.071 53.72 367.943 50.5994C370.761 47.4938 374.854 45.8621 378.989 45.9047C382.054 45.8982 385.135 46.6254 387.785 48.2244ZM466.463 34.1402V103.733H442.783V91.0293C440.997 95.5518 437.788 99.3708 433.642 101.91C429.064 104.518 423.857 105.817 418.591 105.666C413.635 105.781 408.757 104.421 404.576 101.758C400.527 99.1277 397.301 95.4093 395.269 91.0293C393.052 86.1945 391.948 80.9239 392.038 75.6057C391.882 70.0917 393.057 64.6213 395.462 59.6574C397.674 55.1107 401.125 51.2815 405.418 48.611C409.831 45.9374 414.909 44.5638 420.068 44.6481C431.336 44.6481 438.907 49.5454 442.782 59.3399V34.1402H466.463ZM439.303 84.1253C441.743 81.7234 443.061 78.4061 442.934 74.9844C443.038 71.6639 441.716 68.4577 439.303 66.1749C433.718 61.6281 425.708 61.6281 420.123 66.1749C417.717 68.5098 416.416 71.758 416.547 75.1087C416.424 78.4905 417.739 81.7662 420.165 84.1254C422.728 86.5077 426.142 87.757 429.637 87.5912C433.195 87.7877 436.681 86.5377 439.303 84.1253ZM99.5146 32C106.035 32 111.32 36.7478 111.32 42.6046C111.32 48.4614 106.035 53.2092 99.5146 53.2092C92.9944 53.2092 87.7087 48.4614 87.7087 42.6046C87.7087 36.7478 92.9944 32 99.5146 32ZM87.6949 60.5136C95.25 63.6889 103.765 63.6889 111.32 60.5136V104.036H87.6949V60.5136Z"
  />
</svg>
