<svg
  viewBox="0 0 25 28"
  xmlns="http://www.w3.org/2000/svg"
>
  <path
    d="M19.0253 0.775255C19.1494 0.237208 19.6864 -0.0987473 20.2245 0.0252548C20.7625 0.149419 21.0985 0.686428 20.9745 1.22447L14.9745 27.2245C14.8503 27.7625 14.3133 28.0985 13.7753 27.9745C13.2372 27.8503 12.9013 27.3133 13.0253 26.7753L19.0253 0.775255Z"
  />
  <path
    d="M10.0176 0.811525C10.1218 0.269323 10.6463 -0.0864445 11.1885 0.0175799C11.7307 0.12185 12.0864 0.646286 11.9824 1.18848L6.98242 27.1885C6.87815 27.7307 6.35372 28.0864 5.81153 27.9824C5.26932 27.8782 4.91356 27.3537 5.01758 26.8115L10.0176 0.811525Z"
  />
  <path
    d="M24 9C24.5523 9 25 9.44772 25 10C25 10.5523 24.5523 11 24 11H1C0.447715 11 0 10.5523 0 10C0 9.44772 0.447715 9 1 9H24Z"
  />
  <path
    d="M24 17C24.5523 17 25 17.4477 25 18C25 18.5523 24.5523 19 24 19H1C0.447715 19 0 18.5523 0 18C0 17.4477 0.447715 17 1 17H24Z"
  />
</svg>
