<svg
  viewBox="0 0 20 22"
  xmlns="http://www.w3.org/2000/svg"
>
  <path
    fill-rule="evenodd"
    clip-rule="evenodd"
    d="M7.90045 0.00682486C8.51033 0.0739134 8.94978 0.617772 8.882 1.22157L8.27844 6.60009H12.7092L13.3401 0.978614C13.4079 0.374827 13.9572 -0.0602637 14.5671 0.00682486C15.177 0.0739134 15.6164 0.617772 15.5487 1.22157L14.9451 6.60009H18.8889C19.5026 6.60009 20 7.09258 20 7.70009C20 8.30759 19.5026 8.80008 18.8889 8.80008H14.6981L14.2043 13.2001H18.8889C19.5026 13.2001 20 13.6925 20 14.3C20 14.9076 19.5026 15.4 18.8889 15.4H13.9574L13.3264 21.0214C13.2588 21.6252 12.7093 22.0603 12.0994 21.9932C11.4896 21.9262 11.0501 21.3822 11.1179 20.7784L11.7216 15.4H7.29075L6.65983 21.0214C6.59207 21.6252 6.04271 22.0603 5.43281 21.9932C4.82292 21.9262 4.38343 21.3822 4.4512 20.7784L5.05484 15.4H1.11111C0.497467 15.4 0 14.9076 0 14.3C0 13.6925 0.497467 13.2001 1.11111 13.2001H5.30177L5.79559 8.80008H1.11111C0.497467 8.80008 0 8.30759 0 7.70009C0 7.09258 0.497467 6.60009 1.11111 6.60009H6.0425L6.67342 0.978614C6.74119 0.374827 7.29054 -0.0602637 7.90045 0.00682486ZM11.9684 13.2001L12.4622 8.80008H8.03144L7.53766 13.2001H11.9684Z"
  />
</svg>
