<svg viewBox="0 0 12 10" xmlns="http://www.w3.org/2000/svg">
  <path
    fill-rule="evenodd"
    clip-rule="evenodd"
    d="M8.39052 0.638397C9.88902 1.4904 10.8125 3.0639 10.8125 4.7674C10.8125 5.2649 10.735 5.7449 10.591 6.1959C10.6939 6.18317 10.7983 6.19462 10.8959 6.22934C10.9936 6.26406 11.0818 6.32109 11.1535 6.3959C11.2638 6.50782 11.3335 6.65337 11.3517 6.80945C11.3698 6.96553 11.3352 7.12319 11.2535 7.2574C11.3555 7.3399 11.4295 7.4499 11.4675 7.5734L11.476 7.6044C11.506 7.7154 11.536 7.9494 11.376 8.1874C11.498 8.3724 11.5155 8.6054 11.4225 8.8054C11.295 9.0904 10.976 9.3144 10.3585 9.5554L10.2575 9.5944L10.192 9.6184C9.95302 9.7049 9.74702 9.7659 9.66152 9.7909L9.61852 9.8029C9.17352 9.9244 8.71452 9.9904 8.25252 9.9999C7.59252 9.9999 7.10252 9.8199 6.79102 9.4664C6.265 9.55548 5.72801 9.55852 5.20102 9.4754C4.88902 9.8234 4.40102 9.9999 3.74702 9.9999C3.31837 9.99134 2.8921 9.9338 2.47652 9.8284L2.36602 9.7984L2.22952 9.7584C2.03122 9.69827 1.83525 9.63072 1.64202 9.5559C1.02352 9.3144 0.704519 9.0909 0.577019 8.8054C0.484019 8.6054 0.501518 8.3719 0.623518 8.1874C0.56592 8.10312 0.527172 8.00742 0.509914 7.90681C0.492657 7.8062 0.497297 7.70305 0.523519 7.6044C0.558019 7.4679 0.636518 7.3464 0.747018 7.2574C0.665424 7.12324 0.630951 6.96569 0.649066 6.80971C0.667181 6.65374 0.736848 6.50828 0.847018 6.3964C0.963518 6.2724 1.12552 6.2009 1.30552 6.1929L1.34452 6.1924C1.19821 5.73157 1.124 5.25089 1.12452 4.7674C1.12452 3.0639 2.04802 1.4904 3.54652 0.638397C4.28501 0.219792 5.11939 -0.000244141 5.96827 -0.000244141C6.81715 -0.000244141 7.65203 0.219792 8.39052 0.638397ZM2.09402 6.3789C2.15652 6.7224 3.27252 7.5539 3.16402 7.7324C3.06902 7.8899 2.76602 7.6129 2.69002 7.5394L2.66952 7.5194L2.58552 7.4459C2.30502 7.2064 1.43352 6.4959 1.21552 6.7299C1.00052 6.9599 1.27502 7.1594 1.74302 7.4399L2.13502 7.6734L2.20302 7.7149C2.72552 8.0364 2.76302 8.1349 2.67802 8.2714C2.58402 8.4189 1.14302 7.2214 1.00802 7.7299C0.873018 8.2354 2.47902 8.3819 2.38002 8.7329C2.28002 9.0829 1.24752 8.0709 1.03752 8.4644C0.825018 8.8594 2.49402 9.3234 2.50752 9.3269L2.58752 9.3469L2.67502 9.3679C3.28852 9.5099 4.45752 9.6929 4.89252 9.0659C5.22902 8.5794 5.21252 8.2114 4.76852 7.7609L4.74002 7.7324C4.26752 7.2684 3.99252 6.5884 3.99252 6.5884L3.98402 6.5594L3.97152 6.5234C3.93052 6.4134 3.82952 6.2039 3.65652 6.2314C3.42652 6.2679 3.25752 6.8364 3.71652 7.1979L3.74152 7.2169C4.23002 7.5774 3.64402 7.8219 3.45502 7.4839L3.42602 7.4319L3.35452 7.3069C3.12302 6.9074 2.71352 6.2514 2.48502 6.1084C2.21902 5.9424 2.03152 6.0344 2.09402 6.3789ZM9.51502 6.1084C9.24852 6.2759 8.73352 7.1454 8.54502 7.4839C8.51258 7.54357 8.46125 7.59077 8.39908 7.6181C8.3369 7.64543 8.26741 7.65134 8.20152 7.6349C8.16876 7.62566 8.13862 7.60888 8.11352 7.5859C8.1041 7.57699 8.09587 7.5669 8.08902 7.5559L8.08202 7.5419L8.07802 7.5319L8.07452 7.5224L8.07302 7.5159L8.07152 7.5074C8.07019 7.49947 8.06952 7.49144 8.06952 7.4834C8.06952 7.4234 8.10502 7.3504 8.19452 7.2699C8.20752 7.2579 8.22152 7.2464 8.23652 7.2349L8.26002 7.2169C8.27102 7.2089 8.28152 7.2009 8.29152 7.1924C8.73302 6.8374 8.57802 6.2874 8.35702 6.2339L8.34152 6.2309L8.31352 6.2289C8.30312 6.22902 8.29275 6.23002 8.28252 6.2319L8.26852 6.2344L8.24752 6.2414L8.22802 6.2499L8.21402 6.2574L8.20002 6.2669L8.18202 6.2804L8.17052 6.2904C8.08402 6.3694 8.03402 6.5044 8.01552 6.5614L8.00752 6.5884C8.00752 6.5884 7.74252 7.2429 7.28802 7.7054L7.26102 7.7324C7.07852 7.9114 6.96302 8.0774 6.91002 8.2414C6.83852 8.4599 6.87702 8.6754 7.01502 8.9179C7.04252 8.9664 7.07352 9.0154 7.10852 9.0659C7.54952 9.7034 8.74952 9.5039 9.35552 9.3609L9.49852 9.3259L9.62352 9.2889C9.76152 9.2469 9.99152 9.1724 10.2235 9.0789L10.3175 9.0404L10.35 9.0264L10.382 9.0124L10.444 8.9844L10.4845 8.9654C10.749 8.8394 10.9665 8.6939 10.9815 8.5519L10.982 8.5339C10.9816 8.50957 10.9752 8.48571 10.9635 8.4644C10.9165 8.3764 10.828 8.3584 10.718 8.3804L10.6955 8.3854C10.6735 8.3904 10.6505 8.3974 10.6275 8.4054L10.579 8.4229L10.552 8.4339C10.2725 8.5489 9.93302 8.7864 9.74852 8.8064H9.75152C9.74322 8.80736 9.73487 8.80786 9.72652 8.8079H9.71452L9.70252 8.8064L9.69102 8.8039C9.65702 8.7959 9.63302 8.7739 9.62102 8.7329C9.61635 8.71664 9.6155 8.69953 9.61852 8.6829C9.64952 8.5104 10.0975 8.3854 10.475 8.2279L10.508 8.2139C10.772 8.1019 10.993 7.9724 11.0005 7.7979V7.7779C10.9996 7.76133 10.9969 7.7449 10.9925 7.7289C10.9685 7.6389 10.905 7.6034 10.8125 7.6034C10.42 7.6034 9.53752 8.2834 9.35252 8.2834C9.34002 8.2834 9.32852 8.2799 9.32352 8.2714C9.31465 8.25739 9.30696 8.24267 9.30052 8.2274C9.25052 8.1084 9.33452 7.9964 9.83052 7.6944L9.93502 7.6314C10.204 7.4714 10.44 7.3374 10.6055 7.2159C10.7505 7.1099 10.843 7.0129 10.857 6.9159L10.8585 6.9019C10.8625 6.8454 10.8395 6.7884 10.785 6.7299C10.7749 6.71901 10.7631 6.70988 10.75 6.7029L10.733 6.6954L10.7265 6.6929C10.7055 6.68603 10.6836 6.68265 10.6615 6.6829C10.5805 6.6829 10.477 6.7179 10.364 6.7729C10.0455 6.9294 9.64852 7.2489 9.45102 7.4154L9.32652 7.5229L9.31002 7.5394C9.27002 7.5784 9.16602 7.6744 9.06352 7.7324L9.02802 7.7509L9.00752 7.7604C8.98797 7.7688 8.96749 7.77484 8.94652 7.7784H8.94902C8.94388 7.77913 8.9387 7.77963 8.93352 7.7799L8.93852 7.7794L8.93202 7.7799C8.89252 7.7824 8.85952 7.7694 8.83702 7.7324C8.83148 7.72251 8.82904 7.71119 8.83002 7.6999C8.84352 7.4674 9.84702 6.7044 9.90602 6.3789L9.91052 6.3549C9.96052 6.0299 9.77502 5.9464 9.51502 6.1084ZM5.96902 0.491897C3.57002 0.491897 1.62502 2.4064 1.62502 4.7669C1.62502 5.1129 1.66652 5.4489 1.74502 5.7709L1.74902 5.7664C1.87502 5.6174 2.05502 5.5364 2.25752 5.5364C2.43502 5.5404 2.60702 5.5949 2.75402 5.6924C2.86402 5.7624 2.98652 5.8844 3.11152 6.0394C3.24202 5.8534 3.45652 5.7404 3.68652 5.7369C4.11252 5.7369 4.37002 6.1009 4.46752 6.4284L4.49102 6.4809L4.52102 6.5444C4.61702 6.7424 4.81852 7.1139 5.09252 7.3844C5.62252 7.9044 5.75452 8.4419 5.49252 9.0174C5.82901 9.05371 6.16856 9.05136 6.50452 9.0104C6.25202 8.4504 6.37452 7.9254 6.87452 7.4174L6.90752 7.3844C7.25502 7.0424 7.48602 6.5394 7.53352 6.4284C7.63102 6.1009 7.88752 5.7369 8.31352 5.7369C8.54352 5.7404 8.75802 5.8534 8.88852 6.0394C9.01352 5.8844 9.13602 5.7629 9.24752 5.6924C9.39449 5.59473 9.5661 5.54064 9.74252 5.5364C9.92102 5.5364 10.0835 5.5994 10.205 5.7164C10.275 5.4114 10.3125 5.0939 10.3125 4.7674C10.3125 2.4064 8.36752 0.491897 5.96902 0.491897ZM6.89752 4.9549L7.11702 4.8489C7.39352 4.7169 7.56202 4.6574 7.56202 4.9249C7.56202 5.4714 7.17652 6.5289 5.98452 6.5559H5.89252C4.73002 6.5299 4.33452 5.5259 4.31452 4.9684L4.31402 4.9249C4.31402 4.3714 5.04002 5.2179 5.93902 5.2179C6.29702 5.2179 6.62852 5.0819 6.89752 4.9549ZM8.90602 3.3834C9.13102 3.3834 9.31252 3.5624 9.31252 3.7834C9.31252 4.0039 9.13052 4.1834 8.90602 4.1834C8.8531 4.18379 8.80061 4.17376 8.75157 4.15387C8.70252 4.13398 8.65787 4.10463 8.62017 4.06749C8.58247 4.03034 8.55246 3.98614 8.53184 3.93739C8.51122 3.88865 8.50041 3.83632 8.50002 3.7834C8.50002 3.5624 8.68202 3.3834 8.90602 3.3834ZM3.09402 3.3834C3.31802 3.3834 3.50002 3.5624 3.50002 3.7834C3.50002 4.0039 3.31802 4.1834 3.09402 4.1834C3.04105 4.18386 2.98852 4.17388 2.93941 4.15402C2.89031 4.13416 2.8456 4.10481 2.80785 4.06766C2.7701 4.03051 2.74004 3.98629 2.71939 3.93751C2.69874 3.88873 2.68791 3.83636 2.68752 3.7834C2.68752 3.5624 2.86952 3.3834 3.09402 3.3834ZM6.98902 2.9629C7.14902 2.7709 7.41202 2.6929 7.65402 2.7659C7.89552 2.8389 8.06902 3.0479 8.09302 3.2959C8.11702 3.5434 7.98702 3.7809 7.76352 3.8974C7.60252 3.9814 7.54002 3.6589 7.38002 3.6049L7.38102 3.6034C7.23752 3.5544 6.99502 3.7844 6.91852 3.6429C6.86061 3.53562 6.83631 3.41339 6.8488 3.29212C6.86128 3.17084 6.91047 3.05613 6.98902 2.9629ZM4.82752 2.9629C4.98852 3.1549 5.01602 3.4229 4.89752 3.6429C4.82152 3.7844 4.57752 3.5544 4.43502 3.6034L4.43652 3.6049C4.38252 3.6229 4.33952 3.6719 4.30002 3.7249L4.24102 3.8074C4.18602 3.8824 4.13102 3.9384 4.05252 3.8974C3.9439 3.8413 3.85454 3.754 3.79592 3.64673C3.73729 3.53946 3.71208 3.41711 3.72352 3.2954C3.74752 3.0479 3.92102 2.8389 4.16252 2.7659C4.28049 2.7302 4.40633 2.72983 4.52451 2.76484C4.64269 2.79985 4.74803 2.8687 4.82752 2.9629Z"
  />
</svg>
