<svg viewBox="0 0 20 20" xmlns="http://www.w3.org/2000/svg">
  <path
    fill-rule="evenodd"
    clip-rule="evenodd"
    d="M3.97686 17.98C5.7118 19.2902 7.8266 19.9991 10.0006 19.9993V20.0069C11.5457 20.0069 13.0683 19.6468 14.4558 18.9568C14.809 18.773 15.2172 18.7249 15.6034 18.8218L17.831 19.4218C18.0512 19.481 18.283 19.4812 18.5033 19.4223C18.7235 19.3634 18.9244 19.2475 19.0856 19.0863C19.2468 18.9251 19.3627 18.7243 19.4216 18.504C19.4805 18.2838 19.4803 18.0519 19.4211 17.8317L18.8211 15.6041C18.7223 15.2156 18.7703 14.8043 18.9561 14.4491C19.9232 12.502 20.2293 10.2927 19.8281 8.15602C19.4268 6.01932 18.34 4.07162 16.7323 2.60807C15.1246 1.14454 13.0837 0.244931 10.9187 0.0455605C8.7538 -0.153819 6.5829 0.35791 4.735 1.5032C2.88705 2.64849 1.46278 4.36492 0.677998 6.39242C-0.106772 8.41992 -0.209292 10.6479 0.385988 12.7389C0.981268 14.8299 2.2419 16.6699 3.97686 17.98ZM4.7508 8.87662C4.1294 8.87662 3.62598 9.38002 3.62598 10.0014C3.62598 11.6922 4.2974 13.3138 5.4929 14.5094C6.6885 15.705 8.3102 16.3763 10.001 16.3763C11.6918 16.3763 13.3134 15.705 14.509 14.5094C15.7046 13.3138 16.3759 11.6922 16.3759 10.0014C16.3759 9.38002 15.8725 8.87662 15.2512 8.87662C14.6299 8.87662 14.1264 9.38002 14.1264 10.0014C14.1264 11.0954 13.6918 12.1449 12.9181 12.9185C12.1445 13.6921 11.095 14.1268 10.001 14.1268C8.9069 14.1267 7.8574 13.6921 7.0838 12.9185C6.3102 12.1449 5.8756 11.0954 5.8756 10.0014C5.8756 9.38002 5.3721 8.87662 4.7508 8.87662Z"
  />
</svg>
