<svg viewBox="0 0 12 11" xmlns="http://www.w3.org/2000/svg">
  <path
    fill-rule="evenodd"
    clip-rule="evenodd"
    d="M9.86901 2.88805C9.95051 2.78355 10.022 2.68805 10.0975 2.59555C10.1325 2.55205 10.1295 2.51905 10.0955 2.47355C9.76801 2.04305 9.73701 1.56505 9.92551 1.08005C10.067 0.715053 10.38 0.544053 10.7625 0.507553C11.001 0.485053 11.235 0.509553 11.452 0.625553C11.737 0.778053 11.903 1.01055 11.957 1.33155C12 1.58755 11.992 1.83755 11.9195 2.08555C11.791 2.52455 11.4755 2.75205 11.043 2.80955C10.684 2.85755 10.32 2.86355 9.95801 2.88805C9.93001 2.89005 9.90151 2.88805 9.86901 2.88805Z"
  />
  <path
    fill-rule="evenodd"
    clip-rule="evenodd"
    d="M8.981 0.922119H6.818L5.1055 4.82712H2.6845V0.939119H0.75V11.0001H2.685V6.76162H6.097C6.38522 6.7616 6.66743 6.67924 6.91041 6.52422C7.15339 6.3692 7.34702 6.14799 7.4685 5.88662V11.0001H9.4035V6.76162C9.40354 6.27281 9.21857 5.8021 8.88578 5.44407C8.55298 5.08604 8.09701 4.86724 7.6095 4.83162V4.82662H6.547C6.80301 4.73916 7.03827 4.5999 7.2381 4.41753C7.43793 4.23516 7.59806 4.01359 7.7085 3.76662L8.981 0.922119Z"
  />
</svg>
<svg viewBox="0 0 12 11" xmlns="http://www.w3.org/2000/svg">
  <path
    fill-rule="evenodd"
    clip-rule="evenodd"
    d="M9.86901 2.88805C9.95051 2.78355 10.022 2.68805 10.0975 2.59555C10.1325 2.55205 10.1295 2.51905 10.0955 2.47355C9.76801 2.04305 9.73701 1.56505 9.92551 1.08005C10.067 0.715053 10.38 0.544053 10.7625 0.507553C11.001 0.485053 11.235 0.509553 11.452 0.625553C11.737 0.778053 11.903 1.01055 11.957 1.33155C12 1.58755 11.992 1.83755 11.9195 2.08555C11.791 2.52455 11.4755 2.75205 11.043 2.80955C10.684 2.85755 10.32 2.86355 9.95801 2.88805C9.93001 2.89005 9.90151 2.88805 9.86901 2.88805Z"
  />
  <path
    fill-rule="evenodd"
    clip-rule="evenodd"
    d="M8.981 0.922119H6.818L5.1055 4.82712H2.6845V0.939119H0.75V11.0001H2.685V6.76162H6.097C6.38522 6.7616 6.66743 6.67924 6.91041 6.52422C7.15339 6.3692 7.34702 6.14799 7.4685 5.88662V11.0001H9.4035V6.76162C9.40354 6.27281 9.21857 5.8021 8.88578 5.44407C8.55298 5.08604 8.09701 4.86724 7.6095 4.83162V4.82662H6.547C6.80301 4.73916 7.03827 4.5999 7.2381 4.41753C7.43793 4.23516 7.59806 4.01359 7.7085 3.76662L8.981 0.922119Z"
  />
</svg>

