<svg viewBox="0 0 34 32" xmlns="http://www.w3.org/2000/svg">
  <path
    d="M33.9918 4.88884C33.9918 4.87646 33.9918 4.86406 33.9918 4.85168V4.83516C33.9918 4.43256 33.7956 4.14143 33.6843 4.00104C33.5569 3.84 33.4032 3.7058 33.2615 3.59638C32.9743 3.37545 32.5939 3.1566 32.1609 2.94394C31.285 2.51449 30.059 2.04788 28.5741 1.61431C25.6042 0.751288 21.5155 -0.000244141 16.9979 -0.000244141C12.4805 -0.000244141 8.38973 0.751288 5.41783 1.61638C3.9349 2.04788 2.70689 2.51656 1.83089 2.94601C1.39795 3.15866 1.01761 3.37752 0.730334 3.59843C0.588717 3.70786 0.434963 3.84207 0.307509 4.00311C0.200286 4.14143 0.00404617 4.43256 0.00404617 4.83516C0.00404617 4.83722 0.00404617 4.84135 0.00404617 4.84342C0.00404617 4.84548 0.00404617 4.84962 0.00404617 4.85168C0.00404617 4.86406 0.00404617 4.87646 0.00404617 4.88884H0V29.3178H0.00404617C0.00404617 29.7451 0.218493 30.0486 0.384386 30.218C0.548256 30.3851 0.736403 30.4966 0.892181 30.5751C1.20778 30.7341 1.60835 30.8601 2.03725 30.9633C2.91122 31.1759 4.13518 31.3597 5.59586 31.5104C8.53135 31.8139 12.5633 31.9998 17 31.9998C21.4367 31.9998 25.4666 31.8139 28.4041 31.5104C29.8648 31.3597 31.0887 31.1759 31.9628 30.9633C32.3916 30.858 32.7922 30.7341 33.1078 30.5751C33.2636 30.4966 33.4518 30.3831 33.6155 30.218C33.7814 30.0486 33.9959 29.7451 33.9959 29.3178H34V4.88884H33.9959H33.9918ZM18.1086 19.9359V17.1466C18.1086 16.2486 18.4263 15.3649 19.0513 14.7352C19.6058 14.1756 20.3401 13.835 21.1452 13.835C22.171 13.835 23.0814 14.3863 23.6519 15.241C24.0423 15.8253 24.2265 16.5293 24.2265 17.2375V19.7543C22.3733 19.8575 20.3037 19.9236 18.1066 19.9401L18.1086 19.9359ZM18.1086 10.7462C18.1086 9.84812 18.4263 8.96446 19.0513 8.33474C19.6058 7.77522 20.3401 7.43455 21.1452 7.43455C22.171 7.43455 23.0814 7.98582 23.6519 8.84058C24.0423 9.42488 24.2265 10.1289 24.2265 10.8371V11.4957C22.3733 11.599 20.3037 11.665 18.1066 11.6816V10.7504L18.1086 10.7462ZM31.4812 18.9099C30.7407 19.0998 29.6261 19.2815 28.1957 19.4364C27.5949 19.5024 26.9455 19.5623 26.2515 19.6159V16.5582C26.2515 15.5115 26.7047 14.4977 27.5322 13.8763C28.0177 13.5129 28.5902 13.294 29.189 13.294C29.5067 13.294 29.8142 13.3477 30.1014 13.4489C31.2405 13.8453 31.9749 14.9829 31.9749 16.2113V18.7613C31.8534 18.8046 31.6916 18.8562 31.4833 18.9099H31.4812ZM26.2515 10.4097C26.2515 9.4352 26.6319 8.4834 27.3542 7.84541C27.8619 7.39739 28.483 7.12279 29.1364 7.12279C29.8871 7.12279 30.5709 7.44075 31.0887 7.96311C31.6754 8.55566 31.9728 9.38358 31.9728 10.226V10.5026C31.8514 10.546 31.6896 10.5976 31.4812 10.6513C30.7407 10.8412 29.6261 11.023 28.1957 11.1777C27.5949 11.2439 26.9455 11.3037 26.2515 11.3574V10.4097ZM5.00714 7.14344C6.17243 7.14344 7.17993 7.69676 7.66952 8.67954C7.8617 9.06562 7.94263 9.49714 7.94263 9.93071V11.3719C7.17386 11.3141 6.45768 11.2479 5.80019 11.1777C4.36987 11.023 3.25515 10.8412 2.5147 10.6513C2.30632 10.5976 2.14447 10.548 2.02308 10.5047C2.0332 8.64857 3.36439 7.1455 5.00511 7.1455L5.00714 7.14344ZM9.96571 19.7626V17.2396C9.96571 16.6015 10.1114 15.9657 10.4331 15.4185C10.9934 14.4647 11.9565 13.835 13.051 13.835C13.854 13.835 14.5865 14.1736 15.1388 14.729C15.766 15.3587 16.0835 16.2402 16.0835 17.1384V19.9381C13.8925 19.9236 11.8229 19.8637 9.9637 19.7626H9.96571ZM16.0856 11.6794C13.8946 11.665 11.825 11.6052 9.96571 11.5039V10.8392C9.96571 10.2012 10.1114 9.56527 10.4331 9.01814C10.9934 8.06427 11.9565 7.43455 13.051 7.43455C13.854 7.43455 14.5865 7.77315 15.1388 8.32855C15.766 8.95826 16.0835 9.83987 16.0835 10.738V11.6794H16.0856ZM2.02713 16.5211C2.02713 14.7392 3.36237 13.294 5.01118 13.294C5.61002 13.294 6.18053 13.5108 6.66404 13.8742C7.49148 14.4936 7.94466 15.5053 7.94466 16.5521V19.6325C7.17588 19.5746 6.45971 19.5086 5.8022 19.4384C4.37188 19.2835 3.25716 19.1019 2.51671 18.9119C2.30834 18.8582 2.14649 18.8087 2.02511 18.7633L2.02916 16.5231L2.02713 16.5211ZM2.02308 29.3178V29.2352C2.02511 29.262 2.02713 29.2889 2.02713 29.3178H2.02308ZM2.02713 24.9861C2.02713 23.2043 3.36237 21.7591 5.01118 21.7591C5.61002 21.7591 6.18053 21.9759 6.66404 22.3392C7.49148 22.9586 7.94466 23.9703 7.94466 25.0171V29.644C7.17588 29.5882 6.45768 29.5263 5.80019 29.4582C4.36987 29.3094 3.2511 29.1381 2.50862 28.9565C2.30632 28.9069 2.14649 28.8594 2.02511 28.8201L2.02916 24.9882L2.02713 24.9861ZM9.96571 29.7678V25.4961C9.96571 24.8581 10.1114 24.2222 10.4331 23.6751C10.9934 22.7212 11.9565 22.0915 13.051 22.0915C13.854 22.0915 14.5865 22.4301 15.1388 22.9855C15.766 23.6152 16.0835 24.4968 16.0835 25.395V29.9351C13.8925 29.9227 11.8229 29.8629 9.9637 29.7678H9.96571ZM18.1086 29.9331V25.395C18.1086 24.4989 18.4263 23.6152 19.0534 22.9855C19.6077 22.4301 20.3381 22.0915 21.1413 22.0915C22.2378 22.0915 23.2008 22.7212 23.7611 23.6751C24.0828 24.2222 24.2285 24.8581 24.2285 25.4961V29.7555C22.3753 29.8546 20.3057 29.9144 18.1086 29.9309V29.9331ZM31.9728 29.3178H31.9688C31.9688 29.2889 31.9688 29.262 31.9728 29.2352V29.3178ZM31.4894 28.9565C30.7468 29.1381 29.628 29.3116 28.1978 29.4582C27.5969 29.5201 26.9455 29.5779 26.2515 29.6295V25.0233C26.2515 23.9765 26.7047 22.9628 27.5322 22.3413C28.0177 21.9779 28.5902 21.7591 29.189 21.7591C29.5067 21.7591 29.8142 21.8128 30.1014 21.9139C31.2405 22.3104 31.9749 23.448 31.9749 24.6764V28.8181C31.8534 28.8594 31.6936 28.9048 31.4913 28.9543L31.4894 28.9565Z"
  />
</svg>
