<svg viewBox="0 0 12 12" xmlns="http://www.w3.org/2000/svg">
  <path
    fill-rule="evenodd"
    clip-rule="evenodd"
    d="M6 0C9.3135 0 12 2.6865 12 6C12 9.3135 9.3135 12 6 12C2.6865 12 0 9.3135 0 6C0 2.6865 2.6865 0 6 0ZM6 1.8135C4.88967 1.8135 3.82482 2.25458 3.0397 3.0397C2.25458 3.82482 1.8135 4.88967 1.8135 6C1.8135 7.11033 2.25458 8.17518 3.0397 8.9603C3.82482 9.74542 4.88967 10.1865 6 10.1865C7.11033 10.1865 8.17518 9.74542 8.9603 8.9603C9.74542 8.17518 10.1865 7.11033 10.1865 6C10.1865 4.88967 9.74542 3.82482 8.9603 3.0397C8.17518 2.25458 7.11033 1.8135 6 1.8135Z"
  />
</svg>
