<svg viewBox="0 0 16 16" xmlns="http://www.w3.org/2000/svg">
  <path
    d="M4.82128 10.1055C5.98644 10.1055 6.74996 11.7326 6.75 12.958C6.74983 14.0025 6.2073 15.1475 5.24317 15.1475C4.11823 15.1474 3.31542 13.5802 3.31542 12.2744C3.31547 11.2098 3.85713 10.1056 4.82128 10.1055ZM8.98046 10.7481C10.4268 10.7484 12.1338 12.0143 12.1338 13.2998C12.1334 14.143 11.3907 14.6053 10.5273 14.6055C9.10125 14.6055 7.41367 13.3598 7.41308 12.0342C7.41308 11.1704 8.13671 10.7481 8.98046 10.7481ZM2.93359 6.70997C3.75686 6.71021 4.2392 7.25236 4.23925 8.05567C4.23925 9.50192 2.7122 11.0895 1.32617 11.0899C0.522875 11.0898 0.000206 10.547 0 9.72363C5.4e-05 8.3174 1.52736 6.70997 2.93359 6.70997ZM13.4804 7.15235C14.5047 7.15254 15.1875 7.69504 15.1875 8.51855C15.1868 9.84397 13.3794 10.8484 12.0136 10.8487C10.9691 10.8486 10.3056 10.2454 10.3056 9.46192C10.3058 8.17627 12.0742 7.15235 13.4804 7.15235ZM12.1142 1.88867C13.038 1.88901 13.5205 2.8533 13.5205 3.81739C13.5203 5.10306 12.6561 6.85058 11.3906 6.85058C10.4667 6.85058 9.96502 5.92658 9.96482 4.94239C9.96492 3.61653 10.8688 1.88874 12.1142 1.88867ZM3.07421 2.6123C4.39987 2.6125 5.76551 3.33491 5.76562 4.39942C5.76562 5.40387 4.56027 5.98731 3.37501 5.98731C2.04911 5.98731 0.683595 5.26339 0.683595 4.21875C0.683595 3.25446 1.82868 2.6123 3.07421 2.6123ZM6.79003 0C8.17613 0 9.50282 1.72799 9.50292 3.15429C9.50272 3.97747 9.06035 4.58072 8.2373 4.58106C6.85114 4.58106 5.50489 2.85254 5.50489 1.44629C5.50494 0.642828 5.94643 7.3e-05 6.79003 0Z"
  />
</svg>
