<svg viewBox="0 0 212 189" xmlns="http://www.w3.org/2000/svg">
  <path
    d="M211.699 95.9861C211.699 83.087 201.268 72.8435 188.556 72.8435C182.298 72.8435 176.605 75.308 172.433 79.293C156.5 67.9109 134.683 60.5137 110.402 59.5661L121.024 9.86521L155.549 17.2624C155.931 25.989 163.137 33.0078 172.054 33.0078C181.159 33.0078 188.556 25.6107 188.556 16.5021C188.556 7.39714 181.159 0 172.054 0C165.605 0 159.912 3.79404 157.257 9.29593L118.75 1.13857C117.612 0.947628 116.473 1.13857 115.713 1.70785C114.765 2.27713 114.196 3.22476 114.009 4.36332L102.245 59.7535C77.5851 60.5137 55.3902 67.9109 39.2664 79.4839C34.9239 75.3363 29.1476 73.0258 23.1426 73.0344C10.2436 73.0344 0 83.4654 0 96.177C0 105.66 5.68929 113.627 13.6593 117.233C13.2774 119.507 13.09 121.784 13.09 124.252C13.09 159.912 54.6335 188.938 105.851 188.938C157.069 188.938 198.613 160.103 198.613 124.252C198.613 121.975 198.422 119.507 198.043 117.233C206.01 113.627 211.699 105.469 211.699 95.9861ZM52.7347 112.488C52.7347 103.383 60.1319 95.9861 69.2404 95.9861C78.3454 95.9861 85.7425 103.383 85.7425 112.488C85.7425 121.593 78.3454 128.994 69.2404 128.994C60.1319 129.181 52.7347 121.593 52.7347 112.488ZM145.118 156.309C133.736 167.691 112.11 168.451 105.851 168.451C99.4018 168.451 77.7761 167.5 66.5814 156.309C64.8771 154.601 64.8771 151.946 66.5814 150.238C68.2892 148.533 70.9447 148.533 72.6525 150.238C79.8623 157.447 95.0385 159.912 105.851 159.912C116.664 159.912 132.028 157.447 139.047 150.238C140.754 148.533 143.41 148.533 145.118 150.238C146.635 151.946 146.635 154.601 145.118 156.309ZM142.08 129.181C132.975 129.181 125.578 121.784 125.578 112.679C125.578 103.574 132.975 96.177 142.08 96.177C151.189 96.177 158.586 103.574 158.586 112.679C158.586 121.593 151.189 129.181 142.08 129.181Z"
  />
</svg>
