<svg viewBox="0 0 45 45" xmlns="http://www.w3.org/2000/svg">
  <path
    d="M18.2668 28.4416C18.2668 27.6822 17.6511 27.0666 16.8917 27.0666C16.1323 27.0666 15.5168 27.6822 15.5167 28.4416V39.9916C15.5167 40.751 16.1323 41.3666 16.8917 41.3666C17.6511 41.3666 18.2668 40.751 18.2668 39.9916V28.4416ZM29.8168 39.9916C29.8167 39.2322 29.2011 38.6166 28.4417 38.6166H27.0667V39.9916C27.0667 40.7509 27.6824 41.3666 28.4417 41.3666C29.2011 41.3666 29.8168 40.7509 29.8168 39.9916ZM6.71677 27.0666H5.34172C4.58239 27.0666 3.96676 27.6823 3.96675 28.4416C3.96675 29.2009 4.58238 29.8166 5.34172 29.8166C6.10108 29.8166 6.71677 29.2009 6.71677 28.4416V27.0666ZM41.3668 28.4416C41.3667 27.6822 40.7511 27.0666 39.9917 27.0666H28.4417C27.6823 27.0666 27.0667 27.6822 27.0667 28.4416C27.0667 29.201 27.6823 29.8166 28.4417 29.8166H39.9917C40.7511 29.8166 41.3668 29.201 41.3668 28.4416ZM18.2668 16.8916C18.2667 16.1322 17.6511 15.5166 16.8917 15.5166H5.34172C4.58235 15.5166 3.96676 16.1322 3.96675 16.8916C3.96675 17.651 4.58234 18.2666 5.34172 18.2666H16.8917C17.6511 18.2666 18.2668 17.651 18.2668 16.8916ZM29.8168 5.3416C29.8167 4.58222 29.2011 3.96662 28.4417 3.96662C27.6823 3.96664 27.0667 4.58223 27.0667 5.3416V16.8916C27.0667 17.651 27.6823 18.2666 28.4417 18.2666C29.2011 18.2666 29.8168 17.651 29.8168 16.8916V5.3416ZM41.3668 16.8916C41.3667 16.1323 40.7511 15.5166 39.9917 15.5166C39.2324 15.5166 38.6167 16.1323 38.6167 16.8916V18.2666H39.9917C40.7511 18.2666 41.3668 17.651 41.3668 16.8916ZM18.2668 5.3416C18.2667 4.58226 17.6511 3.96662 16.8917 3.96662C16.1324 3.96664 15.5168 4.58226 15.5167 5.3416C15.5167 6.10095 16.1324 6.71663 16.8917 6.71664H18.2668V5.3416ZM33.1168 39.9916C33.1168 42.5735 31.0236 44.6666 28.4417 44.6666C25.8598 44.6666 23.7667 42.5735 23.7667 39.9916V36.9666C23.7667 36.0553 24.5055 35.3166 25.4167 35.3166H28.4417C31.0236 35.3166 33.1167 37.4097 33.1168 39.9916ZM10.0168 28.4416C10.0168 31.0235 7.92362 33.1166 5.34172 33.1166C2.75984 33.1166 0.666748 31.0235 0.666748 28.4416C0.666759 25.8597 2.75985 23.7666 5.34172 23.7666H8.36677C9.27803 23.7666 10.0168 24.5054 10.0168 25.4166V28.4416ZM21.5668 39.9916C21.5668 42.5735 19.4736 44.6666 16.8917 44.6666C14.3098 44.6666 12.2167 42.5735 12.2167 39.9916V28.4416C12.2168 25.8597 14.3098 23.7666 16.8917 23.7666C19.4736 23.7666 21.5667 25.8597 21.5668 28.4416V39.9916ZM44.6667 28.4416C44.6667 31.0235 42.5736 33.1166 39.9917 33.1166H28.4417C25.8598 33.1166 23.7667 31.0235 23.7667 28.4416C23.7667 25.8597 25.8598 23.7666 28.4417 23.7666H39.9917C42.5736 23.7666 44.6667 25.8597 44.6667 28.4416ZM21.5668 16.8916C21.5668 19.4735 19.4736 21.5666 16.8917 21.5666H5.34172C2.7598 21.5666 0.666748 19.4735 0.666748 16.8916C0.66676 14.3097 2.75981 12.2166 5.34172 12.2166H16.8917C19.4736 12.2166 21.5667 14.3097 21.5668 16.8916ZM44.6667 16.8916C44.6667 19.4735 42.5736 21.5666 39.9917 21.5666H36.9667C36.0555 21.5666 35.3167 20.8279 35.3167 19.9166V16.8916C35.3167 14.3097 37.4098 12.2166 39.9917 12.2166C42.5736 12.2166 44.6667 14.3097 44.6667 16.8916ZM21.5668 8.36664C21.5667 9.2779 20.828 10.0166 19.9168 10.0166H16.8917C14.3098 10.0166 12.2167 7.92349 12.2167 5.3416C12.2168 2.75973 14.3098 0.666637 16.8917 0.666626C19.4736 0.666626 21.5667 2.75972 21.5668 5.3416V8.36664ZM33.1168 16.8916C33.1168 19.4735 31.0236 21.5666 28.4417 21.5666C25.8598 21.5666 23.7667 19.4735 23.7667 16.8916V5.3416C23.7667 2.75969 25.8598 0.666637 28.4417 0.666626C31.0236 0.666626 33.1167 2.75968 33.1168 5.3416V16.8916Z"
  />
</svg>
