<svg viewBox="0 0 44 44" xmlns="http://www.w3.org/2000/svg">
  <path
    d="M16.412 22.351C17.1003 22.3515 17.7819 22.4874 18.4179 22.7511C19.0537 23.0146 19.6315 23.4006 20.1178 23.8871H20.1178C20.6045 24.3735 20.9898 24.9509 21.2525 25.5855C21.5153 26.2204 21.6502 26.9007 21.6495 27.5874V38.7623C21.6508 40.1502 21.0997 41.4815 20.1175 42.4637C19.1353 43.4459 17.8025 43.9984 16.4121 43.9998C16.4118 43.9998 16.4115 43.9998 16.4112 43.9998C13.5161 43.9998 11.1733 41.6529 11.1733 38.7627V27.5874C11.1733 24.6977 13.5162 22.351 16.4112 22.351H16.412ZM27.5869 33.5269C28.977 33.5285 30.3098 34.0809 31.292 35.0631C32.2738 36.0449 32.8249 37.3755 32.8243 38.7625C32.8253 40.1502 32.2742 41.4815 31.292 42.4637C30.3098 43.4459 28.977 43.9984 27.5868 43.9998C27.5864 43.9998 27.5861 43.9998 27.5858 43.9998C24.6908 43.9998 22.3479 41.653 22.3479 38.7633V34.5725C22.3479 33.995 22.817 33.5269 23.3955 33.5269H27.5869ZM38.7613 22.351C40.1516 22.3523 41.4843 22.9051 42.4664 23.8871C43.4485 24.8689 43.9996 26.2 43.9988 27.5874L43.9983 27.6551C43.9621 30.5143 41.6324 32.8244 38.7609 32.8244H27.585C26.8954 32.8239 26.2138 32.6867 25.5788 32.4234V32.4233C24.9429 32.1597 24.3655 31.7738 23.8794 31.2875C23.3932 30.8011 23.0078 30.224 22.7449 29.5891V29.589C22.482 28.9539 22.3471 28.2733 22.3479 27.5862C22.3485 24.6971 24.6912 22.351 27.5858 22.351H38.7613ZM9.42752 22.351C10.0061 22.351 10.4751 22.8192 10.4751 23.3966V27.5865C10.4763 28.9742 9.92516 30.3055 8.9429 31.2876L8.94296 31.2876C7.96075 32.2698 6.62801 32.8222 5.23783 32.8238C5.23704 32.8238 5.23623 32.8238 5.23544 32.8238C4.54725 32.823 3.86566 32.6872 3.22972 32.4234V32.4233C2.594 32.1598 2.01654 31.7738 1.53037 31.2875V31.2874C1.04423 30.8012 0.658672 30.2242 0.395874 29.5891L0.371627 29.5294C0.124738 28.9115 -0.00187543 28.252 -0.00121816 27.5864C-0.000668676 24.6972 2.34198 22.351 5.2366 22.351H9.42752ZM27.5858 24.4423C25.852 24.4423 24.4431 25.8486 24.4431 27.5874C24.4431 27.5878 24.4431 27.5882 24.4431 27.5886C24.4427 27.9882 24.5187 28.384 24.6668 28.7545L24.6813 28.7903L24.6814 28.7905C24.8393 29.1719 25.0707 29.5183 25.3626 29.8103C25.6454 30.0932 25.9795 30.3194 26.3469 30.477L26.3825 30.492L26.3828 30.4922C26.7653 30.6508 27.1744 30.7328 27.5866 30.7331H38.7609C40.4939 30.7331 41.9035 29.3268 41.9036 27.5874V27.5866C41.9042 26.7534 41.5732 25.9541 40.9837 25.3647L40.9836 25.3646C40.3938 24.7748 39.5937 24.443 38.7593 24.4423H27.5858ZM5.2366 24.4423C3.50291 24.4423 2.09406 25.8486 2.09406 27.5874C2.09406 27.5877 2.09406 27.5881 2.09406 27.5884C2.09366 27.988 2.16962 28.384 2.31774 28.7547L2.33235 28.7904L2.33241 28.7906C2.48519 29.1599 2.70714 29.4965 2.98633 29.7827L3.01353 29.8103L3.04109 29.8375C3.31794 30.1077 3.64233 30.3245 3.99788 30.477L4.03354 30.492L4.03385 30.4922C4.4149 30.6502 4.82357 30.7318 5.2366 30.7325C6.07095 30.7312 6.87065 30.3996 7.46005 29.8102L7.46017 29.8101C8.04971 29.2208 8.38057 28.4215 8.37989 27.5883V24.4423H5.2366ZM27.5868 -0.000244141C28.977 0.001142 30.3098 0.553722 31.292 1.53588C32.274 2.51782 32.8251 3.84877 32.8243 5.23614V16.4114L32.8239 16.4764C32.808 17.8404 32.2589 19.1462 31.292 20.1131C30.3098 21.0953 28.977 21.6478 27.5868 21.6491C27.5864 21.6491 27.5861 21.6491 27.5858 21.6491C24.6905 21.6491 22.3479 19.3022 22.3479 16.4114V5.23614C22.3479 2.34651 24.6908 -0.000244141 27.5858 -0.000244141H27.5868ZM19.5543 16.4121C19.5543 14.6728 18.1449 13.2664 16.4112 13.2664H5.2366C3.50303 13.2664 2.09406 14.6726 2.09406 16.4121C2.09407 18.1509 3.50292 19.5572 5.2366 19.5572H16.4118C18.1449 19.5572 19.5543 18.1508 19.5543 16.4121ZM38.7603 11.175C41.6547 11.175 43.9984 13.5212 43.9988 16.4114L43.9985 16.4764C43.9825 17.8405 43.4333 19.1457 42.4665 20.1125L42.4664 20.1126C41.4843 21.0944 40.1516 21.6472 38.7613 21.6485H34.57C33.9915 21.6485 33.5224 21.1804 33.5224 20.6029V16.4121C33.5224 13.5219 35.8651 11.175 38.7603 11.175ZM16.4122 -0.000244141C17.8025 0.00114224 19.1353 0.553719 20.1175 1.53588C21.0994 2.51777 21.6506 3.84869 21.6495 5.23614V9.42691C21.6495 10.0044 21.1805 10.4725 20.602 10.4725H16.4101C15.7432 10.4718 15.0828 10.3442 14.4642 10.0966L14.4045 10.0723C13.7886 9.81691 13.2274 9.44667 12.7508 8.98161L12.705 8.93634C12.2187 8.44999 11.8332 7.87283 11.5704 7.23779C11.3076 6.60273 11.1727 5.92219 11.1733 5.2351C11.1739 2.34596 13.5165 -0.000244141 16.4112 -0.000244141H16.4122ZM16.4106 2.0911C14.6772 2.09139 13.2686 3.4976 13.2686 5.23614C13.2686 5.23648 13.2686 5.23684 13.2686 5.23718C13.2681 5.64965 13.3492 6.05817 13.5069 6.43939C13.6647 6.82062 13.8961 7.16708 14.188 7.45903V7.45909C14.4799 7.75103 14.8266 7.98271 15.2082 8.14095L15.2441 8.15553C15.6154 8.30416 16.0119 8.38083 16.4122 8.38124H19.5543V5.23516C19.5551 4.40217 19.2242 3.60291 18.6345 3.01325C18.045 2.42372 17.2451 2.09206 16.4106 2.0911ZM24.4431 38.7633C24.4431 40.5019 25.8517 41.9081 27.5852 41.9083C28.4196 41.9074 29.2195 41.5759 29.809 40.9863C30.3987 40.3966 30.7297 39.5973 30.7291 38.7641C30.7291 38.7636 30.7291 38.763 30.7291 38.7625C30.7297 37.9295 30.3987 37.1302 29.809 36.5405C29.2286 35.9601 28.4442 35.6296 27.6237 35.6185L27.5846 35.6182H24.4431V38.7633ZM13.2686 38.7627C13.2686 40.502 14.6773 41.9081 16.4106 41.9083C17.2451 41.9074 18.045 41.5759 18.6345 40.9863C19.2242 40.3966 19.5551 39.5974 19.5543 38.7643V27.5862C19.5548 27.1737 19.4739 26.7653 19.3161 26.3841C19.1582 26.0026 18.9267 25.6561 18.635 25.3647L18.6347 25.3643C18.3428 25.0724 17.9961 24.8407 17.6145 24.6826L17.6142 24.6824C17.2327 24.5242 16.8238 24.4426 16.4107 24.4423C14.6772 24.4425 13.2686 25.8488 13.2686 27.5874V38.7627ZM21.6495 16.4121C21.6495 19.3019 19.306 21.6485 16.4118 21.6485H5.2366C2.34165 21.6485 -0.00120677 19.3018 -0.00121816 16.4121C-0.00121816 13.5219 2.34153 11.175 5.2366 11.175H16.4112C19.306 11.175 21.6495 13.5217 21.6495 16.4121ZM35.6177 19.5572H38.7593C39.5937 19.5564 40.3939 19.2246 40.9837 18.635C41.5733 18.0454 41.9042 17.246 41.9036 16.4129V16.4121C41.9036 14.6728 40.494 13.2664 38.7603 13.2664C37.0266 13.2664 35.6177 14.6726 35.6177 16.4121V19.5572ZM24.4431 16.4114C24.4431 18.1515 25.8519 19.5575 27.5852 19.5578C28.4196 19.5569 29.2195 19.2253 29.809 18.6357C30.3986 18.0462 30.7297 17.2462 30.7291 16.4129V5.23534C30.7297 4.40222 30.3987 3.60291 29.809 3.01325C29.2195 2.42372 28.4196 2.09206 27.5852 2.0911C25.8517 2.09139 24.4431 3.49761 24.4431 5.23614V16.4114Z"
  />
</svg>
