<svg
  width="679"
  height="233"
  viewBox="0 0 679 233"
  fill="none"
  xmlns="http://www.w3.org/2000/svg"
>
  <g clip-path="url(#clip0_863_150)">
    <path
      fill-rule="evenodd"
      clip-rule="evenodd"
      d="M387.536 72.3777C395.554 70.0185 399.515 76.5614 400.331 83.6881C400.787 87.6284 400.283 91.7635 398.963 94.6579C398.026 96.701 396.706 98.6225 394.858 99.8145C393.729 100.544 392.361 100.982 390.993 100.958C389.48 100.909 388.712 100.398 388.712 100.398C388.462 101.36 388.226 102.313 387.992 103.258C386.947 107.475 385.942 111.533 383.863 115.527C381.583 119.93 378.534 123.943 374.933 127.324C360.938 140.434 338.037 142.891 320.177 137.978C305.053 133.818 293.627 122.484 289.522 107.136C288.802 107.233 288.13 107.306 287.746 107.306C281.696 107.306 277.495 101.59 277.495 93.4175C277.495 85.2447 281.696 79.5288 287.746 79.5531C287.962 79.5531 288.394 79.5531 289.714 79.772C289.823 79.3401 289.924 78.8916 290.025 78.442C290.169 77.8027 290.313 77.1611 290.482 76.5614L313.695 86.6555C316.144 99.182 333.98 105.044 340.918 92.785C341.001 92.6326 341.216 92.0382 341.472 91.328C341.952 89.9977 342.578 88.2609 342.766 88.2609H344.758C346.151 93.9038 352.68 99.2063 358.538 99.2063C369.1 99.2063 373.829 92.3228 374.549 82.6666L385.952 69.3374C386.252 69.9698 386.498 70.4137 386.744 70.8576C386.99 71.3015 387.236 71.7454 387.536 72.3777ZM354.313 115.114L360.266 114.116C363.075 113.63 364.947 110.954 364.515 108.133C364.059 105.312 361.418 103.414 358.633 103.876L327.907 109.057C325.122 109.544 323.25 112.219 323.706 115.041C324.114 117.57 326.274 119.37 328.747 119.37C329.035 119.37 329.299 119.346 329.587 119.297L333.86 118.568L351.846 115.527L354.313 115.114Z"
      fill="white"
    />
    <path
      d="M349.896 37.6684C353.28 41.6088 355.561 45.8897 356.737 52.4083C357.169 54.792 355.897 57.1999 353.688 58.1242C353.568 58.1729 353.424 58.2215 353.304 58.2703C350.352 59.2919 347.231 57.3215 346.655 54.2326C346.487 53.3326 346.295 52.4327 346.055 51.6057V51.5813C346.055 51.5813 346.007 51.4354 345.935 51.1679C345.215 48.5896 341.23 36.209 338.781 36.428C338.781 36.428 338.421 36.3063 336.212 36.5982C336.164 36.5982 336.116 36.6226 336.068 36.6226C336.045 36.6226 336.045 36.6226 336.021 36.6226C335.324 36.7198 334.484 36.8415 333.596 37.0117C333.884 37.255 334.148 37.4982 334.436 37.7657C336.021 39.3954 339.477 43.4331 341.278 53.3083C341.83 56.4216 339.501 59.3405 336.404 59.2919C336.381 59.2919 336.333 59.2919 336.309 59.2919C333.836 59.2432 331.819 57.2972 331.507 54.8163C330.571 47.1059 326.514 40.2224 324.474 39.4927L325.17 39.1765C315.208 42.6061 302.173 50.2436 294.227 66.8563L314.848 75.8073C315.736 73.7885 316.984 71.9157 318.568 70.3832C321.569 67.4888 325.482 66.0293 329.491 66.2482C336.021 66.6132 341.35 71.4048 343.27 77.8504H344.782C345.647 74.3235 347.303 71.1616 349.751 68.8022C352.68 66.005 356.401 64.7646 360.146 64.7646C365.115 64.7646 369.676 68.0238 371.428 72.329L381.559 60.8241C372.653 47.6653 358.778 39.7116 349.896 37.6684Z"
      fill="white"
    />
    <path
      d="M359.594 76.2446C359.546 76.2446 359.474 76.2446 359.426 76.2446C358.274 76.2446 357.361 76.8041 356.761 77.2664C355.201 78.5554 354.265 80.7201 354.265 83.0552C354.265 85.3904 355.201 87.555 356.761 88.8443C357.361 89.3306 358.37 89.8902 359.594 89.8658C360.818 89.8172 362.09 89.0388 363.051 87.7982C362.619 87.993 362.162 88.1389 361.658 88.1389C360.026 88.1389 358.73 86.9955 358.73 85.5849C358.73 84.1741 360.026 83.0552 361.658 83.0552C362.859 83.0552 363.891 83.6877 364.347 84.5877C364.443 84.0768 364.587 83.6147 364.587 83.0552C364.587 79.1149 361.994 76.3664 359.594 76.2446Z"
      fill="white"
    />
    <path
      d="M328.939 76.6099C328.867 76.6099 328.795 76.6099 328.699 76.6099C327.306 76.6099 326.25 77.3153 325.602 77.9475C324.33 79.1638 323.586 81.0367 323.586 83.0555C323.586 85.0743 324.33 86.9471 325.602 88.1634C326.274 88.82 327.331 89.5984 328.915 89.4768C329.635 89.4282 330.307 89.185 330.907 88.7957C329.635 88.4796 328.699 87.3608 328.699 85.9742C328.699 84.3691 330.019 83.0555 331.627 83.0555C332.444 83.0555 333.164 83.3959 333.692 83.9311C333.716 83.6393 333.836 83.3716 333.836 83.0555C333.836 79.6502 331.627 76.7558 328.939 76.6099Z"
      fill="white"
    />
  </g>
  <path
    d="M486.03 231.901C486.465 229.726 486.9 227.569 487.335 225.433C487.81 223.257 488.245 221.121 488.641 219.024C490.144 211.507 491.37 204.307 492.32 197.423C491.885 197.344 491.43 197.304 490.955 197.304C490.48 197.265 490.025 197.265 489.59 197.304C488.641 197.384 487.711 197.265 486.801 196.948C486.841 196.632 486.86 196.296 486.86 195.94C486.86 195.544 486.86 195.148 486.86 194.753C486.86 194.318 486.86 193.902 486.86 193.507C486.86 193.071 486.88 192.656 486.92 192.26C486.959 191.825 486.979 191.37 486.979 190.895C486.979 190.381 486.999 189.867 487.038 189.353C488.067 189.432 489.096 189.491 490.124 189.531C491.153 189.57 492.181 189.59 493.21 189.59C496.138 189.59 498.927 189.491 501.577 189.293C504.268 189.095 506.74 188.858 508.995 188.581L508.343 191.786L507.808 194.575C507.611 195.603 507.433 196.414 507.274 197.008C506.839 197.126 506.404 197.225 505.969 197.304C505.534 197.384 505.098 197.443 504.663 197.483C504.228 197.522 503.773 197.581 503.298 197.661C502.863 197.74 502.428 197.819 501.993 197.898C501.399 200.825 500.905 203.357 500.509 205.494C500.153 207.63 499.817 209.687 499.5 211.665C499.223 213.604 498.887 215.74 498.492 218.075C497.819 222.07 497.226 226.125 496.711 230.24L486.03 231.901Z"
    fill="white"
  />
  <path
    d="M469.621 231.724C469.7 231.051 469.779 230.398 469.858 229.765C469.937 229.132 470.017 228.499 470.096 227.866L470.452 224.543C470.491 223.989 470.531 223.475 470.57 223C470.61 222.525 470.65 222.09 470.689 221.695H465.526L463.153 230.24C462.282 230.359 461.254 230.497 460.067 230.655C458.88 230.774 457.772 230.893 456.743 231.011C456.11 231.091 455.478 231.17 454.845 231.249C454.251 231.328 453.638 231.407 453.005 231.486L457.693 215.938C458.247 214.079 458.88 211.962 459.592 209.589C460.304 207.215 461.016 204.782 461.728 202.289C462.48 199.797 463.172 197.463 463.805 195.287C464.478 193.072 465.012 191.212 465.408 189.709C468.098 189.511 470.828 189.274 473.597 188.997C476.406 188.72 479.136 188.344 481.786 187.869C481.588 190.085 481.391 192.597 481.193 195.406C481.035 198.175 480.876 201.043 480.718 204.01C480.599 206.978 480.461 209.905 480.303 212.793C480.224 215.523 480.125 218.352 480.006 221.279C479.887 224.167 479.769 227.134 479.65 230.181C479.056 230.26 478.463 230.339 477.87 230.418C477.276 230.497 476.683 230.576 476.089 230.655C475.1 230.814 474.012 230.992 472.825 231.19C471.639 231.387 470.57 231.565 469.621 231.724ZM466.951 215.76C467.188 215.76 467.623 215.741 468.256 215.701C468.929 215.661 469.562 215.622 470.155 215.582C470.748 215.543 471.105 215.523 471.223 215.523C471.223 215.009 471.302 213.96 471.461 212.378C471.619 210.795 471.777 209.134 471.935 207.393C472.014 206.364 472.094 205.316 472.173 204.248C472.291 203.14 472.41 202.013 472.529 200.865L472.885 195.702L471.995 195.762L470.63 200.865L466.951 215.76Z"
    fill="white"
  />
  <path
    d="M425.566 231.961C426.08 229.231 426.575 226.541 427.049 223.89C427.564 221.2 428.078 218.529 428.592 215.879C429.146 212.595 429.66 209.509 430.135 206.621C430.649 203.733 431.144 200.865 431.619 198.017C432.133 195.168 432.627 192.181 433.102 189.056L442.716 188.403C442.043 191.172 441.371 194.06 440.698 197.067C440.065 200.074 439.472 203.001 438.918 205.85L444.793 205.197C445.07 203.812 445.327 202.447 445.564 201.102C445.841 199.718 446.079 198.353 446.276 197.008C446.474 195.702 446.712 194.377 446.989 193.032C447.305 191.647 447.641 190.262 447.997 188.878C449.422 188.64 450.866 188.462 452.329 188.344C453.793 188.185 455.02 188.086 456.009 188.047C456.998 187.968 457.492 187.928 457.492 187.928C456.978 189.511 456.464 191.37 455.949 193.506C455.435 195.643 454.94 197.898 454.466 200.272C453.991 202.645 453.536 205.019 453.101 207.393C452.666 209.727 452.27 211.903 451.914 213.92C451.479 216.452 451.063 219.004 450.668 221.576C450.272 224.108 449.877 226.699 449.481 229.35L440.223 230.418C440.5 229.231 440.738 228.064 440.936 226.917C441.173 225.73 441.39 224.582 441.588 223.475C441.984 221.576 442.38 219.598 442.775 217.54C443.21 215.483 443.547 213.723 443.784 212.259L438.028 212.793C437.869 213.545 437.711 214.356 437.553 215.226C437.434 216.096 437.276 217.026 437.078 218.015C436.88 219.004 436.683 219.973 436.485 220.923C436.327 221.833 436.168 222.743 436.01 223.653C435.812 224.721 435.595 225.789 435.357 226.857C435.12 227.925 434.902 228.994 434.705 230.062L425.566 231.961Z"
    fill="white"
  />
  <path
    d="M408.293 231.961C405.801 231.961 403.763 230.794 402.181 228.46C400.598 226.125 399.807 222.921 399.807 218.846C399.807 215.127 400.321 211.468 401.35 207.868C402.379 204.228 403.823 200.964 405.682 198.076C407.542 195.188 409.737 192.874 412.269 191.133C414.841 189.353 417.669 188.462 420.755 188.462C422.694 188.462 424.355 189.214 425.74 190.717C427.125 192.221 427.817 194.238 427.817 196.77V197.483C427.817 197.641 427.817 197.779 427.817 197.898C427.817 198.017 427.797 198.155 427.758 198.313L419.984 200.39C419.509 199.401 418.955 198.907 418.322 198.907C417.373 198.907 416.364 199.678 415.296 201.221C414.267 202.764 413.278 204.604 412.329 206.74C411.696 208.164 411.122 209.628 410.608 211.131C410.133 212.635 409.757 214.039 409.48 215.345C409.203 216.65 409.065 217.718 409.065 218.549C409.065 219.776 409.243 220.666 409.599 221.22C409.876 221.734 410.311 221.991 410.904 221.991C411.498 221.991 412.15 221.714 412.863 221.16C413.575 220.567 414.228 219.835 414.821 218.965C415.454 218.094 415.869 217.224 416.067 216.354L422.832 219.083C420.894 223.514 418.579 226.778 415.889 228.875C413.238 230.932 410.706 231.961 408.293 231.961Z"
    fill="white"
  />
  <path
    d="M358.62 232.079C357.157 232.079 355.792 231.961 354.526 231.723C356.425 224.8 357.928 217.837 359.036 210.835C360.183 203.793 361.271 196.711 362.3 189.59C364.357 189.155 366.493 188.779 368.709 188.462C370.924 188.106 373.219 187.928 375.592 187.928C376.898 187.928 378.283 188.166 379.746 188.64C381.21 189.076 382.437 189.887 383.426 191.073C384.454 192.221 384.969 193.863 384.969 195.999C384.969 197.977 384.553 199.797 383.722 201.458C382.892 203.12 381.843 204.544 380.577 205.731C379.311 206.918 378.006 207.769 376.661 208.283C377.214 208.56 377.867 209.054 378.619 209.766C379.371 210.479 380.023 211.428 380.577 212.615C381.131 213.802 381.408 215.246 381.408 216.947C381.408 219.321 380.696 221.477 379.272 223.415C377.887 225.314 376.028 226.897 373.693 228.163C371.438 229.429 369.005 230.398 366.394 231.071C363.783 231.743 361.192 232.079 358.62 232.079ZM369.183 203.417C370.41 203.179 371.577 202.863 372.685 202.467C373.792 202.072 374.682 201.617 375.355 201.102C376.067 200.588 376.423 200.034 376.423 199.441C376.423 198.689 376.126 198.096 375.533 197.66C374.94 197.225 374.228 196.909 373.397 196.711C372.566 196.513 371.794 196.414 371.082 196.414H370.489C370.212 197.997 369.955 199.381 369.717 200.568C369.48 201.716 369.302 202.665 369.183 203.417ZM366.157 220.092C366.948 220.013 367.818 219.875 368.768 219.677C369.717 219.479 370.627 219.182 371.498 218.787C372.368 218.351 373.08 217.798 373.634 217.125C374.228 216.413 374.524 215.562 374.524 214.573C374.524 213.624 374.208 212.872 373.575 212.318C372.942 211.764 372.17 211.369 371.26 211.131C370.39 210.854 369.559 210.716 368.768 210.716H368.293C368.095 210.716 367.937 210.736 367.818 210.775C367.581 212.239 367.304 213.782 366.988 215.404C366.671 217.026 366.394 218.589 366.157 220.092Z"
    fill="white"
  />
  <path
    d="M331.867 231.902L339.641 189.709L358.394 188.106C358.117 188.977 357.879 189.867 357.681 190.777C357.484 191.529 357.286 192.32 357.088 193.151C356.93 193.942 356.791 194.654 356.673 195.287C356.158 195.327 355.426 195.366 354.477 195.406C353.527 195.406 352.558 195.425 351.569 195.465C350.58 195.465 349.729 195.465 349.017 195.465C348.305 195.465 347.929 195.465 347.89 195.465L345.813 206.087L349.255 205.909C349.69 205.87 350.125 205.85 350.56 205.85C351.035 205.85 351.49 205.85 351.925 205.85C352.36 205.85 352.756 205.85 353.112 205.85C353.468 205.85 353.745 205.83 353.943 205.791C353.864 206.345 353.785 206.898 353.705 207.452C353.666 207.967 353.607 208.501 353.527 209.055L352.993 212.318C352.795 212.358 352.538 212.378 352.222 212.378C351.905 212.378 351.529 212.378 351.094 212.378C350.659 212.417 350.204 212.437 349.729 212.437C349.255 212.437 348.8 212.457 348.365 212.496C347.85 212.536 347.316 212.556 346.762 212.556C346.208 212.556 345.615 212.576 344.982 212.615L342.964 223.534L351.628 222.169L351.035 228.934L331.867 231.902Z"
    fill="white"
  />
  <path
    d="M295.218 232.079L299.728 189.946C300.638 189.906 301.528 189.847 302.398 189.768C303.308 189.649 304.179 189.511 305.009 189.352C305.801 189.194 306.612 189.076 307.442 188.996C308.273 188.878 309.084 188.799 309.875 188.759L309.697 189.946C309.658 190.342 309.579 190.796 309.46 191.311C309.381 191.786 309.302 192.339 309.223 192.972C309.025 194.357 308.788 195.94 308.511 197.72C308.234 199.5 307.917 201.478 307.561 203.654C307.324 204.999 307.047 206.621 306.73 208.52C306.453 210.419 306.117 212.575 305.721 214.989H306.612C307.126 213.169 307.601 211.507 308.036 210.004C308.471 208.5 308.847 207.175 309.163 206.028C309.48 204.881 309.777 203.852 310.054 202.942C310.37 201.993 310.627 201.142 310.825 200.39C311.656 197.463 312.328 195.069 312.843 193.21C313.357 191.35 313.693 190.144 313.851 189.59H314.386C315.414 189.59 316.482 189.511 317.59 189.352C318.737 189.194 319.766 189.016 320.676 188.818C320.636 188.977 320.557 189.629 320.439 190.777C320.32 191.924 320.181 193.328 320.023 194.99C319.865 196.652 319.707 198.373 319.548 200.153C319.271 203.516 319.014 206.443 318.777 208.936C318.579 211.428 318.401 213.446 318.243 214.989H319.311L324.949 189.471L328.925 188.937C329.478 188.858 330.052 188.779 330.646 188.7C331.239 188.621 331.852 188.541 332.485 188.462C333.632 188.304 334.72 188.126 335.749 187.928C334.562 191.251 333.375 195.168 332.188 199.678C331.002 204.188 329.815 208.758 328.628 213.386C327.995 215.918 327.362 218.49 326.729 221.101C326.135 223.672 325.542 226.303 324.949 228.994L311.537 231.249L314.148 208.342H313.436L307.561 229.884L295.218 232.079Z"
    fill="white"
  />
  <path
    d="M255.51 231.902L263.283 189.709L282.036 188.106C281.759 188.977 281.522 189.867 281.324 190.777C281.126 191.529 280.928 192.32 280.73 193.151C280.572 193.942 280.434 194.654 280.315 195.287C279.801 195.327 279.069 195.366 278.119 195.406C277.17 195.406 276.2 195.425 275.211 195.465C274.222 195.465 273.372 195.465 272.66 195.465C271.948 195.465 271.572 195.465 271.532 195.465L269.455 206.087L272.897 205.909C273.332 205.87 273.767 205.85 274.203 205.85C274.677 205.85 275.132 205.85 275.567 205.85C276.003 205.85 276.398 205.85 276.754 205.85C277.11 205.85 277.387 205.83 277.585 205.791C277.506 206.345 277.427 206.898 277.348 207.452C277.308 207.967 277.249 208.501 277.17 209.055L276.636 212.318C276.438 212.358 276.181 212.378 275.864 212.378C275.548 212.378 275.172 212.378 274.737 212.378C274.301 212.417 273.847 212.437 273.372 212.437C272.897 212.437 272.442 212.457 272.007 212.496C271.493 212.536 270.958 212.556 270.405 212.556C269.851 212.556 269.257 212.576 268.624 212.615L266.607 223.534L275.271 222.169L274.677 228.934L255.51 231.902Z"
    fill="white"
  />
  <path
    d="M229.434 232.139C228.88 232.139 228.326 232.099 227.772 232.02C227.218 231.98 226.664 231.921 226.111 231.842L229.256 215.879C229.651 213.703 230.067 211.408 230.502 208.995C230.977 206.542 231.432 204.129 231.867 201.755C232.302 199.342 232.678 197.106 232.994 195.049C233.35 192.992 233.627 191.251 233.825 189.827C235.526 189.511 237.247 189.214 238.988 188.937C240.729 188.66 242.509 188.521 244.329 188.521C247.256 188.521 249.571 189.135 251.272 190.361C252.973 191.548 254.2 193.13 254.951 195.109C255.703 197.047 256.079 199.183 256.079 201.518C256.079 203.614 255.782 205.83 255.189 208.164C254.595 210.459 253.745 212.753 252.637 215.048C251.569 217.303 250.283 219.439 248.78 221.457C246.445 224.582 243.597 227.154 240.234 229.171C236.911 231.15 233.311 232.139 229.434 232.139ZM236.496 224.661C237.88 223.751 239.186 222.367 240.412 220.507C241.678 218.648 242.865 216.413 243.973 213.802C244.962 211.388 245.733 209.114 246.287 206.977C246.841 204.801 247.118 203.001 247.118 201.577C247.118 200.113 246.703 198.966 245.872 198.135C245.081 197.304 243.815 196.889 242.074 196.889C241.441 200.291 240.788 203.436 240.116 206.324C239.483 209.212 238.85 212.12 238.217 215.048C237.623 217.975 237.049 221.18 236.496 224.661Z"
    fill="white"
  />
  <path
    d="M204.381 232.08C201.77 232.08 199.634 231.071 197.972 229.053C196.311 227.035 195.48 223.989 195.48 219.914C195.48 217.659 195.757 215.285 196.311 212.793C196.865 210.301 197.636 207.848 198.625 205.435C199.614 203.021 200.762 200.786 202.067 198.729C204.164 195.406 206.577 192.696 209.307 190.599C212.037 188.502 214.905 187.454 217.912 187.454C220.285 187.454 222.105 188.067 223.371 189.293C224.677 190.48 225.587 192.023 226.101 193.922C226.615 195.781 226.872 197.72 226.872 199.738C226.872 204.445 226.141 208.837 224.677 212.912C223.253 216.947 221.393 220.369 219.098 223.178C216.804 226.066 214.351 228.282 211.74 229.825C209.168 231.328 206.716 232.08 204.381 232.08ZM207.586 222.288C209.366 222.288 210.929 221.695 212.274 220.508C213.659 219.321 214.826 217.817 215.775 215.998C216.725 214.138 217.437 212.2 217.912 210.182C218.386 208.164 218.624 206.344 218.624 204.722C218.624 204.089 218.564 203.417 218.446 202.705C218.327 201.953 218.07 201.3 217.674 200.746C217.279 200.193 216.665 199.916 215.835 199.916C214.015 199.916 212.373 200.588 210.909 201.933C209.445 203.239 208.219 204.9 207.23 206.918C206.241 208.975 205.509 210.993 205.034 212.971C204.559 214.949 204.322 216.749 204.322 218.371C204.322 219.202 204.619 220.072 205.212 220.982C205.806 221.853 206.597 222.288 207.586 222.288Z"
    fill="white"
  />
  <path
    d="M177.481 231.961C174.989 231.961 172.952 230.794 171.369 228.46C169.787 226.125 168.995 222.921 168.995 218.846C168.995 215.127 169.51 211.468 170.538 207.868C171.567 204.228 173.011 200.964 174.87 198.076C176.73 195.188 178.925 192.874 181.457 191.133C184.029 189.353 186.858 188.462 189.943 188.462C191.882 188.462 193.544 189.214 194.928 190.717C196.313 192.221 197.005 194.238 197.005 196.77V197.483C197.005 197.641 197.005 197.779 197.005 197.898C197.005 198.017 196.985 198.155 196.946 198.313L189.172 200.39C188.697 199.401 188.143 198.907 187.51 198.907C186.561 198.907 185.552 199.678 184.484 201.221C183.455 202.764 182.466 204.604 181.517 206.74C180.884 208.164 180.31 209.628 179.796 211.131C179.321 212.635 178.945 214.039 178.668 215.345C178.391 216.65 178.253 217.718 178.253 218.549C178.253 219.776 178.431 220.666 178.787 221.22C179.064 221.734 179.499 221.991 180.093 221.991C180.686 221.991 181.339 221.714 182.051 221.16C182.763 220.567 183.416 219.835 184.009 218.965C184.642 218.094 185.058 217.224 185.255 216.354L192.02 219.083C190.082 223.514 187.768 226.778 185.077 228.875C182.427 230.932 179.895 231.961 177.481 231.961Z"
    fill="white"
  />
  <g filter="url(#filter0_d_863_150)">
    <rect
      x="8.99536"
      y="57.0454"
      width="60"
      height="60"
      rx="15"
      transform="rotate(-13.0929 8.99536 57.0454)"
      fill="white"
    />
    <path
      d="M59.792 73.8532C56.5585 73.2849 53.4637 72.103 50.6747 70.3712C46.7873 67.9455 43.6204 64.523 41.5031 60.4594C41.4097 60.2787 41.2587 60.1344 41.0741 60.0492C40.8894 59.964 40.6817 59.9427 40.4836 59.9888C40.2855 60.0348 40.1084 60.1456 39.9804 60.3036C39.8523 60.4615 39.7805 60.6577 39.7763 60.861C39.6671 65.4418 38.335 69.9102 35.9183 73.8032C34.1794 76.5878 31.9238 79.0141 29.2732 80.9511C28.2373 81.7147 27.147 82.3884 26.0068 82.9765C25.8247 83.0689 25.6788 83.2197 25.5925 83.4047C25.5062 83.5898 25.4844 83.7984 25.5307 83.9973C25.5769 84.1962 25.6886 84.3739 25.8477 84.5018C26.0068 84.6298 26.2042 84.7008 26.4084 84.7033C27.6907 84.7262 28.9629 84.8503 30.2329 85.0777C33.4664 85.6459 36.5612 86.8278 39.3502 88.5596C43.2385 90.9855 46.4062 94.4085 48.524 98.4728C48.6163 98.6549 48.7671 98.8008 48.9522 98.8871C49.1372 98.9734 49.3459 98.9952 49.5448 98.9489C49.7437 98.9027 49.9213 98.7911 50.0493 98.6319C50.1773 98.4728 50.2482 98.2754 50.2507 98.0712C50.2732 96.7872 50.3974 95.515 50.6247 94.2449C51.1928 91.0115 52.3748 87.9166 54.1066 85.1276C56.533 81.24 59.956 78.073 64.0203 75.9557C64.2009 75.8622 64.3452 75.7113 64.4304 75.5266C64.5157 75.342 64.5369 75.1342 64.4909 74.9361C64.4448 74.7381 64.334 74.561 64.1761 74.4329C64.0181 74.3048 63.822 74.233 63.6187 74.2289C62.3351 74.2058 61.0555 74.0802 59.792 73.8532Z"
      fill="#3186FF"
    />
    <path
      d="M59.792 73.8532C56.5585 73.2849 53.4637 72.103 50.6747 70.3712C46.7873 67.9455 43.6204 64.523 41.5031 60.4594C41.4097 60.2787 41.2587 60.1344 41.0741 60.0492C40.8894 59.964 40.6817 59.9427 40.4836 59.9888C40.2855 60.0348 40.1084 60.1456 39.9804 60.3036C39.8523 60.4615 39.7805 60.6577 39.7763 60.861C39.6671 65.4418 38.335 69.9102 35.9183 73.8032C34.1794 76.5878 31.9238 79.0141 29.2732 80.9511C28.2373 81.7147 27.147 82.3884 26.0068 82.9765C25.8247 83.0689 25.6788 83.2197 25.5925 83.4047C25.5062 83.5898 25.4844 83.7984 25.5307 83.9973C25.5769 84.1962 25.6886 84.3739 25.8477 84.5018C26.0068 84.6298 26.2042 84.7008 26.4084 84.7033C27.6907 84.7262 28.9629 84.8503 30.2329 85.0777C33.4664 85.6459 36.5612 86.8278 39.3502 88.5596C43.2385 90.9855 46.4062 94.4085 48.524 98.4728C48.6163 98.6549 48.7671 98.8008 48.9522 98.8871C49.1372 98.9734 49.3459 98.9952 49.5448 98.9489C49.7437 98.9027 49.9213 98.7911 50.0493 98.6319C50.1773 98.4728 50.2482 98.2754 50.2507 98.0712C50.2732 96.7872 50.3974 95.515 50.6247 94.2449C51.1928 91.0115 52.3748 87.9166 54.1066 85.1276C56.533 81.24 59.956 78.073 64.0203 75.9557C64.2009 75.8622 64.3452 75.7113 64.4304 75.5266C64.5157 75.342 64.5369 75.1342 64.4909 74.9361C64.4448 74.7381 64.334 74.561 64.1761 74.4329C64.0181 74.3048 63.822 74.233 63.6187 74.2289C62.3351 74.2058 61.0555 74.0802 59.792 73.8532Z"
      fill="url(#paint0_linear_863_150)"
    />
    <path
      d="M59.792 73.8532C56.5585 73.2849 53.4637 72.103 50.6747 70.3712C46.7873 67.9455 43.6204 64.523 41.5031 60.4594C41.4097 60.2787 41.2587 60.1344 41.0741 60.0492C40.8894 59.964 40.6817 59.9427 40.4836 59.9888C40.2855 60.0348 40.1084 60.1456 39.9804 60.3036C39.8523 60.4615 39.7805 60.6577 39.7763 60.861C39.6671 65.4418 38.335 69.9102 35.9183 73.8032C34.1794 76.5878 31.9238 79.0141 29.2732 80.9511C28.2373 81.7147 27.147 82.3884 26.0068 82.9765C25.8247 83.0689 25.6788 83.2197 25.5925 83.4047C25.5062 83.5898 25.4844 83.7984 25.5307 83.9973C25.5769 84.1962 25.6886 84.3739 25.8477 84.5018C26.0068 84.6298 26.2042 84.7008 26.4084 84.7033C27.6907 84.7262 28.9629 84.8503 30.2329 85.0777C33.4664 85.6459 36.5612 86.8278 39.3502 88.5596C43.2385 90.9855 46.4062 94.4085 48.524 98.4728C48.6163 98.6549 48.7671 98.8008 48.9522 98.8871C49.1372 98.9734 49.3459 98.9952 49.5448 98.9489C49.7437 98.9027 49.9213 98.7911 50.0493 98.6319C50.1773 98.4728 50.2482 98.2754 50.2507 98.0712C50.2732 96.7872 50.3974 95.515 50.6247 94.2449C51.1928 91.0115 52.3748 87.9166 54.1066 85.1276C56.533 81.24 59.956 78.073 64.0203 75.9557C64.2009 75.8622 64.3452 75.7113 64.4304 75.5266C64.5157 75.342 64.5369 75.1342 64.4909 74.9361C64.4448 74.7381 64.334 74.561 64.1761 74.4329C64.0181 74.3048 63.822 74.233 63.6187 74.2289C62.3351 74.2058 61.0555 74.0802 59.792 73.8532Z"
      fill="url(#paint1_linear_863_150)"
    />
    <path
      d="M59.792 73.8532C56.5585 73.2849 53.4637 72.103 50.6747 70.3712C46.7873 67.9455 43.6204 64.523 41.5031 60.4594C41.4097 60.2787 41.2587 60.1344 41.0741 60.0492C40.8894 59.964 40.6817 59.9427 40.4836 59.9888C40.2855 60.0348 40.1084 60.1456 39.9804 60.3036C39.8523 60.4615 39.7805 60.6577 39.7763 60.861C39.6671 65.4418 38.335 69.9102 35.9183 73.8032C34.1794 76.5878 31.9238 79.0141 29.2732 80.9511C28.2373 81.7147 27.147 82.3884 26.0068 82.9765C25.8247 83.0689 25.6788 83.2197 25.5925 83.4047C25.5062 83.5898 25.4844 83.7984 25.5307 83.9973C25.5769 84.1962 25.6886 84.3739 25.8477 84.5018C26.0068 84.6298 26.2042 84.7008 26.4084 84.7033C27.6907 84.7262 28.9629 84.8503 30.2329 85.0777C33.4664 85.6459 36.5612 86.8278 39.3502 88.5596C43.2385 90.9855 46.4062 94.4085 48.524 98.4728C48.6163 98.6549 48.7671 98.8008 48.9522 98.8871C49.1372 98.9734 49.3459 98.9952 49.5448 98.9489C49.7437 98.9027 49.9213 98.7911 50.0493 98.6319C50.1773 98.4728 50.2482 98.2754 50.2507 98.0712C50.2732 96.7872 50.3974 95.515 50.6247 94.2449C51.1928 91.0115 52.3748 87.9166 54.1066 85.1276C56.533 81.24 59.956 78.073 64.0203 75.9557C64.2009 75.8622 64.3452 75.7113 64.4304 75.5266C64.5157 75.342 64.5369 75.1342 64.4909 74.9361C64.4448 74.7381 64.334 74.561 64.1761 74.4329C64.0181 74.3048 63.822 74.233 63.6187 74.2289C62.3351 74.2058 61.0555 74.0802 59.792 73.8532Z"
      fill="url(#paint2_linear_863_150)"
    />
  </g>
  <g filter="url(#filter1_d_863_150)">
    <rect
      x="121.88"
      y="92.4536"
      width="60"
      height="60"
      rx="15"
      transform="rotate(11.4243 121.88 92.4536)"
      fill="white"
    />
    <g clip-path="url(#clip1_863_150)">
      <path
        d="M132.126 131.856L140.711 129.09L140.918 128.74L140.829 128.505L140.455 128.429L139.18 128.09L134.797 127.08L131.008 126.149L127.346 125.202L126.453 124.816L125.811 123.487L126.017 122.93L126.907 122.564L128.008 122.889L130.457 123.559L134.126 124.569L136.793 125.273L140.709 126.498L141.345 126.626L141.487 126.388L141.3 126.184L141.164 125.991L137.838 122.605L134.227 119.005L132.365 116.976L131.344 115.935L130.902 115.06L130.977 113.362L132.287 112.399L133.706 112.787L134.054 112.961L135.286 114.377L137.916 117.418L141.38 121.235L141.876 121.852L142.147 121.732L142.202 121.619L142.025 121.117L140.619 116.674L139.078 112.128L138.367 110.23L138.294 109.163C138.266 108.753 138.29 108.341 138.364 107.937L139.921 106.529L140.64 106.447L142.222 106.995L142.788 107.728L143.334 110.242L144.236 114.215L145.776 119.678L146.224 121.295L146.346 122.735L146.411 123.182L146.669 123.234L146.717 122.995L147.49 120.25L148.568 116.906L149.834 112.579L150.215 111.364L151.13 110.002L152.513 109.445L153.374 110.095L153.932 111.372L153.676 112.076L152.598 115.005L150.726 119.563L149.491 122.615L149.837 122.685L150.314 122.37L152.354 120.562L155.734 117.735L157.198 116.637L158.885 115.441L159.921 114.917L161.608 115.258L162.477 117.353L161.537 119.146L159.354 120.995L157.537 122.57L154.911 124.93L153.172 126.891L153.255 127.095L153.568 127.124L158.434 127.077L161.047 127.129L164.159 127.222L165.392 128.131L165.41 128.806L164.608 130.016L161.231 130.16L157.306 130.153L151.419 130.346L151.341 130.381L151.401 130.496L153.883 131.246L154.953 131.524L157.603 132.059L162.462 133.424L163.58 134.537L164.144 135.736L163.855 136.502L161.665 137.114L159.114 135.937L153.16 133.186L151.125 132.216L150.828 132.156L150.791 132.336L152.224 134.441L154.904 138.06L158.233 142.695L158.25 143.681L157.574 144.318L157.035 144.126L153.979 140.691L152.836 139.19L150.224 135.907L150.015 135.865L149.959 136.143L150.47 137.35L153.139 143.876L152.981 145.68L152.587 146.201L151.524 146.348L150.473 145.928L148.863 142.33L147.267 138.323L146.041 134.771L145.786 134.856L142.29 146.484L141.652 146.984L140.369 147.201L139.529 146.247L139.25 144.92L140.263 142.616L141.534 139.601L142.553 137.205L143.648 134.196L144.134 133.219L144.128 133.147L143.894 133.13L140.902 135.87L136.368 139.961L132.94 142.406L132.209 142.537L131.16 141.696L131.488 140.637L132.337 139.807L137.241 135.635L140.215 133.036L142.092 131.569L142.135 131.309L142.045 131.291L130.324 135.921L128.43 135.786L127.785 134.881L128.131 133.682L128.588 133.361L132.138 131.848L132.126 131.856Z"
        fill="#D97757"
      />
    </g>
  </g>
  <g filter="url(#filter2_d_863_150)">
    <rect
      x="609.88"
      y="34.4536"
      width="60"
      height="60"
      rx="15"
      transform="rotate(11.4243 609.88 34.4536)"
      fill="white"
    />
    <g clip-path="url(#clip2_863_150)">
      <path
        fill-rule="evenodd"
        clip-rule="evenodd"
        d="M628.793 75.2848L642.09 65.4564C642.741 64.9731 643.673 65.1614 643.985 65.9098C645.618 69.8581 644.888 74.6014 641.635 77.8581C638.383 81.1148 633.856 81.8281 629.72 80.2014L625.201 82.2964C631.683 86.7314 639.553 85.6348 644.471 80.7081C648.373 76.8014 649.581 71.4764 648.451 66.6748L648.461 66.6864C646.823 59.6331 648.865 56.8131 653.045 51.0481C653.145 50.9114 653.245 50.7748 653.343 50.6348L647.841 56.1431V56.1264L628.788 75.2881M626.048 77.6731C621.395 73.2231 622.198 66.3381 626.166 62.3664C629.101 59.4281 633.911 58.2281 638.11 59.9914L642.618 57.9081C641.681 57.2188 640.656 56.6582 639.57 56.2414C636.839 55.1239 633.839 54.8388 630.947 55.4218C628.055 56.0048 625.4 57.43 623.316 59.5181C619.095 63.7448 617.766 70.2448 620.046 75.7914C621.75 79.9364 618.958 82.8681 616.146 85.8281C615.148 86.8781 614.148 87.9264 613.343 89.0364L626.043 77.6781"
        fill="black"
      />
    </g>
  </g>
  <g filter="url(#filter3_d_863_150)">
    <rect
      x="486.995"
      y="18.7163"
      width="60"
      height="60"
      rx="15"
      transform="rotate(-10.8194 486.995 18.7163)"
      fill="white"
    />
    <path
      fill-rule="evenodd"
      clip-rule="evenodd"
      d="M539.447 39.6574C539.929 38.322 540.118 36.8907 540.001 35.4618C539.884 34.0329 539.464 32.6402 538.769 31.3793C536.654 27.4561 532.277 25.2915 527.938 26.0276C527.006 24.9133 525.855 24.0069 524.562 23.3678C523.269 22.7287 521.862 22.3715 520.435 22.3196C516.021 22.116 512.04 24.7828 510.587 28.919C509.184 29.1403 507.85 29.6623 506.674 30.4502C505.497 31.2382 504.504 32.274 503.762 33.4891C502.64 35.2983 502.129 37.4372 502.306 39.5898C502.482 41.7425 503.336 43.7948 504.742 45.4438C504.259 46.7793 504.07 48.2108 504.187 49.64C504.303 51.0692 504.723 52.4623 505.418 53.7236C507.533 57.6468 511.91 59.8096 516.249 59.0753C517.181 60.1893 518.331 61.0956 519.624 61.7343C520.917 62.3731 522.323 62.7299 523.75 62.7814C528.168 62.987 532.151 60.3184 533.604 56.1786C535.008 55.9573 536.342 55.4351 537.52 54.6465C538.697 53.8579 539.69 52.8211 540.433 51.6049C541.553 49.7957 542.062 47.6578 541.885 45.5064C541.707 43.3549 540.853 41.3039 539.449 39.6556L539.447 39.6574ZM523.812 60.1489C522.048 60.0755 520.351 59.3826 519.014 58.1893C519.076 58.159 519.184 58.1051 519.255 58.0643L527.39 53.7864C527.593 53.682 527.763 53.5238 527.883 53.3284C528.004 53.1329 528.069 52.9072 528.074 52.6749L528.329 41.3684L531.68 43.475C531.715 43.4949 531.738 43.5307 531.743 43.5694L531.531 52.9335C531.431 57.0963 527.978 60.3233 523.812 60.1489ZM507.734 52.5099C506.883 50.9469 506.605 49.1394 506.948 47.412C507.005 47.4511 507.108 47.5198 507.181 47.5652L515.106 52.5507C515.508 52.8066 516.012 52.8288 516.426 52.6088L526.356 47.3875L526.267 51.3015C526.268 51.3216 526.263 51.3414 526.254 51.3592C526.245 51.377 526.232 51.3923 526.216 51.4037L517.994 55.7254C514.332 57.6458 509.743 56.2048 507.736 52.5063L507.734 52.5099ZM506.016 34.9079C506.939 33.4129 508.358 32.3042 510.024 31.7749L510.014 32.0512L509.805 41.3146C509.798 41.5471 509.854 41.7784 509.965 41.9844C510.076 42.1904 510.239 42.3636 510.437 42.4859L520.111 48.5692L516.674 50.3786C516.657 50.3887 516.638 50.3944 516.618 50.3951C516.598 50.3958 516.578 50.3916 516.56 50.3827L508.548 45.3402C504.987 43.0943 503.854 38.43 506.014 34.9114L506.016 34.9079ZM533.75 42.617L524.076 36.5319L527.513 34.7262C527.53 34.7157 527.549 34.7097 527.569 34.7087C527.589 34.7076 527.609 34.7116 527.627 34.7202L535.639 39.759C539.205 42.0052 540.34 46.6768 538.171 50.1932C537.247 51.6872 535.83 52.7961 534.165 53.3281L534.381 43.7883C534.387 43.5562 534.332 43.3253 534.221 43.1197C534.11 42.914 533.947 42.7411 533.75 42.6188L533.75 42.617ZM537.241 37.6892C537.163 37.6371 537.085 37.586 537.006 37.5359L529.081 32.5504C528.883 32.4248 528.657 32.3533 528.426 32.3431C528.195 32.3329 527.966 32.3844 527.763 32.4923L517.833 37.7137L517.922 33.7996C517.921 33.7795 517.926 33.7597 517.935 33.7419C517.944 33.7241 517.957 33.7088 517.973 33.6974L526.193 29.3775C529.857 27.4554 534.45 28.8983 536.451 32.6021C537.297 34.1659 537.579 35.9668 537.241 37.6892ZM515.851 43.7287L512.5 41.6239C512.483 41.6144 512.468 41.6005 512.457 41.5837C512.446 41.5669 512.439 41.5476 512.437 41.5277L512.649 32.1636C512.745 27.9952 516.207 24.7667 520.381 24.9543C522.146 25.032 523.839 25.726 525.172 26.9136C525.11 26.9438 525.003 26.9978 524.932 27.0368L516.798 31.3147C516.594 31.4188 516.423 31.5769 516.303 31.7723C516.182 31.9678 516.116 32.1936 516.112 32.4261L515.851 43.7287ZM517.785 39.841L522.207 37.5161L526.516 40.2257L526.402 45.2601L521.98 47.585L517.669 44.8753L517.783 39.8409L517.785 39.841Z"
      fill="black"
    />
  </g>
  <defs>
    <filter
      id="filter0_d_863_150"
      x="-3.00464"
      y="33.4536"
      width="96.032"
      height="96.0322"
      filterUnits="userSpaceOnUse"
      color-interpolation-filters="sRGB"
    >
      <feFlood flood-opacity="0" result="BackgroundImageFix" />
      <feColorMatrix
        in="SourceAlpha"
        type="matrix"
        values="0 0 0 0 0 0 0 0 0 0 0 0 0 0 0 0 0 0 127 0"
        result="hardAlpha"
      />
      <feOffset dy="2" />
      <feGaussianBlur stdDeviation="6" />
      <feComposite in2="hardAlpha" operator="out" />
      <feColorMatrix
        type="matrix"
        values="0 0 0 0 0 0 0 0 0 0 0 0 0 0 0 0 0 0 0.14 0"
      />
      <feBlend
        mode="normal"
        in2="BackgroundImageFix"
        result="effect1_dropShadow_863_150"
      />
      <feBlend
        mode="normal"
        in="SourceGraphic"
        in2="effect1_dropShadow_863_150"
        result="shape"
      />
    </filter>
    <filter
      id="filter1_d_863_150"
      x="97.9954"
      y="82.4536"
      width="94.6956"
      height="94.6958"
      filterUnits="userSpaceOnUse"
      color-interpolation-filters="sRGB"
    >
      <feFlood flood-opacity="0" result="BackgroundImageFix" />
      <feColorMatrix
        in="SourceAlpha"
        type="matrix"
        values="0 0 0 0 0 0 0 0 0 0 0 0 0 0 0 0 0 0 127 0"
        result="hardAlpha"
      />
      <feOffset dy="2" />
      <feGaussianBlur stdDeviation="6" />
      <feComposite in2="hardAlpha" operator="out" />
      <feColorMatrix
        type="matrix"
        values="0 0 0 0 0 0 0 0 0 0 0 0 0 0 0 0 0 0 0.14 0"
      />
      <feBlend
        mode="normal"
        in2="BackgroundImageFix"
        result="effect1_dropShadow_863_150"
      />
      <feBlend
        mode="normal"
        in="SourceGraphic"
        in2="effect1_dropShadow_863_150"
        result="shape"
      />
    </filter>
    <filter
      id="filter2_d_863_150"
      x="585.995"
      y="24.4536"
      width="94.6956"
      height="94.6958"
      filterUnits="userSpaceOnUse"
      color-interpolation-filters="sRGB"
    >
      <feFlood flood-opacity="0" result="BackgroundImageFix" />
      <feColorMatrix
        in="SourceAlpha"
        type="matrix"
        values="0 0 0 0 0 0 0 0 0 0 0 0 0 0 0 0 0 0 127 0"
        result="hardAlpha"
      />
      <feOffset dy="2" />
      <feGaussianBlur stdDeviation="6" />
      <feComposite in2="hardAlpha" operator="out" />
      <feColorMatrix
        type="matrix"
        values="0 0 0 0 0 0 0 0 0 0 0 0 0 0 0 0 0 0 0.14 0"
      />
      <feBlend
        mode="normal"
        in2="BackgroundImageFix"
        result="effect1_dropShadow_863_150"
      />
      <feBlend
        mode="normal"
        in="SourceGraphic"
        in2="effect1_dropShadow_863_150"
        result="shape"
      />
    </filter>
    <filter
      id="filter3_d_863_150"
      x="474.995"
      y="-2.54639"
      width="94.1963"
      height="94.1963"
      filterUnits="userSpaceOnUse"
      color-interpolation-filters="sRGB"
    >
      <feFlood flood-opacity="0" result="BackgroundImageFix" />
      <feColorMatrix
        in="SourceAlpha"
        type="matrix"
        values="0 0 0 0 0 0 0 0 0 0 0 0 0 0 0 0 0 0 127 0"
        result="hardAlpha"
      />
      <feOffset dy="2" />
      <feGaussianBlur stdDeviation="6" />
      <feComposite in2="hardAlpha" operator="out" />
      <feColorMatrix
        type="matrix"
        values="0 0 0 0 0 0 0 0 0 0 0 0 0 0 0 0 0 0 0.14 0"
      />
      <feBlend
        mode="normal"
        in2="BackgroundImageFix"
        result="effect1_dropShadow_863_150"
      />
      <feBlend
        mode="normal"
        in="SourceGraphic"
        in2="effect1_dropShadow_863_150"
        result="shape"
      />
    </filter>
    <linearGradient
      id="paint0_linear_863_150"
      x1="37.5989"
      y1="87.7236"
      x2="43.2414"
      y2="79.8773"
      gradientUnits="userSpaceOnUse"
    >
      <stop stop-color="#08B962" />
      <stop offset="1" stop-color="#08B962" stop-opacity="0" />
    </linearGradient>
    <linearGradient
      id="paint1_linear_863_150"
      x1="35.2509"
      y1="69.6012"
      x2="43.715"
      y2="77.9003"
      gradientUnits="userSpaceOnUse"
    >
      <stop stop-color="#F94543" />
      <stop offset="1" stop-color="#F94543" stop-opacity="0" />
    </linearGradient>
    <linearGradient
      id="paint2_linear_863_150"
      x1="30.576"
      y1="85.6231"
      x2="54.7529"
      y2="77.1998"
      gradientUnits="userSpaceOnUse"
    >
      <stop stop-color="#FABC12" />
      <stop offset="0.46" stop-color="#FABC12" stop-opacity="0" />
    </linearGradient>
    <clipPath id="clip0_863_150">
      <rect
        width="123"
        height="106"
        fill="white"
        transform="translate(277.495 34.4536)"
      />
    </clipPath>
    <clipPath id="clip1_863_150">
      <rect
        width="40"
        height="40"
        fill="white"
        transform="translate(129.701 104.236) rotate(11.4243)"
      />
    </clipPath>
    <clipPath id="clip2_863_150">
      <rect
        width="40"
        height="40"
        fill="white"
        transform="translate(613.343 49.8013)"
      />
    </clipPath>
  </defs>
</svg>
