<svg
  width="679"
  height="242"
  viewBox="0 0 679 242"
  fill="none"
  xmlns="http://www.w3.org/2000/svg"
>
  <rect x="258.995" y="4.45361" width="160" height="160" rx="80" fill="black" />
  <g clip-path="url(#clip0_863_149)">
    <path
      fill-rule="evenodd"
      clip-rule="evenodd"
      d="M387.536 69.3775C395.554 67.0183 399.515 73.5612 400.331 80.6879C400.787 84.6282 400.283 88.7632 398.963 91.6577C398.026 93.7008 396.706 95.6223 394.858 96.8142C393.729 97.5438 392.361 97.9817 390.993 97.9574C389.48 97.9087 388.712 97.3979 388.712 97.3979C388.462 98.3598 388.226 99.3129 387.992 100.258C386.947 104.474 385.942 108.533 383.863 112.527C381.583 116.93 378.534 120.943 374.933 124.324C360.938 137.434 338.037 139.891 320.177 134.977C305.053 130.818 293.627 119.483 289.522 104.136C288.802 104.233 288.13 104.306 287.746 104.306C281.696 104.306 277.495 98.5898 277.495 90.4172C277.495 82.2444 281.696 76.5285 287.746 76.5529C287.962 76.5529 288.394 76.5529 289.714 76.7717C289.823 76.3398 289.924 75.8914 290.025 75.4417C290.169 74.8025 290.313 74.1609 290.482 73.5612L313.695 83.6553C316.144 96.1818 333.98 102.044 340.918 89.7848C341.001 89.6324 341.216 89.038 341.472 88.3278C341.952 86.9974 342.578 85.2607 342.766 85.2607H344.758C346.151 90.9036 352.68 96.2061 358.538 96.2061C369.1 96.2061 373.829 89.3225 374.549 79.6663L385.952 66.3372C386.252 66.9695 386.498 67.4134 386.744 67.8573C386.99 68.3012 387.236 68.7451 387.536 69.3775ZM354.313 112.114L360.266 111.116C363.075 110.63 364.947 107.954 364.515 105.133C364.059 102.311 361.418 100.414 358.633 100.876L327.907 106.057C325.122 106.543 323.25 109.219 323.706 112.04C324.114 114.57 326.274 116.37 328.747 116.37C329.035 116.37 329.299 116.346 329.587 116.297L333.86 115.567L351.846 112.527L354.313 112.114Z"
      fill="white"
    />
    <path
      d="M349.896 34.6682C353.28 38.6086 355.561 42.8895 356.737 49.4081C357.169 51.7918 355.897 54.1997 353.688 55.124C353.568 55.1726 353.424 55.2212 353.304 55.2701C350.352 56.2916 347.231 54.3213 346.655 51.2323C346.487 50.3324 346.295 49.4324 346.055 48.6054V48.5811C346.055 48.5811 346.007 48.4352 345.935 48.1676C345.215 45.5893 341.23 33.2088 338.781 33.4277C338.781 33.4277 338.421 33.3061 336.212 33.598C336.164 33.598 336.116 33.6223 336.068 33.6223C336.045 33.6223 336.045 33.6223 336.021 33.6223C335.324 33.7196 334.484 33.8412 333.596 34.0115C333.884 34.2547 334.148 34.4979 334.436 34.7655C336.021 36.3951 339.477 40.4328 341.278 50.308C341.83 53.4213 339.501 56.3403 336.404 56.2916C336.381 56.2916 336.333 56.2916 336.309 56.2916C333.836 56.243 331.819 54.297 331.507 51.8161C330.571 44.1056 326.514 37.2221 324.474 36.4924L325.17 36.1762C315.208 39.6058 302.173 47.2433 294.227 63.8561L314.848 72.8071C315.736 70.7883 316.984 68.9154 318.568 67.383C321.569 64.4886 325.482 63.0291 329.491 63.2479C336.021 63.6129 341.35 68.4045 343.27 74.8502H344.782C345.647 71.3233 347.303 68.1614 349.751 65.8019C352.68 63.0048 356.401 61.7644 360.146 61.7644C365.115 61.7644 369.676 65.0235 371.428 69.3288L381.559 57.8239C372.653 44.6651 358.778 36.7114 349.896 34.6682Z"
      fill="white"
    />
    <path
      d="M359.594 73.2449C359.546 73.2449 359.474 73.2449 359.426 73.2449C358.274 73.2449 357.361 73.8044 356.761 74.2666C355.201 75.5557 354.265 77.7204 354.265 80.0555C354.265 82.3906 355.201 84.5553 356.761 85.8445C357.361 86.3309 358.37 86.8904 359.594 86.8661C360.818 86.8174 362.09 86.0391 363.051 84.7985C362.619 84.9932 362.162 85.1391 361.658 85.1391C360.026 85.1391 358.73 83.9958 358.73 82.5851C358.73 81.1743 360.026 80.0555 361.658 80.0555C362.859 80.0555 363.891 80.6879 364.347 81.5879C364.443 81.077 364.587 80.615 364.587 80.0555C364.587 76.1152 361.994 73.3667 359.594 73.2449Z"
      fill="white"
    />
    <path
      d="M328.939 73.6099C328.867 73.6099 328.795 73.6099 328.699 73.6099C327.306 73.6099 326.25 74.3153 325.602 74.9475C324.33 76.1638 323.586 78.0367 323.586 80.0555C323.586 82.0743 324.33 83.9471 325.602 85.1634C326.274 85.82 327.331 86.5984 328.915 86.4768C329.635 86.4282 330.307 86.185 330.907 85.7957C329.635 85.4796 328.699 84.3608 328.699 82.9742C328.699 81.3691 330.019 80.0555 331.627 80.0555C332.444 80.0555 333.164 80.3959 333.692 80.9311C333.716 80.6393 333.836 80.3716 333.836 80.0555C333.836 76.6502 331.627 73.7558 328.939 73.6099Z"
      fill="white"
    />
  </g>
  <path
    d="M486.03 240.901C486.465 238.726 486.9 236.569 487.335 234.433C487.81 232.257 488.245 230.121 488.641 228.024C490.144 220.507 491.37 213.307 492.32 206.423C491.885 206.344 491.43 206.304 490.955 206.304C490.48 206.265 490.025 206.265 489.59 206.304C488.641 206.384 487.711 206.265 486.801 205.948C486.841 205.632 486.86 205.296 486.86 204.94C486.86 204.544 486.86 204.148 486.86 203.753C486.86 203.318 486.86 202.902 486.86 202.507C486.86 202.071 486.88 201.656 486.92 201.26C486.959 200.825 486.979 200.37 486.979 199.895C486.979 199.381 486.999 198.867 487.038 198.353C488.067 198.432 489.096 198.491 490.124 198.531C491.153 198.57 492.181 198.59 493.21 198.59C496.138 198.59 498.927 198.491 501.577 198.293C504.268 198.095 506.74 197.858 508.995 197.581L508.343 200.786L507.808 203.575C507.611 204.603 507.433 205.414 507.274 206.008C506.839 206.126 506.404 206.225 505.969 206.304C505.534 206.384 505.098 206.443 504.663 206.483C504.228 206.522 503.773 206.581 503.298 206.661C502.863 206.74 502.428 206.819 501.993 206.898C501.399 209.825 500.905 212.357 500.509 214.494C500.153 216.63 499.817 218.687 499.5 220.665C499.223 222.604 498.887 224.74 498.492 227.075C497.819 231.07 497.226 235.125 496.711 239.24L486.03 240.901Z"
    fill="black"
  />
  <path
    d="M469.621 240.723C469.7 240.051 469.779 239.398 469.858 238.765C469.937 238.132 470.017 237.499 470.096 236.866L470.452 233.543C470.491 232.989 470.531 232.475 470.57 232C470.61 231.525 470.65 231.09 470.689 230.694H465.526L463.153 239.24C462.282 239.358 461.254 239.497 460.067 239.655C458.88 239.774 457.772 239.893 456.743 240.011C456.11 240.09 455.478 240.169 454.845 240.249C454.251 240.328 453.638 240.407 453.005 240.486L457.693 224.938C458.247 223.079 458.88 220.962 459.592 218.588C460.304 216.215 461.016 213.782 461.728 211.289C462.48 208.797 463.172 206.463 463.805 204.287C464.478 202.071 465.012 200.212 465.408 198.709C468.098 198.511 470.828 198.273 473.597 197.996C476.406 197.719 479.136 197.344 481.786 196.869C481.588 199.084 481.391 201.597 481.193 204.405C481.035 207.175 480.876 210.043 480.718 213.01C480.599 215.977 480.461 218.905 480.303 221.793C480.224 224.523 480.125 227.351 480.006 230.279C479.887 233.167 479.769 236.134 479.65 239.18C479.056 239.26 478.463 239.339 477.87 239.418C477.276 239.497 476.683 239.576 476.089 239.655C475.1 239.813 474.012 239.991 472.825 240.189C471.639 240.387 470.57 240.565 469.621 240.723ZM466.951 224.76C467.188 224.76 467.623 224.74 468.256 224.701C468.929 224.661 469.562 224.622 470.155 224.582C470.748 224.543 471.105 224.523 471.223 224.523C471.223 224.008 471.302 222.96 471.461 221.378C471.619 219.795 471.777 218.133 471.935 216.393C472.014 215.364 472.094 214.316 472.173 213.248C472.291 212.14 472.41 211.012 472.529 209.865L472.885 204.702L471.995 204.762L470.63 209.865L466.951 224.76Z"
    fill="black"
  />
  <path
    d="M425.566 240.961C426.08 238.231 426.575 235.541 427.049 232.89C427.564 230.2 428.078 227.529 428.592 224.879C429.146 221.595 429.66 218.509 430.135 215.621C430.649 212.733 431.144 209.865 431.619 207.017C432.133 204.168 432.627 201.181 433.102 198.056L442.716 197.403C442.043 200.172 441.371 203.06 440.698 206.067C440.065 209.074 439.472 212.001 438.918 214.85L444.793 214.197C445.07 212.812 445.327 211.447 445.564 210.102C445.841 208.718 446.079 207.353 446.276 206.008C446.474 204.702 446.712 203.377 446.989 202.032C447.305 200.647 447.641 199.262 447.997 197.878C449.422 197.64 450.866 197.462 452.329 197.344C453.793 197.185 455.02 197.086 456.009 197.047C456.998 196.968 457.492 196.928 457.492 196.928C456.978 198.511 456.464 200.37 455.949 202.506C455.435 204.643 454.94 206.898 454.466 209.272C453.991 211.645 453.536 214.019 453.101 216.393C452.666 218.727 452.27 220.903 451.914 222.92C451.479 225.452 451.063 228.004 450.668 230.576C450.272 233.108 449.877 235.699 449.481 238.35L440.223 239.418C440.5 238.231 440.738 237.064 440.936 235.917C441.173 234.73 441.39 233.582 441.588 232.475C441.984 230.576 442.38 228.598 442.775 226.54C443.21 224.483 443.547 222.723 443.784 221.259L438.028 221.793C437.869 222.545 437.711 223.356 437.553 224.226C437.434 225.096 437.276 226.026 437.078 227.015C436.88 228.004 436.683 228.973 436.485 229.923C436.327 230.833 436.168 231.743 436.01 232.653C435.812 233.721 435.595 234.789 435.357 235.857C435.12 236.925 434.902 237.994 434.705 239.062L425.566 240.961Z"
    fill="black"
  />
  <path
    d="M408.293 240.961C405.801 240.961 403.763 239.794 402.181 237.46C400.598 235.125 399.807 231.921 399.807 227.846C399.807 224.127 400.321 220.468 401.35 216.868C402.379 213.228 403.823 209.964 405.682 207.076C407.542 204.188 409.737 201.874 412.269 200.133C414.841 198.353 417.669 197.462 420.755 197.462C422.694 197.462 424.355 198.214 425.74 199.717C427.125 201.221 427.817 203.238 427.817 205.77V206.483C427.817 206.641 427.817 206.779 427.817 206.898C427.817 207.017 427.797 207.155 427.758 207.313L419.984 209.39C419.509 208.401 418.955 207.907 418.322 207.907C417.373 207.907 416.364 208.678 415.296 210.221C414.267 211.764 413.278 213.604 412.329 215.74C411.696 217.164 411.122 218.628 410.608 220.131C410.133 221.635 409.757 223.039 409.48 224.345C409.203 225.65 409.065 226.718 409.065 227.549C409.065 228.776 409.243 229.666 409.599 230.22C409.876 230.734 410.311 230.991 410.904 230.991C411.498 230.991 412.15 230.714 412.863 230.16C413.575 229.567 414.228 228.835 414.821 227.965C415.454 227.094 415.869 226.224 416.067 225.354L422.832 228.083C420.894 232.514 418.579 235.778 415.889 237.875C413.238 239.932 410.706 240.961 408.293 240.961Z"
    fill="black"
  />
  <path
    d="M358.62 241.079C357.157 241.079 355.792 240.961 354.526 240.723C356.425 233.8 357.928 226.837 359.036 219.835C360.183 212.793 361.271 205.711 362.3 198.59C364.357 198.155 366.493 197.779 368.709 197.462C370.924 197.106 373.219 196.928 375.592 196.928C376.898 196.928 378.283 197.166 379.746 197.64C381.21 198.076 382.437 198.887 383.426 200.073C384.454 201.221 384.969 202.863 384.969 204.999C384.969 206.977 384.553 208.797 383.722 210.458C382.892 212.12 381.843 213.544 380.577 214.731C379.311 215.918 378.006 216.769 376.661 217.283C377.214 217.56 377.867 218.054 378.619 218.766C379.371 219.479 380.023 220.428 380.577 221.615C381.131 222.802 381.408 224.246 381.408 225.947C381.408 228.321 380.696 230.477 379.272 232.415C377.887 234.314 376.028 235.897 373.693 237.163C371.438 238.429 369.005 239.398 366.394 240.071C363.783 240.743 361.192 241.079 358.62 241.079ZM369.183 212.417C370.41 212.179 371.577 211.863 372.685 211.467C373.792 211.072 374.682 210.617 375.355 210.102C376.067 209.588 376.423 209.034 376.423 208.441C376.423 207.689 376.126 207.096 375.533 206.66C374.94 206.225 374.228 205.909 373.397 205.711C372.566 205.513 371.794 205.414 371.082 205.414H370.489C370.212 206.997 369.955 208.381 369.717 209.568C369.48 210.716 369.302 211.665 369.183 212.417ZM366.157 229.092C366.948 229.013 367.818 228.875 368.768 228.677C369.717 228.479 370.627 228.182 371.498 227.787C372.368 227.351 373.08 226.798 373.634 226.125C374.228 225.413 374.524 224.562 374.524 223.573C374.524 222.624 374.208 221.872 373.575 221.318C372.942 220.764 372.17 220.369 371.26 220.131C370.39 219.854 369.559 219.716 368.768 219.716H368.293C368.095 219.716 367.937 219.736 367.818 219.775C367.581 221.239 367.304 222.782 366.988 224.404C366.671 226.026 366.394 227.589 366.157 229.092Z"
    fill="black"
  />
  <path
    d="M331.867 240.901L339.641 198.708L358.394 197.106C358.117 197.977 357.879 198.867 357.681 199.777C357.484 200.528 357.286 201.32 357.088 202.15C356.93 202.942 356.791 203.654 356.673 204.287C356.158 204.326 355.426 204.366 354.477 204.405C353.527 204.405 352.558 204.425 351.569 204.465C350.58 204.465 349.729 204.465 349.017 204.465C348.305 204.465 347.929 204.465 347.89 204.465L345.813 215.087L349.255 214.909C349.69 214.87 350.125 214.85 350.56 214.85C351.035 214.85 351.49 214.85 351.925 214.85C352.36 214.85 352.756 214.85 353.112 214.85C353.468 214.85 353.745 214.83 353.943 214.79C353.864 215.344 353.785 215.898 353.705 216.452C353.666 216.966 353.607 217.5 353.527 218.054L352.993 221.318C352.795 221.358 352.538 221.377 352.222 221.377C351.905 221.377 351.529 221.377 351.094 221.377C350.659 221.417 350.204 221.437 349.729 221.437C349.255 221.437 348.8 221.457 348.365 221.496C347.85 221.536 347.316 221.556 346.762 221.556C346.208 221.556 345.615 221.575 344.982 221.615L342.964 232.534L351.628 231.169L351.035 237.934L331.867 240.901Z"
    fill="black"
  />
  <path
    d="M295.218 241.079L299.728 198.946C300.638 198.906 301.528 198.847 302.398 198.768C303.308 198.649 304.179 198.511 305.009 198.352C305.801 198.194 306.612 198.076 307.442 197.996C308.273 197.878 309.084 197.799 309.875 197.759L309.697 198.946C309.658 199.342 309.579 199.796 309.46 200.311C309.381 200.786 309.302 201.339 309.223 201.972C309.025 203.357 308.788 204.94 308.511 206.72C308.234 208.5 307.917 210.478 307.561 212.654C307.324 213.999 307.047 215.621 306.73 217.52C306.453 219.419 306.117 221.575 305.721 223.989H306.612C307.126 222.169 307.601 220.507 308.036 219.004C308.471 217.5 308.847 216.175 309.163 215.028C309.48 213.881 309.777 212.852 310.054 211.942C310.37 210.993 310.627 210.142 310.825 209.39C311.656 206.463 312.328 204.069 312.843 202.21C313.357 200.35 313.693 199.144 313.851 198.59H314.386C315.414 198.59 316.482 198.511 317.59 198.352C318.737 198.194 319.766 198.016 320.676 197.818C320.636 197.977 320.557 198.629 320.439 199.777C320.32 200.924 320.181 202.328 320.023 203.99C319.865 205.652 319.707 207.373 319.548 209.153C319.271 212.516 319.014 215.443 318.777 217.936C318.579 220.428 318.401 222.446 318.243 223.989H319.311L324.949 198.471L328.925 197.937C329.478 197.858 330.052 197.779 330.646 197.7C331.239 197.621 331.852 197.541 332.485 197.462C333.632 197.304 334.72 197.126 335.749 196.928C334.562 200.251 333.375 204.168 332.188 208.678C331.002 213.188 329.815 217.758 328.628 222.386C327.995 224.918 327.362 227.49 326.729 230.101C326.135 232.672 325.542 235.303 324.949 237.994L311.537 240.249L314.148 217.342H313.436L307.561 238.884L295.218 241.079Z"
    fill="black"
  />
  <path
    d="M255.51 240.901L263.283 198.708L282.036 197.106C281.759 197.977 281.522 198.867 281.324 199.777C281.126 200.528 280.928 201.32 280.73 202.15C280.572 202.942 280.434 203.654 280.315 204.287C279.801 204.326 279.069 204.366 278.119 204.405C277.17 204.405 276.2 204.425 275.211 204.465C274.222 204.465 273.372 204.465 272.66 204.465C271.948 204.465 271.572 204.465 271.532 204.465L269.455 215.087L272.897 214.909C273.332 214.87 273.767 214.85 274.203 214.85C274.677 214.85 275.132 214.85 275.567 214.85C276.003 214.85 276.398 214.85 276.754 214.85C277.11 214.85 277.387 214.83 277.585 214.79C277.506 215.344 277.427 215.898 277.348 216.452C277.308 216.966 277.249 217.5 277.17 218.054L276.636 221.318C276.438 221.358 276.181 221.377 275.864 221.377C275.548 221.377 275.172 221.377 274.737 221.377C274.301 221.417 273.847 221.437 273.372 221.437C272.897 221.437 272.442 221.457 272.007 221.496C271.493 221.536 270.958 221.556 270.405 221.556C269.851 221.556 269.257 221.575 268.624 221.615L266.607 232.534L275.271 231.169L274.677 237.934L255.51 240.901Z"
    fill="black"
  />
  <path
    d="M229.434 241.139C228.88 241.139 228.326 241.099 227.772 241.02C227.218 240.981 226.664 240.921 226.111 240.842L229.256 224.879C229.651 222.703 230.067 220.408 230.502 217.995C230.977 215.542 231.432 213.129 231.867 210.755C232.302 208.342 232.678 206.107 232.994 204.049C233.35 201.992 233.627 200.252 233.825 198.827C235.526 198.511 237.247 198.214 238.988 197.937C240.729 197.66 242.509 197.522 244.329 197.522C247.256 197.522 249.571 198.135 251.272 199.361C252.973 200.548 254.2 202.131 254.951 204.109C255.703 206.047 256.079 208.184 256.079 210.518C256.079 212.615 255.782 214.83 255.189 217.164C254.595 219.459 253.745 221.753 252.637 224.048C251.569 226.303 250.283 228.439 248.78 230.457C246.445 233.582 243.597 236.154 240.234 238.172C236.911 240.15 233.311 241.139 229.434 241.139ZM236.496 233.662C237.88 232.752 239.186 231.367 240.412 229.508C241.678 227.648 242.865 225.413 243.973 222.802C244.962 220.389 245.733 218.114 246.287 215.977C246.841 213.801 247.118 212.001 247.118 210.577C247.118 209.113 246.703 207.966 245.872 207.135C245.081 206.304 243.815 205.889 242.074 205.889C241.441 209.291 240.788 212.437 240.116 215.325C239.483 218.213 238.85 221.12 238.217 224.048C237.623 226.976 237.049 230.18 236.496 233.662Z"
    fill="black"
  />
  <path
    d="M204.381 241.08C201.77 241.08 199.634 240.071 197.972 238.053C196.311 236.035 195.48 232.989 195.48 228.914C195.48 226.659 195.757 224.285 196.311 221.793C196.865 219.301 197.636 216.848 198.625 214.435C199.614 212.021 200.762 209.786 202.067 207.729C204.164 204.406 206.577 201.696 209.307 199.599C212.037 197.502 214.905 196.454 217.912 196.454C220.285 196.454 222.105 197.067 223.371 198.293C224.677 199.48 225.587 201.023 226.101 202.922C226.615 204.781 226.872 206.72 226.872 208.738C226.872 213.445 226.141 217.837 224.677 221.912C223.253 225.947 221.393 229.369 219.098 232.178C216.804 235.066 214.351 237.282 211.74 238.825C209.168 240.328 206.716 241.08 204.381 241.08ZM207.586 231.288C209.366 231.288 210.929 230.695 212.274 229.508C213.659 228.321 214.826 226.817 215.775 224.998C216.725 223.138 217.437 221.2 217.912 219.182C218.386 217.164 218.624 215.344 218.624 213.722C218.624 213.089 218.564 212.417 218.446 211.705C218.327 210.953 218.07 210.3 217.674 209.746C217.279 209.193 216.665 208.916 215.835 208.916C214.015 208.916 212.373 209.588 210.909 210.933C209.445 212.239 208.219 213.9 207.23 215.918C206.241 217.975 205.509 219.993 205.034 221.971C204.559 223.949 204.322 225.749 204.322 227.371C204.322 228.202 204.619 229.072 205.212 229.982C205.806 230.853 206.597 231.288 207.586 231.288Z"
    fill="black"
  />
  <path
    d="M177.481 240.961C174.989 240.961 172.952 239.794 171.369 237.46C169.787 235.125 168.995 231.921 168.995 227.846C168.995 224.127 169.51 220.468 170.538 216.868C171.567 213.228 173.011 209.964 174.87 207.076C176.73 204.188 178.925 201.874 181.457 200.133C184.029 198.353 186.858 197.462 189.943 197.462C191.882 197.462 193.544 198.214 194.928 199.717C196.313 201.221 197.005 203.238 197.005 205.77V206.483C197.005 206.641 197.005 206.779 197.005 206.898C197.005 207.017 196.985 207.155 196.946 207.313L189.172 209.39C188.697 208.401 188.143 207.907 187.51 207.907C186.561 207.907 185.552 208.678 184.484 210.221C183.455 211.764 182.466 213.604 181.517 215.74C180.884 217.164 180.31 218.628 179.796 220.131C179.321 221.635 178.945 223.039 178.668 224.345C178.391 225.65 178.253 226.718 178.253 227.549C178.253 228.776 178.431 229.666 178.787 230.22C179.064 230.734 179.499 230.991 180.093 230.991C180.686 230.991 181.339 230.714 182.051 230.16C182.763 229.567 183.416 228.835 184.009 227.965C184.642 227.094 185.058 226.224 185.255 225.354L192.02 228.083C190.082 232.514 187.768 235.778 185.077 237.875C182.427 239.932 179.895 240.961 177.481 240.961Z"
    fill="black"
  />
  <g filter="url(#filter0_d_863_149)">
    <rect
      x="8.99536"
      y="54.0454"
      width="60"
      height="60"
      rx="15"
      transform="rotate(-13.0929 8.99536 54.0454)"
      fill="white"
    />
    <path
      d="M59.792 70.8534C56.5585 70.2852 53.4637 69.1033 50.6747 67.3715C46.7873 64.9457 43.6204 61.5232 41.5031 57.4596C41.4097 57.279 41.2587 57.1347 41.0741 57.0494C40.8894 56.9642 40.6817 56.943 40.4836 56.989C40.2855 57.0351 40.1084 57.1458 39.9804 57.3038C39.8523 57.4618 39.7805 57.6579 39.7763 57.8612C39.6671 62.4421 38.335 66.9104 35.9183 70.8034C34.1794 73.5881 31.9238 76.0143 29.2732 77.9513C28.2373 78.715 27.147 79.3886 26.0068 79.9768C25.8247 80.0691 25.6788 80.2199 25.5925 80.405C25.5062 80.59 25.4844 80.7987 25.5307 80.9976C25.5769 81.1965 25.6886 81.3741 25.8477 81.5021C26.0068 81.6301 26.2042 81.701 26.4084 81.7035C27.6907 81.7264 28.9629 81.8506 30.2329 82.0779C33.4664 82.6461 36.5612 83.828 39.3502 85.5599C43.2385 87.9857 46.4062 91.4087 48.524 95.4731C48.6163 95.6552 48.7671 95.801 48.9522 95.8874C49.1372 95.9737 49.3459 95.9954 49.5448 95.9492C49.7437 95.9029 49.9213 95.7913 50.0493 95.6322C50.1773 95.4731 50.2482 95.2756 50.2507 95.0714C50.2732 93.7874 50.3974 92.5152 50.6247 91.2452C51.1928 88.0117 52.3748 84.9169 54.1066 82.1279C56.533 78.2402 59.956 75.0732 64.0203 72.9559C64.2009 72.8625 64.3452 72.7115 64.4304 72.5269C64.5157 72.3422 64.5369 72.1344 64.4909 71.9364C64.4448 71.7383 64.334 71.5612 64.1761 71.4331C64.0181 71.3051 63.822 71.2333 63.6187 71.2291C62.3351 71.2061 61.0555 71.0804 59.792 70.8534Z"
      fill="#3186FF"
    />
    <path
      d="M59.792 70.8534C56.5585 70.2852 53.4637 69.1033 50.6747 67.3715C46.7873 64.9457 43.6204 61.5232 41.5031 57.4596C41.4097 57.279 41.2587 57.1347 41.0741 57.0494C40.8894 56.9642 40.6817 56.943 40.4836 56.989C40.2855 57.0351 40.1084 57.1458 39.9804 57.3038C39.8523 57.4618 39.7805 57.6579 39.7763 57.8612C39.6671 62.4421 38.335 66.9104 35.9183 70.8034C34.1794 73.5881 31.9238 76.0143 29.2732 77.9513C28.2373 78.715 27.147 79.3886 26.0068 79.9768C25.8247 80.0691 25.6788 80.2199 25.5925 80.405C25.5062 80.59 25.4844 80.7987 25.5307 80.9976C25.5769 81.1965 25.6886 81.3741 25.8477 81.5021C26.0068 81.6301 26.2042 81.701 26.4084 81.7035C27.6907 81.7264 28.9629 81.8506 30.2329 82.0779C33.4664 82.6461 36.5612 83.828 39.3502 85.5599C43.2385 87.9857 46.4062 91.4087 48.524 95.4731C48.6163 95.6552 48.7671 95.801 48.9522 95.8874C49.1372 95.9737 49.3459 95.9954 49.5448 95.9492C49.7437 95.9029 49.9213 95.7913 50.0493 95.6322C50.1773 95.4731 50.2482 95.2756 50.2507 95.0714C50.2732 93.7874 50.3974 92.5152 50.6247 91.2452C51.1928 88.0117 52.3748 84.9169 54.1066 82.1279C56.533 78.2402 59.956 75.0732 64.0203 72.9559C64.2009 72.8625 64.3452 72.7115 64.4304 72.5269C64.5157 72.3422 64.5369 72.1344 64.4909 71.9364C64.4448 71.7383 64.334 71.5612 64.1761 71.4331C64.0181 71.3051 63.822 71.2333 63.6187 71.2291C62.3351 71.2061 61.0555 71.0804 59.792 70.8534Z"
      fill="url(#paint0_linear_863_149)"
    />
    <path
      d="M59.792 70.8534C56.5585 70.2852 53.4637 69.1033 50.6747 67.3715C46.7873 64.9457 43.6204 61.5232 41.5031 57.4596C41.4097 57.279 41.2587 57.1347 41.0741 57.0494C40.8894 56.9642 40.6817 56.943 40.4836 56.989C40.2855 57.0351 40.1084 57.1458 39.9804 57.3038C39.8523 57.4618 39.7805 57.6579 39.7763 57.8612C39.6671 62.4421 38.335 66.9104 35.9183 70.8034C34.1794 73.5881 31.9238 76.0143 29.2732 77.9513C28.2373 78.715 27.147 79.3886 26.0068 79.9768C25.8247 80.0691 25.6788 80.2199 25.5925 80.405C25.5062 80.59 25.4844 80.7987 25.5307 80.9976C25.5769 81.1965 25.6886 81.3741 25.8477 81.5021C26.0068 81.6301 26.2042 81.701 26.4084 81.7035C27.6907 81.7264 28.9629 81.8506 30.2329 82.0779C33.4664 82.6461 36.5612 83.828 39.3502 85.5599C43.2385 87.9857 46.4062 91.4087 48.524 95.4731C48.6163 95.6552 48.7671 95.801 48.9522 95.8874C49.1372 95.9737 49.3459 95.9954 49.5448 95.9492C49.7437 95.9029 49.9213 95.7913 50.0493 95.6322C50.1773 95.4731 50.2482 95.2756 50.2507 95.0714C50.2732 93.7874 50.3974 92.5152 50.6247 91.2452C51.1928 88.0117 52.3748 84.9169 54.1066 82.1279C56.533 78.2402 59.956 75.0732 64.0203 72.9559C64.2009 72.8625 64.3452 72.7115 64.4304 72.5269C64.5157 72.3422 64.5369 72.1344 64.4909 71.9364C64.4448 71.7383 64.334 71.5612 64.1761 71.4331C64.0181 71.3051 63.822 71.2333 63.6187 71.2291C62.3351 71.2061 61.0555 71.0804 59.792 70.8534Z"
      fill="url(#paint1_linear_863_149)"
    />
    <path
      d="M59.792 70.8534C56.5585 70.2852 53.4637 69.1033 50.6747 67.3715C46.7873 64.9457 43.6204 61.5232 41.5031 57.4596C41.4097 57.279 41.2587 57.1347 41.0741 57.0494C40.8894 56.9642 40.6817 56.943 40.4836 56.989C40.2855 57.0351 40.1084 57.1458 39.9804 57.3038C39.8523 57.4618 39.7805 57.6579 39.7763 57.8612C39.6671 62.4421 38.335 66.9104 35.9183 70.8034C34.1794 73.5881 31.9238 76.0143 29.2732 77.9513C28.2373 78.715 27.147 79.3886 26.0068 79.9768C25.8247 80.0691 25.6788 80.2199 25.5925 80.405C25.5062 80.59 25.4844 80.7987 25.5307 80.9976C25.5769 81.1965 25.6886 81.3741 25.8477 81.5021C26.0068 81.6301 26.2042 81.701 26.4084 81.7035C27.6907 81.7264 28.9629 81.8506 30.2329 82.0779C33.4664 82.6461 36.5612 83.828 39.3502 85.5599C43.2385 87.9857 46.4062 91.4087 48.524 95.4731C48.6163 95.6552 48.7671 95.801 48.9522 95.8874C49.1372 95.9737 49.3459 95.9954 49.5448 95.9492C49.7437 95.9029 49.9213 95.7913 50.0493 95.6322C50.1773 95.4731 50.2482 95.2756 50.2507 95.0714C50.2732 93.7874 50.3974 92.5152 50.6247 91.2452C51.1928 88.0117 52.3748 84.9169 54.1066 82.1279C56.533 78.2402 59.956 75.0732 64.0203 72.9559C64.2009 72.8625 64.3452 72.7115 64.4304 72.5269C64.5157 72.3422 64.5369 72.1344 64.4909 71.9364C64.4448 71.7383 64.334 71.5612 64.1761 71.4331C64.0181 71.3051 63.822 71.2333 63.6187 71.2291C62.3351 71.2061 61.0555 71.0804 59.792 70.8534Z"
      fill="url(#paint2_linear_863_149)"
    />
  </g>
  <g filter="url(#filter1_d_863_149)">
    <rect
      x="121.88"
      y="89.4536"
      width="60"
      height="60"
      rx="15"
      transform="rotate(11.4243 121.88 89.4536)"
      fill="white"
    />
    <g clip-path="url(#clip1_863_149)">
      <path
        d="M132.126 128.856L140.711 126.09L140.918 125.74L140.829 125.505L140.455 125.429L139.18 125.09L134.797 124.08L131.008 123.149L127.346 122.202L126.453 121.816L125.811 120.487L126.017 119.93L126.907 119.564L128.008 119.889L130.457 120.559L134.126 121.569L136.793 122.273L140.709 123.498L141.345 123.626L141.487 123.388L141.3 123.184L141.164 122.991L137.838 119.605L134.227 116.005L132.365 113.976L131.344 112.935L130.902 112.06L130.977 110.362L132.287 109.399L133.706 109.787L134.054 109.961L135.286 111.377L137.916 114.418L141.38 118.235L141.876 118.852L142.147 118.732L142.202 118.619L142.025 118.117L140.619 113.674L139.078 109.128L138.367 107.23L138.294 106.163C138.266 105.753 138.29 105.341 138.364 104.937L139.921 103.529L140.64 103.447L142.222 103.995L142.788 104.728L143.334 107.242L144.236 111.215L145.776 116.678L146.224 118.295L146.346 119.735L146.411 120.182L146.669 120.234L146.717 119.995L147.49 117.25L148.568 113.906L149.834 109.579L150.215 108.364L151.13 107.002L152.513 106.445L153.374 107.095L153.932 108.372L153.676 109.076L152.598 112.005L150.726 116.563L149.491 119.615L149.837 119.685L150.314 119.37L152.354 117.562L155.734 114.735L157.198 113.637L158.885 112.441L159.921 111.917L161.608 112.258L162.477 114.353L161.537 116.146L159.354 117.995L157.537 119.57L154.911 121.93L153.172 123.891L153.255 124.095L153.568 124.124L158.434 124.077L161.047 124.129L164.159 124.222L165.392 125.131L165.41 125.806L164.608 127.016L161.231 127.16L157.306 127.153L151.419 127.346L151.341 127.381L151.401 127.496L153.883 128.246L154.953 128.524L157.603 129.059L162.462 130.424L163.58 131.537L164.144 132.736L163.855 133.502L161.665 134.114L159.114 132.937L153.16 130.186L151.125 129.216L150.828 129.156L150.791 129.336L152.224 131.441L154.904 135.06L158.233 139.695L158.25 140.681L157.574 141.318L157.035 141.126L153.979 137.691L152.836 136.19L150.224 132.907L150.015 132.865L149.959 133.143L150.47 134.35L153.139 140.876L152.981 142.68L152.587 143.201L151.524 143.348L150.473 142.928L148.863 139.33L147.267 135.323L146.041 131.771L145.786 131.856L142.29 143.484L141.652 143.984L140.369 144.201L139.529 143.247L139.25 141.92L140.263 139.616L141.534 136.601L142.553 134.205L143.648 131.196L144.134 130.219L144.128 130.147L143.894 130.13L140.902 132.87L136.368 136.961L132.94 139.406L132.209 139.537L131.16 138.696L131.488 137.637L132.337 136.807L137.241 132.635L140.215 130.036L142.092 128.569L142.135 128.309L142.045 128.291L130.324 132.921L128.43 132.786L127.785 131.881L128.131 130.682L128.588 130.361L132.138 128.848L132.126 128.856Z"
        fill="#D97757"
      />
    </g>
  </g>
  <g filter="url(#filter2_d_863_149)">
    <rect
      x="609.88"
      y="31.4536"
      width="60"
      height="60"
      rx="15"
      transform="rotate(11.4243 609.88 31.4536)"
      fill="white"
    />
    <g clip-path="url(#clip2_863_149)">
      <path
        fill-rule="evenodd"
        clip-rule="evenodd"
        d="M628.793 72.2848L642.09 62.4564C642.741 61.9731 643.673 62.1614 643.985 62.9098C645.618 66.8581 644.888 71.6014 641.635 74.8581C638.383 78.1148 633.856 78.8281 629.72 77.2014L625.201 79.2964C631.683 83.7314 639.553 82.6348 644.471 77.7081C648.373 73.8014 649.581 68.4764 648.451 63.6748L648.461 63.6864C646.823 56.6331 648.865 53.8131 653.045 48.0481C653.145 47.9114 653.245 47.7748 653.343 47.6348L647.841 53.1431V53.1264L628.788 72.2881M626.048 74.6731C621.395 70.2231 622.198 63.3381 626.166 59.3664C629.101 56.4281 633.911 55.2281 638.11 56.9914L642.618 54.9081C641.681 54.2188 640.656 53.6582 639.57 53.2414C636.839 52.1239 633.839 51.8388 630.947 52.4218C628.055 53.0048 625.4 54.43 623.316 56.5181C619.095 60.7448 617.766 67.2448 620.046 72.7914C621.75 76.9364 618.958 79.8681 616.146 82.8281C615.148 83.8781 614.148 84.9264 613.343 86.0364L626.043 74.6781"
        fill="black"
      />
    </g>
  </g>
  <g filter="url(#filter3_d_863_149)">
    <rect
      x="538.88"
      y="105.454"
      width="60"
      height="60"
      rx="15"
      transform="rotate(11.4243 538.88 105.454)"
      fill="white"
    />
    <path
      d="M584.37 127.07C583.893 126.839 583.687 127.281 583.41 127.508C583.314 127.58 583.233 127.676 583.153 127.762C582.455 128.504 581.641 128.989 580.578 128.931C579.024 128.846 577.697 129.331 576.523 130.516C576.273 129.055 575.445 128.184 574.185 127.623C573.525 127.332 572.857 127.042 572.394 126.409C572.072 125.959 571.984 125.456 571.822 124.963C571.719 124.664 571.616 124.359 571.273 124.309C570.898 124.251 570.752 124.563 570.605 124.824C570.019 125.893 569.792 127.07 569.814 128.263C569.865 130.946 571.001 133.084 573.26 134.603C573.517 134.776 573.583 134.952 573.502 135.206C573.349 135.729 573.165 136.238 573.004 136.763C572.9 137.097 572.747 137.168 572.387 137.024C571.17 136.503 570.065 135.755 569.132 134.819C567.525 133.272 566.074 131.564 564.262 130.226C563.843 129.917 563.412 129.624 562.971 129.346C561.124 127.558 563.214 126.089 563.698 125.916C564.204 125.732 563.872 125.108 562.237 125.116C560.603 125.123 559.106 125.667 557.199 126.394C556.916 126.502 556.625 126.588 556.328 126.65C554.546 126.315 552.723 126.251 550.922 126.459C547.388 126.852 544.566 128.519 542.49 131.361C539.997 134.776 539.41 138.659 540.128 142.707C540.884 146.975 543.07 150.508 546.428 153.27C549.911 156.135 553.922 157.538 558.499 157.269C561.277 157.11 564.373 156.738 567.862 153.793C568.744 154.231 569.666 154.404 571.2 154.535C572.381 154.645 573.517 154.479 574.397 154.296C575.775 154.004 575.679 152.732 575.182 152.5C571.142 150.624 572.029 151.388 571.22 150.77C573.275 148.348 576.369 145.833 577.58 137.684C577.674 137.036 577.593 136.628 577.58 136.105C577.573 135.787 577.646 135.662 578.012 135.627C579.026 135.522 580.01 135.22 580.908 134.739C583.526 133.313 584.583 130.974 584.833 128.167C584.87 127.737 584.825 127.296 584.37 127.07ZM561.557 152.33C557.64 149.262 555.741 148.251 554.957 148.294C554.222 148.339 554.355 149.174 554.516 149.72C554.685 150.258 554.904 150.628 555.212 151.101C555.426 151.413 555.572 151.878 555 152.227C553.738 153.005 551.546 151.966 551.443 151.915C548.891 150.417 546.756 148.44 545.254 145.736C543.803 143.133 542.959 140.341 542.82 137.361C542.783 136.639 542.995 136.385 543.715 136.255C544.66 136.074 545.628 136.05 546.582 136.182C550.579 136.765 553.98 138.545 556.834 141.365C558.461 142.972 559.693 144.891 560.963 146.767C562.312 148.759 563.764 150.658 565.612 152.212C566.265 152.758 566.784 153.173 567.283 153.478C565.779 153.646 563.271 153.683 561.557 152.33ZM563.432 140.296C563.432 140.204 563.454 140.112 563.497 140.03C563.54 139.947 563.603 139.877 563.679 139.824C563.756 139.771 563.844 139.738 563.937 139.727C564.029 139.716 564.123 139.727 564.21 139.76C564.321 139.8 564.417 139.873 564.484 139.969C564.551 140.066 564.586 140.181 564.585 140.298C564.585 140.374 564.57 140.449 564.541 140.519C564.512 140.589 564.469 140.653 564.415 140.706C564.361 140.76 564.297 140.802 564.226 140.83C564.155 140.859 564.08 140.873 564.004 140.872C563.928 140.872 563.853 140.857 563.784 140.828C563.714 140.8 563.65 140.757 563.597 140.703C563.544 140.65 563.503 140.586 563.474 140.516C563.446 140.446 563.431 140.372 563.432 140.296ZM569.263 143.279C568.888 143.43 568.515 143.561 568.157 143.578C567.618 143.596 567.089 143.429 566.661 143.103C566.147 142.673 565.779 142.434 565.626 141.687C565.573 141.321 565.583 140.95 565.656 140.588C565.787 139.977 565.641 139.584 565.207 139.229C564.857 138.938 564.409 138.858 563.917 138.858C563.749 138.848 563.586 138.798 563.441 138.712C563.235 138.611 563.066 138.357 563.227 138.043C563.28 137.942 563.527 137.695 563.587 137.65C564.255 137.273 565.026 137.396 565.736 137.68C566.396 137.949 566.895 138.443 567.613 139.142C568.346 139.984 568.479 140.218 568.897 140.849C569.227 141.345 569.527 141.853 569.732 142.434C569.857 142.798 569.696 143.096 569.263 143.279Z"
      fill="#4D6BFE"
    />
  </g>
  <g filter="url(#filter4_d_863_149)">
    <rect
      x="481.995"
      y="18.7166"
      width="60"
      height="60"
      rx="15"
      transform="rotate(-10.8194 481.995 18.7166)"
      fill="white"
    />
    <path
      fill-rule="evenodd"
      clip-rule="evenodd"
      d="M534.447 39.6579C534.929 38.3225 535.118 36.8912 535.001 35.4623C534.884 34.0334 534.464 32.6407 533.769 31.3798C531.654 27.4566 527.277 25.292 522.938 26.028C522.006 24.9138 520.855 24.0074 519.562 23.3683C518.269 22.7292 516.862 22.372 515.435 22.3201C511.021 22.1165 507.04 24.7833 505.587 28.9194C504.184 29.1408 502.85 29.6628 501.674 30.4507C500.497 31.2386 499.504 32.2745 498.762 33.4896C497.64 35.2988 497.129 37.4377 497.306 39.5903C497.482 41.743 498.336 43.7953 499.742 45.4443C499.259 46.7798 499.07 48.2113 499.187 49.6405C499.303 51.0697 499.723 52.4628 500.418 53.7241C502.533 57.6472 506.91 59.8101 511.249 59.0758C512.181 60.1898 513.331 61.0961 514.624 61.7348C515.917 62.3736 517.323 62.7304 518.75 62.7819C523.168 62.9875 527.151 60.3189 528.604 56.1791C530.008 55.9578 531.342 55.4356 532.52 54.647C533.697 53.8584 534.69 52.8216 535.433 51.6054C536.553 49.7962 537.062 47.6583 536.885 45.5068C536.707 43.3554 535.853 41.3043 534.449 39.6561L534.447 39.6579ZM518.812 60.1494C517.048 60.076 515.351 59.3831 514.014 58.1897C514.076 58.1595 514.184 58.1056 514.255 58.0648L522.39 53.7869C522.593 53.6825 522.763 53.5243 522.883 53.3289C523.004 53.1334 523.069 52.9077 523.074 52.6754L523.329 41.3689L526.68 43.4755C526.715 43.4954 526.738 43.5312 526.743 43.5699L526.531 52.934C526.431 57.0967 522.978 60.3238 518.812 60.1494ZM502.734 52.5104C501.883 50.9474 501.605 49.1399 501.948 47.4124C502.005 47.4516 502.108 47.5203 502.181 47.5657L510.106 52.5511C510.508 52.8071 511.012 52.8293 511.426 52.6093L521.356 47.3879L521.267 51.302C521.268 51.3221 521.263 51.3419 521.254 51.3597C521.245 51.3775 521.232 51.3928 521.216 51.4042L512.994 55.7259C509.332 57.6463 504.743 56.2053 502.736 52.5068L502.734 52.5104ZM501.016 34.9083C501.939 33.4134 503.358 32.3047 505.024 31.7754L505.014 32.0517L504.805 41.315C504.798 41.5476 504.854 41.7789 504.965 41.9849C505.076 42.1909 505.239 42.3641 505.437 42.4864L515.111 48.5697L511.674 50.379C511.657 50.3892 511.638 50.3949 511.618 50.3956C511.598 50.3963 511.578 50.3921 511.56 50.3832L503.548 45.3407C499.987 43.0947 498.854 38.4305 501.014 34.9119L501.016 34.9083ZM528.75 42.6175L519.076 36.5324L522.513 34.7267C522.53 34.7162 522.549 34.7102 522.569 34.7092C522.589 34.7081 522.609 34.7121 522.627 34.7207L530.639 39.7595C534.205 42.0057 535.34 46.6773 533.171 50.1937C532.247 51.6877 530.83 52.7966 529.165 53.3286L529.381 43.7888C529.387 43.5567 529.332 43.3258 529.221 43.1202C529.11 42.9145 528.947 42.7416 528.75 42.6193L528.75 42.6175ZM532.241 37.6897C532.163 37.6376 532.085 37.5865 532.006 37.5364L524.081 32.5509C523.883 32.4253 523.657 32.3538 523.426 32.3436C523.195 32.3334 522.966 32.3849 522.763 32.4928L512.833 37.7142L512.922 33.8001C512.921 33.78 512.926 33.7602 512.935 33.7424C512.944 33.7246 512.957 33.7093 512.973 33.6979L521.193 29.378C524.857 27.4558 529.45 28.8988 531.451 32.6026C532.297 34.1664 532.579 35.9673 532.241 37.6897ZM510.851 43.7292L507.5 41.6244C507.483 41.6148 507.468 41.601 507.457 41.5842C507.446 41.5674 507.439 41.5481 507.437 41.5282L507.649 32.1641C507.745 27.9957 511.207 24.7672 515.381 24.9547C517.146 25.0325 518.839 25.7265 520.172 26.9141C520.11 26.9443 520.003 26.9983 519.932 27.0373L511.798 31.3152C511.594 31.4193 511.423 31.5773 511.303 31.7728C511.182 31.9683 511.116 32.1941 511.112 32.4266L510.851 43.7292ZM512.785 39.8415L517.207 37.5166L521.516 40.2261L521.402 45.2606L516.98 47.5855L512.669 44.8758L512.783 39.8414L512.785 39.8415Z"
      fill="black"
    />
  </g>
  <defs>
    <filter
      id="filter0_d_863_149"
      x="-3.00464"
      y="30.4536"
      width="96.032"
      height="96.032"
      filterUnits="userSpaceOnUse"
      color-interpolation-filters="sRGB"
    >
      <feFlood flood-opacity="0" result="BackgroundImageFix" />
      <feColorMatrix
        in="SourceAlpha"
        type="matrix"
        values="0 0 0 0 0 0 0 0 0 0 0 0 0 0 0 0 0 0 127 0"
        result="hardAlpha"
      />
      <feOffset dy="2" />
      <feGaussianBlur stdDeviation="6" />
      <feComposite in2="hardAlpha" operator="out" />
      <feColorMatrix
        type="matrix"
        values="0 0 0 0 0 0 0 0 0 0 0 0 0 0 0 0 0 0 0.14 0"
      />
      <feBlend
        mode="normal"
        in2="BackgroundImageFix"
        result="effect1_dropShadow_863_149"
      />
      <feBlend
        mode="normal"
        in="SourceGraphic"
        in2="effect1_dropShadow_863_149"
        result="shape"
      />
    </filter>
    <filter
      id="filter1_d_863_149"
      x="97.9954"
      y="79.4536"
      width="94.6956"
      height="94.6956"
      filterUnits="userSpaceOnUse"
      color-interpolation-filters="sRGB"
    >
      <feFlood flood-opacity="0" result="BackgroundImageFix" />
      <feColorMatrix
        in="SourceAlpha"
        type="matrix"
        values="0 0 0 0 0 0 0 0 0 0 0 0 0 0 0 0 0 0 127 0"
        result="hardAlpha"
      />
      <feOffset dy="2" />
      <feGaussianBlur stdDeviation="6" />
      <feComposite in2="hardAlpha" operator="out" />
      <feColorMatrix
        type="matrix"
        values="0 0 0 0 0 0 0 0 0 0 0 0 0 0 0 0 0 0 0.14 0"
      />
      <feBlend
        mode="normal"
        in2="BackgroundImageFix"
        result="effect1_dropShadow_863_149"
      />
      <feBlend
        mode="normal"
        in="SourceGraphic"
        in2="effect1_dropShadow_863_149"
        result="shape"
      />
    </filter>
    <filter
      id="filter2_d_863_149"
      x="585.995"
      y="21.4536"
      width="94.6956"
      height="94.6956"
      filterUnits="userSpaceOnUse"
      color-interpolation-filters="sRGB"
    >
      <feFlood flood-opacity="0" result="BackgroundImageFix" />
      <feColorMatrix
        in="SourceAlpha"
        type="matrix"
        values="0 0 0 0 0 0 0 0 0 0 0 0 0 0 0 0 0 0 127 0"
        result="hardAlpha"
      />
      <feOffset dy="2" />
      <feGaussianBlur stdDeviation="6" />
      <feComposite in2="hardAlpha" operator="out" />
      <feColorMatrix
        type="matrix"
        values="0 0 0 0 0 0 0 0 0 0 0 0 0 0 0 0 0 0 0.14 0"
      />
      <feBlend
        mode="normal"
        in2="BackgroundImageFix"
        result="effect1_dropShadow_863_149"
      />
      <feBlend
        mode="normal"
        in="SourceGraphic"
        in2="effect1_dropShadow_863_149"
        result="shape"
      />
    </filter>
    <filter
      id="filter3_d_863_149"
      x="514.995"
      y="95.4536"
      width="94.6956"
      height="94.6956"
      filterUnits="userSpaceOnUse"
      color-interpolation-filters="sRGB"
    >
      <feFlood flood-opacity="0" result="BackgroundImageFix" />
      <feColorMatrix
        in="SourceAlpha"
        type="matrix"
        values="0 0 0 0 0 0 0 0 0 0 0 0 0 0 0 0 0 0 127 0"
        result="hardAlpha"
      />
      <feOffset dy="2" />
      <feGaussianBlur stdDeviation="6" />
      <feComposite in2="hardAlpha" operator="out" />
      <feColorMatrix
        type="matrix"
        values="0 0 0 0 0 0 0 0 0 0 0 0 0 0 0 0 0 0 0.14 0"
      />
      <feBlend
        mode="normal"
        in2="BackgroundImageFix"
        result="effect1_dropShadow_863_149"
      />
      <feBlend
        mode="normal"
        in="SourceGraphic"
        in2="effect1_dropShadow_863_149"
        result="shape"
      />
    </filter>
    <filter
      id="filter4_d_863_149"
      x="469.995"
      y="-2.54639"
      width="94.1963"
      height="94.1963"
      filterUnits="userSpaceOnUse"
      color-interpolation-filters="sRGB"
    >
      <feFlood flood-opacity="0" result="BackgroundImageFix" />
      <feColorMatrix
        in="SourceAlpha"
        type="matrix"
        values="0 0 0 0 0 0 0 0 0 0 0 0 0 0 0 0 0 0 127 0"
        result="hardAlpha"
      />
      <feOffset dy="2" />
      <feGaussianBlur stdDeviation="6" />
      <feComposite in2="hardAlpha" operator="out" />
      <feColorMatrix
        type="matrix"
        values="0 0 0 0 0 0 0 0 0 0 0 0 0 0 0 0 0 0 0.14 0"
      />
      <feBlend
        mode="normal"
        in2="BackgroundImageFix"
        result="effect1_dropShadow_863_149"
      />
      <feBlend
        mode="normal"
        in="SourceGraphic"
        in2="effect1_dropShadow_863_149"
        result="shape"
      />
    </filter>
    <linearGradient
      id="paint0_linear_863_149"
      x1="37.5989"
      y1="84.7239"
      x2="43.2414"
      y2="76.8776"
      gradientUnits="userSpaceOnUse"
    >
      <stop stop-color="#08B962" />
      <stop offset="1" stop-color="#08B962" stop-opacity="0" />
    </linearGradient>
    <linearGradient
      id="paint1_linear_863_149"
      x1="35.2509"
      y1="66.6014"
      x2="43.715"
      y2="74.9006"
      gradientUnits="userSpaceOnUse"
    >
      <stop stop-color="#F94543" />
      <stop offset="1" stop-color="#F94543" stop-opacity="0" />
    </linearGradient>
    <linearGradient
      id="paint2_linear_863_149"
      x1="30.576"
      y1="82.6233"
      x2="54.7529"
      y2="74.2001"
      gradientUnits="userSpaceOnUse"
    >
      <stop stop-color="#FABC12" />
      <stop offset="0.46" stop-color="#FABC12" stop-opacity="0" />
    </linearGradient>
    <clipPath id="clip0_863_149">
      <rect
        width="123"
        height="106"
        fill="white"
        transform="translate(277.495 31.4536)"
      />
    </clipPath>
    <clipPath id="clip1_863_149">
      <rect
        width="40"
        height="40"
        fill="white"
        transform="translate(129.701 101.236) rotate(11.4243)"
      />
    </clipPath>
    <clipPath id="clip2_863_149">
      <rect
        width="40"
        height="40"
        fill="white"
        transform="translate(613.343 46.8015)"
      />
    </clipPath>
  </defs>
</svg>
