<svg
  width="677"
  height="237"
  viewBox="0 0 677 237"
  fill="none"
  xmlns="http://www.w3.org/2000/svg"
>
  <rect x="258.995" width="160" height="160" rx="80" fill="black" />
  <g clip-path="url(#clip0_863_149)">
    <path
      fill-rule="evenodd"
      clip-rule="evenodd"
      d="M387.536 64.9239C395.554 62.5646 399.515 69.1076 400.331 76.2343C400.787 80.1746 400.283 84.3096 398.963 87.204C398.026 89.2471 396.706 91.1686 394.858 92.3606C393.729 93.0902 392.361 93.5281 390.993 93.5038C389.48 93.4551 388.712 92.9443 388.712 92.9443C388.462 93.9062 388.226 94.8593 387.992 95.8043C386.947 100.021 385.942 104.08 383.863 108.073C381.583 112.476 378.534 116.489 374.933 119.87C360.938 132.98 338.037 135.437 320.177 130.524C305.053 126.364 293.627 115.03 289.522 99.6819C288.802 99.7792 288.13 99.8521 287.746 99.8521C281.696 99.8521 277.495 94.1362 277.495 85.9636C277.495 77.7908 281.696 72.0749 287.746 72.0992C287.962 72.0992 288.394 72.0992 289.714 72.3181C289.823 71.8862 289.924 71.4377 290.025 70.9881C290.169 70.3489 290.313 69.7073 290.482 69.1076L313.695 79.2017C316.144 91.7282 333.98 97.59 340.918 85.3312C341.001 85.1787 341.216 84.5844 341.472 83.8742C341.952 82.5438 342.578 80.807 342.766 80.807H344.758C346.151 86.45 352.68 91.7525 358.538 91.7525C369.1 91.7525 373.829 84.8689 374.549 75.2127L385.952 61.8835C386.252 62.5159 386.498 62.9598 386.744 63.4037C386.99 63.8476 387.236 64.2915 387.536 64.9239ZM354.313 107.66L360.266 106.663C363.075 106.176 364.947 103.501 364.515 100.679C364.059 97.8577 361.418 95.9605 358.633 96.4225L327.907 101.603C325.122 102.09 323.25 104.765 323.706 107.587C324.114 110.116 326.274 111.916 328.747 111.916C329.035 111.916 329.299 111.892 329.587 111.843L333.86 111.114L351.846 108.073L354.313 107.66Z"
      fill="white"
    />
    <path
      d="M349.896 30.2146C353.28 34.155 355.561 38.4358 356.737 44.9545C357.169 47.3382 355.897 49.7461 353.688 50.6704C353.568 50.719 353.424 50.7676 353.304 50.8165C350.352 51.838 347.231 49.8677 346.655 46.7787C346.487 45.8788 346.295 44.9788 346.055 44.1518V44.1275C346.055 44.1275 346.007 43.9816 345.935 43.714C345.215 41.1357 341.23 28.7552 338.781 28.9741C338.781 28.9741 338.421 28.8525 336.212 29.1444C336.164 29.1444 336.116 29.1687 336.068 29.1687C336.045 29.1687 336.045 29.1687 336.021 29.1687C335.324 29.266 334.484 29.3876 333.596 29.5579C333.884 29.8011 334.148 30.0443 334.436 30.3119C336.021 31.9415 339.477 35.9792 341.278 45.8544C341.83 48.9677 339.501 51.8867 336.404 51.838C336.381 51.838 336.333 51.838 336.309 51.838C333.836 51.7894 331.819 49.8434 331.507 47.3625C330.571 39.652 326.514 32.7685 324.474 32.0388L325.17 31.7226C315.208 35.1522 302.173 42.7897 294.227 59.4025L314.848 68.3534C315.736 66.3347 316.984 64.4618 318.568 62.9294C321.569 60.0349 325.482 58.5755 329.491 58.7943C336.021 59.1593 341.35 63.9509 343.27 70.3965H344.782C345.647 66.8697 347.303 63.7077 349.751 61.3483C352.68 58.5511 356.401 57.3107 360.146 57.3107C365.115 57.3107 369.676 60.5699 371.428 64.8752L381.559 53.3702C372.653 40.2114 358.778 32.2577 349.896 30.2146Z"
      fill="white"
    />
    <path
      d="M359.594 68.7913C359.546 68.7913 359.474 68.7913 359.426 68.7913C358.274 68.7913 357.361 69.3508 356.761 69.813C355.201 71.1021 354.265 73.2667 354.265 75.6019C354.265 77.937 355.201 80.1017 356.761 81.3909C357.361 81.8773 358.37 82.4368 359.594 82.4125C360.818 82.3638 362.09 81.5855 363.051 80.3448C362.619 80.5396 362.162 80.6855 361.658 80.6855C360.026 80.6855 358.73 79.5422 358.73 78.1315C358.73 76.7207 360.026 75.6019 361.658 75.6019C362.859 75.6019 363.891 76.2343 364.347 77.1343C364.443 76.6234 364.587 76.1614 364.587 75.6019C364.587 71.6616 361.994 68.9131 359.594 68.7913Z"
      fill="white"
    />
    <path
      d="M328.939 69.1562C328.867 69.1562 328.795 69.1562 328.699 69.1562C327.306 69.1562 326.25 69.8617 325.602 70.4939C324.33 71.7102 323.586 73.5831 323.586 75.6019C323.586 77.6207 324.33 79.4935 325.602 80.7098C326.274 81.3664 327.331 82.1448 328.915 82.0232C329.635 81.9746 330.307 81.7314 330.907 81.3421C329.635 81.026 328.699 79.9071 328.699 78.5206C328.699 76.9155 330.019 75.6019 331.627 75.6019C332.444 75.6019 333.164 75.9423 333.692 76.4775C333.716 76.1857 333.836 75.918 333.836 75.6019C333.836 72.1966 331.627 69.3022 328.939 69.1562Z"
      fill="white"
    />
  </g>
  <path
    d="M486.03 236.448C486.465 234.272 486.9 232.116 487.335 229.979C487.81 227.804 488.245 225.667 488.641 223.57C490.144 216.054 491.37 208.853 492.32 201.97C491.885 201.89 491.43 201.851 490.955 201.851C490.48 201.811 490.025 201.811 489.59 201.851C488.641 201.93 487.711 201.811 486.801 201.495C486.841 201.178 486.86 200.842 486.86 200.486C486.86 200.09 486.86 199.695 486.86 199.299C486.86 198.864 486.86 198.449 486.86 198.053C486.86 197.618 486.88 197.202 486.92 196.807C486.959 196.372 486.979 195.917 486.979 195.442C486.979 194.928 486.999 194.413 487.038 193.899C488.067 193.978 489.096 194.037 490.124 194.077C491.153 194.116 492.181 194.136 493.21 194.136C496.138 194.136 498.927 194.037 501.577 193.84C504.268 193.642 506.74 193.404 508.995 193.127L508.343 196.332L507.808 199.121C507.611 200.15 507.433 200.961 507.274 201.554C506.839 201.673 506.404 201.772 505.969 201.851C505.534 201.93 505.098 201.989 504.663 202.029C504.228 202.068 503.773 202.128 503.298 202.207C502.863 202.286 502.428 202.365 501.993 202.444C501.399 205.372 500.905 207.904 500.509 210.04C500.153 212.177 499.817 214.234 499.5 216.212C499.223 218.15 498.887 220.287 498.492 222.621C497.819 226.617 497.226 230.672 496.711 234.786L486.03 236.448Z"
    fill="black"
  />
  <path
    d="M469.621 236.27C469.7 235.597 469.779 234.944 469.858 234.311C469.937 233.678 470.017 233.045 470.096 232.412L470.452 229.089C470.491 228.535 470.531 228.021 470.57 227.546C470.61 227.072 470.65 226.636 470.689 226.241H465.526L463.153 234.786C462.282 234.905 461.254 235.043 460.067 235.202C458.88 235.32 457.772 235.439 456.743 235.558C456.11 235.637 455.478 235.716 454.845 235.795C454.251 235.874 453.638 235.953 453.005 236.032L457.693 220.485C458.247 218.625 458.88 216.509 459.592 214.135C460.304 211.761 461.016 209.328 461.728 206.836C462.48 204.343 463.172 202.009 463.805 199.833C464.478 197.618 465.012 195.758 465.408 194.255C468.098 194.057 470.828 193.82 473.597 193.543C476.406 193.266 479.136 192.89 481.786 192.415C481.588 194.631 481.391 197.143 481.193 199.952C481.035 202.721 480.876 205.589 480.718 208.557C480.599 211.524 480.461 214.451 480.303 217.339C480.224 220.069 480.125 222.898 480.006 225.825C479.887 228.713 479.769 231.681 479.65 234.727C479.056 234.806 478.463 234.885 477.87 234.964C477.276 235.043 476.683 235.122 476.089 235.202C475.1 235.36 474.012 235.538 472.825 235.736C471.639 235.933 470.57 236.112 469.621 236.27ZM466.951 220.306C467.188 220.306 467.623 220.287 468.256 220.247C468.929 220.208 469.562 220.168 470.155 220.128C470.748 220.089 471.105 220.069 471.223 220.069C471.223 219.555 471.302 218.506 471.461 216.924C471.619 215.341 471.777 213.68 471.935 211.939C472.014 210.911 472.094 209.862 472.173 208.794C472.291 207.686 472.41 206.559 472.529 205.411L472.885 200.249L471.995 200.308L470.63 205.411L466.951 220.306Z"
    fill="black"
  />
  <path
    d="M425.566 236.507C426.08 233.777 426.575 231.087 427.049 228.436C427.564 225.746 428.078 223.076 428.592 220.425C429.146 217.142 429.66 214.056 430.135 211.168C430.649 208.28 431.144 205.411 431.619 202.563C432.133 199.714 432.627 196.728 433.102 193.602L442.716 192.949C442.043 195.719 441.371 198.607 440.698 201.613C440.065 204.62 439.472 207.548 438.918 210.396L444.793 209.743C445.07 208.359 445.327 206.994 445.564 205.649C445.841 204.264 446.079 202.899 446.276 201.554C446.474 200.249 446.712 198.923 446.989 197.578C447.305 196.193 447.641 194.809 447.997 193.424C449.422 193.187 450.866 193.009 452.329 192.89C453.793 192.732 455.02 192.633 456.009 192.593C456.998 192.514 457.492 192.475 457.492 192.475C456.978 194.057 456.464 195.917 455.949 198.053C455.435 200.189 454.94 202.444 454.466 204.818C453.991 207.192 453.536 209.565 453.101 211.939C452.666 214.273 452.27 216.449 451.914 218.467C451.479 220.999 451.063 223.551 450.668 226.122C450.272 228.654 449.877 231.245 449.481 233.896L440.223 234.964C440.5 233.777 440.738 232.61 440.936 231.463C441.173 230.276 441.39 229.129 441.588 228.021C441.984 226.122 442.38 224.144 442.775 222.087C443.21 220.03 443.547 218.269 443.784 216.805L438.028 217.339C437.869 218.091 437.711 218.902 437.553 219.772C437.434 220.643 437.276 221.572 437.078 222.562C436.88 223.551 436.683 224.52 436.485 225.469C436.327 226.379 436.168 227.289 436.01 228.199C435.812 229.267 435.595 230.335 435.357 231.404C435.12 232.472 434.902 233.54 434.705 234.608L425.566 236.507Z"
    fill="black"
  />
  <path
    d="M408.293 236.507C405.801 236.507 403.763 235.34 402.181 233.006C400.598 230.672 399.807 227.467 399.807 223.392C399.807 219.674 400.321 216.014 401.35 212.414C402.379 208.774 403.823 205.51 405.682 202.622C407.542 199.734 409.737 197.42 412.269 195.679C414.841 193.899 417.669 193.009 420.755 193.009C422.694 193.009 424.355 193.76 425.74 195.264C427.125 196.767 427.817 198.785 427.817 201.317V202.029C427.817 202.187 427.817 202.326 427.817 202.444C427.817 202.563 427.797 202.701 427.758 202.86L419.984 204.937C419.509 203.948 418.955 203.453 418.322 203.453C417.373 203.453 416.364 204.225 415.296 205.768C414.267 207.31 413.278 209.15 412.329 211.286C411.696 212.711 411.122 214.174 410.608 215.678C410.133 217.181 409.757 218.586 409.48 219.891C409.203 221.197 409.065 222.265 409.065 223.096C409.065 224.322 409.243 225.212 409.599 225.766C409.876 226.28 410.311 226.538 410.904 226.538C411.498 226.538 412.15 226.261 412.863 225.707C413.575 225.113 414.228 224.381 414.821 223.511C415.454 222.641 415.869 221.77 416.067 220.9L422.832 223.63C420.894 228.061 418.579 231.325 415.889 233.421C413.238 235.479 410.706 236.507 408.293 236.507Z"
    fill="black"
  />
  <path
    d="M358.62 236.626C357.157 236.626 355.792 236.507 354.526 236.27C356.425 229.346 357.928 222.383 359.036 215.381C360.183 208.339 361.271 201.257 362.3 194.136C364.357 193.701 366.493 193.325 368.709 193.009C370.924 192.653 373.219 192.475 375.592 192.475C376.898 192.475 378.283 192.712 379.746 193.187C381.21 193.622 382.437 194.433 383.426 195.62C384.454 196.767 384.969 198.409 384.969 200.545C384.969 202.523 384.553 204.343 383.722 206.005C382.892 207.666 381.843 209.091 380.577 210.278C379.311 211.464 378.006 212.315 376.661 212.829C377.214 213.106 377.867 213.601 378.619 214.313C379.371 215.025 380.023 215.974 380.577 217.161C381.131 218.348 381.408 219.792 381.408 221.493C381.408 223.867 380.696 226.023 379.272 227.962C377.887 229.861 376.028 231.443 373.693 232.709C371.438 233.975 369.005 234.944 366.394 235.617C363.783 236.29 361.192 236.626 358.62 236.626ZM369.183 207.963C370.41 207.726 371.577 207.409 372.685 207.014C373.792 206.618 374.682 206.163 375.355 205.649C376.067 205.134 376.423 204.581 376.423 203.987C376.423 203.235 376.126 202.642 375.533 202.207C374.94 201.772 374.228 201.455 373.397 201.257C372.566 201.06 371.794 200.961 371.082 200.961H370.489C370.212 202.543 369.955 203.928 369.717 205.115C369.48 206.262 369.302 207.211 369.183 207.963ZM366.157 224.639C366.948 224.559 367.818 224.421 368.768 224.223C369.717 224.025 370.627 223.729 371.498 223.333C372.368 222.898 373.08 222.344 373.634 221.671C374.228 220.959 374.524 220.109 374.524 219.12C374.524 218.17 374.208 217.418 373.575 216.865C372.942 216.311 372.17 215.915 371.26 215.678C370.39 215.401 369.559 215.262 368.768 215.262H368.293C368.095 215.262 367.937 215.282 367.818 215.322C367.581 216.785 367.304 218.328 366.988 219.95C366.671 221.572 366.394 223.135 366.157 224.639Z"
    fill="black"
  />
  <path
    d="M331.867 236.448L339.641 194.255L358.394 192.653C358.117 193.523 357.879 194.413 357.681 195.323C357.484 196.075 357.286 196.866 357.088 197.697C356.93 198.488 356.791 199.2 356.673 199.833C356.158 199.873 355.426 199.912 354.477 199.952C353.527 199.952 352.558 199.972 351.569 200.011C350.58 200.011 349.729 200.011 349.017 200.011C348.305 200.011 347.929 200.011 347.89 200.011L345.813 210.634L349.255 210.455C349.69 210.416 350.125 210.396 350.56 210.396C351.035 210.396 351.49 210.396 351.925 210.396C352.36 210.396 352.756 210.396 353.112 210.396C353.468 210.396 353.745 210.376 353.943 210.337C353.864 210.891 353.785 211.445 353.705 211.998C353.666 212.513 353.607 213.047 353.527 213.601L352.993 216.865C352.795 216.904 352.538 216.924 352.222 216.924C351.905 216.924 351.529 216.924 351.094 216.924C350.659 216.963 350.204 216.983 349.729 216.983C349.255 216.983 348.8 217.003 348.365 217.043C347.85 217.082 347.316 217.102 346.762 217.102C346.208 217.102 345.615 217.122 344.982 217.161L342.964 228.08L351.628 226.715L351.035 233.481L331.867 236.448Z"
    fill="black"
  />
  <path
    d="M295.218 236.626L299.728 194.492C300.638 194.453 301.528 194.393 302.398 194.314C303.308 194.196 304.179 194.057 305.009 193.899C305.801 193.741 306.612 193.622 307.442 193.543C308.273 193.424 309.084 193.345 309.875 193.305L309.697 194.492C309.658 194.888 309.579 195.343 309.46 195.857C309.381 196.332 309.302 196.886 309.223 197.519C309.025 198.903 308.788 200.486 308.511 202.266C308.234 204.046 307.917 206.025 307.561 208.201C307.324 209.546 307.047 211.168 306.73 213.067C306.453 214.966 306.117 217.122 305.721 219.535H306.612C307.126 217.715 307.601 216.054 308.036 214.55C308.471 213.047 308.847 211.722 309.163 210.574C309.48 209.427 309.777 208.398 310.054 207.488C310.37 206.539 310.627 205.688 310.825 204.937C311.656 202.009 312.328 199.616 312.843 197.756C313.357 195.897 313.693 194.69 313.851 194.136H314.386C315.414 194.136 316.482 194.057 317.59 193.899C318.737 193.741 319.766 193.563 320.676 193.365C320.636 193.523 320.557 194.176 320.439 195.323C320.32 196.47 320.181 197.875 320.023 199.536C319.865 201.198 319.707 202.919 319.548 204.699C319.271 208.062 319.014 210.99 318.777 213.482C318.579 215.974 318.401 217.992 318.243 219.535H319.311L324.949 194.018L328.925 193.483C329.478 193.404 330.052 193.325 330.646 193.246C331.239 193.167 331.852 193.088 332.485 193.009C333.632 192.85 334.72 192.672 335.749 192.475C334.562 195.798 333.375 199.714 332.188 204.225C331.002 208.735 329.815 213.304 328.628 217.933C327.995 220.465 327.362 223.036 326.729 225.647C326.135 228.219 325.542 230.85 324.949 233.54L311.537 235.795L314.148 212.889H313.436L307.561 234.43L295.218 236.626Z"
    fill="black"
  />
  <path
    d="M255.51 236.448L263.283 194.255L282.036 192.653C281.759 193.523 281.522 194.413 281.324 195.323C281.126 196.075 280.928 196.866 280.73 197.697C280.572 198.488 280.434 199.2 280.315 199.833C279.801 199.873 279.069 199.912 278.119 199.952C277.17 199.952 276.2 199.972 275.211 200.011C274.222 200.011 273.372 200.011 272.66 200.011C271.948 200.011 271.572 200.011 271.532 200.011L269.455 210.634L272.897 210.455C273.332 210.416 273.767 210.396 274.203 210.396C274.677 210.396 275.132 210.396 275.567 210.396C276.003 210.396 276.398 210.396 276.754 210.396C277.11 210.396 277.387 210.376 277.585 210.337C277.506 210.891 277.427 211.445 277.348 211.998C277.308 212.513 277.249 213.047 277.17 213.601L276.636 216.865C276.438 216.904 276.181 216.924 275.864 216.924C275.548 216.924 275.172 216.924 274.737 216.924C274.301 216.963 273.847 216.983 273.372 216.983C272.897 216.983 272.442 217.003 272.007 217.043C271.493 217.082 270.958 217.102 270.405 217.102C269.851 217.102 269.257 217.122 268.624 217.161L266.607 228.08L275.271 226.715L274.677 233.481L255.51 236.448Z"
    fill="black"
  />
  <path
    d="M229.434 236.685C228.88 236.685 228.326 236.646 227.772 236.567C227.218 236.527 226.664 236.468 226.111 236.388L229.256 220.425C229.651 218.249 230.067 215.955 230.502 213.541C230.977 211.089 231.432 208.675 231.867 206.302C232.302 203.888 232.678 201.653 232.994 199.596C233.35 197.539 233.627 195.798 233.825 194.374C235.526 194.057 237.247 193.76 238.988 193.484C240.729 193.207 242.509 193.068 244.329 193.068C247.256 193.068 249.571 193.681 251.272 194.908C252.973 196.095 254.2 197.677 254.951 199.655C255.703 201.594 256.079 203.73 256.079 206.064C256.079 208.161 255.782 210.376 255.189 212.711C254.595 215.005 253.745 217.3 252.637 219.594C251.569 221.849 250.283 223.986 248.78 226.003C246.445 229.129 243.597 231.7 240.234 233.718C236.911 235.696 233.311 236.685 229.434 236.685ZM236.496 229.208C237.88 228.298 239.186 226.913 240.412 225.054C241.678 223.195 242.865 220.959 243.973 218.348C244.962 215.935 245.733 213.66 246.287 211.524C246.841 209.348 247.118 207.548 247.118 206.124C247.118 204.66 246.703 203.512 245.872 202.682C245.081 201.851 243.815 201.435 242.074 201.435C241.441 204.838 240.788 207.983 240.116 210.871C239.483 213.759 238.85 216.667 238.217 219.594C237.623 222.522 237.049 225.727 236.496 229.208Z"
    fill="black"
  />
  <path
    d="M204.381 236.626C201.77 236.626 199.634 235.617 197.972 233.599C196.311 231.582 195.48 228.535 195.48 224.461C195.48 222.206 195.757 219.832 196.311 217.339C196.865 214.847 197.636 212.394 198.625 209.981C199.614 207.568 200.762 205.332 202.067 203.275C204.164 199.952 206.577 197.242 209.307 195.145C212.037 193.048 214.905 192 217.912 192C220.285 192 222.105 192.613 223.371 193.84C224.677 195.026 225.587 196.569 226.101 198.468C226.615 200.328 226.872 202.266 226.872 204.284C226.872 208.992 226.141 213.383 224.677 217.458C223.253 221.493 221.393 224.916 219.098 227.724C216.804 230.613 214.351 232.828 211.74 234.371C209.168 235.874 206.716 236.626 204.381 236.626ZM207.586 226.834C209.366 226.834 210.929 226.241 212.274 225.054C213.659 223.867 214.826 222.364 215.775 220.544C216.725 218.685 217.437 216.746 217.912 214.728C218.386 212.711 218.624 210.891 218.624 209.269C218.624 208.636 218.564 207.963 218.446 207.251C218.327 206.499 218.07 205.847 217.674 205.293C217.279 204.739 216.665 204.462 215.835 204.462C214.015 204.462 212.373 205.135 210.909 206.48C209.445 207.785 208.219 209.447 207.23 211.464C206.241 213.522 205.509 215.539 205.034 217.517C204.559 219.496 204.322 221.296 204.322 222.918C204.322 223.748 204.619 224.619 205.212 225.529C205.806 226.399 206.597 226.834 207.586 226.834Z"
    fill="black"
  />
  <path
    d="M177.481 236.507C174.989 236.507 172.952 235.34 171.369 233.006C169.787 230.672 168.995 227.467 168.995 223.392C168.995 219.674 169.51 216.014 170.538 212.414C171.567 208.774 173.011 205.51 174.87 202.622C176.73 199.734 178.925 197.42 181.457 195.679C184.029 193.899 186.858 193.009 189.943 193.009C191.882 193.009 193.544 193.76 194.928 195.264C196.313 196.767 197.005 198.785 197.005 201.317V202.029C197.005 202.187 197.005 202.326 197.005 202.444C197.005 202.563 196.985 202.701 196.946 202.86L189.172 204.937C188.697 203.948 188.143 203.453 187.51 203.453C186.561 203.453 185.552 204.225 184.484 205.768C183.455 207.31 182.466 209.15 181.517 211.286C180.884 212.711 180.31 214.174 179.796 215.678C179.321 217.181 178.945 218.586 178.668 219.891C178.391 221.197 178.253 222.265 178.253 223.096C178.253 224.322 178.431 225.212 178.787 225.766C179.064 226.28 179.499 226.538 180.093 226.538C180.686 226.538 181.339 226.261 182.051 225.707C182.763 225.113 183.416 224.381 184.009 223.511C184.642 222.641 185.058 221.77 185.255 220.9L192.02 223.63C190.082 228.061 187.768 231.325 185.077 233.421C182.427 235.479 179.895 236.507 177.481 236.507Z"
    fill="black"
  />
  <g filter="url(#filter0_d_863_149)">
    <rect
      x="8.99536"
      y="49.5918"
      width="60"
      height="60"
      rx="15"
      transform="rotate(-13.0929 8.99536 49.5918)"
      fill="white"
    />
    <path
      d="M59.792 66.3998C56.5585 65.8316 53.4637 64.6497 50.6747 62.9178C46.7873 60.4921 43.6204 57.0696 41.5031 53.006C41.4097 52.8254 41.2587 52.681 41.0741 52.5958C40.8894 52.5106 40.6817 52.4893 40.4836 52.5354C40.2855 52.5815 40.1084 52.6922 39.9804 52.8502C39.8523 53.0081 39.7805 53.2043 39.7763 53.4076C39.6671 57.9885 38.335 62.4568 35.9183 66.3498C34.1794 69.1345 31.9238 71.5607 29.2732 73.4977C28.2373 74.2614 27.147 74.935 26.0068 75.5231C25.8247 75.6155 25.6788 75.7663 25.5925 75.9514C25.5062 76.1364 25.4844 76.3451 25.5307 76.544C25.5769 76.7429 25.6886 76.9205 25.8477 77.0485C26.0068 77.1765 26.2042 77.2474 26.4084 77.2499C27.6907 77.2728 28.9629 77.397 30.2329 77.6243C33.4664 78.1925 36.5612 79.3744 39.3502 81.1062C43.2385 83.5321 46.4062 86.9551 48.524 91.0194C48.6163 91.2016 48.7671 91.3474 48.9522 91.4337C49.1372 91.5201 49.3459 91.5418 49.5448 91.4956C49.7437 91.4493 49.9213 91.3377 50.0493 91.1786C50.1773 91.0195 50.2482 90.822 50.2507 90.6178C50.2732 89.3338 50.3974 88.0616 50.6247 86.7916C51.1928 83.5581 52.3748 80.4633 54.1066 77.6743C56.533 73.7866 59.956 70.6196 64.0203 68.5023C64.2009 68.4089 64.3452 68.2579 64.4304 68.0732C64.5157 67.8886 64.5369 67.6808 64.4909 67.4828C64.4448 67.2847 64.334 67.1076 64.1761 66.9795C64.0181 66.8515 63.822 66.7797 63.6187 66.7755C62.3351 66.7525 61.0555 66.6268 59.792 66.3998Z"
      fill="#3186FF"
    />
    <path
      d="M59.792 66.3998C56.5585 65.8316 53.4637 64.6497 50.6747 62.9178C46.7873 60.4921 43.6204 57.0696 41.5031 53.006C41.4097 52.8254 41.2587 52.681 41.0741 52.5958C40.8894 52.5106 40.6817 52.4893 40.4836 52.5354C40.2855 52.5815 40.1084 52.6922 39.9804 52.8502C39.8523 53.0081 39.7805 53.2043 39.7763 53.4076C39.6671 57.9885 38.335 62.4568 35.9183 66.3498C34.1794 69.1345 31.9238 71.5607 29.2732 73.4977C28.2373 74.2614 27.147 74.935 26.0068 75.5231C25.8247 75.6155 25.6788 75.7663 25.5925 75.9514C25.5062 76.1364 25.4844 76.3451 25.5307 76.544C25.5769 76.7429 25.6886 76.9205 25.8477 77.0485C26.0068 77.1765 26.2042 77.2474 26.4084 77.2499C27.6907 77.2728 28.9629 77.397 30.2329 77.6243C33.4664 78.1925 36.5612 79.3744 39.3502 81.1062C43.2385 83.5321 46.4062 86.9551 48.524 91.0194C48.6163 91.2016 48.7671 91.3474 48.9522 91.4337C49.1372 91.5201 49.3459 91.5418 49.5448 91.4956C49.7437 91.4493 49.9213 91.3377 50.0493 91.1786C50.1773 91.0195 50.2482 90.822 50.2507 90.6178C50.2732 89.3338 50.3974 88.0616 50.6247 86.7916C51.1928 83.5581 52.3748 80.4633 54.1066 77.6743C56.533 73.7866 59.956 70.6196 64.0203 68.5023C64.2009 68.4089 64.3452 68.2579 64.4304 68.0732C64.5157 67.8886 64.5369 67.6808 64.4909 67.4828C64.4448 67.2847 64.334 67.1076 64.1761 66.9795C64.0181 66.8515 63.822 66.7797 63.6187 66.7755C62.3351 66.7525 61.0555 66.6268 59.792 66.3998Z"
      fill="url(#paint0_linear_863_149)"
    />
    <path
      d="M59.792 66.3998C56.5585 65.8316 53.4637 64.6497 50.6747 62.9178C46.7873 60.4921 43.6204 57.0696 41.5031 53.006C41.4097 52.8254 41.2587 52.681 41.0741 52.5958C40.8894 52.5106 40.6817 52.4893 40.4836 52.5354C40.2855 52.5815 40.1084 52.6922 39.9804 52.8502C39.8523 53.0081 39.7805 53.2043 39.7763 53.4076C39.6671 57.9885 38.335 62.4568 35.9183 66.3498C34.1794 69.1345 31.9238 71.5607 29.2732 73.4977C28.2373 74.2614 27.147 74.935 26.0068 75.5231C25.8247 75.6155 25.6788 75.7663 25.5925 75.9514C25.5062 76.1364 25.4844 76.3451 25.5307 76.544C25.5769 76.7429 25.6886 76.9205 25.8477 77.0485C26.0068 77.1765 26.2042 77.2474 26.4084 77.2499C27.6907 77.2728 28.9629 77.397 30.2329 77.6243C33.4664 78.1925 36.5612 79.3744 39.3502 81.1062C43.2385 83.5321 46.4062 86.9551 48.524 91.0194C48.6163 91.2016 48.7671 91.3474 48.9522 91.4337C49.1372 91.5201 49.3459 91.5418 49.5448 91.4956C49.7437 91.4493 49.9213 91.3377 50.0493 91.1786C50.1773 91.0195 50.2482 90.822 50.2507 90.6178C50.2732 89.3338 50.3974 88.0616 50.6247 86.7916C51.1928 83.5581 52.3748 80.4633 54.1066 77.6743C56.533 73.7866 59.956 70.6196 64.0203 68.5023C64.2009 68.4089 64.3452 68.2579 64.4304 68.0732C64.5157 67.8886 64.5369 67.6808 64.4909 67.4828C64.4448 67.2847 64.334 67.1076 64.1761 66.9795C64.0181 66.8515 63.822 66.7797 63.6187 66.7755C62.3351 66.7525 61.0555 66.6268 59.792 66.3998Z"
      fill="url(#paint1_linear_863_149)"
    />
    <path
      d="M59.792 66.3998C56.5585 65.8316 53.4637 64.6497 50.6747 62.9178C46.7873 60.4921 43.6204 57.0696 41.5031 53.006C41.4097 52.8254 41.2587 52.681 41.0741 52.5958C40.8894 52.5106 40.6817 52.4893 40.4836 52.5354C40.2855 52.5815 40.1084 52.6922 39.9804 52.8502C39.8523 53.0081 39.7805 53.2043 39.7763 53.4076C39.6671 57.9885 38.335 62.4568 35.9183 66.3498C34.1794 69.1345 31.9238 71.5607 29.2732 73.4977C28.2373 74.2614 27.147 74.935 26.0068 75.5231C25.8247 75.6155 25.6788 75.7663 25.5925 75.9514C25.5062 76.1364 25.4844 76.3451 25.5307 76.544C25.5769 76.7429 25.6886 76.9205 25.8477 77.0485C26.0068 77.1765 26.2042 77.2474 26.4084 77.2499C27.6907 77.2728 28.9629 77.397 30.2329 77.6243C33.4664 78.1925 36.5612 79.3744 39.3502 81.1062C43.2385 83.5321 46.4062 86.9551 48.524 91.0194C48.6163 91.2016 48.7671 91.3474 48.9522 91.4337C49.1372 91.5201 49.3459 91.5418 49.5448 91.4956C49.7437 91.4493 49.9213 91.3377 50.0493 91.1786C50.1773 91.0195 50.2482 90.822 50.2507 90.6178C50.2732 89.3338 50.3974 88.0616 50.6247 86.7916C51.1928 83.5581 52.3748 80.4633 54.1066 77.6743C56.533 73.7866 59.956 70.6196 64.0203 68.5023C64.2009 68.4089 64.3452 68.2579 64.4304 68.0732C64.5157 67.8886 64.5369 67.6808 64.4909 67.4828C64.4448 67.2847 64.334 67.1076 64.1761 66.9795C64.0181 66.8515 63.822 66.7797 63.6187 66.7755C62.3351 66.7525 61.0555 66.6268 59.792 66.3998Z"
      fill="url(#paint2_linear_863_149)"
    />
  </g>
  <g filter="url(#filter1_d_863_149)">
    <g clip-path="url(#clip1_863_149)">
      <rect
        x="505.995"
        y="31.5916"
        width="60"
        height="60"
        rx="15"
        transform="rotate(-22.1185 505.995 31.5916)"
        fill="white"
      />
      <g clip-path="url(#clip2_863_149)">
        <path
          d="M536.308 58.7699L541.934 51.721L541.914 51.3156L541.71 51.1682L541.356 51.3119L540.106 51.7336L535.895 53.3139L532.222 54.632L528.647 55.8656L527.69 56.0371L526.42 55.285L526.284 54.707L526.823 53.9101L527.92 53.5723L530.332 52.7774L533.948 51.5918L536.56 50.7049L540.501 49.5618L541.102 49.3177L541.088 49.0408L540.82 48.9735L540.6 48.8884L535.957 47.9039L530.958 46.8991L528.285 46.2367L526.859 45.9329L526.007 45.448L525.131 43.9908L525.69 42.4644L527.088 42.0042L527.474 41.9571L529.283 42.4559L533.155 43.5376L538.152 44.8045L538.906 45.0448L539.065 44.7948L539.049 44.6702L538.624 44.35L534.997 41.4237L531.201 38.4865L529.56 37.2973L528.909 36.4482C528.659 36.1218 528.452 35.7656 528.291 35.3879L528.81 33.3544L529.363 32.8883L530.985 32.4702L531.862 32.7686L533.707 34.5628L536.653 37.3756L540.955 41.0781L542.223 42.1785L543.12 43.3106L543.421 43.6472L543.664 43.5481L543.573 43.3227L542.7 40.6083L541.751 37.2248L540.415 32.9194L540.062 31.6957L540.071 30.0547L540.916 28.8263L541.993 28.8921L543.164 29.6486L543.339 30.3762L544.059 33.4136L545.018 38.2467L545.675 41.4735L546.002 41.3405L546.225 40.8144L546.927 38.1798L548.182 33.9562L548.795 32.232L549.54 30.3028L550.114 29.2941L551.709 28.6459L553.591 29.9121L553.797 31.9258L553 34.6733L552.356 36.9894L551.471 40.4074L551.105 43.003L551.287 43.1271L551.565 42.9782L555.594 40.2503L557.801 38.8497L560.446 37.208L561.975 37.2843L562.364 37.8371L562.364 39.289L559.628 41.275L556.353 43.4373L551.554 46.8507L551.508 46.9234L551.621 46.9868L554.105 46.2402L555.15 45.8803L557.654 44.8625L562.458 43.3147L564.005 43.6249L565.138 44.3125L565.32 45.111L563.833 46.8307L561.057 47.2593L554.574 48.2571L552.341 48.5724L552.06 48.6866L552.13 48.8565L554.487 49.8196L558.72 51.3554L564.057 53.3784L564.615 54.1912L564.404 55.0958L563.848 55.2335L559.404 54.0588L557.621 53.4394L553.631 52.1468L553.433 52.2271L553.54 52.4896L554.632 53.213L560.463 57.1779L561.329 58.7689L561.288 59.4206L560.483 60.131L559.375 60.3618L556.045 58.2519L552.501 55.7939L549.517 53.5112L549.351 53.7226L552.862 65.3458L552.606 66.1154L551.656 67.0052L550.43 66.6743L549.464 65.723L549.035 63.242L548.428 60.0272L547.954 57.4672L547.204 54.3541L547.07 53.2716L547.025 53.2143L546.82 53.3299L545.84 57.2669L544.322 63.182L542.815 67.1139L542.279 67.6269L540.94 67.5055L540.628 66.4414L540.877 65.2803L542.659 59.0941L543.701 55.2846L544.456 53.0242L544.347 52.784L544.262 52.8185L537.052 63.1542L535.399 64.0887L534.36 63.6903L533.986 62.5002L534.191 61.98L536.313 58.7569L536.308 58.7699Z"
          fill="#D97757"
        />
      </g>
    </g>
  </g>
  <g filter="url(#filter2_d_863_149)">
    <rect
      x="609.614"
      y="50"
      width="60"
      height="60"
      rx="15"
      transform="rotate(14.1013 609.614 50)"
      fill="white"
    />
    <g clip-path="url(#clip3_863_149)">
      <path
        fill-rule="evenodd"
        clip-rule="evenodd"
        d="M626.599 91.6701L640.341 82.4736C641.014 82.0212 641.936 82.2528 642.212 83.0149C643.66 87.0352 642.709 91.7393 639.307 94.8404C635.907 97.9417 631.352 98.4428 627.295 96.6247L622.684 98.5064C628.952 103.239 636.864 102.511 642.007 97.8198C646.087 94.0996 647.543 88.8369 646.638 83.9877L646.648 83.9998C645.341 76.8777 647.512 74.1561 651.957 68.5926C652.063 68.4608 652.169 68.3289 652.274 68.1937L646.521 73.439L646.522 73.4224L626.594 91.6732M623.746 93.9277C619.306 89.2652 620.43 82.4252 624.579 78.6432C627.648 75.8452 632.509 74.8711 636.62 76.8286L641.221 74.9581C640.317 74.2258 639.319 73.618 638.254 73.1509C635.579 71.9071 632.595 71.4821 629.679 71.9295C626.763 72.3768 624.045 73.6764 621.865 75.6649C617.451 79.6898 615.82 86.1206 617.839 91.7677C619.347 95.9878 616.421 98.7858 613.474 101.611C612.428 102.614 611.38 103.614 610.524 104.685L623.741 93.9324"
        fill="black"
      />
    </g>
  </g>
  <g filter="url(#filter3_d_863_149)">
    <rect
      x="109.731"
      y="62"
      width="60"
      height="60"
      rx="15"
      transform="rotate(9.33844 109.731 62)"
      fill="white"
    />
    <path
      fill-rule="evenodd"
      clip-rule="evenodd"
      d="M151.753 99.7337C152.666 98.6463 153.337 97.3678 153.72 95.9861C154.102 94.6044 154.187 93.1522 153.97 91.729C153.337 87.3176 149.974 83.7771 145.646 82.9727C145.155 81.6055 144.388 80.358 143.394 79.3125C142.4 78.2669 141.203 77.4469 139.881 76.9064C135.807 75.194 131.151 76.3255 128.361 79.7076C126.969 79.4321 125.537 79.4625 124.161 79.7967C122.784 80.1308 121.496 80.7612 120.38 81.6459C118.703 82.9576 117.487 84.7896 116.911 86.8712C116.335 88.9528 116.429 91.1738 117.18 93.2062C116.267 94.2935 115.596 95.572 115.213 96.9539C114.83 98.3358 114.744 99.7884 114.962 101.212C115.595 105.623 118.958 109.162 123.285 109.968C123.776 111.335 124.544 112.582 125.537 113.627C126.531 114.673 127.728 115.492 129.05 116.032C133.126 117.748 137.785 116.615 140.575 113.23C141.969 113.505 143.402 113.475 144.779 113.141C146.156 112.806 147.445 112.175 148.562 111.289C150.237 109.977 151.451 108.145 152.026 106.064C152.601 103.984 152.506 101.764 151.756 99.7327L151.753 99.7337ZM130.014 113.582C128.384 112.905 127.03 111.67 126.186 110.089C126.254 110.082 126.374 110.069 126.456 110.055L135.566 108.842C135.792 108.814 136.007 108.724 136.187 108.582C136.367 108.44 136.507 108.251 136.591 108.035L140.727 97.5088L143.146 100.641C143.173 100.672 143.182 100.713 143.173 100.751L139.747 109.469C138.219 113.342 133.866 115.182 130.014 113.582ZM117.554 100.87C117.294 99.1101 117.655 97.3173 118.573 95.8139C118.613 95.8703 118.686 95.9704 118.739 96.0382L124.461 103.449C124.749 103.828 125.215 104.023 125.68 103.959L136.8 102.479L135.369 106.123C135.362 106.142 135.351 106.159 135.336 106.173C135.322 106.186 135.304 106.196 135.285 106.201L126.077 107.425C121.978 107.965 118.167 105.031 117.557 100.868L117.554 100.87ZM122.007 83.7546C123.389 82.6693 125.102 82.1173 126.849 82.1948L126.745 82.4507L123.356 91.0745C123.27 91.2906 123.242 91.5267 123.275 91.7585C123.309 91.9902 123.402 92.2089 123.546 92.392L130.531 101.436L126.681 101.95C126.661 101.954 126.641 101.953 126.622 101.947C126.603 101.94 126.586 101.93 126.572 101.915L120.789 94.4204C118.22 91.085 118.764 86.3162 122.004 83.7573L122.007 83.7546ZM145.386 100.549L138.401 91.5028L142.25 90.9921C142.269 90.9881 142.29 90.9891 142.309 90.995C142.328 91.0008 142.345 91.0115 142.359 91.0258L148.144 98.517C150.718 101.855 150.173 106.631 146.925 109.185C145.543 110.269 143.83 110.821 142.084 110.747L145.574 101.866C145.66 101.65 145.688 101.414 145.655 101.183C145.621 100.952 145.528 100.733 145.385 100.551L145.386 100.549ZM150.361 97.126C150.306 97.0503 150.25 96.9752 150.193 96.9009L144.472 89.4899C144.329 89.3038 144.142 89.1589 143.928 89.0696C143.714 88.9803 143.482 88.9498 143.254 88.9811L132.133 90.4608L133.565 86.817C133.572 86.798 133.583 86.781 133.597 86.7673C133.612 86.7537 133.63 86.7439 133.649 86.7387L142.854 85.5162C146.956 84.9744 150.77 87.9116 151.373 92.0783C151.628 93.8379 151.272 95.6255 150.361 97.126ZM128.199 95.4242L125.78 92.2938C125.767 92.2788 125.757 92.2607 125.753 92.2411C125.748 92.2215 125.749 92.2011 125.754 92.1818L129.18 83.4643C130.706 79.5843 135.069 77.7465 138.922 79.3609C140.552 80.0422 141.903 81.2771 142.744 82.8512C142.675 82.8581 142.557 82.8722 142.477 82.8842L133.366 84.0969C133.14 84.1246 132.925 84.2141 132.744 84.356C132.564 84.498 132.424 84.6872 132.34 84.9039L128.199 95.4242ZM131.355 92.4412L136.308 91.7828L139.419 95.8111L137.577 100.498L132.624 101.156L129.512 97.1273L131.353 92.4405L131.355 92.4412Z"
      fill="black"
    />
  </g>
  <defs>
    <filter
      id="filter0_d_863_149"
      x="-3.00464"
      y="26"
      width="96.032"
      height="96.032"
      filterUnits="userSpaceOnUse"
      color-interpolation-filters="sRGB"
    >
      <feFlood flood-opacity="0" result="BackgroundImageFix" />
      <feColorMatrix
        in="SourceAlpha"
        type="matrix"
        values="0 0 0 0 0 0 0 0 0 0 0 0 0 0 0 0 0 0 127 0"
        result="hardAlpha"
      />
      <feOffset dy="2" />
      <feGaussianBlur stdDeviation="6" />
      <feComposite in2="hardAlpha" operator="out" />
      <feColorMatrix
        type="matrix"
        values="0 0 0 0 0 0 0 0 0 0 0 0 0 0 0 0 0 0 0.14 0"
      />
      <feBlend
        mode="normal"
        in2="BackgroundImageFix"
        result="effect1_dropShadow_863_149"
      />
      <feBlend
        mode="normal"
        in="SourceGraphic"
        in2="effect1_dropShadow_863_149"
        result="shape"
      />
    </filter>
    <filter
      id="filter1_d_863_149"
      x="493.995"
      y="-1"
      width="102.176"
      height="102.176"
      filterUnits="userSpaceOnUse"
      color-interpolation-filters="sRGB"
    >
      <feFlood flood-opacity="0" result="BackgroundImageFix" />
      <feColorMatrix
        in="SourceAlpha"
        type="matrix"
        values="0 0 0 0 0 0 0 0 0 0 0 0 0 0 0 0 0 0 127 0"
        result="hardAlpha"
      />
      <feOffset dy="2" />
      <feGaussianBlur stdDeviation="6" />
      <feComposite in2="hardAlpha" operator="out" />
      <feColorMatrix
        type="matrix"
        values="0 0 0 0 0 0 0 0 0 0 0 0 0 0 0 0 0 0 0.14 0"
      />
      <feBlend
        mode="normal"
        in2="BackgroundImageFix"
        result="effect1_dropShadow_863_149"
      />
      <feBlend
        mode="normal"
        in="SourceGraphic"
        in2="effect1_dropShadow_863_149"
        result="shape"
      />
    </filter>
    <filter
      id="filter2_d_863_149"
      x="582.995"
      y="40"
      width="96.8101"
      height="96.8103"
      filterUnits="userSpaceOnUse"
      color-interpolation-filters="sRGB"
    >
      <feFlood flood-opacity="0" result="BackgroundImageFix" />
      <feColorMatrix
        in="SourceAlpha"
        type="matrix"
        values="0 0 0 0 0 0 0 0 0 0 0 0 0 0 0 0 0 0 127 0"
        result="hardAlpha"
      />
      <feOffset dy="2" />
      <feGaussianBlur stdDeviation="6" />
      <feComposite in2="hardAlpha" operator="out" />
      <feColorMatrix
        type="matrix"
        values="0 0 0 0 0 0 0 0 0 0 0 0 0 0 0 0 0 0 0.14 0"
      />
      <feBlend
        mode="normal"
        in2="BackgroundImageFix"
        result="effect1_dropShadow_863_149"
      />
      <feBlend
        mode="normal"
        in="SourceGraphic"
        in2="effect1_dropShadow_863_149"
        result="shape"
      />
    </filter>
    <filter
      id="filter3_d_863_149"
      x="87.9954"
      y="52"
      width="92.9407"
      height="92.9407"
      filterUnits="userSpaceOnUse"
      color-interpolation-filters="sRGB"
    >
      <feFlood flood-opacity="0" result="BackgroundImageFix" />
      <feColorMatrix
        in="SourceAlpha"
        type="matrix"
        values="0 0 0 0 0 0 0 0 0 0 0 0 0 0 0 0 0 0 127 0"
        result="hardAlpha"
      />
      <feOffset dy="2" />
      <feGaussianBlur stdDeviation="6" />
      <feComposite in2="hardAlpha" operator="out" />
      <feColorMatrix
        type="matrix"
        values="0 0 0 0 0 0 0 0 0 0 0 0 0 0 0 0 0 0 0.14 0"
      />
      <feBlend
        mode="normal"
        in2="BackgroundImageFix"
        result="effect1_dropShadow_863_149"
      />
      <feBlend
        mode="normal"
        in="SourceGraphic"
        in2="effect1_dropShadow_863_149"
        result="shape"
      />
    </filter>
    <linearGradient
      id="paint0_linear_863_149"
      x1="37.5989"
      y1="80.2702"
      x2="43.2414"
      y2="72.4239"
      gradientUnits="userSpaceOnUse"
    >
      <stop stop-color="#08B962" />
      <stop offset="1" stop-color="#08B962" stop-opacity="0" />
    </linearGradient>
    <linearGradient
      id="paint1_linear_863_149"
      x1="35.2509"
      y1="62.1478"
      x2="43.715"
      y2="70.4469"
      gradientUnits="userSpaceOnUse"
    >
      <stop stop-color="#F94543" />
      <stop offset="1" stop-color="#F94543" stop-opacity="0" />
    </linearGradient>
    <linearGradient
      id="paint2_linear_863_149"
      x1="30.576"
      y1="78.1697"
      x2="54.7529"
      y2="69.7465"
      gradientUnits="userSpaceOnUse"
    >
      <stop stop-color="#FABC12" />
      <stop offset="0.46" stop-color="#FABC12" stop-opacity="0" />
    </linearGradient>
    <clipPath id="clip0_863_149">
      <rect
        width="123"
        height="106"
        fill="white"
        transform="translate(277.495 27)"
      />
    </clipPath>
    <clipPath id="clip1_863_149">
      <rect
        x="505.995"
        y="31.5916"
        width="60"
        height="60"
        rx="15"
        transform="rotate(-22.1185 505.995 31.5916)"
        fill="white"
      />
    </clipPath>
    <clipPath id="clip2_863_149">
      <rect
        width="40"
        height="40"
        fill="white"
        transform="translate(519.025 37.0903) rotate(-22.1185)"
      />
    </clipPath>
    <clipPath id="clip3_863_149">
      <rect
        width="40"
        height="40"
        fill="white"
        transform="translate(612.356 65.4929) rotate(2.67701)"
      />
    </clipPath>
  </defs>
</svg>
