<svg
  width="679"
  height="245"
  viewBox="0 0 679 245"
  fill="none"
  xmlns="http://www.w3.org/2000/svg"
>
  <rect x="258.995" y="7.45361" width="160" height="160" rx="80" fill="black" />
  <g clip-path="url(#clip0_863_149)">
    <path
      fill-rule="evenodd"
      clip-rule="evenodd"
      d="M387.536 72.3775C395.554 70.0183 399.515 76.5612 400.331 83.6879C400.787 87.6282 400.283 91.7632 398.963 94.6577C398.026 96.7008 396.706 98.6223 394.858 99.8142C393.729 100.544 392.361 100.982 390.993 100.957C389.48 100.909 388.712 100.398 388.712 100.398C388.462 101.36 388.226 102.313 387.992 103.258C386.947 107.474 385.942 111.533 383.863 115.527C381.583 119.93 378.534 123.943 374.933 127.324C360.938 140.434 338.037 142.891 320.177 137.977C305.053 133.818 293.627 122.483 289.522 107.136C288.802 107.233 288.13 107.306 287.746 107.306C281.696 107.306 277.495 101.59 277.495 93.4172C277.495 85.2444 281.696 79.5285 287.746 79.5529C287.962 79.5529 288.394 79.5529 289.714 79.7717C289.823 79.3398 289.924 78.8914 290.025 78.4417C290.169 77.8025 290.313 77.1609 290.482 76.5612L313.695 86.6553C316.144 99.1818 333.98 105.044 340.918 92.7848C341.001 92.6324 341.216 92.038 341.472 91.3278C341.952 89.9974 342.578 88.2607 342.766 88.2607H344.758C346.151 93.9036 352.68 99.2061 358.538 99.2061C369.1 99.2061 373.829 92.3225 374.549 82.6663L385.952 69.3372C386.252 69.9695 386.498 70.4134 386.744 70.8573C386.99 71.3012 387.236 71.7451 387.536 72.3775ZM354.313 115.114L360.266 114.116C363.075 113.63 364.947 110.954 364.515 108.133C364.059 105.311 361.418 103.414 358.633 103.876L327.907 109.057C325.122 109.543 323.25 112.219 323.706 115.04C324.114 117.57 326.274 119.37 328.747 119.37C329.035 119.37 329.299 119.346 329.587 119.297L333.86 118.567L351.846 115.527L354.313 115.114Z"
      fill="white"
    />
    <path
      d="M349.896 37.6682C353.28 41.6086 355.561 45.8895 356.737 52.4081C357.169 54.7918 355.897 57.1997 353.688 58.124C353.568 58.1726 353.424 58.2212 353.304 58.2701C350.352 59.2916 347.231 57.3213 346.655 54.2323C346.487 53.3324 346.295 52.4324 346.055 51.6054V51.5811C346.055 51.5811 346.007 51.4352 345.935 51.1676C345.215 48.5893 341.23 36.2088 338.781 36.4277C338.781 36.4277 338.421 36.3061 336.212 36.598C336.164 36.598 336.116 36.6223 336.068 36.6223C336.045 36.6223 336.045 36.6223 336.021 36.6223C335.324 36.7196 334.484 36.8412 333.596 37.0115C333.884 37.2547 334.148 37.4979 334.436 37.7655C336.021 39.3951 339.477 43.4328 341.278 53.308C341.83 56.4213 339.501 59.3403 336.404 59.2916C336.381 59.2916 336.333 59.2916 336.309 59.2916C333.836 59.243 331.819 57.297 331.507 54.8161C330.571 47.1056 326.514 40.2221 324.474 39.4924L325.17 39.1762C315.208 42.6058 302.173 50.2433 294.227 66.8561L314.848 75.8071C315.736 73.7883 316.984 71.9154 318.568 70.383C321.569 67.4886 325.482 66.0291 329.491 66.2479C336.021 66.6129 341.35 71.4045 343.27 77.8502H344.782C345.647 74.3233 347.303 71.1614 349.751 68.8019C352.68 66.0048 356.401 64.7644 360.146 64.7644C365.115 64.7644 369.676 68.0235 371.428 72.3288L381.559 60.8239C372.653 47.6651 358.778 39.7114 349.896 37.6682Z"
      fill="white"
    />
    <path
      d="M359.594 76.2449C359.546 76.2449 359.474 76.2449 359.426 76.2449C358.274 76.2449 357.361 76.8044 356.761 77.2666C355.201 78.5557 354.265 80.7204 354.265 83.0555C354.265 85.3906 355.201 87.5553 356.761 88.8445C357.361 89.3309 358.37 89.8904 359.594 89.8661C360.818 89.8174 362.09 89.0391 363.051 87.7985C362.619 87.9932 362.162 88.1391 361.658 88.1391C360.026 88.1391 358.73 86.9958 358.73 85.5851C358.73 84.1743 360.026 83.0555 361.658 83.0555C362.859 83.0555 363.891 83.6879 364.347 84.5879C364.443 84.077 364.587 83.615 364.587 83.0555C364.587 79.1152 361.994 76.3667 359.594 76.2449Z"
      fill="white"
    />
    <path
      d="M328.939 76.6099C328.867 76.6099 328.795 76.6099 328.699 76.6099C327.306 76.6099 326.25 77.3153 325.602 77.9475C324.33 79.1638 323.586 81.0367 323.586 83.0555C323.586 85.0743 324.33 86.9471 325.602 88.1634C326.274 88.82 327.331 89.5984 328.915 89.4768C329.635 89.4282 330.307 89.185 330.907 88.7957C329.635 88.4796 328.699 87.3608 328.699 85.9742C328.699 84.3691 330.019 83.0555 331.627 83.0555C332.444 83.0555 333.164 83.3959 333.692 83.9311C333.716 83.6393 333.836 83.3716 333.836 83.0555C333.836 79.6502 331.627 76.7558 328.939 76.6099Z"
      fill="white"
    />
  </g>
  <path
    d="M486.03 243.901C486.465 241.726 486.9 239.569 487.335 237.433C487.81 235.257 488.245 233.121 488.641 231.024C490.144 223.507 491.37 216.307 492.32 209.423C491.885 209.344 491.43 209.304 490.955 209.304C490.48 209.265 490.025 209.265 489.59 209.304C488.641 209.384 487.711 209.265 486.801 208.948C486.841 208.632 486.86 208.296 486.86 207.94C486.86 207.544 486.86 207.148 486.86 206.753C486.86 206.318 486.86 205.902 486.86 205.507C486.86 205.071 486.88 204.656 486.92 204.26C486.959 203.825 486.979 203.37 486.979 202.895C486.979 202.381 486.999 201.867 487.038 201.353C488.067 201.432 489.096 201.491 490.124 201.531C491.153 201.57 492.181 201.59 493.21 201.59C496.138 201.59 498.927 201.491 501.577 201.293C504.268 201.095 506.74 200.858 508.995 200.581L508.343 203.786L507.808 206.575C507.611 207.603 507.433 208.414 507.274 209.008C506.839 209.126 506.404 209.225 505.969 209.304C505.534 209.384 505.098 209.443 504.663 209.483C504.228 209.522 503.773 209.581 503.298 209.661C502.863 209.74 502.428 209.819 501.993 209.898C501.399 212.825 500.905 215.357 500.509 217.494C500.153 219.63 499.817 221.687 499.5 223.665C499.223 225.604 498.887 227.74 498.492 230.075C497.819 234.07 497.226 238.125 496.711 242.24L486.03 243.901Z"
    fill="black"
  />
  <path
    d="M469.621 243.723C469.7 243.051 469.779 242.398 469.858 241.765C469.937 241.132 470.017 240.499 470.096 239.866L470.452 236.543C470.491 235.989 470.531 235.475 470.57 235C470.61 234.525 470.65 234.09 470.689 233.694H465.526L463.153 242.24C462.282 242.358 461.254 242.497 460.067 242.655C458.88 242.774 457.772 242.893 456.743 243.011C456.11 243.09 455.478 243.169 454.845 243.249C454.251 243.328 453.638 243.407 453.005 243.486L457.693 227.938C458.247 226.079 458.88 223.962 459.592 221.588C460.304 219.215 461.016 216.782 461.728 214.289C462.48 211.797 463.172 209.463 463.805 207.287C464.478 205.071 465.012 203.212 465.408 201.709C468.098 201.511 470.828 201.273 473.597 200.996C476.406 200.719 479.136 200.344 481.786 199.869C481.588 202.084 481.391 204.597 481.193 207.405C481.035 210.175 480.876 213.043 480.718 216.01C480.599 218.977 480.461 221.905 480.303 224.793C480.224 227.523 480.125 230.351 480.006 233.279C479.887 236.167 479.769 239.134 479.65 242.18C479.056 242.26 478.463 242.339 477.87 242.418C477.276 242.497 476.683 242.576 476.089 242.655C475.1 242.813 474.012 242.991 472.825 243.189C471.639 243.387 470.57 243.565 469.621 243.723ZM466.951 227.76C467.188 227.76 467.623 227.74 468.256 227.701C468.929 227.661 469.562 227.622 470.155 227.582C470.748 227.543 471.105 227.523 471.223 227.523C471.223 227.008 471.302 225.96 471.461 224.378C471.619 222.795 471.777 221.133 471.935 219.393C472.014 218.364 472.094 217.316 472.173 216.248C472.291 215.14 472.41 214.012 472.529 212.865L472.885 207.702L471.995 207.762L470.63 212.865L466.951 227.76Z"
    fill="black"
  />
  <path
    d="M425.566 243.961C426.08 241.231 426.575 238.541 427.049 235.89C427.564 233.2 428.078 230.529 428.592 227.879C429.146 224.595 429.66 221.509 430.135 218.621C430.649 215.733 431.144 212.865 431.619 210.017C432.133 207.168 432.627 204.181 433.102 201.056L442.716 200.403C442.043 203.172 441.371 206.06 440.698 209.067C440.065 212.074 439.472 215.001 438.918 217.85L444.793 217.197C445.07 215.812 445.327 214.447 445.564 213.102C445.841 211.718 446.079 210.353 446.276 209.008C446.474 207.702 446.712 206.377 446.989 205.032C447.305 203.647 447.641 202.262 447.997 200.878C449.422 200.64 450.866 200.462 452.329 200.344C453.793 200.185 455.02 200.086 456.009 200.047C456.998 199.968 457.492 199.928 457.492 199.928C456.978 201.511 456.464 203.37 455.949 205.506C455.435 207.643 454.94 209.898 454.466 212.272C453.991 214.645 453.536 217.019 453.101 219.393C452.666 221.727 452.27 223.903 451.914 225.92C451.479 228.452 451.063 231.004 450.668 233.576C450.272 236.108 449.877 238.699 449.481 241.35L440.223 242.418C440.5 241.231 440.738 240.064 440.936 238.917C441.173 237.73 441.39 236.582 441.588 235.475C441.984 233.576 442.38 231.598 442.775 229.54C443.21 227.483 443.547 225.723 443.784 224.259L438.028 224.793C437.869 225.545 437.711 226.356 437.553 227.226C437.434 228.096 437.276 229.026 437.078 230.015C436.88 231.004 436.683 231.973 436.485 232.923C436.327 233.833 436.168 234.743 436.01 235.653C435.812 236.721 435.595 237.789 435.357 238.857C435.12 239.925 434.902 240.994 434.705 242.062L425.566 243.961Z"
    fill="black"
  />
  <path
    d="M408.293 243.961C405.801 243.961 403.763 242.794 402.181 240.46C400.598 238.125 399.807 234.921 399.807 230.846C399.807 227.127 400.321 223.468 401.35 219.868C402.379 216.228 403.823 212.964 405.682 210.076C407.542 207.188 409.737 204.874 412.269 203.133C414.841 201.353 417.669 200.462 420.755 200.462C422.694 200.462 424.355 201.214 425.74 202.717C427.125 204.221 427.817 206.238 427.817 208.77V209.483C427.817 209.641 427.817 209.779 427.817 209.898C427.817 210.017 427.797 210.155 427.758 210.313L419.984 212.39C419.509 211.401 418.955 210.907 418.322 210.907C417.373 210.907 416.364 211.678 415.296 213.221C414.267 214.764 413.278 216.604 412.329 218.74C411.696 220.164 411.122 221.628 410.608 223.131C410.133 224.635 409.757 226.039 409.48 227.345C409.203 228.65 409.065 229.718 409.065 230.549C409.065 231.776 409.243 232.666 409.599 233.22C409.876 233.734 410.311 233.991 410.904 233.991C411.498 233.991 412.15 233.714 412.863 233.16C413.575 232.567 414.228 231.835 414.821 230.965C415.454 230.094 415.869 229.224 416.067 228.354L422.832 231.083C420.894 235.514 418.579 238.778 415.889 240.875C413.238 242.932 410.706 243.961 408.293 243.961Z"
    fill="black"
  />
  <path
    d="M358.62 244.079C357.157 244.079 355.792 243.961 354.526 243.723C356.425 236.8 357.928 229.837 359.036 222.835C360.183 215.793 361.271 208.711 362.3 201.59C364.357 201.155 366.493 200.779 368.709 200.462C370.924 200.106 373.219 199.928 375.592 199.928C376.898 199.928 378.283 200.166 379.746 200.64C381.21 201.076 382.437 201.887 383.426 203.073C384.454 204.221 384.969 205.863 384.969 207.999C384.969 209.977 384.553 211.797 383.722 213.458C382.892 215.12 381.843 216.544 380.577 217.731C379.311 218.918 378.006 219.769 376.661 220.283C377.214 220.56 377.867 221.054 378.619 221.766C379.371 222.479 380.023 223.428 380.577 224.615C381.131 225.802 381.408 227.246 381.408 228.947C381.408 231.321 380.696 233.477 379.272 235.415C377.887 237.314 376.028 238.897 373.693 240.163C371.438 241.429 369.005 242.398 366.394 243.071C363.783 243.743 361.192 244.079 358.62 244.079ZM369.183 215.417C370.41 215.179 371.577 214.863 372.685 214.467C373.792 214.072 374.682 213.617 375.355 213.102C376.067 212.588 376.423 212.034 376.423 211.441C376.423 210.689 376.126 210.096 375.533 209.66C374.94 209.225 374.228 208.909 373.397 208.711C372.566 208.513 371.794 208.414 371.082 208.414H370.489C370.212 209.997 369.955 211.381 369.717 212.568C369.48 213.716 369.302 214.665 369.183 215.417ZM366.157 232.092C366.948 232.013 367.818 231.875 368.768 231.677C369.717 231.479 370.627 231.182 371.498 230.787C372.368 230.351 373.08 229.798 373.634 229.125C374.228 228.413 374.524 227.562 374.524 226.573C374.524 225.624 374.208 224.872 373.575 224.318C372.942 223.764 372.17 223.369 371.26 223.131C370.39 222.854 369.559 222.716 368.768 222.716H368.293C368.095 222.716 367.937 222.736 367.818 222.775C367.581 224.239 367.304 225.782 366.988 227.404C366.671 229.026 366.394 230.589 366.157 232.092Z"
    fill="black"
  />
  <path
    d="M331.867 243.901L339.641 201.708L358.394 200.106C358.117 200.977 357.879 201.867 357.681 202.777C357.484 203.528 357.286 204.32 357.088 205.15C356.93 205.942 356.791 206.654 356.673 207.287C356.158 207.326 355.426 207.366 354.477 207.405C353.527 207.405 352.558 207.425 351.569 207.465C350.58 207.465 349.729 207.465 349.017 207.465C348.305 207.465 347.929 207.465 347.89 207.465L345.813 218.087L349.255 217.909C349.69 217.87 350.125 217.85 350.56 217.85C351.035 217.85 351.49 217.85 351.925 217.85C352.36 217.85 352.756 217.85 353.112 217.85C353.468 217.85 353.745 217.83 353.943 217.79C353.864 218.344 353.785 218.898 353.705 219.452C353.666 219.966 353.607 220.5 353.527 221.054L352.993 224.318C352.795 224.358 352.538 224.377 352.222 224.377C351.905 224.377 351.529 224.377 351.094 224.377C350.659 224.417 350.204 224.437 349.729 224.437C349.255 224.437 348.8 224.457 348.365 224.496C347.85 224.536 347.316 224.556 346.762 224.556C346.208 224.556 345.615 224.575 344.982 224.615L342.964 235.534L351.628 234.169L351.035 240.934L331.867 243.901Z"
    fill="black"
  />
  <path
    d="M295.218 244.079L299.728 201.946C300.638 201.906 301.528 201.847 302.398 201.768C303.308 201.649 304.179 201.511 305.009 201.352C305.801 201.194 306.612 201.076 307.442 200.996C308.273 200.878 309.084 200.799 309.875 200.759L309.697 201.946C309.658 202.342 309.579 202.796 309.46 203.311C309.381 203.786 309.302 204.339 309.223 204.972C309.025 206.357 308.788 207.94 308.511 209.72C308.234 211.5 307.917 213.478 307.561 215.654C307.324 216.999 307.047 218.621 306.73 220.52C306.453 222.419 306.117 224.575 305.721 226.989H306.612C307.126 225.169 307.601 223.507 308.036 222.004C308.471 220.5 308.847 219.175 309.163 218.028C309.48 216.881 309.777 215.852 310.054 214.942C310.37 213.993 310.627 213.142 310.825 212.39C311.656 209.463 312.328 207.069 312.843 205.21C313.357 203.35 313.693 202.144 313.851 201.59H314.386C315.414 201.59 316.482 201.511 317.59 201.352C318.737 201.194 319.766 201.016 320.676 200.818C320.636 200.977 320.557 201.629 320.439 202.777C320.32 203.924 320.181 205.328 320.023 206.99C319.865 208.652 319.707 210.373 319.548 212.153C319.271 215.516 319.014 218.443 318.777 220.936C318.579 223.428 318.401 225.446 318.243 226.989H319.311L324.949 201.471L328.925 200.937C329.478 200.858 330.052 200.779 330.646 200.7C331.239 200.621 331.852 200.541 332.485 200.462C333.632 200.304 334.72 200.126 335.749 199.928C334.562 203.251 333.375 207.168 332.188 211.678C331.002 216.188 329.815 220.758 328.628 225.386C327.995 227.918 327.362 230.49 326.729 233.101C326.135 235.672 325.542 238.303 324.949 240.994L311.537 243.249L314.148 220.342H313.436L307.561 241.884L295.218 244.079Z"
    fill="black"
  />
  <path
    d="M255.51 243.901L263.283 201.708L282.036 200.106C281.759 200.977 281.522 201.867 281.324 202.777C281.126 203.528 280.928 204.32 280.73 205.15C280.572 205.942 280.434 206.654 280.315 207.287C279.801 207.326 279.069 207.366 278.119 207.405C277.17 207.405 276.2 207.425 275.211 207.465C274.222 207.465 273.372 207.465 272.66 207.465C271.948 207.465 271.572 207.465 271.532 207.465L269.455 218.087L272.897 217.909C273.332 217.87 273.767 217.85 274.203 217.85C274.677 217.85 275.132 217.85 275.567 217.85C276.003 217.85 276.398 217.85 276.754 217.85C277.11 217.85 277.387 217.83 277.585 217.79C277.506 218.344 277.427 218.898 277.348 219.452C277.308 219.966 277.249 220.5 277.17 221.054L276.636 224.318C276.438 224.358 276.181 224.377 275.864 224.377C275.548 224.377 275.172 224.377 274.737 224.377C274.301 224.417 273.847 224.437 273.372 224.437C272.897 224.437 272.442 224.457 272.007 224.496C271.493 224.536 270.958 224.556 270.405 224.556C269.851 224.556 269.257 224.575 268.624 224.615L266.607 235.534L275.271 234.169L274.677 240.934L255.51 243.901Z"
    fill="black"
  />
  <path
    d="M229.434 244.139C228.88 244.139 228.326 244.099 227.772 244.02C227.218 243.981 226.664 243.921 226.111 243.842L229.256 227.879C229.651 225.703 230.067 223.408 230.502 220.995C230.977 218.542 231.432 216.129 231.867 213.755C232.302 211.342 232.678 209.107 232.994 207.049C233.35 204.992 233.627 203.252 233.825 201.827C235.526 201.511 237.247 201.214 238.988 200.937C240.729 200.66 242.509 200.522 244.329 200.522C247.256 200.522 249.571 201.135 251.272 202.361C252.973 203.548 254.2 205.131 254.951 207.109C255.703 209.047 256.079 211.184 256.079 213.518C256.079 215.615 255.782 217.83 255.189 220.164C254.595 222.459 253.745 224.753 252.637 227.048C251.569 229.303 250.283 231.439 248.78 233.457C246.445 236.582 243.597 239.154 240.234 241.172C236.911 243.15 233.311 244.139 229.434 244.139ZM236.496 236.662C237.88 235.752 239.186 234.367 240.412 232.508C241.678 230.648 242.865 228.413 243.973 225.802C244.962 223.389 245.733 221.114 246.287 218.977C246.841 216.801 247.118 215.001 247.118 213.577C247.118 212.113 246.703 210.966 245.872 210.135C245.081 209.304 243.815 208.889 242.074 208.889C241.441 212.291 240.788 215.437 240.116 218.325C239.483 221.213 238.85 224.12 238.217 227.048C237.623 229.976 237.049 233.18 236.496 236.662Z"
    fill="black"
  />
  <path
    d="M204.381 244.08C201.77 244.08 199.634 243.071 197.972 241.053C196.311 239.035 195.48 235.989 195.48 231.914C195.48 229.659 195.757 227.285 196.311 224.793C196.865 222.301 197.636 219.848 198.625 217.435C199.614 215.021 200.762 212.786 202.067 210.729C204.164 207.406 206.577 204.696 209.307 202.599C212.037 200.502 214.905 199.454 217.912 199.454C220.285 199.454 222.105 200.067 223.371 201.293C224.677 202.48 225.587 204.023 226.101 205.922C226.615 207.781 226.872 209.72 226.872 211.738C226.872 216.445 226.141 220.837 224.677 224.912C223.253 228.947 221.393 232.369 219.098 235.178C216.804 238.066 214.351 240.282 211.74 241.825C209.168 243.328 206.716 244.08 204.381 244.08ZM207.586 234.288C209.366 234.288 210.929 233.695 212.274 232.508C213.659 231.321 214.826 229.817 215.775 227.998C216.725 226.138 217.437 224.2 217.912 222.182C218.386 220.164 218.624 218.344 218.624 216.722C218.624 216.089 218.564 215.417 218.446 214.705C218.327 213.953 218.07 213.3 217.674 212.746C217.279 212.193 216.665 211.916 215.835 211.916C214.015 211.916 212.373 212.588 210.909 213.933C209.445 215.239 208.219 216.9 207.23 218.918C206.241 220.975 205.509 222.993 205.034 224.971C204.559 226.949 204.322 228.749 204.322 230.371C204.322 231.202 204.619 232.072 205.212 232.982C205.806 233.853 206.597 234.288 207.586 234.288Z"
    fill="black"
  />
  <path
    d="M177.481 243.961C174.989 243.961 172.952 242.794 171.369 240.46C169.787 238.125 168.995 234.921 168.995 230.846C168.995 227.127 169.51 223.468 170.538 219.868C171.567 216.228 173.011 212.964 174.87 210.076C176.73 207.188 178.925 204.874 181.457 203.133C184.029 201.353 186.858 200.462 189.943 200.462C191.882 200.462 193.544 201.214 194.928 202.717C196.313 204.221 197.005 206.238 197.005 208.77V209.483C197.005 209.641 197.005 209.779 197.005 209.898C197.005 210.017 196.985 210.155 196.946 210.313L189.172 212.39C188.697 211.401 188.143 210.907 187.51 210.907C186.561 210.907 185.552 211.678 184.484 213.221C183.455 214.764 182.466 216.604 181.517 218.74C180.884 220.164 180.31 221.628 179.796 223.131C179.321 224.635 178.945 226.039 178.668 227.345C178.391 228.65 178.253 229.718 178.253 230.549C178.253 231.776 178.431 232.666 178.787 233.22C179.064 233.734 179.499 233.991 180.093 233.991C180.686 233.991 181.339 233.714 182.051 233.16C182.763 232.567 183.416 231.835 184.009 230.965C184.642 230.094 185.058 229.224 185.255 228.354L192.02 231.083C190.082 235.514 187.768 238.778 185.077 240.875C182.427 242.932 179.895 243.961 177.481 243.961Z"
    fill="black"
  />
  <g filter="url(#filter0_d_863_149)">
    <rect
      x="8.99536"
      y="57.0454"
      width="60"
      height="60"
      rx="15"
      transform="rotate(-13.0929 8.99536 57.0454)"
      fill="white"
    />
    <path
      d="M59.792 73.8534C56.5585 73.2852 53.4637 72.1033 50.6747 70.3715C46.7873 67.9457 43.6204 64.5232 41.5031 60.4596C41.4097 60.279 41.2587 60.1347 41.0741 60.0494C40.8894 59.9642 40.6817 59.943 40.4836 59.989C40.2855 60.0351 40.1084 60.1458 39.9804 60.3038C39.8523 60.4618 39.7805 60.6579 39.7763 60.8612C39.6671 65.4421 38.335 69.9104 35.9183 73.8034C34.1794 76.5881 31.9238 79.0143 29.2732 80.9513C28.2373 81.715 27.147 82.3886 26.0068 82.9768C25.8247 83.0691 25.6788 83.2199 25.5925 83.405C25.5062 83.59 25.4844 83.7987 25.5307 83.9976C25.5769 84.1965 25.6886 84.3741 25.8477 84.5021C26.0068 84.6301 26.2042 84.701 26.4084 84.7035C27.6907 84.7264 28.9629 84.8506 30.2329 85.0779C33.4664 85.6461 36.5612 86.828 39.3502 88.5599C43.2385 90.9857 46.4062 94.4087 48.524 98.4731C48.6163 98.6552 48.7671 98.801 48.9522 98.8874C49.1372 98.9737 49.3459 98.9954 49.5448 98.9492C49.7437 98.9029 49.9213 98.7913 50.0493 98.6322C50.1773 98.4731 50.2482 98.2756 50.2507 98.0714C50.2732 96.7874 50.3974 95.5152 50.6247 94.2452C51.1928 91.0117 52.3748 87.9169 54.1066 85.1279C56.533 81.2402 59.956 78.0732 64.0203 75.9559C64.2009 75.8625 64.3452 75.7115 64.4304 75.5269C64.5157 75.3422 64.5369 75.1344 64.4909 74.9364C64.4448 74.7383 64.334 74.5612 64.1761 74.4331C64.0181 74.3051 63.822 74.2333 63.6187 74.2291C62.3351 74.2061 61.0555 74.0804 59.792 73.8534Z"
      fill="#3186FF"
    />
    <path
      d="M59.792 73.8534C56.5585 73.2852 53.4637 72.1033 50.6747 70.3715C46.7873 67.9457 43.6204 64.5232 41.5031 60.4596C41.4097 60.279 41.2587 60.1347 41.0741 60.0494C40.8894 59.9642 40.6817 59.943 40.4836 59.989C40.2855 60.0351 40.1084 60.1458 39.9804 60.3038C39.8523 60.4618 39.7805 60.6579 39.7763 60.8612C39.6671 65.4421 38.335 69.9104 35.9183 73.8034C34.1794 76.5881 31.9238 79.0143 29.2732 80.9513C28.2373 81.715 27.147 82.3886 26.0068 82.9768C25.8247 83.0691 25.6788 83.2199 25.5925 83.405C25.5062 83.59 25.4844 83.7987 25.5307 83.9976C25.5769 84.1965 25.6886 84.3741 25.8477 84.5021C26.0068 84.6301 26.2042 84.701 26.4084 84.7035C27.6907 84.7264 28.9629 84.8506 30.2329 85.0779C33.4664 85.6461 36.5612 86.828 39.3502 88.5599C43.2385 90.9857 46.4062 94.4087 48.524 98.4731C48.6163 98.6552 48.7671 98.801 48.9522 98.8874C49.1372 98.9737 49.3459 98.9954 49.5448 98.9492C49.7437 98.9029 49.9213 98.7913 50.0493 98.6322C50.1773 98.4731 50.2482 98.2756 50.2507 98.0714C50.2732 96.7874 50.3974 95.5152 50.6247 94.2452C51.1928 91.0117 52.3748 87.9169 54.1066 85.1279C56.533 81.2402 59.956 78.0732 64.0203 75.9559C64.2009 75.8625 64.3452 75.7115 64.4304 75.5269C64.5157 75.3422 64.5369 75.1344 64.4909 74.9364C64.4448 74.7383 64.334 74.5612 64.1761 74.4331C64.0181 74.3051 63.822 74.2333 63.6187 74.2291C62.3351 74.2061 61.0555 74.0804 59.792 73.8534Z"
      fill="url(#paint0_linear_863_149)"
    />
    <path
      d="M59.792 73.8534C56.5585 73.2852 53.4637 72.1033 50.6747 70.3715C46.7873 67.9457 43.6204 64.5232 41.5031 60.4596C41.4097 60.279 41.2587 60.1347 41.0741 60.0494C40.8894 59.9642 40.6817 59.943 40.4836 59.989C40.2855 60.0351 40.1084 60.1458 39.9804 60.3038C39.8523 60.4618 39.7805 60.6579 39.7763 60.8612C39.6671 65.4421 38.335 69.9104 35.9183 73.8034C34.1794 76.5881 31.9238 79.0143 29.2732 80.9513C28.2373 81.715 27.147 82.3886 26.0068 82.9768C25.8247 83.0691 25.6788 83.2199 25.5925 83.405C25.5062 83.59 25.4844 83.7987 25.5307 83.9976C25.5769 84.1965 25.6886 84.3741 25.8477 84.5021C26.0068 84.6301 26.2042 84.701 26.4084 84.7035C27.6907 84.7264 28.9629 84.8506 30.2329 85.0779C33.4664 85.6461 36.5612 86.828 39.3502 88.5599C43.2385 90.9857 46.4062 94.4087 48.524 98.4731C48.6163 98.6552 48.7671 98.801 48.9522 98.8874C49.1372 98.9737 49.3459 98.9954 49.5448 98.9492C49.7437 98.9029 49.9213 98.7913 50.0493 98.6322C50.1773 98.4731 50.2482 98.2756 50.2507 98.0714C50.2732 96.7874 50.3974 95.5152 50.6247 94.2452C51.1928 91.0117 52.3748 87.9169 54.1066 85.1279C56.533 81.2402 59.956 78.0732 64.0203 75.9559C64.2009 75.8625 64.3452 75.7115 64.4304 75.5269C64.5157 75.3422 64.5369 75.1344 64.4909 74.9364C64.4448 74.7383 64.334 74.5612 64.1761 74.4331C64.0181 74.3051 63.822 74.2333 63.6187 74.2291C62.3351 74.2061 61.0555 74.0804 59.792 73.8534Z"
      fill="url(#paint1_linear_863_149)"
    />
    <path
      d="M59.792 73.8534C56.5585 73.2852 53.4637 72.1033 50.6747 70.3715C46.7873 67.9457 43.6204 64.5232 41.5031 60.4596C41.4097 60.279 41.2587 60.1347 41.0741 60.0494C40.8894 59.9642 40.6817 59.943 40.4836 59.989C40.2855 60.0351 40.1084 60.1458 39.9804 60.3038C39.8523 60.4618 39.7805 60.6579 39.7763 60.8612C39.6671 65.4421 38.335 69.9104 35.9183 73.8034C34.1794 76.5881 31.9238 79.0143 29.2732 80.9513C28.2373 81.715 27.147 82.3886 26.0068 82.9768C25.8247 83.0691 25.6788 83.2199 25.5925 83.405C25.5062 83.59 25.4844 83.7987 25.5307 83.9976C25.5769 84.1965 25.6886 84.3741 25.8477 84.5021C26.0068 84.6301 26.2042 84.701 26.4084 84.7035C27.6907 84.7264 28.9629 84.8506 30.2329 85.0779C33.4664 85.6461 36.5612 86.828 39.3502 88.5599C43.2385 90.9857 46.4062 94.4087 48.524 98.4731C48.6163 98.6552 48.7671 98.801 48.9522 98.8874C49.1372 98.9737 49.3459 98.9954 49.5448 98.9492C49.7437 98.9029 49.9213 98.7913 50.0493 98.6322C50.1773 98.4731 50.2482 98.2756 50.2507 98.0714C50.2732 96.7874 50.3974 95.5152 50.6247 94.2452C51.1928 91.0117 52.3748 87.9169 54.1066 85.1279C56.533 81.2402 59.956 78.0732 64.0203 75.9559C64.2009 75.8625 64.3452 75.7115 64.4304 75.5269C64.5157 75.3422 64.5369 75.1344 64.4909 74.9364C64.4448 74.7383 64.334 74.5612 64.1761 74.4331C64.0181 74.3051 63.822 74.2333 63.6187 74.2291C62.3351 74.2061 61.0555 74.0804 59.792 73.8534Z"
      fill="url(#paint2_linear_863_149)"
    />
  </g>
  <g filter="url(#filter1_d_863_149)">
    <rect
      x="121.88"
      y="92.4536"
      width="60"
      height="60"
      rx="15"
      transform="rotate(11.4243 121.88 92.4536)"
      fill="white"
    />
    <g clip-path="url(#clip1_863_149)">
      <path
        d="M132.126 131.856L140.711 129.09L140.918 128.74L140.829 128.505L140.455 128.429L139.18 128.09L134.797 127.08L131.008 126.149L127.346 125.202L126.453 124.816L125.811 123.487L126.017 122.93L126.907 122.564L128.008 122.889L130.457 123.559L134.126 124.569L136.793 125.273L140.709 126.498L141.345 126.626L141.487 126.388L141.3 126.184L141.164 125.991L137.838 122.605L134.227 119.005L132.365 116.976L131.344 115.935L130.902 115.06L130.977 113.362L132.287 112.399L133.706 112.787L134.054 112.961L135.286 114.377L137.916 117.418L141.38 121.235L141.876 121.852L142.147 121.732L142.202 121.619L142.025 121.117L140.619 116.674L139.078 112.128L138.367 110.23L138.294 109.163C138.266 108.753 138.29 108.341 138.364 107.937L139.921 106.529L140.64 106.447L142.222 106.995L142.788 107.728L143.334 110.242L144.236 114.215L145.776 119.678L146.224 121.295L146.346 122.735L146.411 123.182L146.669 123.234L146.717 122.995L147.49 120.25L148.568 116.906L149.834 112.579L150.215 111.364L151.13 110.002L152.513 109.445L153.374 110.095L153.932 111.372L153.676 112.076L152.598 115.005L150.726 119.563L149.491 122.615L149.837 122.685L150.314 122.37L152.354 120.562L155.734 117.735L157.198 116.637L158.885 115.441L159.921 114.917L161.608 115.258L162.477 117.353L161.537 119.146L159.354 120.995L157.537 122.57L154.911 124.93L153.172 126.891L153.255 127.095L153.568 127.124L158.434 127.077L161.047 127.129L164.159 127.222L165.392 128.131L165.41 128.806L164.608 130.016L161.231 130.16L157.306 130.153L151.419 130.346L151.341 130.381L151.401 130.496L153.883 131.246L154.953 131.524L157.603 132.059L162.462 133.424L163.58 134.537L164.144 135.736L163.855 136.502L161.665 137.114L159.114 135.937L153.16 133.186L151.125 132.216L150.828 132.156L150.791 132.336L152.224 134.441L154.904 138.06L158.233 142.695L158.25 143.681L157.574 144.318L157.035 144.126L153.979 140.691L152.836 139.19L150.224 135.907L150.015 135.865L149.959 136.143L150.47 137.35L153.139 143.876L152.981 145.68L152.587 146.201L151.524 146.348L150.473 145.928L148.863 142.33L147.267 138.323L146.041 134.771L145.786 134.856L142.29 146.484L141.652 146.984L140.369 147.201L139.529 146.247L139.25 144.92L140.263 142.616L141.534 139.601L142.553 137.205L143.648 134.196L144.134 133.219L144.128 133.147L143.894 133.13L140.902 135.87L136.368 139.961L132.94 142.406L132.209 142.537L131.16 141.696L131.488 140.637L132.337 139.807L137.241 135.635L140.215 133.036L142.092 131.569L142.135 131.309L142.045 131.291L130.324 135.921L128.43 135.786L127.785 134.881L128.131 133.682L128.588 133.361L132.138 131.848L132.126 131.856Z"
        fill="#D97757"
      />
    </g>
  </g>
  <g filter="url(#filter2_d_863_149)">
    <rect
      x="609.88"
      y="34.4536"
      width="60"
      height="60"
      rx="15"
      transform="rotate(11.4243 609.88 34.4536)"
      fill="white"
    />
    <g clip-path="url(#clip2_863_149)">
      <path
        fill-rule="evenodd"
        clip-rule="evenodd"
        d="M628.793 75.2848L642.09 65.4564C642.741 64.9731 643.673 65.1614 643.985 65.9098C645.618 69.8581 644.888 74.6014 641.635 77.8581C638.383 81.1148 633.856 81.8281 629.72 80.2014L625.201 82.2964C631.683 86.7314 639.553 85.6348 644.471 80.7081C648.373 76.8014 649.581 71.4764 648.451 66.6748L648.461 66.6864C646.823 59.6331 648.865 56.8131 653.045 51.0481C653.145 50.9114 653.245 50.7748 653.343 50.6348L647.841 56.1431V56.1264L628.788 75.2881M626.048 77.6731C621.395 73.2231 622.198 66.3381 626.166 62.3664C629.101 59.4281 633.911 58.2281 638.11 59.9914L642.618 57.9081C641.681 57.2188 640.656 56.6582 639.57 56.2414C636.839 55.1239 633.839 54.8388 630.947 55.4218C628.055 56.0048 625.4 57.43 623.316 59.5181C619.095 63.7448 617.766 70.2448 620.046 75.7914C621.75 79.9364 618.958 82.8681 616.146 85.8281C615.148 86.8781 614.148 87.9264 613.343 89.0364L626.043 77.6781"
        fill="black"
      />
    </g>
  </g>
  <g filter="url(#filter3_d_863_149)">
    <rect
      x="486.995"
      y="18.7166"
      width="60"
      height="60"
      rx="15"
      transform="rotate(-10.8194 486.995 18.7166)"
      fill="white"
    />
    <path
      fill-rule="evenodd"
      clip-rule="evenodd"
      d="M539.447 39.6579C539.929 38.3225 540.118 36.8912 540.001 35.4623C539.884 34.0334 539.464 32.6407 538.769 31.3798C536.654 27.4566 532.277 25.292 527.938 26.028C527.006 24.9138 525.855 24.0074 524.562 23.3683C523.269 22.7292 521.862 22.372 520.435 22.3201C516.021 22.1165 512.04 24.7833 510.587 28.9194C509.184 29.1408 507.85 29.6628 506.674 30.4507C505.497 31.2386 504.504 32.2745 503.762 33.4896C502.64 35.2988 502.129 37.4377 502.306 39.5903C502.482 41.743 503.336 43.7953 504.742 45.4443C504.259 46.7798 504.07 48.2113 504.187 49.6405C504.303 51.0697 504.723 52.4628 505.418 53.7241C507.533 57.6472 511.91 59.8101 516.249 59.0758C517.181 60.1898 518.331 61.0961 519.624 61.7348C520.917 62.3736 522.323 62.7304 523.75 62.7819C528.168 62.9875 532.151 60.3189 533.604 56.1791C535.008 55.9578 536.342 55.4356 537.52 54.647C538.697 53.8584 539.69 52.8216 540.433 51.6054C541.553 49.7962 542.062 47.6583 541.885 45.5068C541.707 43.3554 540.853 41.3043 539.449 39.6561L539.447 39.6579ZM523.812 60.1494C522.048 60.076 520.351 59.3831 519.014 58.1897C519.076 58.1595 519.184 58.1056 519.255 58.0648L527.39 53.7869C527.593 53.6825 527.763 53.5243 527.883 53.3289C528.004 53.1334 528.069 52.9077 528.074 52.6754L528.329 41.3689L531.68 43.4755C531.715 43.4954 531.738 43.5312 531.743 43.5699L531.531 52.934C531.431 57.0967 527.978 60.3238 523.812 60.1494ZM507.734 52.5104C506.883 50.9474 506.605 49.1399 506.948 47.4124C507.005 47.4516 507.108 47.5203 507.181 47.5657L515.106 52.5511C515.508 52.8071 516.012 52.8293 516.426 52.6093L526.356 47.3879L526.267 51.302C526.268 51.3221 526.263 51.3419 526.254 51.3597C526.245 51.3775 526.232 51.3928 526.216 51.4042L517.994 55.7259C514.332 57.6463 509.743 56.2053 507.736 52.5068L507.734 52.5104ZM506.016 34.9083C506.939 33.4134 508.358 32.3047 510.024 31.7754L510.014 32.0517L509.805 41.315C509.798 41.5476 509.854 41.7789 509.965 41.9849C510.076 42.1909 510.239 42.3641 510.437 42.4864L520.111 48.5697L516.674 50.379C516.657 50.3892 516.638 50.3949 516.618 50.3956C516.598 50.3963 516.578 50.3921 516.56 50.3832L508.548 45.3407C504.987 43.0947 503.854 38.4305 506.014 34.9119L506.016 34.9083ZM533.75 42.6175L524.076 36.5324L527.513 34.7267C527.53 34.7162 527.549 34.7102 527.569 34.7092C527.589 34.7081 527.609 34.7121 527.627 34.7207L535.639 39.7595C539.205 42.0057 540.34 46.6773 538.171 50.1937C537.247 51.6877 535.83 52.7966 534.165 53.3286L534.381 43.7888C534.387 43.5567 534.332 43.3258 534.221 43.1202C534.11 42.9145 533.947 42.7416 533.75 42.6193L533.75 42.6175ZM537.241 37.6897C537.163 37.6376 537.085 37.5865 537.006 37.5364L529.081 32.5509C528.883 32.4253 528.657 32.3538 528.426 32.3436C528.195 32.3334 527.966 32.3849 527.763 32.4928L517.833 37.7142L517.922 33.8001C517.921 33.78 517.926 33.7602 517.935 33.7424C517.944 33.7246 517.957 33.7093 517.973 33.6979L526.193 29.378C529.857 27.4558 534.45 28.8988 536.451 32.6026C537.297 34.1664 537.579 35.9673 537.241 37.6897ZM515.851 43.7292L512.5 41.6244C512.483 41.6148 512.468 41.601 512.457 41.5842C512.446 41.5674 512.439 41.5481 512.437 41.5282L512.649 32.1641C512.745 27.9957 516.207 24.7672 520.381 24.9547C522.146 25.0325 523.839 25.7265 525.172 26.9141C525.11 26.9443 525.003 26.9983 524.932 27.0373L516.798 31.3152C516.594 31.4193 516.423 31.5773 516.303 31.7728C516.182 31.9683 516.116 32.1941 516.112 32.4266L515.851 43.7292ZM517.785 39.8415L522.207 37.5166L526.516 40.2261L526.402 45.2606L521.98 47.5855L517.669 44.8758L517.783 39.8414L517.785 39.8415Z"
      fill="black"
    />
  </g>
  <defs>
    <filter
      id="filter0_d_863_149"
      x="-3.00464"
      y="33.4536"
      width="96.032"
      height="96.032"
      filterUnits="userSpaceOnUse"
      color-interpolation-filters="sRGB"
    >
      <feFlood flood-opacity="0" result="BackgroundImageFix" />
      <feColorMatrix
        in="SourceAlpha"
        type="matrix"
        values="0 0 0 0 0 0 0 0 0 0 0 0 0 0 0 0 0 0 127 0"
        result="hardAlpha"
      />
      <feOffset dy="2" />
      <feGaussianBlur stdDeviation="6" />
      <feComposite in2="hardAlpha" operator="out" />
      <feColorMatrix
        type="matrix"
        values="0 0 0 0 0 0 0 0 0 0 0 0 0 0 0 0 0 0 0.14 0"
      />
      <feBlend
        mode="normal"
        in2="BackgroundImageFix"
        result="effect1_dropShadow_863_149"
      />
      <feBlend
        mode="normal"
        in="SourceGraphic"
        in2="effect1_dropShadow_863_149"
        result="shape"
      />
    </filter>
    <filter
      id="filter1_d_863_149"
      x="97.9954"
      y="82.4536"
      width="94.6956"
      height="94.6956"
      filterUnits="userSpaceOnUse"
      color-interpolation-filters="sRGB"
    >
      <feFlood flood-opacity="0" result="BackgroundImageFix" />
      <feColorMatrix
        in="SourceAlpha"
        type="matrix"
        values="0 0 0 0 0 0 0 0 0 0 0 0 0 0 0 0 0 0 127 0"
        result="hardAlpha"
      />
      <feOffset dy="2" />
      <feGaussianBlur stdDeviation="6" />
      <feComposite in2="hardAlpha" operator="out" />
      <feColorMatrix
        type="matrix"
        values="0 0 0 0 0 0 0 0 0 0 0 0 0 0 0 0 0 0 0.14 0"
      />
      <feBlend
        mode="normal"
        in2="BackgroundImageFix"
        result="effect1_dropShadow_863_149"
      />
      <feBlend
        mode="normal"
        in="SourceGraphic"
        in2="effect1_dropShadow_863_149"
        result="shape"
      />
    </filter>
    <filter
      id="filter2_d_863_149"
      x="585.995"
      y="24.4536"
      width="94.6956"
      height="94.6956"
      filterUnits="userSpaceOnUse"
      color-interpolation-filters="sRGB"
    >
      <feFlood flood-opacity="0" result="BackgroundImageFix" />
      <feColorMatrix
        in="SourceAlpha"
        type="matrix"
        values="0 0 0 0 0 0 0 0 0 0 0 0 0 0 0 0 0 0 127 0"
        result="hardAlpha"
      />
      <feOffset dy="2" />
      <feGaussianBlur stdDeviation="6" />
      <feComposite in2="hardAlpha" operator="out" />
      <feColorMatrix
        type="matrix"
        values="0 0 0 0 0 0 0 0 0 0 0 0 0 0 0 0 0 0 0.14 0"
      />
      <feBlend
        mode="normal"
        in2="BackgroundImageFix"
        result="effect1_dropShadow_863_149"
      />
      <feBlend
        mode="normal"
        in="SourceGraphic"
        in2="effect1_dropShadow_863_149"
        result="shape"
      />
    </filter>
    <filter
      id="filter3_d_863_149"
      x="474.995"
      y="-2.54639"
      width="94.1963"
      height="94.1963"
      filterUnits="userSpaceOnUse"
      color-interpolation-filters="sRGB"
    >
      <feFlood flood-opacity="0" result="BackgroundImageFix" />
      <feColorMatrix
        in="SourceAlpha"
        type="matrix"
        values="0 0 0 0 0 0 0 0 0 0 0 0 0 0 0 0 0 0 127 0"
        result="hardAlpha"
      />
      <feOffset dy="2" />
      <feGaussianBlur stdDeviation="6" />
      <feComposite in2="hardAlpha" operator="out" />
      <feColorMatrix
        type="matrix"
        values="0 0 0 0 0 0 0 0 0 0 0 0 0 0 0 0 0 0 0.14 0"
      />
      <feBlend
        mode="normal"
        in2="BackgroundImageFix"
        result="effect1_dropShadow_863_149"
      />
      <feBlend
        mode="normal"
        in="SourceGraphic"
        in2="effect1_dropShadow_863_149"
        result="shape"
      />
    </filter>
    <linearGradient
      id="paint0_linear_863_149"
      x1="37.5989"
      y1="87.7239"
      x2="43.2414"
      y2="79.8776"
      gradientUnits="userSpaceOnUse"
    >
      <stop stop-color="#08B962" />
      <stop offset="1" stop-color="#08B962" stop-opacity="0" />
    </linearGradient>
    <linearGradient
      id="paint1_linear_863_149"
      x1="35.2509"
      y1="69.6014"
      x2="43.715"
      y2="77.9006"
      gradientUnits="userSpaceOnUse"
    >
      <stop stop-color="#F94543" />
      <stop offset="1" stop-color="#F94543" stop-opacity="0" />
    </linearGradient>
    <linearGradient
      id="paint2_linear_863_149"
      x1="30.576"
      y1="85.6233"
      x2="54.7529"
      y2="77.2001"
      gradientUnits="userSpaceOnUse"
    >
      <stop stop-color="#FABC12" />
      <stop offset="0.46" stop-color="#FABC12" stop-opacity="0" />
    </linearGradient>
    <clipPath id="clip0_863_149">
      <rect
        width="123"
        height="106"
        fill="white"
        transform="translate(277.495 34.4536)"
      />
    </clipPath>
    <clipPath id="clip1_863_149">
      <rect
        width="40"
        height="40"
        fill="white"
        transform="translate(129.701 104.236) rotate(11.4243)"
      />
    </clipPath>
    <clipPath id="clip2_863_149">
      <rect
        width="40"
        height="40"
        fill="white"
        transform="translate(613.343 49.8015)"
      />
    </clipPath>
  </defs>
</svg>
