<svg
  width="679"
  height="230"
  viewBox="0 0 679 230"
  fill="none"
  xmlns="http://www.w3.org/2000/svg"
>
  <g clip-path="url(#clip0_863_150)">
    <path
      fill-rule="evenodd"
      clip-rule="evenodd"
      d="M387.536 69.3777C395.554 67.0185 399.515 73.5614 400.331 80.6881C400.787 84.6284 400.283 88.7635 398.963 91.6579C398.026 93.701 396.706 95.6225 394.858 96.8145C393.729 97.544 392.361 97.9819 390.993 97.9576C389.48 97.909 388.712 97.3981 388.712 97.3981C388.462 98.3601 388.226 99.3131 387.992 100.258C386.947 104.475 385.942 108.533 383.863 112.527C381.583 116.93 378.534 120.943 374.933 124.324C360.938 137.434 338.037 139.891 320.177 134.978C305.053 130.818 293.627 119.484 289.522 104.136C288.802 104.233 288.13 104.306 287.746 104.306C281.696 104.306 277.495 98.5901 277.495 90.4175C277.495 82.2447 281.696 76.5288 287.746 76.5531C287.962 76.5531 288.394 76.5531 289.714 76.772C289.823 76.3401 289.924 75.8916 290.025 75.442C290.169 74.8027 290.313 74.1611 290.482 73.5614L313.695 83.6555C316.144 96.182 333.98 102.044 340.918 89.785C341.001 89.6326 341.216 89.0382 341.472 88.328C341.952 86.9977 342.578 85.2609 342.766 85.2609H344.758C346.151 90.9038 352.68 96.2063 358.538 96.2063C369.1 96.2063 373.829 89.3228 374.549 79.6666L385.952 66.3374C386.252 66.9698 386.498 67.4137 386.744 67.8576C386.99 68.3015 387.236 68.7454 387.536 69.3777ZM354.313 112.114L360.266 111.116C363.075 110.63 364.947 107.954 364.515 105.133C364.059 102.312 361.418 100.414 358.633 100.876L327.907 106.057C325.122 106.544 323.25 109.219 323.706 112.041C324.114 114.57 326.274 116.37 328.747 116.37C329.035 116.37 329.299 116.346 329.587 116.297L333.86 115.568L351.846 112.527L354.313 112.114Z"
      fill="white"
    />
    <path
      d="M349.896 34.6684C353.28 38.6088 355.561 42.8897 356.737 49.4083C357.169 51.792 355.897 54.1999 353.688 55.1242C353.568 55.1729 353.424 55.2215 353.304 55.2703C350.352 56.2919 347.231 54.3215 346.655 51.2326C346.487 50.3326 346.295 49.4327 346.055 48.6057V48.5813C346.055 48.5813 346.007 48.4354 345.935 48.1679C345.215 45.5896 341.23 33.209 338.781 33.428C338.781 33.428 338.421 33.3063 336.212 33.5982C336.164 33.5982 336.116 33.6226 336.068 33.6226C336.045 33.6226 336.045 33.6226 336.021 33.6226C335.324 33.7198 334.484 33.8415 333.596 34.0117C333.884 34.255 334.148 34.4982 334.436 34.7657C336.021 36.3954 339.477 40.4331 341.278 50.3083C341.83 53.4216 339.501 56.3405 336.404 56.2919C336.381 56.2919 336.333 56.2919 336.309 56.2919C333.836 56.2432 331.819 54.2972 331.507 51.8163C330.571 44.1059 326.514 37.2224 324.474 36.4927L325.17 36.1765C315.208 39.6061 302.173 47.2436 294.227 63.8563L314.848 72.8073C315.736 70.7885 316.984 68.9157 318.568 67.3832C321.569 64.4888 325.482 63.0293 329.491 63.2482C336.021 63.6132 341.35 68.4048 343.27 74.8504H344.782C345.647 71.3235 347.303 68.1616 349.751 65.8022C352.68 63.005 356.401 61.7646 360.146 61.7646C365.115 61.7646 369.676 65.0238 371.428 69.329L381.559 57.8241C372.653 44.6653 358.778 36.7116 349.896 34.6684Z"
      fill="white"
    />
    <path
      d="M359.594 73.2446C359.546 73.2446 359.474 73.2446 359.426 73.2446C358.274 73.2446 357.361 73.8041 356.761 74.2664C355.201 75.5554 354.265 77.7201 354.265 80.0552C354.265 82.3904 355.201 84.555 356.761 85.8443C357.361 86.3306 358.37 86.8902 359.594 86.8658C360.818 86.8172 362.09 86.0388 363.051 84.7982C362.619 84.993 362.162 85.1389 361.658 85.1389C360.026 85.1389 358.73 83.9955 358.73 82.5849C358.73 81.1741 360.026 80.0552 361.658 80.0552C362.859 80.0552 363.891 80.6877 364.347 81.5877C364.443 81.0768 364.587 80.6147 364.587 80.0552C364.587 76.1149 361.994 73.3664 359.594 73.2446Z"
      fill="white"
    />
    <path
      d="M328.939 73.6099C328.867 73.6099 328.795 73.6099 328.699 73.6099C327.306 73.6099 326.25 74.3153 325.602 74.9475C324.33 76.1638 323.586 78.0367 323.586 80.0555C323.586 82.0743 324.33 83.9471 325.602 85.1634C326.274 85.82 327.331 86.5984 328.915 86.4768C329.635 86.4282 330.307 86.185 330.907 85.7957C329.635 85.4796 328.699 84.3608 328.699 82.9742C328.699 81.3691 330.019 80.0555 331.627 80.0555C332.444 80.0555 333.164 80.3959 333.692 80.9311C333.716 80.6393 333.836 80.3716 333.836 80.0555C333.836 76.6502 331.627 73.7558 328.939 73.6099Z"
      fill="white"
    />
  </g>
  <path
    d="M486.03 228.901C486.465 226.726 486.9 224.569 487.335 222.433C487.81 220.257 488.245 218.121 488.641 216.024C490.144 208.507 491.37 201.307 492.32 194.423C491.885 194.344 491.43 194.304 490.955 194.304C490.48 194.265 490.025 194.265 489.59 194.304C488.641 194.384 487.711 194.265 486.801 193.948C486.841 193.632 486.86 193.296 486.86 192.94C486.86 192.544 486.86 192.148 486.86 191.753C486.86 191.318 486.86 190.902 486.86 190.507C486.86 190.071 486.88 189.656 486.92 189.26C486.959 188.825 486.979 188.37 486.979 187.895C486.979 187.381 486.999 186.867 487.038 186.353C488.067 186.432 489.096 186.491 490.124 186.531C491.153 186.57 492.181 186.59 493.21 186.59C496.138 186.59 498.927 186.491 501.577 186.293C504.268 186.095 506.74 185.858 508.995 185.581L508.343 188.786L507.808 191.575C507.611 192.603 507.433 193.414 507.274 194.008C506.839 194.126 506.404 194.225 505.969 194.304C505.534 194.384 505.098 194.443 504.663 194.483C504.228 194.522 503.773 194.581 503.298 194.661C502.863 194.74 502.428 194.819 501.993 194.898C501.399 197.825 500.905 200.357 500.509 202.494C500.153 204.63 499.817 206.687 499.5 208.665C499.223 210.604 498.887 212.74 498.492 215.075C497.819 219.07 497.226 223.125 496.711 227.24L486.03 228.901Z"
    fill="white"
  />
  <path
    d="M469.621 228.724C469.7 228.051 469.779 227.398 469.858 226.765C469.937 226.132 470.017 225.499 470.096 224.866L470.452 221.543C470.491 220.989 470.531 220.475 470.57 220C470.61 219.525 470.65 219.09 470.689 218.695H465.526L463.153 227.24C462.282 227.359 461.254 227.497 460.067 227.655C458.88 227.774 457.772 227.893 456.743 228.011C456.11 228.091 455.478 228.17 454.845 228.249C454.251 228.328 453.638 228.407 453.005 228.486L457.693 212.938C458.247 211.079 458.88 208.962 459.592 206.589C460.304 204.215 461.016 201.782 461.728 199.289C462.48 196.797 463.172 194.463 463.805 192.287C464.478 190.072 465.012 188.212 465.408 186.709C468.098 186.511 470.828 186.274 473.597 185.997C476.406 185.72 479.136 185.344 481.786 184.869C481.588 187.085 481.391 189.597 481.193 192.406C481.035 195.175 480.876 198.043 480.718 201.01C480.599 203.978 480.461 206.905 480.303 209.793C480.224 212.523 480.125 215.352 480.006 218.279C479.887 221.167 479.769 224.134 479.65 227.181C479.056 227.26 478.463 227.339 477.87 227.418C477.276 227.497 476.683 227.576 476.089 227.655C475.1 227.814 474.012 227.992 472.825 228.19C471.639 228.387 470.57 228.565 469.621 228.724ZM466.951 212.76C467.188 212.76 467.623 212.741 468.256 212.701C468.929 212.661 469.562 212.622 470.155 212.582C470.748 212.543 471.105 212.523 471.223 212.523C471.223 212.009 471.302 210.96 471.461 209.378C471.619 207.795 471.777 206.134 471.935 204.393C472.014 203.364 472.094 202.316 472.173 201.248C472.291 200.14 472.41 199.013 472.529 197.865L472.885 192.702L471.995 192.762L470.63 197.865L466.951 212.76Z"
    fill="white"
  />
  <path
    d="M425.566 228.961C426.08 226.231 426.575 223.541 427.049 220.89C427.564 218.2 428.078 215.529 428.592 212.879C429.146 209.595 429.66 206.509 430.135 203.621C430.649 200.733 431.144 197.865 431.619 195.017C432.133 192.168 432.627 189.181 433.102 186.056L442.716 185.403C442.043 188.172 441.371 191.06 440.698 194.067C440.065 197.074 439.472 200.001 438.918 202.85L444.793 202.197C445.07 200.812 445.327 199.447 445.564 198.102C445.841 196.718 446.079 195.353 446.276 194.008C446.474 192.702 446.712 191.377 446.989 190.032C447.305 188.647 447.641 187.262 447.997 185.878C449.422 185.64 450.866 185.462 452.329 185.344C453.793 185.185 455.02 185.086 456.009 185.047C456.998 184.968 457.492 184.928 457.492 184.928C456.978 186.511 456.464 188.37 455.949 190.506C455.435 192.643 454.94 194.898 454.466 197.272C453.991 199.645 453.536 202.019 453.101 204.393C452.666 206.727 452.27 208.903 451.914 210.92C451.479 213.452 451.063 216.004 450.668 218.576C450.272 221.108 449.877 223.699 449.481 226.35L440.223 227.418C440.5 226.231 440.738 225.064 440.936 223.917C441.173 222.73 441.39 221.582 441.588 220.475C441.984 218.576 442.38 216.598 442.775 214.54C443.21 212.483 443.547 210.723 443.784 209.259L438.028 209.793C437.869 210.545 437.711 211.356 437.553 212.226C437.434 213.096 437.276 214.026 437.078 215.015C436.88 216.004 436.683 216.973 436.485 217.923C436.327 218.833 436.168 219.743 436.01 220.653C435.812 221.721 435.595 222.789 435.357 223.857C435.12 224.925 434.902 225.994 434.705 227.062L425.566 228.961Z"
    fill="white"
  />
  <path
    d="M408.293 228.961C405.801 228.961 403.763 227.794 402.181 225.46C400.598 223.125 399.807 219.921 399.807 215.846C399.807 212.127 400.321 208.468 401.35 204.868C402.379 201.228 403.823 197.964 405.682 195.076C407.542 192.188 409.737 189.874 412.269 188.133C414.841 186.353 417.669 185.462 420.755 185.462C422.694 185.462 424.355 186.214 425.74 187.717C427.125 189.221 427.817 191.238 427.817 193.77V194.483C427.817 194.641 427.817 194.779 427.817 194.898C427.817 195.017 427.797 195.155 427.758 195.313L419.984 197.39C419.509 196.401 418.955 195.907 418.322 195.907C417.373 195.907 416.364 196.678 415.296 198.221C414.267 199.764 413.278 201.604 412.329 203.74C411.696 205.164 411.122 206.628 410.608 208.131C410.133 209.635 409.757 211.039 409.48 212.345C409.203 213.65 409.065 214.718 409.065 215.549C409.065 216.776 409.243 217.666 409.599 218.22C409.876 218.734 410.311 218.991 410.904 218.991C411.498 218.991 412.15 218.714 412.863 218.16C413.575 217.567 414.228 216.835 414.821 215.965C415.454 215.094 415.869 214.224 416.067 213.354L422.832 216.083C420.894 220.514 418.579 223.778 415.889 225.875C413.238 227.932 410.706 228.961 408.293 228.961Z"
    fill="white"
  />
  <path
    d="M358.62 229.079C357.157 229.079 355.792 228.961 354.526 228.723C356.425 221.8 357.928 214.837 359.036 207.835C360.183 200.793 361.271 193.711 362.3 186.59C364.357 186.155 366.493 185.779 368.709 185.462C370.924 185.106 373.219 184.928 375.592 184.928C376.898 184.928 378.283 185.166 379.746 185.64C381.21 186.076 382.437 186.887 383.426 188.073C384.454 189.221 384.969 190.863 384.969 192.999C384.969 194.977 384.553 196.797 383.722 198.458C382.892 200.12 381.843 201.544 380.577 202.731C379.311 203.918 378.006 204.769 376.661 205.283C377.214 205.56 377.867 206.054 378.619 206.766C379.371 207.479 380.023 208.428 380.577 209.615C381.131 210.802 381.408 212.246 381.408 213.947C381.408 216.321 380.696 218.477 379.272 220.415C377.887 222.314 376.028 223.897 373.693 225.163C371.438 226.429 369.005 227.398 366.394 228.071C363.783 228.743 361.192 229.079 358.62 229.079ZM369.183 200.417C370.41 200.179 371.577 199.863 372.685 199.467C373.792 199.072 374.682 198.617 375.355 198.102C376.067 197.588 376.423 197.034 376.423 196.441C376.423 195.689 376.126 195.096 375.533 194.66C374.94 194.225 374.228 193.909 373.397 193.711C372.566 193.513 371.794 193.414 371.082 193.414H370.489C370.212 194.997 369.955 196.381 369.717 197.568C369.48 198.716 369.302 199.665 369.183 200.417ZM366.157 217.092C366.948 217.013 367.818 216.875 368.768 216.677C369.717 216.479 370.627 216.182 371.498 215.787C372.368 215.351 373.08 214.798 373.634 214.125C374.228 213.413 374.524 212.562 374.524 211.573C374.524 210.624 374.208 209.872 373.575 209.318C372.942 208.764 372.17 208.369 371.26 208.131C370.39 207.854 369.559 207.716 368.768 207.716H368.293C368.095 207.716 367.937 207.736 367.818 207.775C367.581 209.239 367.304 210.782 366.988 212.404C366.671 214.026 366.394 215.589 366.157 217.092Z"
    fill="white"
  />
  <path
    d="M331.867 228.902L339.641 186.709L358.394 185.106C358.117 185.977 357.879 186.867 357.681 187.777C357.484 188.529 357.286 189.32 357.088 190.151C356.93 190.942 356.791 191.654 356.673 192.287C356.158 192.327 355.426 192.366 354.477 192.406C353.527 192.406 352.558 192.425 351.569 192.465C350.58 192.465 349.729 192.465 349.017 192.465C348.305 192.465 347.929 192.465 347.89 192.465L345.813 203.087L349.255 202.909C349.69 202.87 350.125 202.85 350.56 202.85C351.035 202.85 351.49 202.85 351.925 202.85C352.36 202.85 352.756 202.85 353.112 202.85C353.468 202.85 353.745 202.83 353.943 202.791C353.864 203.345 353.785 203.898 353.705 204.452C353.666 204.967 353.607 205.501 353.527 206.055L352.993 209.318C352.795 209.358 352.538 209.378 352.222 209.378C351.905 209.378 351.529 209.378 351.094 209.378C350.659 209.417 350.204 209.437 349.729 209.437C349.255 209.437 348.8 209.457 348.365 209.496C347.85 209.536 347.316 209.556 346.762 209.556C346.208 209.556 345.615 209.576 344.982 209.615L342.964 220.534L351.628 219.169L351.035 225.934L331.867 228.902Z"
    fill="white"
  />
  <path
    d="M295.218 229.079L299.728 186.946C300.638 186.906 301.528 186.847 302.398 186.768C303.308 186.649 304.179 186.511 305.009 186.352C305.801 186.194 306.612 186.076 307.442 185.996C308.273 185.878 309.084 185.799 309.875 185.759L309.697 186.946C309.658 187.342 309.579 187.796 309.46 188.311C309.381 188.786 309.302 189.339 309.223 189.972C309.025 191.357 308.788 192.94 308.511 194.72C308.234 196.5 307.917 198.478 307.561 200.654C307.324 201.999 307.047 203.621 306.73 205.52C306.453 207.419 306.117 209.575 305.721 211.989H306.612C307.126 210.169 307.601 208.507 308.036 207.004C308.471 205.5 308.847 204.175 309.163 203.028C309.48 201.881 309.777 200.852 310.054 199.942C310.37 198.993 310.627 198.142 310.825 197.39C311.656 194.463 312.328 192.069 312.843 190.21C313.357 188.35 313.693 187.144 313.851 186.59H314.386C315.414 186.59 316.482 186.511 317.59 186.352C318.737 186.194 319.766 186.016 320.676 185.818C320.636 185.977 320.557 186.629 320.439 187.777C320.32 188.924 320.181 190.328 320.023 191.99C319.865 193.652 319.707 195.373 319.548 197.153C319.271 200.516 319.014 203.443 318.777 205.936C318.579 208.428 318.401 210.446 318.243 211.989H319.311L324.949 186.471L328.925 185.937C329.478 185.858 330.052 185.779 330.646 185.7C331.239 185.621 331.852 185.541 332.485 185.462C333.632 185.304 334.72 185.126 335.749 184.928C334.562 188.251 333.375 192.168 332.188 196.678C331.002 201.188 329.815 205.758 328.628 210.386C327.995 212.918 327.362 215.49 326.729 218.101C326.135 220.672 325.542 223.303 324.949 225.994L311.537 228.249L314.148 205.342H313.436L307.561 226.884L295.218 229.079Z"
    fill="white"
  />
  <path
    d="M255.51 228.902L263.283 186.709L282.036 185.106C281.759 185.977 281.522 186.867 281.324 187.777C281.126 188.529 280.928 189.32 280.73 190.151C280.572 190.942 280.434 191.654 280.315 192.287C279.801 192.327 279.069 192.366 278.119 192.406C277.17 192.406 276.2 192.425 275.211 192.465C274.222 192.465 273.372 192.465 272.66 192.465C271.948 192.465 271.572 192.465 271.532 192.465L269.455 203.087L272.897 202.909C273.332 202.87 273.767 202.85 274.203 202.85C274.677 202.85 275.132 202.85 275.567 202.85C276.003 202.85 276.398 202.85 276.754 202.85C277.11 202.85 277.387 202.83 277.585 202.791C277.506 203.345 277.427 203.898 277.348 204.452C277.308 204.967 277.249 205.501 277.17 206.055L276.636 209.318C276.438 209.358 276.181 209.378 275.864 209.378C275.548 209.378 275.172 209.378 274.737 209.378C274.301 209.417 273.847 209.437 273.372 209.437C272.897 209.437 272.442 209.457 272.007 209.496C271.493 209.536 270.958 209.556 270.405 209.556C269.851 209.556 269.257 209.576 268.624 209.615L266.607 220.534L275.271 219.169L274.677 225.934L255.51 228.902Z"
    fill="white"
  />
  <path
    d="M229.434 229.139C228.88 229.139 228.326 229.099 227.772 229.02C227.218 228.98 226.664 228.921 226.111 228.842L229.256 212.879C229.651 210.703 230.067 208.408 230.502 205.995C230.977 203.542 231.432 201.129 231.867 198.755C232.302 196.342 232.678 194.106 232.994 192.049C233.35 189.992 233.627 188.251 233.825 186.827C235.526 186.511 237.247 186.214 238.988 185.937C240.729 185.66 242.509 185.521 244.329 185.521C247.256 185.521 249.571 186.135 251.272 187.361C252.973 188.548 254.2 190.13 254.951 192.109C255.703 194.047 256.079 196.183 256.079 198.518C256.079 200.614 255.782 202.83 255.189 205.164C254.595 207.459 253.745 209.753 252.637 212.048C251.569 214.303 250.283 216.439 248.78 218.457C246.445 221.582 243.597 224.154 240.234 226.171C236.911 228.15 233.311 229.139 229.434 229.139ZM236.496 221.661C237.88 220.751 239.186 219.367 240.412 217.507C241.678 215.648 242.865 213.413 243.973 210.802C244.962 208.388 245.733 206.114 246.287 203.977C246.841 201.801 247.118 200.001 247.118 198.577C247.118 197.113 246.703 195.966 245.872 195.135C245.081 194.304 243.815 193.889 242.074 193.889C241.441 197.291 240.788 200.436 240.116 203.324C239.483 206.212 238.85 209.12 238.217 212.048C237.623 214.975 237.049 218.18 236.496 221.661Z"
    fill="white"
  />
  <path
    d="M204.381 229.08C201.77 229.08 199.634 228.071 197.972 226.053C196.311 224.035 195.48 220.989 195.48 216.914C195.48 214.659 195.757 212.285 196.311 209.793C196.865 207.301 197.636 204.848 198.625 202.435C199.614 200.021 200.762 197.786 202.067 195.729C204.164 192.406 206.577 189.696 209.307 187.599C212.037 185.502 214.905 184.454 217.912 184.454C220.285 184.454 222.105 185.067 223.371 186.293C224.677 187.48 225.587 189.023 226.101 190.922C226.615 192.781 226.872 194.72 226.872 196.738C226.872 201.445 226.141 205.837 224.677 209.912C223.253 213.947 221.393 217.369 219.098 220.178C216.804 223.066 214.351 225.282 211.74 226.825C209.168 228.328 206.716 229.08 204.381 229.08ZM207.586 219.288C209.366 219.288 210.929 218.695 212.274 217.508C213.659 216.321 214.826 214.817 215.775 212.998C216.725 211.138 217.437 209.2 217.912 207.182C218.386 205.164 218.624 203.344 218.624 201.722C218.624 201.089 218.564 200.417 218.446 199.705C218.327 198.953 218.07 198.3 217.674 197.746C217.279 197.193 216.665 196.916 215.835 196.916C214.015 196.916 212.373 197.588 210.909 198.933C209.445 200.239 208.219 201.9 207.23 203.918C206.241 205.975 205.509 207.993 205.034 209.971C204.559 211.949 204.322 213.749 204.322 215.371C204.322 216.202 204.619 217.072 205.212 217.982C205.806 218.853 206.597 219.288 207.586 219.288Z"
    fill="white"
  />
  <path
    d="M177.481 228.961C174.989 228.961 172.952 227.794 171.369 225.46C169.787 223.125 168.995 219.921 168.995 215.846C168.995 212.127 169.51 208.468 170.538 204.868C171.567 201.228 173.011 197.964 174.87 195.076C176.73 192.188 178.925 189.874 181.457 188.133C184.029 186.353 186.858 185.462 189.943 185.462C191.882 185.462 193.544 186.214 194.928 187.717C196.313 189.221 197.005 191.238 197.005 193.77V194.483C197.005 194.641 197.005 194.779 197.005 194.898C197.005 195.017 196.985 195.155 196.946 195.313L189.172 197.39C188.697 196.401 188.143 195.907 187.51 195.907C186.561 195.907 185.552 196.678 184.484 198.221C183.455 199.764 182.466 201.604 181.517 203.74C180.884 205.164 180.31 206.628 179.796 208.131C179.321 209.635 178.945 211.039 178.668 212.345C178.391 213.65 178.253 214.718 178.253 215.549C178.253 216.776 178.431 217.666 178.787 218.22C179.064 218.734 179.499 218.991 180.093 218.991C180.686 218.991 181.339 218.714 182.051 218.16C182.763 217.567 183.416 216.835 184.009 215.965C184.642 215.094 185.058 214.224 185.255 213.354L192.02 216.083C190.082 220.514 187.768 223.778 185.077 225.875C182.427 227.932 179.895 228.961 177.481 228.961Z"
    fill="white"
  />
  <g filter="url(#filter0_d_863_150)">
    <rect
      x="8.99536"
      y="54.0454"
      width="60"
      height="60"
      rx="15"
      transform="rotate(-13.0929 8.99536 54.0454)"
      fill="white"
    />
    <path
      d="M59.792 70.8532C56.5585 70.2849 53.4637 69.103 50.6747 67.3712C46.7873 64.9455 43.6204 61.523 41.5031 57.4594C41.4097 57.2787 41.2587 57.1344 41.0741 57.0492C40.8894 56.964 40.6817 56.9427 40.4836 56.9888C40.2855 57.0348 40.1084 57.1456 39.9804 57.3036C39.8523 57.4615 39.7805 57.6577 39.7763 57.861C39.6671 62.4418 38.335 66.9102 35.9183 70.8032C34.1794 73.5878 31.9238 76.0141 29.2732 77.9511C28.2373 78.7147 27.147 79.3884 26.0068 79.9765C25.8247 80.0689 25.6788 80.2197 25.5925 80.4047C25.5062 80.5898 25.4844 80.7984 25.5307 80.9973C25.5769 81.1962 25.6886 81.3739 25.8477 81.5018C26.0068 81.6298 26.2042 81.7008 26.4084 81.7033C27.6907 81.7262 28.9629 81.8503 30.2329 82.0777C33.4664 82.6459 36.5612 83.8278 39.3502 85.5596C43.2385 87.9855 46.4062 91.4085 48.524 95.4728C48.6163 95.6549 48.7671 95.8008 48.9522 95.8871C49.1372 95.9734 49.3459 95.9952 49.5448 95.9489C49.7437 95.9027 49.9213 95.7911 50.0493 95.6319C50.1773 95.4728 50.2482 95.2754 50.2507 95.0712C50.2732 93.7872 50.3974 92.515 50.6247 91.2449C51.1928 88.0115 52.3748 84.9166 54.1066 82.1276C56.533 78.24 59.956 75.073 64.0203 72.9557C64.2009 72.8622 64.3452 72.7113 64.4304 72.5266C64.5157 72.342 64.5369 72.1342 64.4909 71.9361C64.4448 71.7381 64.334 71.561 64.1761 71.4329C64.0181 71.3048 63.822 71.233 63.6187 71.2289C62.3351 71.2058 61.0555 71.0802 59.792 70.8532Z"
      fill="#3186FF"
    />
    <path
      d="M59.792 70.8532C56.5585 70.2849 53.4637 69.103 50.6747 67.3712C46.7873 64.9455 43.6204 61.523 41.5031 57.4594C41.4097 57.2787 41.2587 57.1344 41.0741 57.0492C40.8894 56.964 40.6817 56.9427 40.4836 56.9888C40.2855 57.0348 40.1084 57.1456 39.9804 57.3036C39.8523 57.4615 39.7805 57.6577 39.7763 57.861C39.6671 62.4418 38.335 66.9102 35.9183 70.8032C34.1794 73.5878 31.9238 76.0141 29.2732 77.9511C28.2373 78.7147 27.147 79.3884 26.0068 79.9765C25.8247 80.0689 25.6788 80.2197 25.5925 80.4047C25.5062 80.5898 25.4844 80.7984 25.5307 80.9973C25.5769 81.1962 25.6886 81.3739 25.8477 81.5018C26.0068 81.6298 26.2042 81.7008 26.4084 81.7033C27.6907 81.7262 28.9629 81.8503 30.2329 82.0777C33.4664 82.6459 36.5612 83.8278 39.3502 85.5596C43.2385 87.9855 46.4062 91.4085 48.524 95.4728C48.6163 95.6549 48.7671 95.8008 48.9522 95.8871C49.1372 95.9734 49.3459 95.9952 49.5448 95.9489C49.7437 95.9027 49.9213 95.7911 50.0493 95.6319C50.1773 95.4728 50.2482 95.2754 50.2507 95.0712C50.2732 93.7872 50.3974 92.515 50.6247 91.2449C51.1928 88.0115 52.3748 84.9166 54.1066 82.1276C56.533 78.24 59.956 75.073 64.0203 72.9557C64.2009 72.8622 64.3452 72.7113 64.4304 72.5266C64.5157 72.342 64.5369 72.1342 64.4909 71.9361C64.4448 71.7381 64.334 71.561 64.1761 71.4329C64.0181 71.3048 63.822 71.233 63.6187 71.2289C62.3351 71.2058 61.0555 71.0802 59.792 70.8532Z"
      fill="url(#paint0_linear_863_150)"
    />
    <path
      d="M59.792 70.8532C56.5585 70.2849 53.4637 69.103 50.6747 67.3712C46.7873 64.9455 43.6204 61.523 41.5031 57.4594C41.4097 57.2787 41.2587 57.1344 41.0741 57.0492C40.8894 56.964 40.6817 56.9427 40.4836 56.9888C40.2855 57.0348 40.1084 57.1456 39.9804 57.3036C39.8523 57.4615 39.7805 57.6577 39.7763 57.861C39.6671 62.4418 38.335 66.9102 35.9183 70.8032C34.1794 73.5878 31.9238 76.0141 29.2732 77.9511C28.2373 78.7147 27.147 79.3884 26.0068 79.9765C25.8247 80.0689 25.6788 80.2197 25.5925 80.4047C25.5062 80.5898 25.4844 80.7984 25.5307 80.9973C25.5769 81.1962 25.6886 81.3739 25.8477 81.5018C26.0068 81.6298 26.2042 81.7008 26.4084 81.7033C27.6907 81.7262 28.9629 81.8503 30.2329 82.0777C33.4664 82.6459 36.5612 83.8278 39.3502 85.5596C43.2385 87.9855 46.4062 91.4085 48.524 95.4728C48.6163 95.6549 48.7671 95.8008 48.9522 95.8871C49.1372 95.9734 49.3459 95.9952 49.5448 95.9489C49.7437 95.9027 49.9213 95.7911 50.0493 95.6319C50.1773 95.4728 50.2482 95.2754 50.2507 95.0712C50.2732 93.7872 50.3974 92.515 50.6247 91.2449C51.1928 88.0115 52.3748 84.9166 54.1066 82.1276C56.533 78.24 59.956 75.073 64.0203 72.9557C64.2009 72.8622 64.3452 72.7113 64.4304 72.5266C64.5157 72.342 64.5369 72.1342 64.4909 71.9361C64.4448 71.7381 64.334 71.561 64.1761 71.4329C64.0181 71.3048 63.822 71.233 63.6187 71.2289C62.3351 71.2058 61.0555 71.0802 59.792 70.8532Z"
      fill="url(#paint1_linear_863_150)"
    />
    <path
      d="M59.792 70.8532C56.5585 70.2849 53.4637 69.103 50.6747 67.3712C46.7873 64.9455 43.6204 61.523 41.5031 57.4594C41.4097 57.2787 41.2587 57.1344 41.0741 57.0492C40.8894 56.964 40.6817 56.9427 40.4836 56.9888C40.2855 57.0348 40.1084 57.1456 39.9804 57.3036C39.8523 57.4615 39.7805 57.6577 39.7763 57.861C39.6671 62.4418 38.335 66.9102 35.9183 70.8032C34.1794 73.5878 31.9238 76.0141 29.2732 77.9511C28.2373 78.7147 27.147 79.3884 26.0068 79.9765C25.8247 80.0689 25.6788 80.2197 25.5925 80.4047C25.5062 80.5898 25.4844 80.7984 25.5307 80.9973C25.5769 81.1962 25.6886 81.3739 25.8477 81.5018C26.0068 81.6298 26.2042 81.7008 26.4084 81.7033C27.6907 81.7262 28.9629 81.8503 30.2329 82.0777C33.4664 82.6459 36.5612 83.8278 39.3502 85.5596C43.2385 87.9855 46.4062 91.4085 48.524 95.4728C48.6163 95.6549 48.7671 95.8008 48.9522 95.8871C49.1372 95.9734 49.3459 95.9952 49.5448 95.9489C49.7437 95.9027 49.9213 95.7911 50.0493 95.6319C50.1773 95.4728 50.2482 95.2754 50.2507 95.0712C50.2732 93.7872 50.3974 92.515 50.6247 91.2449C51.1928 88.0115 52.3748 84.9166 54.1066 82.1276C56.533 78.24 59.956 75.073 64.0203 72.9557C64.2009 72.8622 64.3452 72.7113 64.4304 72.5266C64.5157 72.342 64.5369 72.1342 64.4909 71.9361C64.4448 71.7381 64.334 71.561 64.1761 71.4329C64.0181 71.3048 63.822 71.233 63.6187 71.2289C62.3351 71.2058 61.0555 71.0802 59.792 70.8532Z"
      fill="url(#paint2_linear_863_150)"
    />
  </g>
  <g filter="url(#filter1_d_863_150)">
    <rect
      x="121.88"
      y="89.4536"
      width="60"
      height="60"
      rx="15"
      transform="rotate(11.4243 121.88 89.4536)"
      fill="white"
    />
    <g clip-path="url(#clip1_863_150)">
      <path
        d="M132.126 128.856L140.711 126.09L140.918 125.74L140.829 125.505L140.455 125.429L139.18 125.09L134.797 124.08L131.008 123.149L127.346 122.202L126.453 121.816L125.811 120.487L126.017 119.93L126.907 119.564L128.008 119.889L130.457 120.559L134.126 121.569L136.793 122.273L140.709 123.498L141.345 123.626L141.487 123.388L141.3 123.184L141.164 122.991L137.838 119.605L134.227 116.005L132.365 113.976L131.344 112.935L130.902 112.06L130.977 110.362L132.287 109.399L133.706 109.787L134.054 109.961L135.286 111.377L137.916 114.418L141.38 118.235L141.876 118.852L142.147 118.732L142.202 118.619L142.025 118.117L140.619 113.674L139.078 109.128L138.367 107.23L138.294 106.163C138.266 105.753 138.29 105.341 138.364 104.937L139.921 103.529L140.64 103.447L142.222 103.995L142.788 104.728L143.334 107.242L144.236 111.215L145.776 116.678L146.224 118.295L146.346 119.735L146.411 120.182L146.669 120.234L146.717 119.995L147.49 117.25L148.568 113.906L149.834 109.579L150.215 108.364L151.13 107.002L152.513 106.445L153.374 107.095L153.932 108.372L153.676 109.076L152.598 112.005L150.726 116.563L149.491 119.615L149.837 119.685L150.314 119.37L152.354 117.562L155.734 114.735L157.198 113.637L158.885 112.441L159.921 111.917L161.608 112.258L162.477 114.353L161.537 116.146L159.354 117.995L157.537 119.57L154.911 121.93L153.172 123.891L153.255 124.095L153.568 124.124L158.434 124.077L161.047 124.129L164.159 124.222L165.392 125.131L165.41 125.806L164.608 127.016L161.231 127.16L157.306 127.153L151.419 127.346L151.341 127.381L151.401 127.496L153.883 128.246L154.953 128.524L157.603 129.059L162.462 130.424L163.58 131.537L164.144 132.736L163.855 133.502L161.665 134.114L159.114 132.937L153.16 130.186L151.125 129.216L150.828 129.156L150.791 129.336L152.224 131.441L154.904 135.06L158.233 139.695L158.25 140.681L157.574 141.318L157.035 141.126L153.979 137.691L152.836 136.19L150.224 132.907L150.015 132.865L149.959 133.143L150.47 134.35L153.139 140.876L152.981 142.68L152.587 143.201L151.524 143.348L150.473 142.928L148.863 139.33L147.267 135.323L146.041 131.771L145.786 131.856L142.29 143.484L141.652 143.984L140.369 144.201L139.529 143.247L139.25 141.92L140.263 139.616L141.534 136.601L142.553 134.205L143.648 131.196L144.134 130.219L144.128 130.147L143.894 130.13L140.902 132.87L136.368 136.961L132.94 139.406L132.209 139.537L131.16 138.696L131.488 137.637L132.337 136.807L137.241 132.635L140.215 130.036L142.092 128.569L142.135 128.309L142.045 128.291L130.324 132.921L128.43 132.786L127.785 131.881L128.131 130.682L128.588 130.361L132.138 128.848L132.126 128.856Z"
        fill="#D97757"
      />
    </g>
  </g>
  <g filter="url(#filter2_d_863_150)">
    <rect
      x="609.88"
      y="31.4536"
      width="60"
      height="60"
      rx="15"
      transform="rotate(11.4243 609.88 31.4536)"
      fill="white"
    />
    <g clip-path="url(#clip2_863_150)">
      <path
        fill-rule="evenodd"
        clip-rule="evenodd"
        d="M628.793 72.2848L642.09 62.4564C642.741 61.9731 643.673 62.1614 643.985 62.9098C645.618 66.8581 644.888 71.6014 641.635 74.8581C638.383 78.1148 633.856 78.8281 629.72 77.2014L625.201 79.2964C631.683 83.7314 639.553 82.6348 644.471 77.7081C648.373 73.8014 649.581 68.4764 648.451 63.6748L648.461 63.6864C646.823 56.6331 648.865 53.8131 653.045 48.0481C653.145 47.9114 653.245 47.7748 653.343 47.6348L647.841 53.1431V53.1264L628.788 72.2881M626.048 74.6731C621.395 70.2231 622.198 63.3381 626.166 59.3664C629.101 56.4281 633.911 55.2281 638.11 56.9914L642.618 54.9081C641.681 54.2188 640.656 53.6582 639.57 53.2414C636.839 52.1239 633.839 51.8388 630.947 52.4218C628.055 53.0048 625.4 54.43 623.316 56.5181C619.095 60.7448 617.766 67.2448 620.046 72.7914C621.75 76.9364 618.958 79.8681 616.146 82.8281C615.148 83.8781 614.148 84.9264 613.343 86.0364L626.043 74.6781"
        fill="black"
      />
    </g>
  </g>
  <g filter="url(#filter3_d_863_150)">
    <rect
      x="538.88"
      y="105.454"
      width="60"
      height="60"
      rx="15"
      transform="rotate(11.4243 538.88 105.454)"
      fill="white"
    />
    <path
      d="M584.37 127.07C583.893 126.838 583.687 127.281 583.41 127.507C583.314 127.58 583.233 127.676 583.153 127.761C582.455 128.503 581.641 128.989 580.578 128.931C579.024 128.845 577.697 129.331 576.523 130.516C576.273 129.055 575.445 128.184 574.185 127.623C573.525 127.332 572.857 127.042 572.394 126.409C572.072 125.958 571.984 125.456 571.822 124.962C571.719 124.663 571.616 124.359 571.273 124.308C570.898 124.25 570.752 124.562 570.605 124.824C570.019 125.893 569.792 127.07 569.814 128.262C569.865 130.946 571.001 133.083 573.26 134.602C573.517 134.776 573.583 134.952 573.502 135.206C573.349 135.729 573.165 136.237 573.004 136.763C572.9 137.097 572.747 137.168 572.387 137.024C571.17 136.503 570.065 135.755 569.132 134.819C567.525 133.272 566.074 131.564 564.262 130.226C563.843 129.917 563.412 129.624 562.971 129.346C561.124 127.558 563.214 126.089 563.698 125.915C564.204 125.732 563.872 125.108 562.237 125.116C560.603 125.123 559.106 125.667 557.199 126.394C556.916 126.502 556.625 126.587 556.328 126.65C554.546 126.315 552.723 126.251 550.922 126.459C547.388 126.851 544.566 128.518 542.49 131.36C539.997 134.776 539.41 138.659 540.128 142.707C540.884 146.975 543.07 150.508 546.428 153.27C549.911 156.134 553.922 157.538 558.499 157.269C561.277 157.11 564.373 156.738 567.862 153.793C568.744 154.23 569.666 154.404 571.2 154.535C572.381 154.645 573.517 154.479 574.397 154.296C575.775 154.004 575.679 152.732 575.182 152.5C571.142 150.624 572.029 151.388 571.22 150.77C573.275 148.348 576.369 145.833 577.58 137.684C577.674 137.035 577.593 136.628 577.58 136.105C577.573 135.787 577.646 135.662 578.012 135.626C579.026 135.522 580.01 135.22 580.908 134.739C583.526 133.313 584.583 130.974 584.833 128.167C584.87 127.737 584.825 127.296 584.37 127.07ZM561.557 152.33C557.64 149.262 555.741 148.251 554.957 148.294C554.222 148.339 554.355 149.174 554.516 149.72C554.685 150.258 554.904 150.628 555.212 151.1C555.426 151.412 555.572 151.878 555 152.227C553.738 153.005 551.546 151.966 551.443 151.915C548.891 150.417 546.756 148.44 545.254 145.736C543.803 143.133 542.959 140.341 542.82 137.361C542.783 136.639 542.995 136.385 543.715 136.254C544.66 136.074 545.628 136.049 546.582 136.181C550.579 136.764 553.98 138.545 556.834 141.365C558.461 142.972 559.693 144.891 560.963 146.767C562.312 148.759 563.764 150.658 565.612 152.212C566.265 152.758 566.784 153.173 567.283 153.477C565.779 153.645 563.271 153.683 561.557 152.33ZM563.432 140.296C563.432 140.203 563.454 140.112 563.497 140.029C563.54 139.947 563.603 139.877 563.679 139.824C563.756 139.771 563.844 139.738 563.937 139.726C564.029 139.715 564.123 139.727 564.21 139.76C564.321 139.799 564.417 139.873 564.484 139.969C564.551 140.066 564.586 140.181 564.585 140.298C564.585 140.374 564.57 140.449 564.541 140.519C564.512 140.589 564.469 140.653 564.415 140.706C564.361 140.76 564.297 140.802 564.226 140.83C564.155 140.859 564.08 140.873 564.004 140.872C563.928 140.872 563.853 140.857 563.784 140.828C563.714 140.799 563.65 140.757 563.597 140.703C563.544 140.65 563.503 140.586 563.474 140.516C563.446 140.446 563.431 140.371 563.432 140.296ZM569.263 143.278C568.888 143.43 568.515 143.561 568.157 143.577C567.618 143.596 567.089 143.428 566.661 143.103C566.147 142.673 565.779 142.434 565.626 141.686C565.573 141.321 565.583 140.949 565.656 140.588C565.787 139.977 565.641 139.584 565.207 139.229C564.857 138.938 564.409 138.857 563.917 138.857C563.749 138.848 563.586 138.798 563.441 138.712C563.235 138.611 563.066 138.356 563.227 138.043C563.28 137.942 563.527 137.695 563.587 137.65C564.255 137.273 565.026 137.396 565.736 137.68C566.396 137.949 566.895 138.442 567.613 139.141C568.346 139.984 568.479 140.218 568.897 140.849C569.227 141.344 569.527 141.853 569.732 142.434C569.857 142.798 569.696 143.095 569.263 143.278Z"
      fill="#4D6BFE"
    />
  </g>
  <g filter="url(#filter4_d_863_150)">
    <rect
      x="481.995"
      y="18.7163"
      width="60"
      height="60"
      rx="15"
      transform="rotate(-10.8194 481.995 18.7163)"
      fill="white"
    />
    <path
      fill-rule="evenodd"
      clip-rule="evenodd"
      d="M534.447 39.6574C534.929 38.322 535.118 36.8907 535.001 35.4618C534.884 34.0329 534.464 32.6402 533.769 31.3793C531.654 27.4561 527.277 25.2915 522.938 26.0276C522.006 24.9133 520.855 24.0069 519.562 23.3678C518.269 22.7287 516.862 22.3715 515.435 22.3196C511.021 22.116 507.04 24.7828 505.587 28.919C504.184 29.1403 502.85 29.6623 501.674 30.4502C500.497 31.2382 499.504 32.274 498.762 33.4891C497.64 35.2983 497.129 37.4372 497.306 39.5898C497.482 41.7425 498.336 43.7948 499.742 45.4438C499.259 46.7793 499.07 48.2108 499.187 49.64C499.303 51.0692 499.723 52.4623 500.418 53.7236C502.533 57.6468 506.91 59.8096 511.249 59.0753C512.181 60.1893 513.331 61.0956 514.624 61.7343C515.917 62.3731 517.323 62.7299 518.75 62.7814C523.168 62.987 527.151 60.3184 528.604 56.1786C530.008 55.9573 531.342 55.4351 532.52 54.6465C533.697 53.8579 534.69 52.8211 535.433 51.6049C536.553 49.7957 537.062 47.6578 536.885 45.5064C536.707 43.3549 535.853 41.3039 534.449 39.6556L534.447 39.6574ZM518.812 60.1489C517.048 60.0755 515.351 59.3826 514.014 58.1893C514.076 58.159 514.184 58.1051 514.255 58.0643L522.39 53.7864C522.593 53.682 522.763 53.5238 522.883 53.3284C523.004 53.1329 523.069 52.9072 523.074 52.6749L523.329 41.3684L526.68 43.475C526.715 43.4949 526.738 43.5307 526.743 43.5694L526.531 52.9335C526.431 57.0963 522.978 60.3233 518.812 60.1489ZM502.734 52.5099C501.883 50.9469 501.605 49.1394 501.948 47.412C502.005 47.4511 502.108 47.5198 502.181 47.5652L510.106 52.5507C510.508 52.8066 511.012 52.8288 511.426 52.6088L521.356 47.3875L521.267 51.3015C521.268 51.3216 521.263 51.3414 521.254 51.3592C521.245 51.377 521.232 51.3923 521.216 51.4037L512.994 55.7254C509.332 57.6458 504.743 56.2048 502.736 52.5063L502.734 52.5099ZM501.016 34.9079C501.939 33.4129 503.358 32.3042 505.024 31.7749L505.014 32.0512L504.805 41.3146C504.798 41.5471 504.854 41.7784 504.965 41.9844C505.076 42.1904 505.239 42.3636 505.437 42.4859L515.111 48.5692L511.674 50.3786C511.657 50.3887 511.638 50.3944 511.618 50.3951C511.598 50.3958 511.578 50.3916 511.56 50.3827L503.548 45.3402C499.987 43.0943 498.854 38.43 501.014 34.9114L501.016 34.9079ZM528.75 42.617L519.076 36.5319L522.513 34.7262C522.53 34.7157 522.549 34.7097 522.569 34.7087C522.589 34.7076 522.609 34.7116 522.627 34.7202L530.639 39.759C534.205 42.0052 535.34 46.6768 533.171 50.1932C532.247 51.6872 530.83 52.7961 529.165 53.3281L529.381 43.7883C529.387 43.5562 529.332 43.3253 529.221 43.1197C529.11 42.914 528.947 42.7411 528.75 42.6188L528.75 42.617ZM532.241 37.6892C532.163 37.6371 532.085 37.586 532.006 37.5359L524.081 32.5504C523.883 32.4248 523.657 32.3533 523.426 32.3431C523.195 32.3329 522.966 32.3844 522.763 32.4923L512.833 37.7137L512.922 33.7996C512.921 33.7795 512.926 33.7597 512.935 33.7419C512.944 33.7241 512.957 33.7088 512.973 33.6974L521.193 29.3775C524.857 27.4554 529.45 28.8983 531.451 32.6021C532.297 34.1659 532.579 35.9668 532.241 37.6892ZM510.851 43.7287L507.5 41.6239C507.483 41.6144 507.468 41.6005 507.457 41.5837C507.446 41.5669 507.439 41.5476 507.437 41.5277L507.649 32.1636C507.745 27.9952 511.207 24.7667 515.381 24.9543C517.146 25.032 518.839 25.726 520.172 26.9136C520.11 26.9438 520.003 26.9978 519.932 27.0368L511.798 31.3147C511.594 31.4188 511.423 31.5769 511.303 31.7723C511.182 31.9678 511.116 32.1936 511.112 32.4261L510.851 43.7287ZM512.785 39.841L517.207 37.5161L521.516 40.2257L521.402 45.2601L516.98 47.585L512.669 44.8753L512.783 39.8409L512.785 39.841Z"
      fill="black"
    />
  </g>
  <defs>
    <filter
      id="filter0_d_863_150"
      x="-3.00464"
      y="30.4536"
      width="96.032"
      height="96.0322"
      filterUnits="userSpaceOnUse"
      color-interpolation-filters="sRGB"
    >
      <feFlood flood-opacity="0" result="BackgroundImageFix" />
      <feColorMatrix
        in="SourceAlpha"
        type="matrix"
        values="0 0 0 0 0 0 0 0 0 0 0 0 0 0 0 0 0 0 127 0"
        result="hardAlpha"
      />
      <feOffset dy="2" />
      <feGaussianBlur stdDeviation="6" />
      <feComposite in2="hardAlpha" operator="out" />
      <feColorMatrix
        type="matrix"
        values="0 0 0 0 0 0 0 0 0 0 0 0 0 0 0 0 0 0 0.14 0"
      />
      <feBlend
        mode="normal"
        in2="BackgroundImageFix"
        result="effect1_dropShadow_863_150"
      />
      <feBlend
        mode="normal"
        in="SourceGraphic"
        in2="effect1_dropShadow_863_150"
        result="shape"
      />
    </filter>
    <filter
      id="filter1_d_863_150"
      x="97.9954"
      y="79.4536"
      width="94.6956"
      height="94.6958"
      filterUnits="userSpaceOnUse"
      color-interpolation-filters="sRGB"
    >
      <feFlood flood-opacity="0" result="BackgroundImageFix" />
      <feColorMatrix
        in="SourceAlpha"
        type="matrix"
        values="0 0 0 0 0 0 0 0 0 0 0 0 0 0 0 0 0 0 127 0"
        result="hardAlpha"
      />
      <feOffset dy="2" />
      <feGaussianBlur stdDeviation="6" />
      <feComposite in2="hardAlpha" operator="out" />
      <feColorMatrix
        type="matrix"
        values="0 0 0 0 0 0 0 0 0 0 0 0 0 0 0 0 0 0 0.14 0"
      />
      <feBlend
        mode="normal"
        in2="BackgroundImageFix"
        result="effect1_dropShadow_863_150"
      />
      <feBlend
        mode="normal"
        in="SourceGraphic"
        in2="effect1_dropShadow_863_150"
        result="shape"
      />
    </filter>
    <filter
      id="filter2_d_863_150"
      x="585.995"
      y="21.4536"
      width="94.6956"
      height="94.6958"
      filterUnits="userSpaceOnUse"
      color-interpolation-filters="sRGB"
    >
      <feFlood flood-opacity="0" result="BackgroundImageFix" />
      <feColorMatrix
        in="SourceAlpha"
        type="matrix"
        values="0 0 0 0 0 0 0 0 0 0 0 0 0 0 0 0 0 0 127 0"
        result="hardAlpha"
      />
      <feOffset dy="2" />
      <feGaussianBlur stdDeviation="6" />
      <feComposite in2="hardAlpha" operator="out" />
      <feColorMatrix
        type="matrix"
        values="0 0 0 0 0 0 0 0 0 0 0 0 0 0 0 0 0 0 0.14 0"
      />
      <feBlend
        mode="normal"
        in2="BackgroundImageFix"
        result="effect1_dropShadow_863_150"
      />
      <feBlend
        mode="normal"
        in="SourceGraphic"
        in2="effect1_dropShadow_863_150"
        result="shape"
      />
    </filter>
    <filter
      id="filter3_d_863_150"
      x="514.995"
      y="95.4536"
      width="94.6956"
      height="94.6958"
      filterUnits="userSpaceOnUse"
      color-interpolation-filters="sRGB"
    >
      <feFlood flood-opacity="0" result="BackgroundImageFix" />
      <feColorMatrix
        in="SourceAlpha"
        type="matrix"
        values="0 0 0 0 0 0 0 0 0 0 0 0 0 0 0 0 0 0 127 0"
        result="hardAlpha"
      />
      <feOffset dy="2" />
      <feGaussianBlur stdDeviation="6" />
      <feComposite in2="hardAlpha" operator="out" />
      <feColorMatrix
        type="matrix"
        values="0 0 0 0 0 0 0 0 0 0 0 0 0 0 0 0 0 0 0.14 0"
      />
      <feBlend
        mode="normal"
        in2="BackgroundImageFix"
        result="effect1_dropShadow_863_150"
      />
      <feBlend
        mode="normal"
        in="SourceGraphic"
        in2="effect1_dropShadow_863_150"
        result="shape"
      />
    </filter>
    <filter
      id="filter4_d_863_150"
      x="469.995"
      y="-2.54639"
      width="94.1963"
      height="94.1963"
      filterUnits="userSpaceOnUse"
      color-interpolation-filters="sRGB"
    >
      <feFlood flood-opacity="0" result="BackgroundImageFix" />
      <feColorMatrix
        in="SourceAlpha"
        type="matrix"
        values="0 0 0 0 0 0 0 0 0 0 0 0 0 0 0 0 0 0 127 0"
        result="hardAlpha"
      />
      <feOffset dy="2" />
      <feGaussianBlur stdDeviation="6" />
      <feComposite in2="hardAlpha" operator="out" />
      <feColorMatrix
        type="matrix"
        values="0 0 0 0 0 0 0 0 0 0 0 0 0 0 0 0 0 0 0.14 0"
      />
      <feBlend
        mode="normal"
        in2="BackgroundImageFix"
        result="effect1_dropShadow_863_150"
      />
      <feBlend
        mode="normal"
        in="SourceGraphic"
        in2="effect1_dropShadow_863_150"
        result="shape"
      />
    </filter>
    <linearGradient
      id="paint0_linear_863_150"
      x1="37.5989"
      y1="84.7236"
      x2="43.2414"
      y2="76.8773"
      gradientUnits="userSpaceOnUse"
    >
      <stop stop-color="#08B962" />
      <stop offset="1" stop-color="#08B962" stop-opacity="0" />
    </linearGradient>
    <linearGradient
      id="paint1_linear_863_150"
      x1="35.2509"
      y1="66.6012"
      x2="43.715"
      y2="74.9003"
      gradientUnits="userSpaceOnUse"
    >
      <stop stop-color="#F94543" />
      <stop offset="1" stop-color="#F94543" stop-opacity="0" />
    </linearGradient>
    <linearGradient
      id="paint2_linear_863_150"
      x1="30.576"
      y1="82.6231"
      x2="54.7529"
      y2="74.1998"
      gradientUnits="userSpaceOnUse"
    >
      <stop stop-color="#FABC12" />
      <stop offset="0.46" stop-color="#FABC12" stop-opacity="0" />
    </linearGradient>
    <clipPath id="clip0_863_150">
      <rect
        width="123"
        height="106"
        fill="white"
        transform="translate(277.495 31.4536)"
      />
    </clipPath>
    <clipPath id="clip1_863_150">
      <rect
        width="40"
        height="40"
        fill="white"
        transform="translate(129.701 101.236) rotate(11.4243)"
      />
    </clipPath>
    <clipPath id="clip2_863_150">
      <rect
        width="40"
        height="40"
        fill="white"
        transform="translate(613.343 46.8013)"
      />
    </clipPath>
  </defs>
</svg>
