<svg
  width="680"
  height="474"
  viewBox="0 0 680 474"
  fill="none"
  xmlns="http://www.w3.org/2000/svg"
>
  <rect x="180" width="320" height="320" rx="160" fill="black" />
  <g clip-path="url(#clip0_0_1)">
    <path
      fill-rule="evenodd"
      clip-rule="evenodd"
      d="M437.871 129.706C454.037 124.965 462.023 138.112 463.668 152.433C464.588 160.351 463.572 168.66 460.909 174.476C459.022 178.582 456.36 182.443 452.633 184.838C450.358 186.304 447.599 187.184 444.84 187.135C441.791 187.037 440.242 186.011 440.242 186.011C439.737 187.944 439.261 189.859 438.789 191.758C436.683 200.231 434.656 208.386 430.465 216.412C425.867 225.258 419.72 233.323 412.46 240.116C384.242 266.461 338.068 271.397 302.057 261.524C271.564 253.166 248.526 230.39 240.249 199.55C238.797 199.745 237.442 199.892 236.667 199.892C224.47 199.892 216 188.406 216 171.984C216 155.561 224.47 144.075 236.667 144.124C237.103 144.124 237.974 144.124 240.636 144.564C240.856 143.696 241.059 142.795 241.263 141.891C241.553 140.607 241.844 139.317 242.185 138.112L288.989 158.396C293.926 183.567 329.888 195.346 343.876 170.713C344.044 170.406 344.477 169.212 344.993 167.785C345.961 165.112 347.224 161.622 347.602 161.622H351.62C354.427 172.961 367.592 183.616 379.402 183.616C400.699 183.616 410.234 169.784 411.686 150.38L434.676 123.596C435.281 124.867 435.777 125.759 436.273 126.651C436.769 127.543 437.265 128.435 437.871 129.706ZM370.883 215.581L382.887 213.577C388.55 212.599 392.325 207.223 391.454 201.553C390.534 195.884 385.21 192.072 379.596 193L317.642 203.411C312.028 204.388 308.253 209.764 309.172 215.434C309.995 220.517 314.351 224.134 319.336 224.134C319.917 224.134 320.45 224.085 321.03 223.987L329.646 222.521L365.91 216.412L370.883 215.581Z"
      fill="white"
    />
    <path
      d="M361.978 59.9597C368.803 67.8776 373.4 76.4797 375.772 89.5785C376.643 94.3684 374.078 99.2069 369.625 101.064C369.383 101.162 369.093 101.26 368.851 101.358C362.898 103.411 356.605 99.4512 355.444 93.2442C355.105 91.4358 354.718 89.6274 354.234 87.9656V87.9167C354.234 87.9167 354.137 87.6235 353.992 87.0858C352.54 81.905 344.505 57.0271 339.568 57.467C339.568 57.467 338.842 57.2226 334.389 57.8091C334.293 57.8091 334.196 57.858 334.099 57.858C334.051 57.858 334.051 57.858 334.002 57.858C332.599 58.0535 330.904 58.2979 329.113 58.64C329.695 59.1288 330.227 59.6175 330.808 60.1552C334.002 63.4299 340.972 71.5433 344.602 91.3869C345.715 97.6428 341.02 103.508 334.777 103.411C334.728 103.411 334.631 103.411 334.583 103.411C329.597 103.313 325.532 99.4024 324.903 94.4172C323.015 78.9236 314.835 65.0916 310.721 63.6254L312.125 62.99C292.038 69.8815 265.756 85.2285 249.736 118.611L291.312 136.597C293.103 132.541 295.62 128.777 298.814 125.698C304.865 119.882 312.754 116.949 320.837 117.389C334.002 118.122 344.747 127.751 348.619 140.703H351.669C353.411 133.616 356.751 127.262 361.687 122.521C367.593 116.9 375.095 114.408 382.645 114.408C392.664 114.408 401.861 120.957 405.394 129.608L425.819 106.489C407.862 80.0477 379.886 64.0653 361.978 59.9597Z"
      fill="white"
    />
    <path
      d="M381.532 137.477C381.435 137.477 381.29 137.477 381.193 137.477C378.87 137.477 377.03 138.601 375.82 139.53C372.674 142.12 370.787 146.47 370.787 151.162C370.787 155.855 372.674 160.204 375.82 162.795C377.03 163.772 379.063 164.897 381.532 164.848C384 164.75 386.565 163.186 388.501 160.693C387.63 161.084 386.711 161.377 385.694 161.377C382.403 161.377 379.789 159.08 379.789 156.245C379.789 153.41 382.403 151.162 385.694 151.162C388.114 151.162 390.196 152.433 391.115 154.242C391.309 153.215 391.599 152.287 391.599 151.162C391.599 143.245 386.372 137.722 381.532 137.477Z"
      fill="white"
    />
    <path
      d="M319.724 138.21C319.578 138.21 319.433 138.21 319.24 138.21C316.432 138.21 314.303 139.628 312.996 140.898C310.431 143.342 308.93 147.106 308.93 151.162C308.93 155.219 310.431 158.982 312.996 161.426C314.351 162.746 316.481 164.31 319.675 164.065C321.127 163.968 322.483 163.479 323.692 162.697C321.127 162.062 319.24 159.813 319.24 157.027C319.24 153.802 321.902 151.162 325.144 151.162C326.79 151.162 328.242 151.846 329.307 152.922C329.355 152.335 329.597 151.798 329.597 151.162C329.597 144.32 325.144 138.503 319.724 138.21Z"
      fill="white"
    />
  </g>
  <path
    d="M634.068 472.896C634.939 468.544 635.809 464.232 636.679 459.959C637.629 455.607 638.499 451.334 639.291 447.141C642.297 432.107 644.75 417.707 646.649 403.939C645.779 403.781 644.869 403.702 643.919 403.702C642.97 403.623 642.06 403.623 641.19 403.702C639.291 403.86 637.431 403.623 635.611 402.99C635.69 402.357 635.73 401.684 635.73 400.972C635.73 400.181 635.73 399.389 635.73 398.598C635.73 397.728 635.73 396.897 635.73 396.106C635.73 395.235 635.77 394.405 635.849 393.613C635.928 392.743 635.967 391.833 635.967 390.884C635.967 389.855 636.007 388.826 636.086 387.798C638.143 387.956 640.2 388.075 642.258 388.154C644.315 388.233 646.372 388.273 648.429 388.273C654.285 388.273 659.863 388.075 665.164 387.679C670.545 387.283 675.49 386.809 680 386.255L678.694 392.664L677.626 398.242C677.23 400.299 676.874 401.921 676.558 403.108C675.688 403.346 674.817 403.543 673.947 403.702C673.077 403.86 672.206 403.979 671.336 404.058C670.465 404.137 669.555 404.256 668.606 404.414C667.736 404.572 666.865 404.73 665.995 404.889C664.808 410.744 663.819 415.808 663.028 420.08C662.316 424.353 661.643 428.468 661.01 432.424C660.456 436.301 659.784 440.574 658.992 445.242C657.647 453.233 656.46 461.344 655.432 469.572L634.068 472.896Z"
    fill="black"
  />
  <path
    d="M601.251 472.54C601.409 471.195 601.568 469.889 601.726 468.623C601.884 467.357 602.042 466.091 602.201 464.825L602.913 458.179C602.992 457.071 603.071 456.042 603.15 455.093C603.229 454.143 603.308 453.273 603.387 452.482H593.062L588.314 469.573C586.574 469.81 584.516 470.087 582.143 470.403C579.769 470.641 577.553 470.878 575.496 471.116C574.23 471.274 572.964 471.432 571.698 471.59C570.511 471.749 569.285 471.907 568.019 472.065L577.395 440.969C578.503 437.25 579.769 433.017 581.193 428.27C582.617 423.522 584.042 418.656 585.466 413.672C586.969 408.687 588.354 404.018 589.62 399.667C590.965 395.236 592.033 391.517 592.824 388.51C598.205 388.114 603.664 387.64 609.203 387.086C614.821 386.532 620.28 385.78 625.582 384.831C625.186 389.262 624.791 394.286 624.395 399.904C624.078 405.443 623.762 411.179 623.445 417.113C623.208 423.048 622.931 428.903 622.615 434.679C622.456 440.138 622.259 445.796 622.021 451.651C621.784 457.427 621.546 463.361 621.309 469.454C620.122 469.612 618.935 469.77 617.749 469.929C616.562 470.087 615.375 470.245 614.188 470.403C612.21 470.72 610.034 471.076 607.66 471.472C605.286 471.867 603.15 472.223 601.251 472.54ZM595.91 440.613C596.385 440.613 597.255 440.574 598.521 440.495C599.866 440.415 601.132 440.336 602.319 440.257C603.506 440.178 604.218 440.138 604.456 440.138C604.456 439.11 604.614 437.013 604.93 433.848C605.247 430.683 605.563 427.36 605.88 423.878C606.038 421.821 606.196 419.724 606.355 417.588C606.592 415.373 606.829 413.118 607.067 410.823L607.779 400.497L605.999 400.616L603.269 410.823L595.91 440.613Z"
    fill="black"
  />
  <path
    d="M513.141 473.014C514.169 467.555 515.158 462.174 516.108 456.873C517.136 451.493 518.165 446.152 519.194 440.851C520.301 434.283 521.33 428.112 522.279 422.336C523.308 416.559 524.297 410.823 525.247 405.126C526.275 399.429 527.264 393.455 528.214 387.204L547.441 385.899C546.096 391.438 544.751 397.214 543.406 403.227C542.14 409.241 540.953 415.096 539.845 420.793L551.595 419.487C552.149 416.718 552.663 413.988 553.138 411.298C553.692 408.528 554.166 405.799 554.562 403.108C554.958 400.497 555.432 397.847 555.986 395.156C556.619 392.387 557.292 389.618 558.004 386.848C560.852 386.374 563.74 386.018 566.668 385.78C569.596 385.464 572.048 385.266 574.027 385.187C576.005 385.029 576.994 384.949 576.994 384.949C575.965 388.114 574.936 391.833 573.908 396.106C572.879 400.379 571.89 404.889 570.941 409.636C569.991 414.384 569.081 419.131 568.211 423.878C567.341 428.547 566.549 432.899 565.837 436.934C564.967 441.998 564.136 447.101 563.345 452.244C562.554 457.308 561.762 462.491 560.971 467.792L542.456 469.929C543.01 467.555 543.485 465.221 543.88 462.926C544.355 460.552 544.79 458.258 545.186 456.042C545.977 452.244 546.768 448.288 547.56 444.174C548.43 440.059 549.102 436.538 549.577 433.611L538.065 434.679C537.748 436.182 537.432 437.804 537.115 439.545C536.878 441.286 536.561 443.145 536.166 445.123C535.77 447.101 535.374 449.04 534.979 450.939C534.662 452.759 534.346 454.579 534.029 456.398C533.634 458.535 533.199 460.671 532.724 462.807C532.249 464.944 531.814 467.08 531.418 469.217L513.141 473.014Z"
    fill="black"
  />
  <path
    d="M478.596 473.014C473.611 473.014 469.536 470.68 466.371 466.012C463.206 461.344 461.624 454.935 461.624 446.785C461.624 439.347 462.652 432.028 464.709 424.828C466.767 417.548 469.655 411.021 473.373 405.245C477.092 399.469 481.484 394.84 486.548 391.358C491.691 387.798 497.348 386.018 503.52 386.018C507.397 386.018 510.72 387.521 513.489 390.528C516.259 393.534 517.643 397.57 517.643 402.634V404.058C517.643 404.374 517.643 404.651 517.643 404.889C517.643 405.126 517.604 405.403 517.525 405.719L501.977 409.873C501.027 407.895 499.92 406.906 498.654 406.906C496.755 406.906 494.737 408.449 492.601 411.535C490.543 414.621 488.565 418.3 486.666 422.573C485.4 425.421 484.253 428.349 483.224 431.356C482.275 434.362 481.523 437.171 480.969 439.782C480.415 442.393 480.139 444.53 480.139 446.191C480.139 448.644 480.495 450.425 481.207 451.532C481.761 452.561 482.631 453.075 483.818 453.075C485.005 453.075 486.31 452.521 487.734 451.414C489.159 450.227 490.464 448.763 491.651 447.022C492.917 445.281 493.748 443.541 494.144 441.8L507.674 447.26C503.797 456.121 499.168 462.649 493.787 466.843C488.486 470.957 483.422 473.014 478.596 473.014Z"
    fill="black"
  />
  <path
    d="M379.25 473.252C376.322 473.252 373.593 473.014 371.061 472.54C374.858 458.693 377.865 444.767 380.081 430.762C382.375 416.678 384.551 402.515 386.608 388.273C390.723 387.402 394.996 386.651 399.427 386.018C403.857 385.306 408.447 384.949 413.194 384.949C415.805 384.949 418.575 385.424 421.502 386.374C424.43 387.244 426.883 388.866 428.861 391.24C430.918 393.534 431.946 396.818 431.946 401.091C431.946 405.047 431.116 408.687 429.454 412.01C427.792 415.333 425.696 418.182 423.164 420.555C420.632 422.929 418.021 424.63 415.33 425.659C416.438 426.213 417.744 427.202 419.247 428.626C420.75 430.05 422.056 431.949 423.164 434.323C424.271 436.697 424.825 439.585 424.825 442.987C424.825 447.734 423.401 452.047 420.553 455.924C417.783 459.722 414.064 462.887 409.396 465.419C404.886 467.951 400.02 469.889 394.798 471.234C389.576 472.579 384.393 473.252 379.25 473.252ZM400.376 415.927C402.829 415.452 405.163 414.819 407.378 414.028C409.594 413.236 411.374 412.326 412.719 411.298C414.144 410.269 414.856 409.161 414.856 407.975C414.856 406.471 414.262 405.284 413.075 404.414C411.889 403.544 410.464 402.911 408.803 402.515C407.141 402.119 405.598 401.922 404.174 401.922H402.987C402.433 405.087 401.919 407.856 401.444 410.23C400.969 412.524 400.613 414.423 400.376 415.927ZM394.323 449.277C395.905 449.119 397.646 448.842 399.545 448.446C401.444 448.051 403.264 447.457 405.005 446.666C406.745 445.796 408.17 444.688 409.277 443.343C410.464 441.919 411.058 440.218 411.058 438.239C411.058 436.34 410.425 434.837 409.159 433.729C407.893 432.622 406.35 431.83 404.53 431.356C402.789 430.802 401.128 430.525 399.545 430.525H398.596C398.2 430.525 397.884 430.564 397.646 430.644C397.171 433.571 396.618 436.657 395.985 439.901C395.352 443.145 394.798 446.271 394.323 449.277Z"
    fill="black"
  />
  <path
    d="M325.744 472.896L341.292 388.51L378.796 385.305C378.242 387.046 377.768 388.826 377.372 390.646C376.976 392.15 376.581 393.732 376.185 395.394C375.869 396.976 375.592 398.4 375.354 399.666C374.326 399.746 372.862 399.825 370.963 399.904C369.064 399.904 367.125 399.943 365.147 400.022C363.169 400.022 361.468 400.022 360.044 400.022C358.62 400.022 357.868 400.022 357.789 400.022L353.635 421.267L360.519 420.911C361.389 420.832 362.259 420.793 363.13 420.793C364.079 420.793 364.989 420.793 365.86 420.793C366.73 420.793 367.521 420.793 368.233 420.793C368.945 420.793 369.499 420.753 369.895 420.674C369.737 421.782 369.578 422.889 369.42 423.997C369.341 425.026 369.222 426.094 369.064 427.202L367.996 433.729C367.6 433.808 367.086 433.848 366.453 433.848C365.82 433.848 365.068 433.848 364.198 433.848C363.328 433.927 362.418 433.967 361.468 433.967C360.519 433.967 359.609 434.006 358.738 434.085C357.71 434.164 356.642 434.204 355.534 434.204C354.426 434.204 353.239 434.244 351.973 434.323L347.938 456.161L365.266 453.431L364.079 466.961L325.744 472.896Z"
    fill="black"
  />
  <path
    d="M252.445 473.252L261.465 388.985C263.285 388.906 265.065 388.787 266.806 388.629C268.626 388.391 270.366 388.114 272.028 387.798C273.611 387.481 275.233 387.244 276.894 387.086C278.556 386.848 280.178 386.69 281.76 386.611L281.404 388.985C281.325 389.776 281.167 390.686 280.929 391.715C280.771 392.664 280.613 393.772 280.455 395.038C280.059 397.807 279.584 400.972 279.03 404.533C278.477 408.093 277.844 412.049 277.132 416.401C276.657 419.091 276.103 422.336 275.47 426.134C274.916 429.931 274.243 434.244 273.452 439.07H275.233C276.261 435.431 277.211 432.107 278.081 429.101C278.951 426.094 279.703 423.443 280.336 421.149C280.969 418.854 281.562 416.797 282.116 414.977C282.749 413.078 283.264 411.377 283.659 409.874C285.321 404.018 286.666 399.231 287.695 395.513C288.723 391.794 289.396 389.38 289.712 388.273H290.78C292.838 388.273 294.974 388.114 297.189 387.798C299.484 387.481 301.541 387.125 303.361 386.73C303.282 387.046 303.124 388.352 302.886 390.646C302.649 392.941 302.372 395.75 302.056 399.073C301.739 402.396 301.423 405.838 301.106 409.399C300.552 416.124 300.038 421.979 299.563 426.964C299.168 431.949 298.811 435.984 298.495 439.07H300.631L311.907 388.035L319.858 386.967C320.966 386.809 322.114 386.651 323.3 386.492C324.487 386.334 325.714 386.176 326.98 386.018C329.274 385.701 331.45 385.345 333.507 384.949C331.134 391.596 328.76 399.429 326.386 408.449C324.012 417.469 321.639 426.608 319.265 435.866C317.999 440.93 316.733 446.073 315.467 451.295C314.28 456.438 313.093 461.7 311.907 467.08L285.083 471.59L290.306 425.777H288.881L277.132 468.86L252.445 473.252Z"
    fill="black"
  />
  <path
    d="M173.028 472.896L188.576 388.51L226.081 385.305C225.527 387.046 225.052 388.826 224.657 390.646C224.261 392.15 223.865 393.732 223.47 395.394C223.153 396.976 222.876 398.4 222.639 399.666C221.61 399.746 220.147 399.825 218.248 399.904C216.349 399.904 214.41 399.943 212.432 400.022C210.454 400.022 208.753 400.022 207.329 400.022C205.904 400.022 205.153 400.022 205.074 400.022L200.92 421.267L207.803 420.911C208.674 420.832 209.544 420.793 210.414 420.793C211.364 420.793 212.274 420.793 213.144 420.793C214.015 420.793 214.806 420.793 215.518 420.793C216.23 420.793 216.784 420.753 217.179 420.674C217.021 421.782 216.863 422.889 216.705 423.997C216.626 425.026 216.507 426.094 216.349 427.202L215.281 433.729C214.885 433.808 214.371 433.848 213.738 433.848C213.105 433.848 212.353 433.848 211.483 433.848C210.612 433.927 209.702 433.967 208.753 433.967C207.803 433.967 206.893 434.006 206.023 434.085C204.994 434.164 203.926 434.204 202.818 434.204C201.711 434.204 200.524 434.244 199.258 434.323L195.223 456.161L212.551 453.431L211.364 466.961L173.028 472.896Z"
    fill="black"
  />
  <path
    d="M120.877 473.37C119.769 473.37 118.661 473.291 117.554 473.133C116.446 473.054 115.338 472.935 114.23 472.777L120.521 440.85C121.312 436.499 122.143 431.909 123.013 427.083C123.963 422.177 124.873 417.351 125.743 412.603C126.613 407.777 127.365 403.306 127.998 399.192C128.71 395.077 129.264 391.596 129.66 388.747C133.062 388.114 136.504 387.521 139.985 386.967C143.467 386.413 147.027 386.136 150.667 386.136C156.522 386.136 161.151 387.363 164.553 389.815C167.956 392.189 170.409 395.354 171.912 399.31C173.415 403.187 174.167 407.46 174.167 412.128C174.167 416.322 173.573 420.753 172.387 425.421C171.2 430.01 169.499 434.6 167.283 439.189C165.147 443.699 162.575 447.972 159.569 452.007C154.9 458.258 149.203 463.401 142.478 467.436C135.831 471.392 128.631 473.37 120.877 473.37ZM135.001 458.416C137.77 456.596 140.381 453.827 142.834 450.108C145.366 446.389 147.739 441.919 149.955 436.696C151.933 431.87 153.476 427.32 154.584 423.048C155.691 418.696 156.245 415.096 156.245 412.247C156.245 409.32 155.415 407.025 153.753 405.363C152.17 403.702 149.638 402.871 146.157 402.871C144.891 409.676 143.585 415.966 142.24 421.742C140.974 427.518 139.708 433.334 138.442 439.189C137.256 445.044 136.108 451.453 135.001 458.416Z"
    fill="black"
  />
  <path
    d="M70.7721 473.252C65.55 473.252 61.2773 471.234 57.9541 467.199C54.6308 463.164 52.9692 457.071 52.9692 448.921C52.9692 444.411 53.5231 439.664 54.6308 434.679C55.7386 429.694 57.2815 424.788 59.2596 419.962C61.2377 415.135 63.5323 410.665 66.1434 406.55C70.337 399.904 75.1635 394.484 80.6231 390.29C86.0826 386.097 91.8191 384 97.8325 384C102.58 384 106.22 385.226 108.752 387.679C111.363 390.053 113.183 393.139 114.211 396.937C115.24 400.656 115.754 404.533 115.754 408.568C115.754 417.984 114.29 426.767 111.363 434.916C108.514 442.987 104.795 449.831 100.206 455.449C95.6171 461.225 90.7114 465.656 85.4892 468.742C80.3461 471.749 75.4405 473.252 70.7721 473.252ZM77.1812 453.669C80.7418 453.669 83.8672 452.482 86.5574 450.108C89.3267 447.734 91.6609 444.728 93.5599 441.088C95.4588 437.369 96.8831 433.492 97.8325 429.457C98.782 425.421 99.2568 421.782 99.2568 418.538C99.2568 417.272 99.1381 415.927 98.9007 414.502C98.6633 412.999 98.149 411.693 97.3578 410.586C96.5666 409.478 95.3401 408.924 93.6785 408.924C90.0388 408.924 86.7552 410.269 83.8276 412.959C80.9 415.57 78.4472 418.894 76.4691 422.929C74.491 427.043 73.0272 431.079 72.0777 435.035C71.1282 438.991 70.6535 442.591 70.6535 445.835C70.6535 447.497 71.2469 449.238 72.4337 451.058C73.6206 452.798 75.2031 453.669 77.1812 453.669Z"
    fill="black"
  />
  <path
    d="M16.9721 473.014C11.9873 473.014 7.9124 470.68 4.74744 466.012C1.58248 461.344 0 454.935 0 446.785C0 439.347 1.02861 432.028 3.08584 424.828C5.14306 417.548 8.03109 411.021 11.7499 405.245C15.4687 399.469 19.8601 394.84 24.9241 391.358C30.0671 387.798 35.7245 386.018 41.8962 386.018C45.7732 386.018 49.0964 387.521 51.8658 390.528C54.6351 393.534 56.0198 397.57 56.0198 402.634V404.058C56.0198 404.374 56.0198 404.651 56.0198 404.889C56.0198 405.126 55.9802 405.403 55.9011 405.719L40.3532 409.873C39.4037 407.895 38.296 406.906 37.03 406.906C35.1311 406.906 33.1134 408.449 30.977 411.535C28.9198 414.621 26.9417 418.3 25.0427 422.573C23.7768 425.421 22.6295 428.349 21.6009 431.356C20.6514 434.362 19.8997 437.171 19.3458 439.782C18.7919 442.393 18.515 444.53 18.515 446.191C18.515 448.644 18.8711 450.425 19.5832 451.532C20.1371 452.561 21.0074 453.075 22.1943 453.075C23.3811 453.075 24.6867 452.521 26.1109 451.414C27.5351 450.227 28.8407 448.763 30.0276 447.022C31.2935 445.281 32.1243 443.541 32.52 441.8L46.0502 447.26C42.1731 456.121 37.5443 462.649 32.1639 466.843C26.8626 470.957 21.7987 473.014 16.9721 473.014Z"
    fill="black"
  />
  <defs>
    <clipPath id="clip0_0_1">
      <rect
        width="248"
        height="213"
        fill="white"
        transform="translate(216 53.5)"
      />
    </clipPath>
  </defs>
</svg>
