<svg
  width="680"
  height="430"
  viewBox="0 0 680 430"
  fill="none"
  xmlns="http://www.w3.org/2000/svg"
>
  <g clip-path="url(#clip0_863_150)">
    <path
      fill-rule="evenodd"
      clip-rule="evenodd"
      d="M437.871 129.706C454.037 124.965 462.023 138.112 463.668 152.433C464.588 160.351 463.572 168.66 460.909 174.476C459.022 178.582 456.36 182.443 452.633 184.838C450.358 186.304 447.599 187.184 444.84 187.135C441.791 187.037 440.242 186.011 440.242 186.011C439.737 187.944 439.261 189.859 438.789 191.758C436.683 200.231 434.656 208.386 430.465 216.412C425.867 225.258 419.72 233.323 412.46 240.116C384.242 266.461 338.068 271.397 302.057 261.524C271.564 253.166 248.526 230.39 240.249 199.55C238.797 199.745 237.442 199.892 236.667 199.892C224.47 199.892 216 188.406 216 171.984C216 155.561 224.47 144.075 236.667 144.124C237.103 144.124 237.974 144.124 240.636 144.564C240.856 143.696 241.059 142.795 241.263 141.891C241.553 140.607 241.844 139.317 242.185 138.112L288.989 158.396C293.926 183.567 329.888 195.346 343.876 170.713C344.044 170.406 344.477 169.212 344.993 167.785C345.961 165.112 347.224 161.622 347.602 161.622H351.62C354.427 172.961 367.592 183.616 379.402 183.616C400.699 183.616 410.234 169.784 411.686 150.38L434.676 123.596C435.281 124.867 435.777 125.759 436.273 126.651C436.769 127.543 437.265 128.435 437.871 129.706ZM370.883 215.581L382.887 213.577C388.55 212.599 392.325 207.223 391.454 201.553C390.534 195.884 385.21 192.072 379.596 193L317.642 203.411C312.028 204.388 308.253 209.764 309.172 215.434C309.995 220.517 314.351 224.134 319.336 224.134C319.917 224.134 320.45 224.085 321.03 223.987L329.646 222.521L365.91 216.412L370.883 215.581Z"
      fill="white"
    />
    <path
      d="M361.978 59.9597C368.803 67.8776 373.4 76.4797 375.772 89.5785C376.643 94.3684 374.078 99.2069 369.625 101.064C369.383 101.162 369.093 101.26 368.851 101.358C362.898 103.411 356.605 99.4512 355.444 93.2442C355.105 91.4358 354.718 89.6274 354.234 87.9656V87.9167C354.234 87.9167 354.137 87.6235 353.992 87.0858C352.54 81.905 344.505 57.0271 339.568 57.467C339.568 57.467 338.842 57.2226 334.389 57.8091C334.293 57.8091 334.196 57.858 334.099 57.858C334.051 57.858 334.051 57.858 334.002 57.858C332.599 58.0535 330.904 58.2979 329.113 58.64C329.695 59.1288 330.227 59.6175 330.808 60.1552C334.002 63.4299 340.972 71.5433 344.602 91.3869C345.715 97.6428 341.02 103.508 334.777 103.411C334.728 103.411 334.631 103.411 334.583 103.411C329.597 103.313 325.532 99.4024 324.903 94.4172C323.015 78.9236 314.835 65.0916 310.721 63.6254L312.125 62.99C292.038 69.8815 265.756 85.2285 249.736 118.611L291.312 136.597C293.103 132.541 295.62 128.777 298.814 125.698C304.865 119.882 312.754 116.949 320.837 117.389C334.002 118.122 344.747 127.751 348.619 140.703H351.669C353.411 133.616 356.751 127.262 361.687 122.521C367.593 116.9 375.095 114.408 382.645 114.408C392.664 114.408 401.861 120.957 405.394 129.608L425.819 106.489C407.862 80.0477 379.886 64.0653 361.978 59.9597Z"
      fill="white"
    />
    <path
      d="M381.532 137.477C381.435 137.477 381.29 137.477 381.193 137.477C378.87 137.477 377.03 138.601 375.82 139.53C372.674 142.12 370.787 146.47 370.787 151.162C370.787 155.854 372.674 160.204 375.82 162.795C377.03 163.772 379.063 164.896 381.532 164.847C384 164.75 386.565 163.186 388.501 160.693C387.63 161.084 386.711 161.377 385.694 161.377C382.403 161.377 379.789 159.08 379.789 156.245C379.789 153.41 382.403 151.162 385.694 151.162C388.114 151.162 390.196 152.433 391.115 154.241C391.309 153.215 391.599 152.286 391.599 151.162C391.599 143.244 386.372 137.721 381.532 137.477Z"
      fill="white"
    />
    <path
      d="M319.724 138.21C319.578 138.21 319.433 138.21 319.24 138.21C316.432 138.21 314.303 139.627 312.996 140.898C310.431 143.342 308.93 147.105 308.93 151.162C308.93 155.219 310.431 158.982 312.996 161.426C314.351 162.745 316.481 164.31 319.675 164.065C321.127 163.968 322.483 163.479 323.692 162.697C321.127 162.061 319.24 159.813 319.24 157.027C319.24 153.802 321.902 151.162 325.144 151.162C326.79 151.162 328.242 151.846 329.307 152.922C329.355 152.335 329.597 151.797 329.597 151.162C329.597 144.319 325.144 138.503 319.724 138.21Z"
      fill="white"
    />
  </g>
  <path
    d="M634.068 428.896C634.939 424.544 635.809 420.232 636.679 415.959C637.629 411.607 638.499 407.334 639.291 403.141C642.297 388.107 644.75 373.707 646.649 359.939C645.779 359.781 644.869 359.702 643.919 359.702C642.97 359.623 642.06 359.623 641.19 359.702C639.291 359.86 637.431 359.623 635.611 358.99C635.69 358.357 635.73 357.684 635.73 356.972C635.73 356.181 635.73 355.389 635.73 354.598C635.73 353.728 635.73 352.897 635.73 352.106C635.73 351.235 635.77 350.405 635.849 349.613C635.928 348.743 635.967 347.833 635.967 346.884C635.967 345.855 636.007 344.826 636.086 343.798C638.143 343.956 640.2 344.075 642.258 344.154C644.315 344.233 646.372 344.273 648.429 344.273C654.285 344.273 659.863 344.075 665.164 343.679C670.545 343.283 675.49 342.809 680 342.255L678.694 348.664L677.626 354.242C677.23 356.299 676.874 357.921 676.558 359.108C675.688 359.346 674.817 359.543 673.947 359.702C673.077 359.86 672.206 359.979 671.336 360.058C670.465 360.137 669.555 360.256 668.606 360.414C667.736 360.572 666.865 360.73 665.995 360.889C664.808 366.744 663.819 371.808 663.028 376.08C662.316 380.353 661.643 384.468 661.01 388.424C660.456 392.301 659.784 396.574 658.992 401.242C657.647 409.233 656.46 417.344 655.432 425.572L634.068 428.896Z"
    fill="white"
  />
  <path
    d="M601.251 428.54C601.409 427.194 601.568 425.889 601.726 424.623C601.884 423.357 602.042 422.091 602.201 420.825L602.913 414.179C602.992 413.071 603.071 412.042 603.15 411.093C603.229 410.143 603.308 409.273 603.387 408.482H593.062L588.314 425.572C586.574 425.81 584.516 426.087 582.143 426.403C579.769 426.641 577.553 426.878 575.496 427.115C574.23 427.274 572.964 427.432 571.698 427.59C570.511 427.748 569.285 427.907 568.019 428.065L577.395 396.969C578.503 393.25 579.769 389.017 581.193 384.27C582.617 379.522 584.042 374.656 585.466 369.671C586.969 364.686 588.354 360.018 589.62 355.666C590.965 351.235 592.033 347.517 592.824 344.51C598.205 344.114 603.664 343.639 609.203 343.086C614.821 342.532 620.28 341.78 625.582 340.831C625.186 345.262 624.791 350.286 624.395 355.904C624.078 361.442 623.762 367.179 623.445 373.113C623.208 379.047 622.931 384.903 622.615 390.679C622.456 396.138 622.259 401.796 622.021 407.651C621.784 413.427 621.546 419.361 621.309 425.454C620.122 425.612 618.935 425.77 617.749 425.928C616.562 426.087 615.375 426.245 614.188 426.403C612.21 426.72 610.034 427.076 607.66 427.471C605.286 427.867 603.15 428.223 601.251 428.54ZM595.91 396.613C596.385 396.613 597.255 396.573 598.521 396.494C599.866 396.415 601.132 396.336 602.319 396.257C603.506 396.178 604.218 396.138 604.456 396.138C604.456 395.11 604.614 393.013 604.93 389.848C605.247 386.683 605.563 383.36 605.88 379.878C606.038 377.821 606.196 375.724 606.355 373.588C606.592 371.372 606.829 369.117 607.067 366.823L607.779 356.497L605.999 356.616L603.269 366.823L595.91 396.613Z"
    fill="white"
  />
  <path
    d="M513.141 429.014C514.169 423.555 515.158 418.174 516.108 412.873C517.136 407.492 518.165 402.152 519.194 396.85C520.301 390.283 521.33 384.111 522.279 378.335C523.308 372.559 524.297 366.823 525.247 361.126C526.275 355.429 527.264 349.455 528.214 343.204L547.441 341.899C546.096 347.437 544.751 353.213 543.406 359.227C542.14 365.24 540.953 371.095 539.845 376.792L551.595 375.487C552.149 372.718 552.663 369.988 553.138 367.298C553.692 364.528 554.166 361.798 554.562 359.108C554.958 356.497 555.432 353.846 555.986 351.156C556.619 348.387 557.292 345.618 558.004 342.848C560.852 342.373 563.74 342.017 566.668 341.78C569.596 341.464 572.048 341.266 574.027 341.187C576.005 341.028 576.994 340.949 576.994 340.949C575.965 344.114 574.936 347.833 573.908 352.106C572.879 356.378 571.89 360.888 570.941 365.636C569.991 370.383 569.081 375.131 568.211 379.878C567.341 384.547 566.549 388.898 565.837 392.934C564.967 397.998 564.136 403.101 563.345 408.244C562.554 413.308 561.762 418.491 560.971 423.792L542.456 425.928C543.01 423.555 543.485 421.221 543.88 418.926C544.355 416.552 544.79 414.258 545.186 412.042C545.977 408.244 546.768 404.288 547.56 400.174C548.43 396.059 549.102 392.538 549.577 389.61L538.065 390.679C537.748 392.182 537.432 393.804 537.115 395.545C536.878 397.286 536.561 399.145 536.166 401.123C535.77 403.101 535.374 405.04 534.979 406.939C534.662 408.758 534.346 410.578 534.029 412.398C533.634 414.535 533.199 416.671 532.724 418.807C532.249 420.944 531.814 423.08 531.418 425.216L513.141 429.014Z"
    fill="white"
  />
  <path
    d="M478.596 429.014C473.611 429.014 469.536 426.68 466.371 422.012C463.206 417.344 461.624 410.935 461.624 402.785C461.624 395.347 462.652 388.028 464.709 380.828C466.767 373.548 469.655 367.021 473.373 361.245C477.092 355.469 481.484 350.84 486.548 347.358C491.691 343.798 497.348 342.018 503.52 342.018C507.397 342.018 510.72 343.521 513.489 346.528C516.259 349.534 517.643 353.57 517.643 358.634V360.058C517.643 360.374 517.643 360.651 517.643 360.889C517.643 361.126 517.604 361.403 517.525 361.719L501.977 365.873C501.027 363.895 499.92 362.906 498.654 362.906C496.755 362.906 494.737 364.449 492.601 367.535C490.543 370.621 488.565 374.3 486.666 378.573C485.4 381.421 484.253 384.349 483.224 387.356C482.275 390.362 481.523 393.171 480.969 395.782C480.415 398.393 480.139 400.53 480.139 402.191C480.139 404.644 480.495 406.425 481.207 407.532C481.761 408.561 482.631 409.075 483.818 409.075C485.005 409.075 486.31 408.521 487.734 407.414C489.159 406.227 490.464 404.763 491.651 403.022C492.917 401.281 493.748 399.541 494.144 397.8L507.674 403.26C503.797 412.121 499.168 418.649 493.787 422.843C488.486 426.957 483.422 429.014 478.596 429.014Z"
    fill="white"
  />
  <path
    d="M379.25 429.252C376.322 429.252 373.593 429.014 371.061 428.539C374.858 414.693 377.865 400.767 380.081 386.762C382.375 372.678 384.551 358.515 386.608 344.272C390.723 343.402 394.996 342.65 399.427 342.017C403.857 341.305 408.447 340.949 413.194 340.949C415.805 340.949 418.575 341.424 421.502 342.373C424.43 343.244 426.883 344.866 428.861 347.24C430.918 349.534 431.946 352.818 431.946 357.091C431.946 361.047 431.116 364.686 429.454 368.01C427.792 371.333 425.696 374.181 423.164 376.555C420.632 378.929 418.021 380.63 415.33 381.659C416.438 382.212 417.744 383.201 419.247 384.626C420.75 386.05 422.056 387.949 423.164 390.323C424.271 392.696 424.825 395.584 424.825 398.987C424.825 403.734 423.401 408.046 420.553 411.923C417.783 415.721 414.064 418.886 409.396 421.418C404.886 423.95 400.02 425.889 394.798 427.234C389.576 428.579 384.393 429.252 379.25 429.252ZM400.376 371.926C402.829 371.452 405.163 370.819 407.378 370.027C409.594 369.236 411.374 368.326 412.719 367.298C414.144 366.269 414.856 365.161 414.856 363.974C414.856 362.471 414.262 361.284 413.075 360.414C411.889 359.543 410.464 358.91 408.803 358.515C407.141 358.119 405.598 357.921 404.174 357.921H402.987C402.433 361.086 401.919 363.856 401.444 366.229C400.969 368.524 400.613 370.423 400.376 371.926ZM394.323 405.277C395.905 405.119 397.646 404.842 399.545 404.446C401.444 404.051 403.264 403.457 405.005 402.666C406.745 401.796 408.17 400.688 409.277 399.343C410.464 397.918 411.058 396.217 411.058 394.239C411.058 392.34 410.425 390.837 409.159 389.729C407.893 388.621 406.35 387.83 404.53 387.355C402.789 386.802 401.128 386.525 399.545 386.525H398.596C398.2 386.525 397.884 386.564 397.646 386.643C397.171 389.571 396.618 392.657 395.985 395.901C395.352 399.145 394.798 402.27 394.323 405.277Z"
    fill="white"
  />
  <path
    d="M325.744 428.896L341.292 344.51L378.796 341.306C378.242 343.046 377.768 344.827 377.372 346.647C376.976 348.15 376.581 349.732 376.185 351.394C375.869 352.976 375.592 354.401 375.354 355.667C374.326 355.746 372.862 355.825 370.963 355.904C369.064 355.904 367.125 355.944 365.147 356.023C363.169 356.023 361.468 356.023 360.044 356.023C358.62 356.023 357.868 356.023 357.789 356.023L353.635 377.268L360.519 376.911C361.389 376.832 362.259 376.793 363.13 376.793C364.079 376.793 364.989 376.793 365.86 376.793C366.73 376.793 367.521 376.793 368.233 376.793C368.945 376.793 369.499 376.753 369.895 376.674C369.737 377.782 369.578 378.89 369.42 379.997C369.341 381.026 369.222 382.094 369.064 383.202L367.996 389.73C367.6 389.809 367.086 389.848 366.453 389.848C365.82 389.848 365.068 389.848 364.198 389.848C363.328 389.927 362.418 389.967 361.468 389.967C360.519 389.967 359.609 390.006 358.738 390.086C357.71 390.165 356.642 390.204 355.534 390.204C354.426 390.204 353.239 390.244 351.973 390.323L347.938 412.161L365.266 409.431L364.079 422.962L325.744 428.896Z"
    fill="white"
  />
  <path
    d="M252.445 429.252L261.465 344.985C263.285 344.905 265.065 344.787 266.806 344.628C268.626 344.391 270.366 344.114 272.028 343.798C273.611 343.481 275.233 343.244 276.894 343.086C278.556 342.848 280.178 342.69 281.76 342.611L281.404 344.985C281.325 345.776 281.167 346.686 280.929 347.714C280.771 348.664 280.613 349.772 280.455 351.038C280.059 353.807 279.584 356.972 279.03 360.532C278.477 364.093 277.844 368.049 277.132 372.401C276.657 375.091 276.103 378.335 275.47 382.133C274.916 385.931 274.243 390.243 273.452 395.07H275.233C276.261 391.43 277.211 388.107 278.081 385.1C278.951 382.094 279.703 379.443 280.336 377.148C280.969 374.854 281.562 372.797 282.116 370.977C282.749 369.078 283.264 367.377 283.659 365.873C285.321 360.018 286.666 355.231 287.695 351.512C288.723 347.793 289.396 345.38 289.712 344.272H290.78C292.838 344.272 294.974 344.114 297.189 343.798C299.484 343.481 301.541 343.125 303.361 342.73C303.282 343.046 303.124 344.352 302.886 346.646C302.649 348.941 302.372 351.75 302.056 355.073C301.739 358.396 301.423 361.838 301.106 365.399C300.552 372.124 300.038 377.979 299.563 382.964C299.168 387.949 298.811 391.984 298.495 395.07H300.631L311.907 344.035L319.858 342.967C320.966 342.809 322.114 342.65 323.3 342.492C324.487 342.334 325.714 342.176 326.98 342.017C329.274 341.701 331.45 341.345 333.507 340.949C331.134 347.596 328.76 355.429 326.386 364.449C324.012 373.469 321.639 382.608 319.265 391.866C317.999 396.929 316.733 402.073 315.467 407.295C314.28 412.438 313.093 417.699 311.907 423.08L285.083 427.59L290.306 381.777H288.881L277.132 424.86L252.445 429.252Z"
    fill="white"
  />
  <path
    d="M173.028 428.896L188.576 344.51L226.081 341.306C225.527 343.046 225.052 344.827 224.657 346.647C224.261 348.15 223.865 349.732 223.47 351.394C223.153 352.976 222.876 354.401 222.639 355.667C221.61 355.746 220.147 355.825 218.248 355.904C216.349 355.904 214.41 355.944 212.432 356.023C210.454 356.023 208.753 356.023 207.329 356.023C205.904 356.023 205.153 356.023 205.074 356.023L200.92 377.268L207.803 376.911C208.674 376.832 209.544 376.793 210.414 376.793C211.364 376.793 212.274 376.793 213.144 376.793C214.015 376.793 214.806 376.793 215.518 376.793C216.23 376.793 216.784 376.753 217.179 376.674C217.021 377.782 216.863 378.89 216.705 379.997C216.626 381.026 216.507 382.094 216.349 383.202L215.281 389.73C214.885 389.809 214.371 389.848 213.738 389.848C213.105 389.848 212.353 389.848 211.483 389.848C210.612 389.927 209.702 389.967 208.753 389.967C207.803 389.967 206.893 390.006 206.023 390.086C204.994 390.165 203.926 390.204 202.818 390.204C201.711 390.204 200.524 390.244 199.258 390.323L195.223 412.161L212.551 409.431L211.364 422.962L173.028 428.896Z"
    fill="white"
  />
  <path
    d="M120.877 429.37C119.769 429.37 118.661 429.291 117.554 429.133C116.446 429.054 115.338 428.935 114.23 428.777L120.521 396.85C121.312 392.499 122.143 387.909 123.013 383.083C123.963 378.177 124.873 373.351 125.743 368.603C126.613 363.777 127.365 359.306 127.998 355.192C128.71 351.077 129.264 347.596 129.66 344.747C133.062 344.114 136.504 343.521 139.985 342.967C143.467 342.413 147.027 342.136 150.667 342.136C156.522 342.136 161.151 343.363 164.553 345.815C167.956 348.189 170.409 351.354 171.912 355.31C173.415 359.187 174.167 363.46 174.167 368.128C174.167 372.322 173.573 376.753 172.387 381.421C171.2 386.01 169.499 390.6 167.283 395.189C165.147 399.699 162.575 403.972 159.569 408.007C154.9 414.258 149.203 419.401 142.478 423.436C135.831 427.392 128.631 429.37 120.877 429.37ZM135.001 414.416C137.77 412.596 140.381 409.827 142.834 406.108C145.366 402.389 147.739 397.919 149.955 392.696C151.933 387.87 153.476 383.32 154.584 379.048C155.691 374.696 156.245 371.096 156.245 368.247C156.245 365.32 155.415 363.025 153.753 361.363C152.17 359.702 149.638 358.871 146.157 358.871C144.891 365.676 143.585 371.966 142.24 377.742C140.974 383.518 139.708 389.334 138.442 395.189C137.256 401.044 136.108 407.453 135.001 414.416Z"
    fill="white"
  />
  <path
    d="M70.7721 429.252C65.55 429.252 61.2773 427.234 57.9541 423.199C54.6308 419.164 52.9692 413.071 52.9692 404.921C52.9692 400.411 53.5231 395.664 54.6308 390.679C55.7386 385.694 57.2815 380.788 59.2596 375.962C61.2377 371.135 63.5323 366.665 66.1434 362.55C70.337 355.904 75.1635 350.484 80.6231 346.29C86.0826 342.097 91.8191 340 97.8325 340C102.58 340 106.22 341.226 108.752 343.679C111.363 346.053 113.183 349.139 114.211 352.937C115.24 356.656 115.754 360.533 115.754 364.568C115.754 373.984 114.29 382.767 111.363 390.916C108.514 398.987 104.795 405.831 100.206 411.449C95.6171 417.225 90.7114 421.656 85.4892 424.742C80.3461 427.749 75.4405 429.252 70.7721 429.252ZM77.1812 409.669C80.7418 409.669 83.8672 408.482 86.5574 406.108C89.3267 403.734 91.6609 400.728 93.5599 397.088C95.4588 393.369 96.8831 389.492 97.8325 385.457C98.782 381.421 99.2568 377.782 99.2568 374.538C99.2568 373.272 99.1381 371.927 98.9007 370.502C98.6633 368.999 98.149 367.693 97.3578 366.586C96.5666 365.478 95.3401 364.924 93.6785 364.924C90.0388 364.924 86.7552 366.269 83.8276 368.959C80.9 371.57 78.4472 374.894 76.4691 378.929C74.491 383.043 73.0272 387.079 72.0777 391.035C71.1282 394.991 70.6535 398.591 70.6535 401.835C70.6535 403.497 71.2469 405.238 72.4337 407.058C73.6206 408.798 75.2031 409.669 77.1812 409.669Z"
    fill="white"
  />
  <path
    d="M16.9721 429.014C11.9873 429.014 7.9124 426.68 4.74744 422.012C1.58248 417.344 0 410.935 0 402.785C0 395.347 1.02861 388.028 3.08584 380.828C5.14306 373.548 8.03109 367.021 11.7499 361.245C15.4687 355.469 19.8601 350.84 24.9241 347.358C30.0671 343.798 35.7245 342.018 41.8962 342.018C45.7732 342.018 49.0964 343.521 51.8658 346.528C54.6351 349.534 56.0198 353.57 56.0198 358.634V360.058C56.0198 360.374 56.0198 360.651 56.0198 360.889C56.0198 361.126 55.9802 361.403 55.9011 361.719L40.3532 365.873C39.4037 363.895 38.296 362.906 37.03 362.906C35.1311 362.906 33.1134 364.449 30.977 367.535C28.9198 370.621 26.9417 374.3 25.0427 378.573C23.7768 381.421 22.6295 384.349 21.6009 387.356C20.6514 390.362 19.8997 393.171 19.3458 395.782C18.7919 398.393 18.515 400.53 18.515 402.191C18.515 404.644 18.8711 406.425 19.5832 407.532C20.1371 408.561 21.0074 409.075 22.1943 409.075C23.3811 409.075 24.6867 408.521 26.1109 407.414C27.5351 406.227 28.8407 404.763 30.0276 403.022C31.2935 401.281 32.1243 399.541 32.52 397.8L46.0502 403.26C42.1731 412.121 37.5443 418.649 32.1639 422.843C26.8626 426.957 21.7987 429.014 16.9721 429.014Z"
    fill="white"
  />
  <defs>
    <clipPath id="clip0_863_150">
      <rect
        width="248"
        height="213"
        fill="white"
        transform="translate(216 53.5)"
      />
    </clipPath>
  </defs>
</svg>
